<?xml version="1.0" encoding="UTF-8"?>
<svg id="Layer_2" data-name="Layer 2" xmlns="http://www.w3.org/2000/svg" viewBox="0 0 1622 295.9">
  <defs>
    <style>
      .cls-1 {
        fill: #2a4356;
      }

      .cls-2 {
        fill: #283744;
      }
    </style>
  </defs>
  <g id="Layer_5" data-name="Layer 5">
    <g>
      <g>
        <path class="cls-1" d="M1008.26,44.4s17.74-22.63-1.03-44.4c0,0-4.36,11.69-16.54,11.21,0,0-62.87-38.87-76.78,30.43l94.35,2.76Z"/>
        <path class="cls-1" d="M941.9,92.91l.56-3.44c-15.74-2.38-25.1-14.42-28.93-24.59-1.27,2.5-2.93,4.09-4.82,4.13-4.2,.1-7.79-7.28-8.01-16.46-.21-9.19,3.04-16.71,7.24-16.81,2.35-.06,4.49,2.27,5.97,5.89,6.54-15.96,25.58-27.8,48.35-28.33,23.43-.54,43.46,11.02,50.22,27.37,1.27-4.47,3.52-7.44,6.16-7.5,4.2-.1,7.79,7.27,8,16.45,.22,9.18-3.03,16.71-7.23,16.81-2.19,.05-4.2-1.96-5.68-5.18-3.02,10.9-15.3,23.38-27.37,26.8l.89,4.68c9.93,5.26,34.26,30.52,37.8,45.23,5.78,23.91-.98,45.05-9.3,47.05-1.98,.48-4.13-.19-6.35-1.77-8.83,18.68-24.41,31.23-42.46,31.65-18.77,.44-35.46-12.4-44.99-31.91-2.97,3.26-5.97,4.91-8.74,4.37-8.4-1.66-13.5-20.73-8.75-44.86,4.14-20.92,23.86-44.5,37.43-49.6Z"/>
        <path class="cls-1" d="M1009.05,203.9c-22.68,11.7-45.37,12.85-50.69,2.53-5.32-10.31,8.75-28.16,31.43-39.85,22.68-11.7,45.39-12.83,50.7-2.53,5.31,10.31-8.75,28.15-31.44,39.85Z"/>
        <path class="cls-1" d="M927.76,205.76c-24.87-11.47-41.09-29.29-36.24-39.82,4.85-10.53,28.96-9.78,53.83,1.68,24.87,11.48,41.09,29.31,36.24,39.83-4.87,10.54-28.96,9.78-53.83-1.7Z"/>
      </g>
      <g>
        <path class="cls-1" d="M1213.04,83.31c0,19.92-20.9,36.07-46.68,36.07s-46.68-16.15-46.68-36.07,20.9-36.07,46.68-36.07,46.68,16.15,46.68,36.07Z"/>
        <path class="cls-1" d="M1220.44,169.7c0,36.68-24.3,66.42-54.3,66.42s-54.31-29.74-54.31-66.42,24.31-66.42,54.31-66.42,54.3,29.74,54.3,66.42Z"/>
        <path class="cls-1" d="M1125.47,83.31c0,6.99-2.6,12.65-5.8,12.65s-5.8-5.66-5.8-12.65,2.59-12.65,5.8-12.65,5.8,5.67,5.8,12.65Z"/>
        <path class="cls-1" d="M1218.84,83.31c0,6.99-2.61,12.65-5.8,12.65s-5.79-5.66-5.79-12.65,2.6-12.65,5.79-12.65,5.8,5.67,5.8,12.65Z"/>
        <path class="cls-1" d="M1126.04,224.83c23.47,11.43,46.7,12.06,51.9,1.39,5.19-10.66-9.62-28.58-33.09-40-23.47-11.43-46.71-12.05-51.91-1.39-5.18,10.66,9.62,28.58,33.09,40Z"/>
        <path class="cls-1" d="M1209.2,224.8c25.17-12.31,41.33-30.92,36.12-41.58-5.22-10.66-29.85-9.31-54.99,3-25.16,12.33-41.33,30.95-36.11,41.59,5.23,10.65,29.84,9.32,54.99-3.01Z"/>
        <path class="cls-1" d="M1212.27,85.87c0,16.43-8.74,22.51,.5,33.51h-93.11c11.33-12.53,0-20.88,0-33.51,0-26.94,20.73-48.79,46.31-48.79s46.3,21.85,46.3,48.79Z"/>
      </g>
      <g>
        <path class="cls-2" d="M902.01,150.4l-.62-3.34c15.27-2.67,24.11-14.59,27.6-24.58,1.29,2.4,2.95,3.9,4.78,3.9,4.1,0,7.43-7.25,7.43-16.19s-3.33-16.19-7.43-16.19c-2.29,0-4.31,2.3-5.67,5.86-6.73-15.39-25.52-26.47-47.7-26.47s-42.05,11.71-48.26,27.77c-1.33-4.32-3.59-7.15-6.16-7.15-4.11,0-7.42,7.24-7.42,16.19s3.31,16.19,7.42,16.19c2.14,0,4.05-2.01,5.41-5.16,3.19,10.54,15.42,22.4,27.25,25.46l-.76,4.58c-9.54,5.34-32.65,30.48-35.77,44.87-5.09,23.41,1.97,43.82,10.12,45.58,1.93,.43,4.01-.28,6.13-1.86,9.02,17.97,24.47,29.84,42.04,29.84s34.24-12.87,43.07-32.07c2.96,3.11,5.92,4.64,8.6,4.05,8.14-1.81,12.67-20.48,7.5-43.87-4.5-20.26-24.22-42.77-37.55-47.42Z"/>
        <path class="cls-2" d="M840.13,258.42c23.47,11.42,46.7,12.06,51.9,1.39,5.19-10.67-9.62-28.59-33.09-40-23.47-11.43-46.71-12.05-51.9-1.39-5.18,10.66,9.62,28.58,33.09,40Z"/>
        <path class="cls-2" d="M923.29,258.39c25.16-12.31,41.33-30.92,36.11-41.58-5.22-10.65-29.85-9.31-55,3-25.15,12.33-41.32,30.94-36.11,41.59,5.23,10.65,29.84,9.32,54.99-3.02Z"/>
      </g>
      <g>
        <path class="cls-1" d="M1485.78,66.48c0,19.92-20.9,36.07-46.69,36.07s-46.68-16.15-46.68-36.07,20.9-36.07,46.68-36.07,46.69,16.15,46.69,36.07Z"/>
        <path class="cls-1" d="M1493.19,152.86c0,36.68-24.31,66.42-54.3,66.42s-54.31-29.74-54.31-66.42,24.31-66.42,54.31-66.42,54.3,29.74,54.3,66.42Z"/>
        <path class="cls-1" d="M1398.22,66.48c0,6.98-2.6,12.65-5.8,12.65s-5.8-5.67-5.8-12.65,2.59-12.65,5.8-12.65,5.8,5.67,5.8,12.65Z"/>
        <path class="cls-1" d="M1491.58,66.48c0,6.98-2.61,12.65-5.8,12.65s-5.79-5.67-5.79-12.65,2.6-12.65,5.79-12.65,5.8,5.67,5.8,12.65Z"/>
        <path class="cls-1" d="M1398.79,207.99c23.47,11.43,46.7,12.06,51.9,1.39,5.19-10.66-9.62-28.58-33.09-40-23.48-11.43-46.71-12.05-51.91-1.39-5.18,10.66,9.62,28.58,33.09,40Z"/>
        <path class="cls-1" d="M1481.95,207.97c25.17-12.31,41.33-30.92,36.12-41.58-5.22-10.66-29.85-9.31-54.99,3-25.16,12.33-41.33,30.94-36.11,41.59,5.23,10.65,29.84,9.32,54.99-3.01Z"/>
        <path class="cls-1" d="M1485.02,69.03c0,16.43-8.74,22.51,.5,33.52h-93.11c11.34-12.53,0-20.88,0-33.52,0-26.94,20.73-48.79,46.3-48.79s46.3,21.85,46.3,48.79Z"/>
      </g>
      <g>
        <path class="cls-2" d="M1588.74,116.63c0,19.92-20.91,36.07-46.69,36.07s-46.68-16.15-46.68-36.07,20.9-36.08,46.68-36.08,46.69,16.15,46.69,36.08Z"/>
        <path class="cls-2" d="M1596.15,203.01c0,36.68-24.31,66.42-54.3,66.42s-54.31-29.74-54.31-66.42,24.31-66.42,54.31-66.42,54.3,29.74,54.3,66.42Z"/>
        <path class="cls-2" d="M1510.05,90.42s14.86-20.54,24.12-23.61c0,0-.82,13.74,7.88,13.74,0,0,3.32-10.69,26.23-13.74,0,0-2.29,13.74,3.43,19.17,0,0,5.79-3.12,17.02,0,0,0-6.52,6.55-4.42,21.48l-74.26-17.05Z"/>
        <path class="cls-2" d="M1501.18,116.63c0,6.98-2.61,12.65-5.81,12.65s-5.8-5.67-5.8-12.65,2.59-12.65,5.8-12.65,5.81,5.66,5.81,12.65Z"/>
        <path class="cls-2" d="M1594.54,116.63c0,6.98-2.6,12.65-5.8,12.65s-5.79-5.67-5.79-12.65,2.6-12.65,5.79-12.65,5.8,5.66,5.8,12.65Z"/>
        <path class="cls-2" d="M1501.75,258.14c23.47,11.42,46.7,12.06,51.9,1.39,5.19-10.67-9.62-28.59-33.08-40.01-23.48-11.43-46.71-12.05-51.91-1.39-5.18,10.67,9.62,28.58,33.09,40Z"/>
        <path class="cls-2" d="M1584.91,258.11c25.17-12.31,41.33-30.92,36.12-41.57-5.22-10.65-29.84-9.31-55,3-25.16,12.32-41.33,30.94-36.11,41.59,5.23,10.66,29.84,9.32,54.99-3.02Z"/>
      </g>
      <g>
        <path class="cls-2" d="M1157.77,143.59c-10.3-92.76-53.78-39.45-53.78-39.45l.04,.05c-9.09-6.09-21.53-9.84-35.28-9.84s-26.12,3.73-35.21,9.79h0s-43.47-53.31-53.78,39.45c0,0,22.3-39.81,42.07-27.35-1.08,1.9-1.95,3.86-2.53,5.9-.31-.06-.62-.14-.94-.14-4.1,0-7.42,4.95-7.42,11.04s3.32,11.05,7.42,11.05c1.51,0,2.91-.68,4.08-1.83,4.05,6.43,10.92,11.83,19.52,15.51-14.1,11.53-23.6,32.85-23.6,57.33,0,36.68,21.27,66.42,47.53,66.42s47.52-29.74,47.52-66.42c0-23.42-8.69-43.97-21.81-55.8,10.45-3.63,18.81-9.66,23.45-17.04,1.17,1.15,2.57,1.83,4.08,1.83,4.1,0,7.42-4.95,7.42-11.05s-3.32-11.04-7.42-11.04c-.32,0-.63,.08-.94,.14-.59-2.06-1.46-4.04-2.55-5.94l.05,.05c19.77-12.45,42.07,27.35,42.07,27.35Z"/>
        <path class="cls-2" d="M1026.87,271.4c23.46,11.43,46.7,12.06,51.89,1.39,5.19-10.66-9.62-28.58-33.09-40-23.47-11.43-46.71-12.05-51.9-1.39-5.18,10.66,9.63,28.58,33.1,40Z"/>
        <path class="cls-2" d="M1110.02,271.38c25.17-12.31,41.34-30.92,36.12-41.57-5.22-10.66-29.84-9.32-54.99,3-25.16,12.33-41.33,30.94-36.1,41.59,5.22,10.65,29.84,9.31,54.98-3.02Z"/>
      </g>
      <g>
        <path class="cls-2" d="M1362.2,68.52c0,32.41-22.3,58.68-49.81,58.68s-49.8-26.26-49.8-58.68,22.3-58.69,49.8-58.69,49.81,26.27,49.81,58.69Z"/>
        <path class="cls-2" d="M1270.15,88.18c2.85,10.44,1.95,20.17-1.99,21.74-3.95,1.59-9.45-5.59-12.29-16.01-2.85-10.44-1.96-20.15,1.99-21.73,3.95-1.58,9.46,5.59,12.3,16.01Z"/>
        <path class="cls-2" d="M1369.22,94.32c-3.25,10.25-9.04,17.09-12.92,15.29-3.88-1.81-4.38-11.58-1.12-21.83,3.25-10.24,9.03-17.08,12.91-15.29,3.88,1.81,4.39,11.59,1.13,21.83Z"/>
        <path class="cls-2" d="M1363.66,196.68c0,45.03-22.94,81.54-51.26,81.54s-51.27-36.51-51.27-81.54,22.95-81.52,51.27-81.52,51.26,36.51,51.26,81.52Z"/>
        <path class="cls-2" d="M1255.11,173.79c-6.28,25.88-4.44,49.34,4.11,52.4,8.56,3.04,20.59-15.49,26.88-41.37,6.29-25.9,4.45-49.37-4.11-52.41-8.56-3.05-20.59,15.49-26.88,41.38Z"/>
        <path class="cls-2" d="M1338.5,183.68c4.99,26.3,16.1,45.66,24.79,43.23,8.69-2.41,11.68-25.71,6.68-52-5-26.32-16.1-45.66-24.79-43.24-8.69,2.42-11.68,25.7-6.68,52.01Z"/>
        <path class="cls-2" d="M1258.39,281.33c31.41,18.51,62.49,19.52,69.45,2.24,6.94-17.28-12.86-46.29-44.27-64.8-31.42-18.51-62.5-19.51-69.47-2.25-6.93,17.28,12.89,46.3,44.29,64.81Z"/>
        <path class="cls-2" d="M1369.67,279.37c33.69-19.93,55.32-50.09,48.34-67.34-6.98-17.26-39.94-15.11-73.59,4.86-33.67,19.96-55.3,50.12-48.32,67.38,6.99,17.26,39.93,15.07,73.58-4.89Z"/>
      </g>
      <g>
        <path class="cls-1" d="M698,45.4s17.74-22.63-1.03-44.4c0,0-4.36,11.69-16.54,11.21,0,0-62.87-38.87-76.78,30.43l94.35,2.76Z"/>
        <path class="cls-1" d="M631.64,93.91l.56-3.44c-15.74-2.38-25.1-14.42-28.93-24.59-1.27,2.5-2.93,4.09-4.82,4.13-4.2,.1-7.79-7.28-8.01-16.46-.21-9.19,3.04-16.71,7.24-16.81,2.35-.06,4.49,2.27,5.97,5.89,6.54-15.96,25.58-27.8,48.35-28.33,23.43-.54,43.46,11.02,50.22,27.37,1.27-4.47,3.52-7.44,6.16-7.5,4.2-.1,7.79,7.27,8,16.45,.22,9.18-3.03,16.71-7.23,16.81-2.19,.05-4.2-1.96-5.68-5.18-3.02,10.9-15.3,23.38-27.37,26.8l.89,4.68c9.93,5.26,34.26,30.52,37.8,45.23,5.78,23.91-.98,45.05-9.3,47.05-1.98,.48-4.13-.19-6.35-1.77-8.83,18.68-24.41,31.23-42.46,31.65-18.77,.44-35.46-12.4-44.99-31.91-2.97,3.26-5.97,4.91-8.74,4.37-8.4-1.66-13.5-20.73-8.75-44.86,4.14-20.92,23.86-44.5,37.43-49.6Z"/>
        <path class="cls-1" d="M698.78,204.9c-22.68,11.7-45.37,12.85-50.69,2.53-5.32-10.31,8.75-28.16,31.43-39.85,22.68-11.7,45.39-12.83,50.7-2.53,5.31,10.31-8.75,28.15-31.44,39.85Z"/>
        <path class="cls-1" d="M617.49,206.76c-24.87-11.47-41.09-29.29-36.24-39.82,4.85-10.53,28.96-9.78,53.83,1.68,24.87,11.48,41.09,29.31,36.24,39.83-4.87,10.54-28.96,9.78-53.83-1.7Z"/>
      </g>
      <g>
        <path class="cls-1" d="M408.97,84.31c0,19.92,20.9,36.07,46.68,36.07s46.68-16.15,46.68-36.07-20.9-36.07-46.68-36.07-46.68,16.15-46.68,36.07Z"/>
        <path class="cls-1" d="M401.56,170.7c0,36.68,24.3,66.42,54.3,66.42s54.31-29.74,54.31-66.42-24.31-66.42-54.31-66.42-54.3,29.74-54.3,66.42Z"/>
        <path class="cls-1" d="M496.53,84.31c0,6.99,2.6,12.65,5.8,12.65s5.8-5.66,5.8-12.65-2.59-12.65-5.8-12.65-5.8,5.67-5.8,12.65Z"/>
        <path class="cls-1" d="M403.17,84.31c0,6.99,2.61,12.65,5.8,12.65s5.79-5.66,5.79-12.65-2.6-12.65-5.79-12.65-5.8,5.67-5.8,12.65Z"/>
        <path class="cls-1" d="M495.96,225.83c-23.47,11.43-46.7,12.06-51.9,1.39-5.19-10.66,9.62-28.58,33.09-40,23.47-11.43,46.71-12.05,51.91-1.39,5.18,10.66-9.62,28.58-33.09,40Z"/>
        <path class="cls-1" d="M412.8,225.8c-25.17-12.31-41.33-30.92-36.12-41.58,5.22-10.66,29.85-9.31,54.99,3,25.16,12.33,41.33,30.95,36.11,41.59-5.23,10.65-29.84,9.32-54.99-3.01Z"/>
        <path class="cls-1" d="M409.73,86.87c0,16.43,8.74,22.51-.5,33.51h93.11c-11.33-12.53,0-20.88,0-33.51,0-26.94-20.73-48.79-46.31-48.79s-46.3,21.85-46.3,48.79Z"/>
      </g>
      <g>
        <path class="cls-2" d="M720,151.4l.62-3.34c-15.27-2.67-24.11-14.59-27.6-24.58-1.29,2.4-2.95,3.9-4.78,3.9-4.1,0-7.43-7.25-7.43-16.19s3.33-16.19,7.43-16.19c2.29,0,4.31,2.3,5.67,5.86,6.73-15.39,25.52-26.47,47.7-26.47s42.05,11.71,48.26,27.77c1.33-4.32,3.59-7.15,6.16-7.15,4.11,0,7.42,7.24,7.42,16.19s-3.31,16.19-7.42,16.19c-2.14,0-4.05-2.01-5.41-5.16-3.19,10.54-15.42,22.4-27.25,25.46l.76,4.58c9.54,5.34,32.65,30.48,35.77,44.87,5.09,23.41-1.97,43.82-10.12,45.58-1.93,.43-4.01-.28-6.13-1.86-9.02,17.97-24.47,29.84-42.04,29.84s-34.24-12.87-43.07-32.07c-2.96,3.11-5.92,4.64-8.6,4.05-8.14-1.81-12.67-20.48-7.5-43.87,4.5-20.26,24.22-42.77,37.55-47.42Z"/>
        <path class="cls-2" d="M781.88,259.42c-23.47,11.42-46.7,12.06-51.9,1.39-5.19-10.67,9.62-28.59,33.09-40,23.47-11.43,46.71-12.05,51.9-1.39,5.18,10.66-9.62,28.58-33.09,40Z"/>
        <path class="cls-2" d="M698.72,259.39c-25.16-12.31-41.33-30.92-36.11-41.58,5.22-10.65,29.85-9.31,55,3,25.15,12.33,41.32,30.94,36.11,41.59-5.23,10.65-29.84,9.32-54.99-3.02Z"/>
      </g>
      <g>
        <path class="cls-1" d="M136.22,67.48c0,19.92,20.9,36.07,46.69,36.07s46.68-16.15,46.68-36.07-20.9-36.07-46.68-36.07-46.69,16.15-46.69,36.07Z"/>
        <path class="cls-1" d="M128.81,153.86c0,36.68,24.31,66.42,54.3,66.42s54.31-29.74,54.31-66.42-24.31-66.42-54.31-66.42-54.3,29.74-54.3,66.42Z"/>
        <path class="cls-1" d="M223.78,67.48c0,6.98,2.6,12.65,5.8,12.65s5.8-5.67,5.8-12.65-2.59-12.65-5.8-12.65-5.8,5.67-5.8,12.65Z"/>
        <path class="cls-1" d="M130.42,67.48c0,6.98,2.61,12.65,5.8,12.65s5.79-5.67,5.79-12.65-2.6-12.65-5.79-12.65-5.8,5.67-5.8,12.65Z"/>
        <path class="cls-1" d="M223.21,208.99c-23.47,11.43-46.7,12.06-51.9,1.39-5.19-10.66,9.62-28.58,33.09-40,23.48-11.43,46.71-12.05,51.91-1.39,5.18,10.66-9.62,28.58-33.09,40Z"/>
        <path class="cls-1" d="M140.05,208.97c-25.17-12.31-41.33-30.92-36.12-41.58,5.22-10.66,29.85-9.31,54.99,3,25.16,12.33,41.33,30.94,36.11,41.59-5.23,10.65-29.84,9.32-54.99-3.01Z"/>
        <path class="cls-1" d="M136.98,70.03c0,16.43,8.74,22.51-.5,33.52h93.11c-11.34-12.53,0-20.88,0-33.52,0-26.94-20.73-48.79-46.3-48.79s-46.3,21.85-46.3,48.79Z"/>
      </g>
      <g>
        <path class="cls-2" d="M33.26,117.63c0,19.92,20.91,36.07,46.69,36.07s46.68-16.15,46.68-36.07-20.9-36.08-46.68-36.08-46.69,16.15-46.69,36.08Z"/>
        <path class="cls-2" d="M25.85,204.01c0,36.68,24.31,66.42,54.3,66.42s54.31-29.74,54.31-66.42-24.31-66.42-54.31-66.42-54.3,29.74-54.3,66.42Z"/>
        <path class="cls-2" d="M111.95,91.42s-14.86-20.54-24.12-23.61c0,0,.82,13.74-7.88,13.74,0,0-3.32-10.69-26.23-13.74,0,0,2.29,13.74-3.43,19.17,0,0-5.79-3.12-17.02,0,0,0,6.52,6.55,4.42,21.48l74.26-17.05Z"/>
        <path class="cls-2" d="M120.83,117.63c0,6.98,2.61,12.65,5.81,12.65s5.8-5.67,5.8-12.65-2.59-12.65-5.8-12.65-5.81,5.66-5.81,12.65Z"/>
        <path class="cls-2" d="M27.47,117.63c0,6.98,2.6,12.65,5.8,12.65s5.79-5.67,5.79-12.65-2.6-12.65-5.79-12.65-5.8,5.66-5.8,12.65Z"/>
        <path class="cls-2" d="M120.26,259.14c-23.47,11.42-46.7,12.06-51.9,1.39-5.19-10.67,9.62-28.59,33.08-40.01,23.48-11.43,46.71-12.05,51.91-1.39,5.18,10.67-9.62,28.58-33.09,40Z"/>
        <path class="cls-2" d="M37.1,259.11C11.93,246.8-4.24,228.19,.98,217.54c5.22-10.65,29.84-9.31,55,3,25.16,12.32,41.33,30.94,36.11,41.59-5.23,10.66-29.84,9.32-54.99-3.02Z"/>
      </g>
      <g>
        <path class="cls-2" d="M464.23,144.59c10.3-92.76,53.78-39.45,53.78-39.45l-.04,.05c9.09-6.09,21.53-9.84,35.28-9.84s26.12,3.73,35.21,9.79h0s43.47-53.31,53.78,39.45c0,0-22.3-39.81-42.07-27.35,1.08,1.9,1.95,3.86,2.53,5.9,.31-.06,.62-.14,.94-.14,4.1,0,7.42,4.95,7.42,11.04s-3.32,11.05-7.42,11.05c-1.51,0-2.91-.68-4.08-1.83-4.05,6.43-10.92,11.83-19.52,15.51,14.1,11.53,23.6,32.85,23.6,57.33,0,36.68-21.27,66.42-47.53,66.42s-47.52-29.74-47.52-66.42c0-23.42,8.69-43.97,21.81-55.8-10.45-3.63-18.81-9.66-23.45-17.04-1.17,1.15-2.57,1.83-4.08,1.83-4.1,0-7.42-4.95-7.42-11.05s3.32-11.04,7.42-11.04c.32,0,.63,.08,.94,.14,.59-2.06,1.46-4.04,2.55-5.94l-.05,.05c-19.77-12.45-42.07,27.35-42.07,27.35Z"/>
        <path class="cls-2" d="M595.14,272.4c-23.46,11.43-46.7,12.06-51.89,1.39-5.19-10.66,9.62-28.58,33.09-40,23.47-11.43,46.71-12.05,51.9-1.39,5.18,10.66-9.63,28.58-33.1,40Z"/>
        <path class="cls-2" d="M511.98,272.38c-25.17-12.31-41.34-30.92-36.12-41.57,5.22-10.66,29.84-9.32,54.99,3,25.16,12.33,41.33,30.94,36.1,41.59-5.22,10.65-29.84,9.31-54.98-3.02Z"/>
      </g>
      <g>
        <path class="cls-2" d="M254.34,68.36c0,32.41,22.3,58.68,49.81,58.68s49.8-26.26,49.8-58.68-22.3-58.69-49.8-58.69-49.81,26.27-49.81,58.69Z"/>
        <path class="cls-2" d="M346.4,88.02c-2.85,10.44-1.95,20.17,1.99,21.74,3.95,1.59,9.45-5.59,12.29-16.01,2.85-10.44,1.96-20.15-1.99-21.73-3.95-1.58-9.46,5.59-12.3,16.01Z"/>
        <path class="cls-2" d="M247.32,94.16c3.25,10.25,9.04,17.09,12.92,15.29,3.88-1.81,4.38-11.58,1.12-21.83-3.25-10.24-9.03-17.08-12.91-15.29-3.88,1.81-4.39,11.59-1.13,21.83Z"/>
        <path class="cls-2" d="M252.88,196.52c0,45.03,22.94,81.54,51.26,81.54s51.27-36.51,51.27-81.54-22.95-81.52-51.27-81.52-51.26,36.51-51.26,81.52Z"/>
        <path class="cls-2" d="M361.43,173.63c6.28,25.88,4.44,49.34-4.11,52.4-8.56,3.04-20.59-15.49-26.88-41.37-6.29-25.9-4.45-49.37,4.11-52.41,8.56-3.05,20.59,15.49,26.88,41.38Z"/>
        <path class="cls-2" d="M278.04,183.52c-4.99,26.3-16.1,45.66-24.79,43.23-8.69-2.41-11.68-25.71-6.68-52,5-26.32,16.1-45.66,24.79-43.24,8.69,2.42,11.68,25.7,6.68,52.01Z"/>
        <path class="cls-2" d="M358.15,281.17c-31.41,18.51-62.49,19.52-69.45,2.24-6.94-17.28,12.86-46.29,44.27-64.8,31.42-18.51,62.5-19.51,69.47-2.25,6.93,17.28-12.89,46.3-44.29,64.81Z"/>
        <path class="cls-2" d="M246.88,279.21c-33.69-19.93-55.32-50.09-48.34-67.34,6.98-17.26,39.94-15.11,73.59,4.86,33.67,19.96,55.3,50.12,48.32,67.38-6.99,17.26-39.93,15.07-73.58-4.89Z"/>
      </g>
    </g>
  </g>
</svg>