<svg id="Group_27334" data-name="Group 27334" xmlns="http://www.w3.org/2000/svg" xmlns:xlink="http://www.w3.org/1999/xlink" width="209.468" height="184.251" viewBox="0 0 209.468 184.251">
    <defs>
        <clipPath id="clip-path">
            <rect id="Rectangle_10073" data-name="Rectangle 10073" width="209.468" height="184.251" fill="none"/>
        </clipPath>
    </defs>
    <g id="Group_27324" data-name="Group 27324" clip-path="url(#clip-path)">
        <path id="Path_21482" data-name="Path 21482" d="M208.191,40.739C194.816-27.572,134.086,6.582,104.136,25.05-2.276-48.933-38.679,61.963,49.775,145.85c19.441,17.541,32.619,37.421,54.351,38.4a32.41,32.41,0,0,0,20.377-7.218C164,148.291,218.518,79.379,208.191,40.739m-60.135,95.408c-16.966,14.694-36.763,44.482-55.212,29.935a365.246,365.246,0,0,1-32.69-29.988c-79.464-76.919-50.238-167,43.982-93.654,94.444-73.432,123.3,16.938,43.92,93.708" transform="translate(0 0)" fill="#772089"/>
    </g>
</svg>
