<svg id="Group_27327" data-name="Group 27327" xmlns="http://www.w3.org/2000/svg" xmlns:xlink="http://www.w3.org/1999/xlink" width="225.541" height="200.516" viewBox="0 0 225.541 200.516">
    <defs>
        <clipPath id="clip-path">
            <rect id="Rectangle_10073" data-name="Rectangle 10073" width="225.541" height="200.516" fill="none"/>
        </clipPath>
    </defs>
    <g id="Group_27324" data-name="Group 27324" clip-path="url(#clip-path)">
        <path id="Path_21482" data-name="Path 21482" d="M224.166,44.335c-14.4-74.342-79.792-37.172-112.04-17.074C-2.451-53.252-41.647,67.433,53.594,158.726c20.933,19.09,35.122,40.724,58.522,41.79a34.668,34.668,0,0,0,21.941-7.855c42.525-31.279,101.229-106.274,90.11-148.326m-64.749,103.83c-18.268,15.991-39.584,48.408-59.449,32.578a394.838,394.838,0,0,1-35.2-32.636C-20.792,64.4,10.676-33.636,112.126,46.186c101.691-79.915,132.764,18.433,47.291,101.98" transform="translate(0 0)" fill="#772089"/>
        <path id="Path_21483" data-name="Path 21483" d="M160.221,149.041c-18.268,15.991-39.584,48.408-59.449,32.578a394.855,394.855,0,0,1-35.2-32.636C-19.988,65.274,11.48-32.761,112.931,47.061c101.691-79.915,132.764,18.433,47.291,101.98" transform="translate(-0.804 -0.875)" fill="#ee3f6c"/>
        <path id="Path_21484" data-name="Path 21484" d="M107.523,114.85A263.982,263.982,0,0,1,28.912,103.1c15.685,30.473,48.759,63.316,72.5,82.555a19.132,19.132,0,0,0,24.31,0c25.194-20.487,59.822-55,75.068-87.646a260.454,260.454,0,0,1-93.269,16.846" transform="translate(-1.447 -4.907)" fill="#ce2e6f"/>
    </g>
</svg>
