<svg id="Group_27333" data-name="Group 27333" xmlns="http://www.w3.org/2000/svg" xmlns:xlink="http://www.w3.org/1999/xlink" width="384.312" height="99.192" viewBox="0 0 384.312 99.192">
    <defs>
        <clipPath id="clip-path">
            <rect id="Rectangle_10074" data-name="Rectangle 10074" width="384.312" height="99.192" fill="none"/>
        </clipPath>
    </defs>
    <g id="Group_27328" data-name="Group 27328" clip-path="url(#clip-path)">
        <path id="Path_21485" data-name="Path 21485" d="M365.045,13.348C310.337-2.572,235.092,2.427,170.42.288c-55.1-.027-117.662-3.236-156.17,12.4C-2.463,20.754,1.03,28.614.4,36.341A62.983,62.983,0,0,0,1.756,58.58c.593,43.35,83.812,38.962,217.61,40.61,159.144.231,150.345-20.7,163.839-49.838,2.287-10.4,2.982-28.914-18.16-36M329.406,83.219c-31.425,12.914-222.689,7.568-265.613,3.667-47.278-6.528-35.706-36.942-37.906-50.3.67-6.527-2.592-13.833,9.687-19.59,36.689-13.484,105-8.242,155.526-8.614,51.237,1.52,115.257-1.51,155.139,10.263,21.742,7.295,14.577,51.661-16.833,64.574" transform="translate(0 0)" fill="#2f8986"/>
        <path id="Path_21486" data-name="Path 21486" d="M322.476,93.84c-31.425,12.914-222.689,7.568-265.613,3.667-47.278-6.528-35.706-36.942-37.906-50.3.67-6.527-2.592-13.833,9.687-19.59,36.689-13.484,105-8.242,155.526-8.614,51.237,1.52,115.257-1.51,155.139,10.263,21.742,7.295,14.577,51.661-16.833,64.574" transform="translate(6.93 -10.621)" fill="#92d34f"/>
    </g>
</svg>
