<svg id="Component_18_1" data-name="Component 18 – 1" xmlns="http://www.w3.org/2000/svg" xmlns:xlink="http://www.w3.org/1999/xlink" width="36.209" height="34.804" viewBox="0 0 36.209 34.804">
  <defs>
    <clipPath id="clip-path">
      <rect id="Rectangle_10545" data-name="Rectangle 10545" width="36.209" height="34.804" fill="none"/>
    </clipPath>
  </defs>
  <g id="Group_28395" data-name="Group 28395" clip-path="url(#clip-path)">
    <path id="Path_27189" data-name="Path 27189" d="M36.018,13.016a3.778,3.778,0,0,0-3.07-2.588l-7.9-1.149L21.514,2.12a3.8,3.8,0,0,0-6.822,0L11.159,9.279l-7.9,1.149a3.8,3.8,0,0,0-2.107,6.488l5.716,5.573L5.518,30.356a3.8,3.8,0,0,0,5.519,4.01L18.1,30.651l7.065,3.715a3.8,3.8,0,0,0,5.519-4.01l-1.349-7.869,5.718-5.573a3.779,3.779,0,0,0,.961-3.9m-2.584,2.235c-8.194,8.222-6.805,4.084-5.035,15.5a1.481,1.481,0,0,1-2.148,1.56c-.991-.242-7.871-4.855-8.837-3.922L9.955,32.31a1.479,1.479,0,0,1-2.146-1.56c-.076-1.017,2.185-8.986,1-9.616L2.773,15.251a1.48,1.48,0,0,1,.819-2.524c.944-.387,9.222-.7,9.455-2.021l3.73-7.557a1.481,1.481,0,0,1,2.655,0l3.729,7.556c.2,1.306,8.562,1.656,9.453,2.022a1.48,1.48,0,0,1,.821,2.524" transform="translate(0.001)" fill="#f26d6d"/>
    <path id="Path_27190" data-name="Path 27190" d="M41.313,35.042c-1.177.6,1.072,8.656,1,9.616a1.48,1.48,0,0,1-2.148,1.56c-10.3-5.244-6.037-5.2-16.3,0a1.48,1.48,0,0,1-2.146-1.56l1.425-8.306c.6-1.176-5.954-6.374-6.46-7.193a1.479,1.479,0,0,1,.819-2.524l8.341-1.211a1.482,1.482,0,0,0,1.114-.81l3.73-7.556a1.481,1.481,0,0,1,2.655,0c.659.778,3.514,8.555,4.843,8.367l8.34,1.211a1.48,1.48,0,0,1,.82,2.524Z" transform="translate(-13.912 -13.907)" fill="#ffce55"/>
    <path id="Path_27191" data-name="Path 27191" d="M73.571,152.865a1.473,1.473,0,0,1,.015-.571,34.539,34.539,0,0,1-17.793-.078c.318-.082-1.416,8.746-1.388,8.955a1.479,1.479,0,0,0,2.146,1.56c10.288-5.232,6.03-5.211,16.3,0A1.481,1.481,0,0,0,75,161.171Z" transform="translate(-46.596 -130.421)" fill="#ff9b57"/>
  </g>
</svg>
