<?xml version="1.0" encoding="UTF-8"?>
<svg xmlns="http://www.w3.org/2000/svg" viewBox="0 0 319.54 508.78">
  <defs>
    <style>
      .cls-1 {
        fill: #e4943f;
        mix-blend-mode: darken;
        opacity: .64;
      }

      .cls-2, .cls-3 {
        fill: #7f5132;
      }

      .cls-4 {
        fill: #945f37;
      }

      .cls-5 {
        fill: #9e6f4f;
      }

      .cls-6 {
        fill: #543115;
      }

      .cls-7 {
        fill: #553214;
      }

      .cls-8 {
        isolation: isolate;
      }

      .cls-3 {
        opacity: .47;
      }
    </style>
  </defs>
  <g class="cls-8">
    <g id="Layer_2" data-name="Layer 2">
      <g id="_ÎÓÈ_2" data-name="—ÎÓÈ_2">
        <g>
          <path class="cls-2" d="M159.75,508.78h0c-37.26,0-68.05-29.08-70.17-66.28l-17.95-314.12H241.9l-11.92,312.79c-1.44,37.75-32.46,67.61-70.24,67.61Z"/>
          <path class="cls-5" d="M89.58,442.5c2.13,37.2,32.91,66.28,70.17,66.28h0c2.62,0,5.21-.16,7.76-.44,11.22-11.95,18.33-27.83,19-45.44l11.92-312.79H72.87l16.71,292.39Z"/>
          <path class="cls-7" d="M223.32,468.49v-11.58h4.26c.42-1.55,.79-3.11,1.11-4.7h-5.37v-37.65h7.69l.18-4.7h-7.86v-37.65h9.3l.18-4.7h-9.48v-37.65h10.91l.18-4.7h-11.09v-37.65h12.53l.18-4.7h-12.7v-37.65h14.14l.18-4.7h-14.32v-37.65h15.75l.18-4.7h-15.93v-37.65h17.37l.18-4.7h-17.54v-23.1h-4.7v23.1h-37.65v-23.1h-4.7v23.1h-37.65v-23.1h-4.7v23.1h-37.65v-23.1h-4.7v23.1h-18.38l.27,4.7h18.11v37.65h-15.96l.27,4.7h15.69v37.65h-13.54l.27,4.7h13.27v37.65h-11.12l.27,4.7h10.85v37.65h-8.7l.27,4.7h8.43v37.65h-6.28l.27,4.7h6.01v37.65h-3.86l.27,4.7h3.59v37.65h-.76c1.15,5.79,2.99,11.32,5.45,16.49v-11.79h37.65v37.65h-16.54c2.24,1.7,4.58,3.27,7.02,4.7h9.51v4.61c1.54,.61,3.11,1.16,4.7,1.66v-6.27h37.65v7.56c1.59-.38,3.15-.82,4.7-1.31v-6.25h14.12c2.44-1.42,4.78-3,7.03-4.7h-21.15v-37.65h37.65v19.99c1.75-2.68,3.32-5.49,4.7-8.4Zm-89.39-16.28h-37.65v-37.65h37.65v37.65Zm0-42.35h-37.65v-37.65h37.65v37.65Zm0-42.35h-37.65v-37.65h37.65v37.65Zm0-42.35h-37.65v-37.65h37.65v37.65Zm0-42.35h-37.65v-37.65h37.65v37.65Zm0-42.35h-37.65v-37.65h37.65v37.65Zm0-42.35h-37.65v-37.65h37.65v37.65Zm42.35,296.43h-37.65v-37.65h37.65v37.65Zm0-42.35h-37.65v-37.65h37.65v37.65Zm0-42.35h-37.65v-37.65h37.65v37.65Zm0-42.35h-37.65v-37.65h37.65v37.65Zm0-42.35h-37.65v-37.65h37.65v37.65Zm0-42.35h-37.65v-37.65h37.65v37.65Zm0-42.35h-37.65v-37.65h37.65v37.65Zm0-42.35h-37.65v-37.65h37.65v37.65Zm4.7-37.65h37.65v37.65h-37.65v-37.65Zm0,42.35h37.65v37.65h-37.65v-37.65Zm0,42.35h37.65v37.65h-37.65v-37.65Zm0,42.35h37.65v37.65h-37.65v-37.65Zm0,42.35h37.65v37.65h-37.65v-37.65Zm0,42.35h37.65v37.65h-37.65v-37.65Zm0,80v-37.65h37.65v37.65h-37.65Z"/>
          <path class="cls-6" d="M10.33,14.6S27.51,97.51,42.64,124.76c18.11,32.61,58.7,57.97,115.93,57.97s82.56-14.13,105.06-39.85c25.36-28.98,45.56-120.63,45.56-120.63,0,0-65.12,19.86-149.44,19.86C70.74,42.09,10.33,14.6,10.33,14.6Z"/>
          <path class="cls-1" d="M156.75,44.26c-28.29,0-54.09-4.08-75.71-9.38C37.03,26.74,10.33,14.6,10.33,14.6c0,0,1.15,6.31,3.04,16.25,20.25,9.57,74.38,31.61,143.38,31.61s129.77-19.62,149.8-27.14c1.67-8.09,2.65-13.09,2.65-13.09,0,0-35.25,10.75-87.46,16.43-19.68,3.29-41.75,5.6-64.99,5.6Z"/>
          <path class="cls-4" d="M156.76,52.79C70.51,52.79,7.44,18.33,4.8,16.86,.07,14.24-1.42,8.63,1.48,4.35,4.38,.06,10.56-1.28,15.29,1.34c.68,.38,61.16,33.25,141.46,33.25S304.55,6.61,305.22,6.33c5.02-2.13,11.01-.18,13.36,4.37,2.36,4.55,.21,9.96-4.81,12.1-2.87,1.22-71.35,29.99-157.01,29.99Z"/>
          <path class="cls-3" d="M214.88,175.77c-14.74,4.58-32.84,6.96-56.31,6.96-57.23,0-97.82-25.36-115.93-57.97-8.03-14.46-16.64-44.61-22.95-69.72,0,0,70.05,33.49,128.02,37.12s65.51,62.17,67.17,83.62Z"/>
        </g>
      </g>
    </g>
  </g>
</svg>