<svg xmlns="http://www.w3.org/2000/svg" width="27.281" height="26.995" viewBox="0 0 27.281 26.995">
  <g id="Group_27840" data-name="Group 27840" transform="translate(-6296.937 -3379.853)">
    <path id="Path_26364" data-name="Path 26364" d="M155.043,67.357A27.745,27.745,0,0,1,151.7,68.64c-1.972.588-3.9.434-5.737,2.264,0,0-1.394-2.682-3.706-3.185a6,6,0,0,1-3.782-2.261c-.351-.53-.308-1.272-1.149-1.047s-.63.544-.63.544a3.2,3.2,0,0,1,.784,2.106c-.137,1.425-.906,4.617.7,6.588,0,0-3.735,0-4.9,1.568s-1.954,2-2.676,2.056-1.547.2-1.547.2c-.08.454.6,1.136,1.117,1.228a5.656,5.656,0,0,1,2.3,1.063,8.631,8.631,0,0,0,3.6,1.761,17.889,17.889,0,0,0,2.032.078,6.04,6.04,0,0,0-.239,2.862c.263,1.085,1.027,2.242.818,3.423s-.255,2.952.3,3.332a.909.909,0,0,0,1.083-.089,1.282,1.282,0,0,1,.241-1.362A19.206,19.206,0,0,1,143.742,87a10.234,10.234,0,0,0,2.206-2.42s2.912,1.639,4.255,1.6,2.738.109,3.245.762,1.069,1.5,1.328,1.546.867-.877.548-1.589-1.3-1.728-1.518-2.985a9.725,9.725,0,0,0-1.207-4.241,13.77,13.77,0,0,0-1.49-2.137,5.269,5.269,0,0,0,2.216-2.981c.424-1.892.422-3.392,1.062-4.5s1.9-1.164,1.944-1.436-.913-1.379-1.289-1.259" transform="translate(6167.884 3315.483)" fill="#fcd101"/>
    <path id="Path_26365" data-name="Path 26365" d="M150.739,73.718a22.263,22.263,0,0,0-2.779,2.132,17.589,17.589,0,0,1-.59-1.7c-.216-.788-1.9-1.835-3.161-2.245a16.8,16.8,0,0,1-3.312-1.9s-.2,2.12-.157,3.907a7.923,7.923,0,0,0,1.476,3.727,20.829,20.829,0,0,0-3.611.3,5.167,5.167,0,0,0-2.935,2.01,2.857,2.857,0,0,1-1.912,1.255c.911-.12,2.028,1.108,3.366,2.094s4.771.188,4.771.188-.745,3.709.011,4.967a9.005,9.005,0,0,1,.764,3.227,21.077,21.077,0,0,0,2.779-2.132,10.907,10.907,0,0,0,2.566-3.949s3.1,2.608,4.768,2.717c1.137.074,2.895.231,2.895.231s-.433-1.575-1.121-4.226a5.658,5.658,0,0,0-3.368-3.593,8.867,8.867,0,0,0,3.71-3.372,13.146,13.146,0,0,0,.9-5.087s-3.882.689-5.059,1.448" transform="translate(6165.222 3312.292)" fill="#fae60e"/>
    <path id="Path_26366" data-name="Path 26366" d="M143.189,92.541a9.788,9.788,0,0,0-3.561,1.525,4.589,4.589,0,0,0,2.8.776c2.032.078,5-1.084,5.469-1.75a10.972,10.972,0,0,0-4.706-.551" transform="translate(6161.903 3299.604)" fill="#faf99d"/>
    <path id="Path_26367" data-name="Path 26367" d="M152.717,75.417a25.782,25.782,0,0,0,.818,3.423c.666,2.273,2.278,3.213,2.742,3.108a6.845,6.845,0,0,0-.958-3.636,15.711,15.711,0,0,0-2.6-2.9" transform="translate(6154.5 3309.235)" fill="#faf99d"/>
    <path id="Path_26368" data-name="Path 26368" d="M157.461,96.992c-.55.09-1.916,2.284-2.055,3.571a15.788,15.788,0,0,0,.479,3.832s2.3-2.965,2.468-4.9-.343-2.59-.892-2.5" transform="translate(6152.991 3297.037)" fill="#faf99d"/>
    <path id="Path_26369" data-name="Path 26369" d="M164.557,97.3c-.269.514.994,2.424,3.022,3.532a13.342,13.342,0,0,0,3.667,1.4,10.145,10.145,0,0,0-3.028-4,5.267,5.267,0,0,0-3.661-.928" transform="translate(6147.824 3296.882)" fill="#faf99d"/>
    <path id="Path_26370" data-name="Path 26370" d="M165.913,82.618c-1.5,1.421-2.46,2.844-2.432,3.692.025.742,3.088-.859,4.552-2.1a9.428,9.428,0,0,0,2.265-3.253s-2.889.239-4.385,1.66" transform="translate(6148.413 3306.101)" fill="#faf99d"/>
    <path id="Path_26371" data-name="Path 26371" d="M167.217,86.347c.176.976,3.254-1.3,3.425-2.767,0,0-3.739,1.025-3.425,2.767" transform="translate(6146.31 3304.618)" fill="#c6971a"/>
  </g>
</svg>
