<svg id="Group_27918" data-name="Group 27918" xmlns="http://www.w3.org/2000/svg" xmlns:xlink="http://www.w3.org/1999/xlink" width="173" height="313.873" viewBox="0 0 173 313.873">
  <defs>
    <clipPath id="clip-path">
      <rect id="Rectangle_10231" data-name="Rectangle 10231" width="173" height="313.873" fill="none"/>
    </clipPath>
    <clipPath id="clip-path-3">
      <rect id="Rectangle_10229" data-name="Rectangle 10229" width="173" height="40.234" fill="none"/>
    </clipPath>
  </defs>
  <g id="Group_27770" data-name="Group 27770" clip-path="url(#clip-path)">
    <g id="Group_27769" data-name="Group 27769">
      <g id="Group_27768" data-name="Group 27768" clip-path="url(#clip-path)">
        <g id="Group_27767" data-name="Group 27767" transform="translate(0 273.639)" opacity="0.3">
          <g id="Group_27766" data-name="Group 27766">
            <g id="Group_27765" data-name="Group 27765" clip-path="url(#clip-path-3)">
              <path id="Path_25614" data-name="Path 25614" d="M173,190.075c0,11.109-38.728,20.117-86.5,20.117S0,201.185,0,190.075s38.728-20.117,86.5-20.117,86.5,9.007,86.5,20.117" transform="translate(0 -169.958)" fill="#bcbcbc"/>
            </g>
          </g>
        </g>
        <path id="Path_25615" data-name="Path 25615" d="M48.221,61.753S24.079,64.168,25.476,78.784s.166,47.829,7.989,59.972c3.26,5.059,42.985.832,53.373-2.3s10.654-12.79,9.5-22.7-4.362-33.408-7.852-44.03c-2.236-6.8-18.778-10.378-40.261-7.975" transform="translate(15.506 37.215)" fill="#f89927"/>
        <path id="Path_25616" data-name="Path 25616" d="M49.869,61.671S25.728,64.084,27.124,78.7s.164,47.829,7.989,59.972c3.259,5.059,42.983.832,53.371-2.3s10.655-12.79,9.5-22.7-4.36-33.408-7.851-44.03c-2.236-6.8-18.778-10.378-40.261-7.973" transform="translate(16.511 37.164)" fill="#f26952"/>
        <path id="Path_25617" data-name="Path 25617" d="M57.9,163.712l1.027,18.348c8.741,4.978,21.022,1.106,21.022,1.106,1.389-3.474,2.439-15.183,3.028-23.415-7.688,3.18-16.612,4.286-25.078,3.961" transform="translate(35.319 97.454)" fill="#f9c1b9"/>
        <path id="Path_25618" data-name="Path 25618" d="M57.446,154.165l.725,12.954c8.466.325,17.39-.781,25.078-3.961.348-4.877.536-8.533.536-8.533Z" transform="translate(35.044 94.046)" fill="#ed9996"/>
        <path id="Path_25619" data-name="Path 25619" d="M94.489,179.342s.333,3.028-4.315,4.086a65.228,65.228,0,0,1-20.692,1.059c-7.3-1-10.621-1.769-10.621-1.769a24.843,24.843,0,0,1-.5-3.376c-.174-2.025,36.129,0,36.129,0" transform="translate(35.601 108.856)" fill="#3a308f"/>
        <path id="Path_25620" data-name="Path 25620" d="M85.816,181.126c.494,2.227-5.609,3.592-13.239,3.977a25.6,25.6,0,0,1,5.072-9.585c3.7,1.34,7.653,3.288,8.168,5.608" transform="translate(44.275 107.072)" fill="#3a308f"/>
        <path id="Path_25621" data-name="Path 25621" d="M58.73,173.607a33.208,33.208,0,0,0,21.022,1.106,61.634,61.634,0,0,1,6.659,1.972,25.594,25.594,0,0,0-5.072,9.583c-7.727.388-17.015-.229-22.61-1.984,0,0-1.162-6.252,0-10.678" transform="translate(35.512 105.907)" fill="#f26952"/>
        <path id="Path_25622" data-name="Path 25622" d="M72.626,177.85c1.56-.386,3.481-.852,4.429-2.257.409-.605.092-1.348-.67-1.142a3.692,3.692,0,0,0-1.349,1.055,14.462,14.462,0,0,0-1.979,2.789c-.246-.143-.491-.285-.734-.43.58-.953,1.177-1.889,1.694-2.882.188-.361,1.8-4.452.052-3.512-.9.486-.858,2.655-.9,3.492a29.169,29.169,0,0,0,.027,3.117c.031.646-.984.646-1,0-.056-1.679-.53-7.649,2.264-7.53,3.523.155-.744,6.643-1.4,7.744a.426.426,0,0,1-.734-.43,10.778,10.778,0,0,1,3.492-4.007c.63-.37,1.872-.464,2.2.369,1.119,2.818-3.5,3.977-5.328,4.093a.24.24,0,0,1-.064-.469" transform="translate(43.999 104.04)" fill="#3a308f"/>
        <path id="Path_25623" data-name="Path 25623" d="M58.858,154.165l-26.337.46s.32,6.265.906,13.328c8.672-.074,17.279-2.734,25.041-6.814Z" transform="translate(19.839 94.046)" fill="#ed9996"/>
        <path id="Path_25624" data-name="Path 25624" d="M33.083,165.312c.615,7.446,1.523,15.78,2.658,18.618,0,0,12.281,3.874,21.024-1.106l1.36-24.328c-7.764,4.08-16.369,6.741-25.043,6.815" transform="translate(20.182 96.689)" fill="#f9c1b9"/>
        <path id="Path_25625" data-name="Path 25625" d="M25.527,179.342s-.332,3.028,4.315,4.086a65.22,65.22,0,0,0,20.691,1.059c7.3-1,10.623-1.769,10.623-1.769a24.975,24.975,0,0,0,.5-3.376c.172-2.025-36.131,0-36.131,0" transform="translate(15.569 108.856)" fill="#3a308f"/>
        <path id="Path_25626" data-name="Path 25626" d="M25.536,181.126c-.494,2.227,5.609,3.592,13.239,3.977a25.577,25.577,0,0,0-5.072-9.585c-3.7,1.34-7.653,3.288-8.168,5.608" transform="translate(15.561 107.072)" fill="#3a308f"/>
        <path id="Path_25627" data-name="Path 25627" d="M58.281,173.607a33.214,33.214,0,0,1-21.024,1.106,61.634,61.634,0,0,0-6.659,1.972,25.594,25.594,0,0,1,5.072,9.583c7.725.388,17.016-.229,22.611-1.984,0,0,1.159-6.252,0-10.678" transform="translate(18.666 105.907)" fill="#f26952"/>
        <path id="Path_25628" data-name="Path 25628" d="M36,177.85c-1.56-.386-3.481-.852-4.429-2.257-.411-.605-.092-1.348.67-1.142a3.679,3.679,0,0,1,1.349,1.055,14.54,14.54,0,0,1,1.98,2.789c.245-.143.489-.285.734-.43-.581-.953-1.179-1.889-1.694-2.882-.188-.361-1.8-4.452-.052-3.512.9.486.857,2.655.9,3.492a29.6,29.6,0,0,1-.026,3.117c-.032.646.982.646,1,0,.056-1.679.531-7.649-2.265-7.53-3.521.155.745,6.643,1.4,7.744a.426.426,0,0,0,.734-.43,10.807,10.807,0,0,0-3.492-4.007c-.631-.37-1.874-.464-2.2.369-1.121,2.818,3.5,3.977,5.328,4.093A.239.239,0,0,0,36,177.85" transform="translate(18.566 104.04)" fill="#3a308f"/>
        <path id="Path_25629" data-name="Path 25629" d="M89.675,31.092c-.019.114-.032.2-.032.2s.013-.082.032-.2" transform="translate(54.685 18.967)" fill="#f9c1b9"/>
        <path id="Path_25630" data-name="Path 25630" d="M70.792,66.406l5.291,28.965c6.558-5.654,15.687-20.111,22.4-35.68-8.313,5.192-17.651,7.965-27.689,6.715" transform="translate(43.186 36.414)" fill="#ed9996"/>
        <path id="Path_25631" data-name="Path 25631" d="M105.117,25.734c-2.14-.153-3.574,8.311-3.787,9.652-.019.114-.032.2-.032.2s.013-.084.032-.2c.222-1.423,1.6-10.852-.861-11.314-2.655-.5-4.481,10.126-4.481,10.126s1.494-9.958-1.162-10.124-3.152,11.509-3.152,11.509-.663-5.2-3.52-3.1S91.01,44.156,91.01,44.156s0,1.66-2.613,10.8S70.538,85.9,70.538,85.9l.409,2.244c10.039,1.249,19.377-1.525,27.691-6.715a134.259,134.259,0,0,0,6.479-18.354c5.643-21.246,2.323-37.177,0-37.343" transform="translate(43.031 14.675)" fill="#f9c1b9"/>
        <path id="Path_25632" data-name="Path 25632" d="M8.3,41.882c.853,5.7,6.778,11.246,18.311,7.013V40.839A17.7,17.7,0,0,0,8.3,41.882" transform="translate(5.063 23.655)" fill="#f9c1b9"/>
        <path id="Path_25633" data-name="Path 25633" d="M11.714,36.284c-2.706,1.565-3.858,4.851-3.375,8.092a17.7,17.7,0,0,1,18.311-1.043V37.78s-7.467-5.809-14.936-1.5" transform="translate(5.022 21.162)" fill="#ed9996"/>
        <path id="Path_25634" data-name="Path 25634" d="M11.811,40.006c3.061.013,7.112-1.468,9.266,1.583,1.362,1.926,1.175,4.589,1.246,6.828a.333.333,0,0,0,.665,0c.069-2.563.014-5.772-1.922-7.719-2.378-2.389-6.369-1.629-9.283-.906a.109.109,0,0,0,.029.214" transform="translate(7.14 23.839)" fill="#8e4f4f"/>
        <path id="Path_25635" data-name="Path 25635" d="M15.131,41.975c1.323-.605,2.475-.745,3.613.3a20.349,20.349,0,0,1,1.811,2.336c.274.335.71-.093.557-.43-1.138-2.508-3.734-4.618-6.287-2.6-.24.19.066.506.306.4" transform="translate(8.991 24.873)" fill="#8e4f4f"/>
        <path id="Path_25636" data-name="Path 25636" d="M89.561,41.882c-.852,5.7-6.777,11.246-18.311,7.013V40.839a17.7,17.7,0,0,1,18.311,1.043" transform="translate(43.465 23.655)" fill="#f9c1b9"/>
        <path id="Path_25637" data-name="Path 25637" d="M86.188,36.284c2.708,1.565,3.858,4.851,3.373,8.092A17.7,17.7,0,0,0,71.25,43.333V37.78s7.469-5.809,14.938-1.5" transform="translate(43.465 21.162)" fill="#ed9996"/>
        <path id="Path_25638" data-name="Path 25638" d="M83.421,39.791c-2.913-.723-6.905-1.481-9.282.908-1.935,1.945-1.992,5.159-1.922,7.719a.333.333,0,0,0,.665,0c.071-2.26-.1-4.875,1.245-6.83,2.122-3.077,6.232-1.568,9.266-1.581a.111.111,0,0,0,.029-.216" transform="translate(44.044 23.839)" fill="#8e4f4f"/>
        <path id="Path_25639" data-name="Path 25639" d="M78.523,41.579c-2.552-2.017-5.149.09-6.286,2.6-.151.333.28.768.557.43a20.336,20.336,0,0,1,1.81-2.336c1.138-1.043,2.285-.906,3.613-.3.237.108.549-.2.306-.4" transform="translate(44.049 24.873)" fill="#8e4f4f"/>
        <path id="Path_25640" data-name="Path 25640" d="M40.835,68.239a8.036,8.036,0,0,1-.76,2.088s6.638,7.746,21.243,1.549a58.177,58.177,0,0,1,.116-7.562,80.714,80.714,0,0,0-20.6,3.925" transform="translate(24.447 39.234)" fill="#f9c1b9"/>
        <path id="Path_25641" data-name="Path 25641" d="M63.005,59.314l-22.93,1.892s1.774,5.674.76,10.084a80.641,80.641,0,0,1,20.6-3.924,31.872,31.872,0,0,1,1.57-8.052" transform="translate(24.447 36.184)" fill="#ed9996"/>
        <path id="Path_25642" data-name="Path 25642" d="M18.939,50.747S18.5,66.392,22.257,74.137,38.633,90.513,55.451,92.062s39.169-3.983,44.26-16.153,7.079-20.581,5.532-32.974S103.031,25.012,91.522,19.48,17.388-14.028,18.939,50.747" transform="translate(11.536 5.327)" fill="#f9c1b9"/>
        <path id="Path_25643" data-name="Path 25643" d="M36.07,39.527a2.773,2.773,0,0,1-2.489,2.988,2.773,2.773,0,0,1-2.489-2.988,2.771,2.771,0,0,1,2.489-2.987,2.771,2.771,0,0,1,2.489,2.987" transform="translate(18.967 22.291)" fill="#111"/>
        <path id="Path_25644" data-name="Path 25644" d="M61.429,39.527a2.531,2.531,0,1,1-4.978,0,2.531,2.531,0,1,1,4.978,0" transform="translate(34.437 22.291)" fill="#111"/>
        <path id="Path_25645" data-name="Path 25645" d="M44.807,34.906a39.567,39.567,0,0,0-.836,4.193,4.639,4.639,0,0,0,.018,2.893,1.782,1.782,0,0,0,1.649,1.066,2.555,2.555,0,0,0,1-.462c.175-.1.37-.341.564-.388q.93-.753.855.832.993,1.285-.559,1.645c-.477.179-.269.95.211.768a2.74,2.74,0,0,0,1.976-2.608,1.807,1.807,0,0,0-1.86-1.641c-.67.042-.972.551-1.542.781-2.32.942-1.855-1.834-1.633-2.953.232-1.166,1.067-3.02.427-4.162a.152.152,0,0,0-.274.035" transform="translate(26.684 21.228)" fill="#8e4f4f"/>
        <path id="Path_25646" data-name="Path 25646" d="M43.525,49.008c-.713-2.122,2.386-3.618,4.02-3.676A4.042,4.042,0,0,1,51.926,49.3c0,.628-.868.583-.945,0a3.264,3.264,0,0,0-3.569-3.074,4.037,4.037,0,0,0-2.376.9c-.638.541-.792,1.278-1.265,1.914a.136.136,0,0,1-.245-.032" transform="translate(26.488 27.652)" fill="#8e4f4f"/>
        <path id="Path_25647" data-name="Path 25647" d="M26.657,33.462A11.55,11.55,0,0,1,34.22,28.4c.409-.085.287-.673-.095-.7-2.911-.182-7.226,2.673-7.82,5.616a.194.194,0,0,0,.353.148" transform="translate(16.044 16.892)" fill="#8e4f4f"/>
        <path id="Path_25648" data-name="Path 25648" d="M57.231,27.65c2.848.7,5.643,1.122,7.794,3.331.446.456,1.087-.217.691-.691A10.023,10.023,0,0,0,57.231,27.2a.236.236,0,0,0,0,.451" transform="translate(34.811 16.523)" fill="#8e4f4f"/>
        <path id="Path_25649" data-name="Path 25649" d="M42.906,50.745a8.007,8.007,0,0,1-8.243,7.746,8.007,8.007,0,0,1-8.243-7.746A8.006,8.006,0,0,1,34.662,43a8.006,8.006,0,0,1,8.243,7.746" transform="translate(16.117 26.231)" fill="#ed9996"/>
        <path id="Path_25650" data-name="Path 25650" d="M70.909,50.745a8.259,8.259,0,0,1-16.485,0,8.259,8.259,0,0,1,16.485,0" transform="translate(33.201 26.231)" fill="#ed9996"/>
        <path id="Path_25651" data-name="Path 25651" d="M108,18.336c-2.657,6.64-9.295,3.983-13.28,1.328-1.327-2.657-5.31-3.983-5.31-7.968,0,6.64-3.983,15.935-10.621,13.28-3.983-2.657-6.64-7.968-10.623-11.951-3.983,25.228-30.538,7.968-42.487,1.328C21.26,25.4,21.413,38.278,15.48,49.176a21.071,21.071,0,0,1,6.749,2.631c8.942-1.771,7.43-32.365,7.43-32.365S49.135,32.277,59.093,33.163,70.6,24.311,70.6,24.311s3.983,6.64,11.286,7.3,6.86-7.3,6.86-7.3C97.6,35.6,101.8,28.516,101.8,28.516s0,20.579,7,21.346,7.089-6.307,7.089-6.307a3.236,3.236,0,0,0,2.029.039c-6.4-4.869-8.715-15.6-9.921-25.258" transform="translate(9.443 7.135)" fill="#582938"/>
        <path id="Path_25652" data-name="Path 25652" d="M124.244,47.6c6.086-10.734-1.992-13.278-1.992-13.278.663-12.613-10.4-12.172-10.4-12.172C108.018,4.006,82.641,9.317,82.641,9.317S85.958.686,68.254.022,30.667,13.732,30.667,13.732s3.1-11.063-2.434-11.507S25.89,15.282,25.89,15.282,19.13,5.112,15.82,11.307,23.1,23.479,23.1,23.479c-4.3,1.987-3.255-1.169-7.332,1.992-7.347,6.86-1.8,17.039-1.8,17.039-6.717,6.64,0,13.515,0,13.515a16.1,16.1,0,0,1,4.263.287c5.933-10.9,5.78-23.777,10.2-34.823,11.95,6.64,38.5,23.9,42.487-1.328,3.985,3.983,6.64,9.295,10.623,11.95,6.638,2.657,10.621-6.638,10.621-13.278,0,3.985,3.983,5.312,5.312,7.968,3.983,2.655,10.621,5.31,13.278-1.328,1.206,9.657,3.524,20.389,9.921,25.258,2.122-.63,3.577-3.128,3.577-3.128" transform="translate(6.697 0)" fill="#663442"/>
        <path id="Path_25653" data-name="Path 25653" d="M30.983,18.371c.887,3.193,6.075,10.349,10.217,7.366,1.62-1.166,1.6-3.664,1.428-5.423a12.132,12.132,0,0,0-.7-3.243c-.588-1.452-.6-.229.177.877,2.478,3.507,9.375,5.051,11,.108,1.428-4.347-1.156-11.88-4.775-14.552-.419-.311-.971.4-.562.728,2.781,2.259,4.075,6.3,4.545,9.734.456,3.339-.771,7.078-4.994,6.274-2.439-.464-4.688-2.571-5.952-4.59a.406.406,0,0,0-.7.409c.8,1.855,1.9,5.179,1.087,7.2-.847,2.1-3.394,2.375-5.291,1.257a12.218,12.218,0,0,1-4.89-6.308c-.138-.357-.7-.224-.588.163" transform="translate(18.892 2.091)" fill="#8e4f4f"/>
        <path id="Path_25654" data-name="Path 25654" d="M65.765,13.531c.947,3.623,2.655,11.533,7.578,11.589,4.036.047,5.519-6.368,5.543-9.451A.454.454,0,0,0,78,15.548c-1.03,2.611-.955,9.71-5.526,8.47-4.038-1.095-4.41-7.628-6.179-10.712a.291.291,0,0,0-.53.224" transform="translate(40.113 8.033)" fill="#8e4f4f"/>
        <path id="Path_25655" data-name="Path 25655" d="M14.691,32.136c1.633,2.576,6.261,6.765,8.8,2.884,1.974-3.022.948-8.155-.163-11.32-.2-.576-1.119-.335-.924.256a19.379,19.379,0,0,1,1.066,8.134c-.195,1.636-.868,3.613-2.818,3.722-2.343.132-4.062-2.574-5.587-3.962-.192-.174-.522.05-.372.287" transform="translate(8.939 14.257)" fill="#8e4f4f"/>
        <path id="Path_25656" data-name="Path 25656" d="M30.626,136.085c-.2,13.882-.177,30.79.972,36.813,0,0,23.89.766,29-.939,0,0,.987-25.216.362-28.322,0,0,7.736.762,12.628-.945,0,0-.449,24.506.831,28.284,0,0,20.5-.481,28.047-2.156,0,0-.989-31.88-3.017-47.4a213.246,213.246,0,0,1-68.826,14.667" transform="translate(18.623 74.069)" fill="#73d8ef"/>
        <path id="Path_25657" data-name="Path 25657" d="M97.6,117.058c-3.254-4.564-66.538,2.27-66.538,2.27s-.312,9.209-.475,20.375a213.261,213.261,0,0,0,68.826-14.666c-.533-4.07-1.135-7.031-1.813-7.979" transform="translate(18.661 70.451)" fill="#33d7f2"/>
        <path id="Path_25658" data-name="Path 25658" d="M68.614,119.522c1.826,4.149,4.647,9.461,8.132,12.779" transform="translate(41.857 72.913)" fill="#635ba8"/>
        <path id="Path_25659" data-name="Path 25659" d="M68.431,119.719c.464,2.3,1.881,4.531,3.025,6.554a25,25,0,0,0,5.012,6.538.56.56,0,0,0,.791-.792,45.782,45.782,0,0,1-4.795-6.335c-1.238-1.993-2.067-4.331-3.463-6.205a.313.313,0,0,0-.57.24" transform="translate(41.74 72.8)" fill="#635ba8"/>
        <path id="Path_25660" data-name="Path 25660" d="M31.194,130.551c3.486-2.156,4.315-6.139,5.811-9.791" transform="translate(19.029 73.668)" fill="#635ba8"/>
        <path id="Path_25661" data-name="Path 25661" d="M31.612,131.1c3.465-1.555,5.54-6.649,5.976-10.2.056-.448-.544-.483-.752-.2-1.069,1.441-1.583,3.421-2.3,5.059a13.955,13.955,0,0,1-3.491,4.608c-.412.39.109.939.567.734" transform="translate(18.848 73.523)" fill="#635ba8"/>
        <path id="Path_25662" data-name="Path 25662" d="M43.049,134.5c9.626.167,20.082,1.494,30.207,1.162" transform="translate(26.261 82.052)" fill="#635ba8"/>
        <path id="Path_25663" data-name="Path 25663" d="M43.291,135.414c9.961.47,20.468,2.574,30.391,1.174.836-.118.535-1.3-.184-1.369-9.908-.969-20.246-1.093-30.207-1.124a.66.66,0,0,0,0,1.319" transform="translate(26.02 81.803)" fill="#635ba8"/>
        <path id="Path_25664" data-name="Path 25664" d="M51.2,145.424c-.5-9.127-.665-18.256-.5-27.551" transform="translate(30.891 71.907)" fill="#635ba8"/>
        <path id="Path_25665" data-name="Path 25665" d="M52.035,145.663c.119-9.134.016-18.424-.33-27.551a.653.653,0,0,0-1.306,0,152.486,152.486,0,0,0,.665,27.551.486.486,0,0,0,.971,0" transform="translate(30.54 71.667)" fill="#635ba8"/>
        <path id="Path_25666" data-name="Path 25666" d="M52.464,145.531c9.709-2.219,5.9-19.493,5.263-26.247a.76.76,0,0,0-1.518,0c-.016,6.45,4.455,22.491-4.032,25.2a.541.541,0,0,0,.287,1.043" transform="translate(31.596 72.321)" fill="#635ba8"/>
        <path id="Path_25667" data-name="Path 25667" d="M34.532,145.969s-4.869-1.1-4.869.663-1.72,10.509,1.963,12.724,26.773,1.349,30.678,0c2.106-.728,1.992-4.771,1.992-6.453s-.663-7.155-1.328-7.6-1.191-.227-4.315,1c-1.676.659-19.142,1.106-24.12-.332" transform="translate(17.851 88.512)" fill="#33d7f2"/>
        <path id="Path_25668" data-name="Path 25668" d="M83.037,145.969s4.867-1.1,4.867.663,1.72,10.509-1.961,12.724-24.117,1.349-28.023,0c-2.106-.728-1.992-4.771-1.992-6.453s.663-7.155,1.328-7.6,1.191-.227,4.315,1c1.678.659,16.485,1.106,21.465-.332" transform="translate(34.118 88.512)" fill="#33d7f2"/>
        <path id="Path_25669" data-name="Path 25669" d="M99.639,103.354c-1.3-5.561-2.23-9.519-2.23-9.519a68.833,68.833,0,0,0,6.535-6.928c-42.761,13.806-72.5,2.36-82.737-2.818-.731,1.423-1.4,2.808-1.971,4.1,0,0,8.8,8.8,18.92,9.96,0,0-.2,3.922-.462,9.362,14.326,2.054,37.678,3.3,61.945-4.16" transform="translate(11.735 51.298)" fill="#635ba8"/>
        <path id="Path_25670" data-name="Path 25670" d="M103.2,92.011a29.859,29.859,0,0,0,3.09-4.523c.976-1.837.623-6.479-.258-11.763C69.546,89,41.9,83.883,26.838,78.526a97.1,97.1,0,0,0-6.377,10.666C30.7,94.372,60.437,105.817,103.2,92.011" transform="translate(12.482 46.195)" fill="#3a308f"/>
        <path id="Path_25671" data-name="Path 25671" d="M99.028,71.439C97.7,66.026,96.514,61.9,96.514,61.9s-16.281,6.957-18.438,8.873l-9.139,1.8S57.045,79.048,47.728,71.8c0,0-7.492-1.744-16.121,4.869a31.124,31.124,0,0,0-4.077,3.875c15.7,3.3,40.7,4.326,71.5-9.106" transform="translate(16.794 37.76)" fill="#3a308f"/>
        <path id="Path_25672" data-name="Path 25672" d="M103.613,80.543c-.7-4.2-1.728-8.794-2.687-12.719-30.8,13.431-55.8,12.409-71.5,9.1a64.782,64.782,0,0,0-5,6.416c15.065,5.357,42.708,10.477,79.191-2.8" transform="translate(14.898 41.375)" fill="#635ba8"/>
        <path id="Path_25673" data-name="Path 25673" d="M96.1,109.827c-1.117-4.854-2.251-9.733-3.194-13.772-24.266,7.466-47.618,6.215-61.945,4.16-.2,4.212-.449,9.327-.675,14.263,14.566,2.252,39.807,3.919,65.813-4.651" transform="translate(18.473 58.597)" fill="#3a308f"/>
        <path id="Path_25674" data-name="Path 25674" d="M29.974,117.577c-.074,2.095-.119,3.69-.119,4.524,0,5.31,21.243,8.3,35.516,7.136s35.276-7.8,35.773-7.635c.14.047-.617-3.56-1.774-8.754-27.865,9.56-55.049,7.173-69.4,4.729" transform="translate(18.213 68.841)" fill="#3a308f"/>
        <path id="Path_25675" data-name="Path 25675" d="M99.325,117.874c-.853-3.833-1.924-8.53-3.016-13.265-26.007,8.57-51.247,6.9-65.812,4.651-.232,5.038-.443,9.878-.568,13.342,14.347,2.444,41.531,4.832,69.4-4.729" transform="translate(18.258 63.815)" fill="#635ba8"/>
        <path id="Path_25676" data-name="Path 25676" d="M43.631,66.81c-2.8-.37-7.116.857-11.491,3.582,0,0,3.1,12.615,2.489,20.359S30.258,116.2,30.258,116.2s-1.282,10.264-.757,15.687c9.055-10.9,15.617-18.612,17.1-38.589.708-9.522-1.716-21.261-2.972-26.487" transform="translate(17.92 40.717)" fill="#f89927"/>
        <path id="Path_25677" data-name="Path 25677" d="M46.555,68.819a3.253,3.253,0,0,0-2.972-2.033c1.256,5.226,3.679,16.965,2.972,26.487-1.484,19.977-8.047,27.686-17.1,38.589a6.428,6.428,0,0,0,.757,2.9s14.17-12.22,17.817-30.784-.4-31.842-1.472-35.162" transform="translate(17.967 40.742)" fill="#f26952"/>
        <path id="Path_25678" data-name="Path 25678" d="M53.726,66.821c2.6-1.087,7.094-1.027,12.027.464,0,0,.3,12.985,2.9,20.3S79.508,111.02,79.508,111.02s1.406,9.575,2.314,14.946c-11.583-8.166-17.422-13.9-24.062-32.8-3.165-9.008-3.883-20.974-4.033-26.345" transform="translate(32.775 40.309)" fill="#f89927"/>
        <path id="Path_25679" data-name="Path 25679" d="M52.3,69.276a3.253,3.253,0,0,1,2.339-2.737c.15,5.371.868,17.335,4.033,26.345,6.64,18.9,12.479,24.632,24.062,32.8a6.385,6.385,0,0,1,.026,3,62.823,62.823,0,0,1-22.719-25.076C51.679,86.634,52.125,72.762,52.3,69.276" transform="translate(31.862 40.591)" fill="#f26952"/>
        <path id="Path_25680" data-name="Path 25680" d="M59.165,92.829c-1.992-5.091-8.189-6.947-9.958-5.355s-5.31-1.063-5.753,1.594a10.44,10.44,0,0,0,0,4.2s-14.04,13.938-19.163,16.31c0,0,2.2-.155-7.086-6.58-2.373,5.312-4.5,10.633-4.954,13.508-1.108,7.081,3.925,15.047,10.815,13.719s18.395-9.956,29.681-24.12c0,0,8.408-8.187,6.418-13.278" transform="translate(7.381 53.024)" fill="#f9c1b9"/>
        <path id="Path_25681" data-name="Path 25681" d="M22.357,109.369C27.48,107,41.518,93.061,41.518,93.061l-2.657,1.106s-6.2-.443-16.115-6.9c0,0-4,7.749-7.475,15.526,9.288,6.424,7.086,6.579,7.086,6.579" transform="translate(9.316 53.235)" fill="#ed9996"/>
      </g>
    </g>
  </g>
</svg>
