<svg id="Group_27785" data-name="Group 27785" xmlns="http://www.w3.org/2000/svg" xmlns:xlink="http://www.w3.org/1999/xlink" width="165.247" height="313.873" viewBox="0 0 165.247 313.873">
  <defs>
    <clipPath id="clip-path">
      <rect id="Rectangle_10239" data-name="Rectangle 10239" width="165.247" height="313.873" fill="none"/>
    </clipPath>
    <clipPath id="clip-path-3">
      <rect id="Rectangle_10237" data-name="Rectangle 10237" width="165.247" height="38.431" fill="none"/>
    </clipPath>
  </defs>
  <g id="Group_27784" data-name="Group 27784" clip-path="url(#clip-path)">
    <g id="Group_27783" data-name="Group 27783">
      <g id="Group_27782" data-name="Group 27782" clip-path="url(#clip-path)">
        <g id="Group_27781" data-name="Group 27781" transform="translate(0 275.443)" opacity="0.3">
          <g id="Group_27780" data-name="Group 27780">
            <g id="Group_27779" data-name="Group 27779" clip-path="url(#clip-path-3)">
              <path id="Path_25760" data-name="Path 25760" d="M165.247,198.322c0,10.611-36.992,19.214-82.624,19.214S0,208.933,0,198.322s36.992-19.216,82.623-19.216,82.624,8.6,82.624,19.216" transform="translate(0 -179.106)" fill="#bcbcbc"/>
            </g>
          </g>
        </g>
        <path id="Path_25761" data-name="Path 25761" d="M54.176,58.684s-24.618-.111-24.752,14.787-4.883,48.288,1.732,61.368c2.756,5.452,43.294,5.378,54.106,3.319s12.1-11.783,11.98-21.909-.874-34.178-3.276-45.267c-1.539-7.1-17.856-12.457-39.79-12.3" transform="translate(14.872 31.563)" fill="#635ba8"/>
        <path id="Path_25762" data-name="Path 25762" d="M55.925,58.78s-24.618-.112-24.751,14.785-4.884,48.286,1.732,61.371c2.756,5.447,43.291,5.373,54.106,3.314s12.1-11.783,11.98-21.91-.874-34.176-3.276-45.266c-1.539-7.1-17.856-12.452-39.791-12.294" transform="translate(15.813 31.615)" fill="#3a308f"/>
        <path id="Path_25763" data-name="Path 25763" d="M33.073,163.131c.011.217.02.426.032.644a100.017,100.017,0,0,0,25.069.978l.3-10.444c-8.217,4.12-16.555,7.834-25.4,8.821" transform="translate(17.789 83)" fill="#f9c1b9"/>
        <path id="Path_25764" data-name="Path 25764" d="M33.073,160.3c.818,17.333,2.121,39.1,2.8,40.8,0,0,12.461,3.932,21.33-1.121l1.1-38.442c-8.275.855-16.966.017-25.234-1.235" transform="translate(17.789 86.221)" fill="#ebe9f4"/>
        <path id="Path_25765" data-name="Path 25765" d="M33.53,164.013c7.3,3.1,16.641,2.885,24.154.612a.3.3,0,0,0-.16-.578,48.643,48.643,0,0,1-23.877-.311c-.16-.043-.28.208-.117.277" transform="translate(17.993 88.067)" fill="#635ba8"/>
        <path id="Path_25766" data-name="Path 25766" d="M34.2,160.64a5.333,5.333,0,0,0-.165,1.908,11.793,11.793,0,0,0,.048,3.054.318.318,0,0,0,.609,0,13.619,13.619,0,0,0-.025-3.054,5.517,5.517,0,0,0-.175-1.908.153.153,0,0,0-.292,0" transform="translate(18.263 86.347)" fill="#635ba8"/>
        <path id="Path_25767" data-name="Path 25767" d="M37,166.437c.16-1.709.045-3.425.143-5.137.028-.481-.738-.484-.75,0-.048,1.713.082,3.425.1,5.137a.256.256,0,0,0,.512,0" transform="translate(19.57 86.565)" fill="#635ba8"/>
        <path id="Path_25768" data-name="Path 25768" d="M39.6,166.781a29.846,29.846,0,0,0,.06-5.307.322.322,0,0,0-.644,0,29.992,29.992,0,0,0,.06,5.307.262.262,0,0,0,.524,0" transform="translate(20.935 86.686)" fill="#635ba8"/>
        <path id="Path_25769" data-name="Path 25769" d="M42.049,167.1a14.616,14.616,0,0,0,.526-5.39.435.435,0,0,0-.87,0,45.327,45.327,0,0,0,.022,5.39c.028.185.269.132.323,0" transform="translate(22.384 86.751)" fill="#635ba8"/>
        <path id="Path_25770" data-name="Path 25770" d="M45.259,166.681a28.214,28.214,0,0,0-.066-4.861.369.369,0,0,0-.738,0,38.581,38.581,0,0,0,.351,4.8c.028.232.414.343.454.062" transform="translate(23.91 86.848)" fill="#635ba8"/>
        <path id="Path_25771" data-name="Path 25771" d="M47.607,166.083c.394-1.4-.109-2.874.269-4.288.109-.406-.515-.7-.7-.3-.652,1.4.12,3.07.051,4.532a.2.2,0,0,0,.384.052" transform="translate(25.231 86.762)" fill="#635ba8"/>
        <path id="Path_25772" data-name="Path 25772" d="M33.132,160.517c7.988,2.644,16.838,2.125,25.1,1.553.527-.037.534-.86,0-.827-8.468.508-16.638.48-24.975-1.17a.231.231,0,0,0-.123.444" transform="translate(17.733 86.097)" fill="#635ba8"/>
        <path id="Path_25773" data-name="Path 25773" d="M59.18,145.833l-26.725.468s.4,9.659.95,21.39c8.844-.987,17.184-4.7,25.4-8.821Z" transform="translate(17.457 78.44)" fill="#ed9996"/>
        <path id="Path_25774" data-name="Path 25774" d="M25.026,192.147s-.337,3.073,4.38,4.148a66.256,66.256,0,0,0,21,1.073c7.409-1.012,10.779-1.8,10.779-1.8a24.939,24.939,0,0,0,.507-3.425c.177-2.055-36.661,0-36.661,0" transform="translate(13.458 102.861)" fill="#09b1c0"/>
        <path id="Path_25775" data-name="Path 25775" d="M25.034,193.818c-.5,2.261,5.693,3.646,13.435,4.034a26,26,0,0,0-5.144-9.724c-3.752,1.359-7.766,3.337-8.291,5.69" transform="translate(13.45 101.19)" fill="#09b1c0"/>
        <path id="Path_25776" data-name="Path 25776" d="M58.5,186.1a33.688,33.688,0,0,1-21.333,1.123,62.8,62.8,0,0,0-6.756,2,25.992,25.992,0,0,1,5.146,9.726c7.839.394,17.266-.234,22.944-2.013,0,0,1.18-6.342,0-10.834" transform="translate(16.359 100.098)" fill="#ffcc72"/>
        <path id="Path_25777" data-name="Path 25777" d="M35.886,190.256c-1.584-.392-3.531-.863-4.5-2.287-.415-.618-.092-1.372.683-1.163a3.79,3.79,0,0,1,1.366,1.07,14.614,14.614,0,0,1,2.008,2.831c.248-.146.5-.291.746-.435-.589-.969-1.195-1.918-1.719-2.925-.191-.368-1.832-4.517-.052-3.562.917.492.87,2.694.917,3.54a30.185,30.185,0,0,1-.028,3.165c-.031.654,1,.654,1.02,0,.055-1.706.534-7.763-2.3-7.64-3.572.155.757,6.739,1.418,7.857a.432.432,0,0,0,.746-.435,10.969,10.969,0,0,0-3.545-4.069c-.638-.374-1.9-.468-2.235.377-1.136,2.859,3.548,4.032,5.406,4.154a.245.245,0,0,0,.066-.478" transform="translate(16.265 98.35)" fill="#09b1c0"/>
        <path id="Path_25778" data-name="Path 25778" d="M83.4,163.131c-.009.217-.022.426-.031.644a100.042,100.042,0,0,1-25.072.978L58,154.31c8.217,4.12,16.56,7.834,25.4,8.821" transform="translate(31.196 83)" fill="#f9c1b9"/>
        <path id="Path_25779" data-name="Path 25779" d="M83.343,160.3c-.818,17.333-2.122,39.1-2.8,40.8,0,0-12.461,3.932-21.33-1.121l-1.1-38.442c8.28.855,16.97.017,25.235-1.235" transform="translate(31.255 86.221)" fill="#ebe9f4"/>
        <path id="Path_25780" data-name="Path 25780" d="M82.495,163.736a48.637,48.637,0,0,1-23.88.311.3.3,0,0,0-.16.578c7.513,2.273,16.861,2.485,24.157-.612.16-.068.045-.32-.117-.277" transform="translate(31.327 88.067)" fill="#635ba8"/>
        <path id="Path_25781" data-name="Path 25781" d="M73.387,160.64a5.476,5.476,0,0,0-.175,1.908,13.713,13.713,0,0,0-.026,3.054.318.318,0,0,0,.609,0,11.727,11.727,0,0,0,.049-3.054,5.368,5.368,0,0,0-.165-1.908.153.153,0,0,0-.292,0" transform="translate(39.318 86.347)" fill="#635ba8"/>
        <path id="Path_25782" data-name="Path 25782" d="M71.366,166.437c.015-1.712.145-3.423.1-5.137-.012-.484-.78-.481-.75,0,.1,1.712-.017,3.428.141,5.137a.256.256,0,0,0,.512,0" transform="translate(38.034 86.565)" fill="#635ba8"/>
        <path id="Path_25783" data-name="Path 25783" d="M68.806,166.781a29.846,29.846,0,0,0,.06-5.307.322.322,0,0,0-.644,0,29.992,29.992,0,0,0,.06,5.307.262.262,0,0,0,.524,0" transform="translate(36.644 86.686)" fill="#635ba8"/>
        <path id="Path_25784" data-name="Path 25784" d="M66.206,167.1a44.686,44.686,0,0,0,.02-5.39.435.435,0,0,0-.87,0,14.679,14.679,0,0,0,.527,5.39c.054.132.3.185.323,0" transform="translate(35.144 86.751)" fill="#635ba8"/>
        <path id="Path_25785" data-name="Path 25785" d="M63.1,166.62a38.877,38.877,0,0,0,.349-4.8.369.369,0,0,0-.738,0,28.213,28.213,0,0,0-.063,4.861c.038.278.426.172.452-.062" transform="translate(33.645 86.847)" fill="#635ba8"/>
        <path id="Path_25786" data-name="Path 25786" d="M60.709,166.031c-.066-1.463.7-3.131.052-4.532-.188-.4-.814-.114-.7.3.377,1.413-.123,2.887.268,4.288a.2.2,0,0,0,.384-.052" transform="translate(32.296 86.763)" fill="#635ba8"/>
        <path id="Path_25787" data-name="Path 25787" d="M83.31,160.073c-8.341,1.652-16.506,1.678-24.977,1.17-.534-.031-.529.79,0,.827,8.26.572,17.11,1.092,25.1-1.553a.231.231,0,0,0-.123-.444" transform="translate(31.162 86.097)" fill="#635ba8"/>
        <path id="Path_25788" data-name="Path 25788" d="M57.757,145.833l26.725.468s-.4,9.659-.95,21.39c-8.844-.987-17.187-4.7-25.4-8.821Z" transform="translate(31.066 78.44)" fill="#ed9996"/>
        <path id="Path_25789" data-name="Path 25789" d="M95.387,192.147s.34,3.073-4.378,4.148a66.25,66.25,0,0,1-21,1.073c-7.411-1.012-10.777-1.8-10.777-1.8a24.939,24.939,0,0,1-.507-3.425c-.178-2.055,36.658,0,36.658,0" transform="translate(31.588 102.861)" fill="#09b1c0"/>
        <path id="Path_25790" data-name="Path 25790" d="M87.263,193.818c.5,2.261-5.689,3.646-13.432,4.034a25.986,25.986,0,0,1,5.146-9.724c3.751,1.359,7.763,3.337,8.286,5.69" transform="translate(39.712 101.19)" fill="#09b1c0"/>
        <path id="Path_25791" data-name="Path 25791" d="M59.1,186.1a33.691,33.691,0,0,0,21.333,1.123,62.769,62.769,0,0,1,6.757,2,26,26,0,0,0-5.147,9.726c-7.839.394-17.267-.234-22.944-2.013,0,0-1.18-6.342,0-10.834" transform="translate(31.504 100.098)" fill="#ffcc72"/>
        <path id="Path_25792" data-name="Path 25792" d="M73.86,190.256c1.581-.392,3.529-.863,4.492-2.287.417-.618.1-1.372-.68-1.163a3.764,3.764,0,0,0-1.366,1.07,14.629,14.629,0,0,0-2.012,2.831q-.371-.219-.743-.435c.587-.969,1.195-1.918,1.716-2.925.194-.368,1.832-4.517.052-3.562-.915.492-.87,2.694-.915,3.54a29.772,29.772,0,0,0,.028,3.165c.032.654-1,.654-1.021,0-.054-1.706-.534-7.763,2.3-7.64,3.572.155-.755,6.739-1.418,7.857a.431.431,0,0,1-.743-.435A10.965,10.965,0,0,1,77.1,186.2c.64-.374,1.9-.468,2.235.377,1.138,2.859-3.548,4.032-5.4,4.154a.244.244,0,0,1-.066-.478" transform="translate(39.453 98.35)" fill="#09b1c0"/>
        <path id="Path_25793" data-name="Path 25793" d="M92.8,118.045,33.265,119.9s-1.53,9.067-2.93,20.079a233.827,233.827,0,0,0,63.99-14.587c-.91-4.449-1.521-7.35-1.521-7.35" transform="translate(16.317 63.494)" fill="#3a308f"/>
        <path id="Path_25794" data-name="Path 25794" d="M31.131,137.41c-1.735,13.627-3.271,30.23-1.464,36.337,1.586,5.358,16.023,5.17,33.332,2.922l-1.881-27.1s5.99,2.967,10.235,1.458L70.8,176.669s29.226,3.4,32.366-5.424c1.064-2.99-5.084-33.978-8.048-48.42a233.767,233.767,0,0,1-63.99,14.585" transform="translate(15.521 66.065)" fill="#635ba8"/>
        <path id="Path_25795" data-name="Path 25795" d="M43.067,139.673c9.767.168,20.38,1.515,30.653,1.176" transform="translate(23.165 75.127)" fill="#635ba8"/>
        <path id="Path_25796" data-name="Path 25796" d="M43.294,140.577c10.11.477,20.771,2.608,30.838,1.192.847-.122.54-1.32-.185-1.39-10.053-.983-20.543-1.109-30.653-1.141a.67.67,0,0,0,0,1.339" transform="translate(22.938 74.893)" fill="#3a308f"/>
        <path id="Path_25797" data-name="Path 25797" d="M33.317,92.557l-3.176,40.379s29.987,6.942,53.041,3.1c-18.736-12.218-35.859-26.327-49.866-43.479" transform="translate(16.212 49.784)" fill="#009599"/>
        <path id="Path_25798" data-name="Path 25798" d="M83.352,87.055a45.639,45.639,0,0,1-1.982-7.577c-15.625,1.536-31.325,2.6-47.058,2.9-.126,1.516-.3,3-.5,4.429a479.16,479.16,0,0,0,49.541.252" transform="translate(18.186 42.749)" fill="#ffbd48"/>
        <path id="Path_25799" data-name="Path 25799" d="M88.984,102.317,87.491,91.286c-18.252,1.095-36.5.8-54.756-1.995-.058.14-.108.3-.169.434l-.36,4.589c.8.984,1.655,1.927,2.479,2.894,17.909,3.073,36.246,5.467,54.3,5.109" transform="translate(17.323 48.028)" fill="#ffbd48"/>
        <path id="Path_25800" data-name="Path 25800" d="M33.818,94.439c13.536,15.837,29.729,29.067,47.385,40.586a51.045,51.045,0,0,0,11.291-3.1L88.117,99.548c-18.055.36-36.391-2.036-54.3-5.109" transform="translate(18.19 50.797)" fill="#09b1c0"/>
        <path id="Path_25801" data-name="Path 25801" d="M87.306,94l-.527-3.919a22.092,22.092,0,0,1-2.748-5.592,478.728,478.728,0,0,1-49.541-.252,32.978,32.978,0,0,1-1.939,7.768C50.8,94.8,69.055,95.1,87.306,94" transform="translate(17.508 45.311)" fill="#09b1c0"/>
        <path id="Path_25802" data-name="Path 25802" d="M80.543,66.9l-6.016-1.33s-31.044-.488-31.374,0-9.035,1.741-9.035,1.741a164.9,164.9,0,0,1,.029,22.664c15.732-.294,31.433-1.359,47.058-2.9A77.569,77.569,0,0,1,80.543,66.9" transform="translate(18.351 35.151)" fill="#09b1c0"/>
        <path id="Path_25803" data-name="Path 25803" d="M71.886,55.623,39.993,56.667s2.871,9.726,3.928,14.132a96.264,96.264,0,0,1,26.312-7.282,34.739,34.739,0,0,1,1.653-7.894" transform="translate(21.511 29.918)" fill="#ed9996"/>
        <path id="Path_25804" data-name="Path 25804" d="M43.233,68.039a8.353,8.353,0,0,1,.375,2.108l-.089.008s-2.247-.394-2.247,1.173S47.994,82.169,54.13,82.169c12.631,0,16.618-9.215,18.416-12.057,1.672-2.645-2.954-2.058-3.623-1.959.177-2.741.364-5.184.621-7.4a96.264,96.264,0,0,0-26.312,7.282" transform="translate(22.199 32.68)" fill="#f9c1b9"/>
        <path id="Path_25805" data-name="Path 25805" d="M13.172,39.545c.78,5.207,6.2,10.281,16.738,6.411V38.593a16.176,16.176,0,0,0-16.738.952" transform="translate(7.085 19.743)" fill="#f9c1b9"/>
        <path id="Path_25806" data-name="Path 25806" d="M16.291,34.253a7.136,7.136,0,0,0-3.083,7.4,16.173,16.173,0,0,1,16.737-.953V35.618s-6.825-5.309-13.653-1.366" transform="translate(7.051 17.64)" fill="#ed9996"/>
        <path id="Path_25807" data-name="Path 25807" d="M16.53,37.843c2.8.012,6.5-1.341,8.468,1.447,1.244,1.761,1.075,4.2,1.138,6.242a.3.3,0,0,0,.609,0c.063-2.342.012-5.276-1.758-7.056-2.175-2.185-5.819-1.49-8.483-.829a.1.1,0,0,0,.026.2" transform="translate(8.839 19.898)" fill="#8e4f4f"/>
        <path id="Path_25808" data-name="Path 25808" d="M19.694,39.716a2.7,2.7,0,0,1,3.3.271,18.714,18.714,0,0,1,1.656,2.138c.251.306.649-.085.509-.394-1.04-2.291-3.411-4.221-5.746-2.376-.22.174.062.461.28.361" transform="translate(10.399 20.772)" fill="#8e4f4f"/>
        <path id="Path_25809" data-name="Path 25809" d="M90.149,39.545c-.778,5.207-6.19,10.281-16.735,6.411V38.593a16.17,16.17,0,0,1,16.735.952" transform="translate(39.488 19.743)" fill="#f9c1b9"/>
        <path id="Path_25810" data-name="Path 25810" d="M87.069,34.253a7.131,7.131,0,0,1,3.08,7.4,16.171,16.171,0,0,0-16.735-.953V35.618s6.825-5.309,13.655-1.366" transform="translate(39.488 17.64)" fill="#ed9996"/>
        <path id="Path_25811" data-name="Path 25811" d="M84.581,37.647c-2.664-.661-6.311-1.355-8.486.829-1.77,1.778-1.821,4.715-1.758,7.056a.3.3,0,0,0,.607,0c.065-2.067-.094-4.457,1.14-6.242,1.941-2.813,5.7-1.435,8.471-1.447a.1.1,0,0,0,.026-.2" transform="translate(39.976 19.898)" fill="#8e4f4f"/>
        <path id="Path_25812" data-name="Path 25812" d="M80.1,39.354c-2.333-1.845-4.706.086-5.746,2.378-.138.3.257.7.509.394a18.45,18.45,0,0,1,1.656-2.138c1.04-.952,2.087-.826,3.3-.272.217.1.5-.185.28-.361" transform="translate(39.98 20.771)" fill="#8e4f4f"/>
        <path id="Path_25813" data-name="Path 25813" d="M23.354,46.36s-.4,14.3,3.033,21.381,14.97,14.97,30.344,16.386,35.8-3.642,40.455-14.767,6.471-18.813,5.057-30.142S100.22,22.835,89.7,17.778,21.939-12.85,23.354,46.36" transform="translate(12.548 4.279)" fill="#f9c1b9"/>
        <path id="Path_25814" data-name="Path 25814" d="M48.065,33a36.119,36.119,0,0,0-.764,3.834,4.238,4.238,0,0,0,.017,2.642,1.626,1.626,0,0,0,1.506.973,2.342,2.342,0,0,0,.92-.421c.16-.089.337-.312.515-.355q.849-.69.781.761.909,1.174-.509,1.506c-.437.163-.246.869.194.7a2.51,2.51,0,0,0,1.8-2.387,1.654,1.654,0,0,0-1.7-1.5c-.612.04-.889.5-1.41.715-2.119.86-1.695-1.675-1.492-2.7.212-1.067.975-2.76.389-3.8a.138.138,0,0,0-.249.032" transform="translate(25.329 17.696)" fill="#8e4f4f"/>
        <path id="Path_25815" data-name="Path 25815" d="M45.143,41.182c-.558,2.557,4.052,3.511,5.712,3.571,2.947.108,6.208-1.169,6.541-4.449.049-.481-.758-.592-.85-.114-.537,2.8-3.067,3.808-5.69,3.749a6.209,6.209,0,0,1-5.489-2.787.124.124,0,0,0-.223.029" transform="translate(24.257 21.452)" fill="#8e4f4f"/>
        <path id="Path_25816" data-name="Path 25816" d="M31.6,34a10.589,10.589,0,0,1,6.914-4.632c.374-.078.263-.615-.086-.637-2.661-.163-6.6,2.445-7.151,5.133A.178.178,0,0,0,31.6,34" transform="translate(16.823 15.449)" fill="#8e4f4f"/>
        <path id="Path_25817" data-name="Path 25817" d="M60.869,28.662c2.605.641,5.16,1.024,7.127,3.043.408.418,1-.2.632-.632a9.17,9.17,0,0,0-7.759-2.824.215.215,0,0,0,0,.412" transform="translate(32.658 15.138)" fill="#8e4f4f"/>
        <path id="Path_25818" data-name="Path 25818" d="M45.583,47.828a7.32,7.32,0,0,1-7.536,7.08,7.094,7.094,0,1,1,0-14.161,7.32,7.32,0,0,1,7.536,7.08" transform="translate(16.412 21.917)" fill="#ed9996"/>
        <path id="Path_25819" data-name="Path 25819" d="M72.381,47.828a7.549,7.549,0,1,1-7.533-7.08,7.317,7.317,0,0,1,7.533,7.08" transform="translate(30.826 21.917)" fill="#ed9996"/>
        <path id="Path_25820" data-name="Path 25820" d="M48.1,44.482a4.047,4.047,0,0,0,3.946-.18.259.259,0,0,0-.261-.446,5.448,5.448,0,0,1-3.525.246c-.217-.042-.384.268-.16.38" transform="translate(25.815 23.575)" fill="#8e4f4f"/>
        <path id="Path_25821" data-name="Path 25821" d="M42.173,36.244a2.651,2.651,0,0,1-2.307,2.911,2.648,2.648,0,0,1-2.445-2.8,2.647,2.647,0,0,1,2.308-2.908,2.645,2.645,0,0,1,2.444,2.793" transform="translate(20.128 17.992)" fill="#111"/>
        <path id="Path_25822" data-name="Path 25822" d="M61.381,35.672a2.416,2.416,0,1,1-4.752.115,2.416,2.416,0,1,1,4.752-.115" transform="translate(30.459 17.684)" fill="#111"/>
        <path id="Path_25823" data-name="Path 25823" d="M33.885,42.541a.735.735,0,1,1-.729-.827.779.779,0,0,1,.729.827" transform="translate(17.441 22.437)" fill="#8e4f4f"/>
        <path id="Path_25824" data-name="Path 25824" d="M37.172,45.642a.736.736,0,1,1-.73-.826.782.782,0,0,1,.73.826" transform="translate(19.208 24.106)" fill="#8e4f4f"/>
        <path id="Path_25825" data-name="Path 25825" d="M33.169,47.735a.735.735,0,1,1-.729-.824.781.781,0,0,1,.729.824" transform="translate(17.056 25.232)" fill="#8e4f4f"/>
        <path id="Path_25826" data-name="Path 25826" d="M39.521,41.762a.735.735,0,1,1-.729-.826.781.781,0,0,1,.729.826" transform="translate(20.473 22.019)" fill="#8e4f4f"/>
        <path id="Path_25827" data-name="Path 25827" d="M42.333,46.716a.736.736,0,1,1-.729-.827.78.78,0,0,1,.729.827" transform="translate(21.984 24.683)" fill="#8e4f4f"/>
        <path id="Path_25828" data-name="Path 25828" d="M58.3,42.541a.735.735,0,1,1-.73-.827.78.78,0,0,1,.73.827" transform="translate(30.572 22.437)" fill="#8e4f4f"/>
        <path id="Path_25829" data-name="Path 25829" d="M60.23,47.735a.736.736,0,1,1-.729-.824.781.781,0,0,1,.729.824" transform="translate(31.611 25.232)" fill="#8e4f4f"/>
        <path id="Path_25830" data-name="Path 25830" d="M64.24,42.836a.736.736,0,1,1-.729-.827.782.782,0,0,1,.729.827" transform="translate(33.767 22.596)" fill="#8e4f4f"/>
        <path id="Path_25831" data-name="Path 25831" d="M67.114,46.716a.735.735,0,1,1-.73-.827.782.782,0,0,1,.73.827" transform="translate(35.315 24.683)" fill="#8e4f4f"/>
        <path id="Path_25832" data-name="Path 25832" d="M63.194,46.179a.735.735,0,1,1-.727-.826.782.782,0,0,1,.727.826" transform="translate(33.206 24.394)" fill="#8e4f4f"/>
        <path id="Path_25833" data-name="Path 25833" d="M48.442,5.693a87,87,0,0,0-20.8,35.576l.308,1.25a82.846,82.846,0,0,0,12.438-3.749,29.344,29.344,0,0,0,2.677-1.2C46.052,25.741,53.124,15.1,61.294,5.156c-3.989.38-8.308.529-12.852.537" transform="translate(14.867 2.773)" fill="#f26952"/>
        <path id="Path_25834" data-name="Path 25834" d="M91.207,13.249C87.839,10.2,79.5,9.542,79.5,9.542S88.171,2.35,83.949,1s-8.331,5.278-8.331,5.278S70.434-1.693,67.291.329s1.556,4.855,1.556,4.855A47.874,47.874,0,0,1,55.9,7.931C47.729,17.876,40.658,28.515,37.67,40.34a59.994,59.994,0,0,0,11.586-8.182A53.647,53.647,0,0,0,45.141,38.2C56.1,38.193,69.543,26.1,69.543,26.1S75.6,40.072,77.017,39.674s.946-5.327.946-5.327.1-.315.166-.506c.043-.125.052-.157.046-.132.006-.025,0,.008-.046.132-.166.506,5.052,11.791,5.727,11.116s1.012-3.414,1.012-3.414C88.907,50.255,95,52.065,95,52.065l2.484-4.028c7.829-13.93,3.639-25.812-6.273-34.788" transform="translate(20.262 0)" fill="#f1583a"/>
        <path id="Path_25835" data-name="Path 25835" d="M47.654,5.472C35.1,5.248,24.487,10.44,19.134,25.932A20.159,20.159,0,0,0,26.3,49.585c3.319.046,5.424-13.41,5.424-13.41L32.933,41.1a87.012,87.012,0,0,1,20.8-35.576q-2.987,0-6.081-.054" transform="translate(9.575 2.94)" fill="#f1583a"/>
        <path id="Path_25836" data-name="Path 25836" d="M61.091,64.284c2.8-.591,7.263.317,11.9,2.737,0,0-2.161,13-.946,20.794s3.251,20,3.251,20,1.5,15.693,1.384,21.22c-10-10.333-13.507-17.627-16.557-37.724-1.449-9.579.1-21.643.966-27.028" transform="translate(32.02 34.483)" fill="#635ba8"/>
        <path id="Path_25837" data-name="Path 25837" d="M59.275,66.511a3.3,3.3,0,0,1,2.851-2.288c-.866,5.386-2.414,17.447-.964,27.028,3.05,20.1,6.553,27.39,16.555,37.724a6.468,6.468,0,0,1-.541,3A71.875,71.875,0,0,1,60.5,102.2c-5.129-18.5-2.058-32.252-1.227-35.691" transform="translate(30.984 34.544)" fill="#3a308f"/>
        <path id="Path_25838" data-name="Path 25838" d="M47.847,64.757c-2.779-.689-7.273.066-11.991,2.322,0,0,1.709,13.072.226,20.814s-3.9,18.192-3.9,18.192-1.37,18.573-1.449,24.1c10.355-9.979,13.4-18.411,17.14-38.387,1.784-9.524.654-21.635-.025-27.045" transform="translate(16.53 34.699)" fill="#635ba8"/>
        <path id="Path_25839" data-name="Path 25839" d="M50.616,67.058a3.288,3.288,0,0,0-2.768-2.387c.68,5.41,1.809,17.521.025,27.045-3.739,19.976-6.785,28.408-17.14,38.387a6.46,6.46,0,0,0,.438,3.011A87.992,87.992,0,0,0,48.16,102.68c5.759-18.313,3.171-32.156,2.456-35.622" transform="translate(16.529 34.785)" fill="#3a308f"/>
        <path id="Path_25840" data-name="Path 25840" d="M49.361,117.964s2.922-4.712,1.492-5.6-6.285,3.929-6.285,3.929c-2.273-1.278-16.588-5.107-13.473-8.546S47.852,93.508,47.852,93.508s2.551-18.9-.2-27.327c0,0-22.427,15.639-30.959,24.806s-12.351,23.574,0,29.6c8.974,4.378,17.435,8.323,21.4,10.161h0c.618.288,1.136.529,1.521.706.045-.02.089-.029.134-.046,3.183,1.224,10.07,3.632,12.56,2.667,3.285-1.278-2.953-4.318-2.953-4.318s4.237,1.153,5.839-1.3-4.348-3.217-4.348-3.217,3.777-.786,4.957-2.653-6.448-4.617-6.448-4.617" transform="translate(4.733 35.597)" fill="#f9c1b9"/>
        <path id="Path_25841" data-name="Path 25841" d="M69.224,117.964s-2.922-4.712-1.493-5.6,6.287,3.929,6.287,3.929c2.275-1.278,16.591-5.107,13.473-8.546S70.736,93.508,70.736,93.508s-2.553-18.9.2-27.327c0,0,22.427,15.639,30.957,24.806s12.351,23.574,0,29.6c-8.974,4.378-17.435,8.323-21.4,10.161-.618.288-1.135.529-1.521.706-.043-.02-.089-.029-.135-.046-3.183,1.224-10.065,3.632-12.558,2.667-3.286-1.278,2.951-4.318,2.951-4.318s-4.237,1.153-5.836-1.3,4.343-3.217,4.343-3.217-3.775-.786-4.954-2.653,6.447-4.617,6.447-4.617" transform="translate(33.7 35.597)" fill="#f9c1b9"/>
      </g>
    </g>
  </g>
</svg>
