<svg id="Group_27916" data-name="Group 27916" xmlns="http://www.w3.org/2000/svg" xmlns:xlink="http://www.w3.org/1999/xlink" width="173.135" height="328.855" viewBox="0 0 173.135 328.855">
  <defs>
    <clipPath id="clip-path">
      <rect id="Rectangle_10239" data-name="Rectangle 10239" width="173.134" height="328.855" fill="none"/>
    </clipPath>
    <clipPath id="clip-path-3">
      <rect id="Rectangle_10237" data-name="Rectangle 10237" width="173.134" height="40.265" fill="none"/>
    </clipPath>
  </defs>
  <g id="Group_27784" data-name="Group 27784" clip-path="url(#clip-path)">
    <g id="Group_27783" data-name="Group 27783">
      <g id="Group_27782" data-name="Group 27782" clip-path="url(#clip-path)">
        <g id="Group_27781" data-name="Group 27781" transform="translate(0 288.591)" opacity="0.3">
          <g id="Group_27780" data-name="Group 27780">
            <g id="Group_27779" data-name="Group 27779" clip-path="url(#clip-path-3)">
              <path id="Path_25760" data-name="Path 25760" d="M173.134,199.239c0,11.118-38.758,20.131-86.568,20.131S0,210.357,0,199.239s38.758-20.133,86.566-20.133,86.568,9.015,86.568,20.133" transform="translate(0 -179.106)" fill="#bcbcbc"/>
            </g>
          </g>
        </g>
        <path id="Path_25761" data-name="Path 25761" d="M55.442,58.684s-25.793-.116-25.934,15.493-5.116,50.593,1.814,64.3c2.887,5.712,45.361,5.635,56.688,3.477S100.692,129.605,100.563,119s-.915-35.809-3.432-47.428c-1.613-7.439-18.709-13.051-41.689-12.884" transform="translate(16.902 35.871)" fill="#635ba8"/>
        <path id="Path_25762" data-name="Path 25762" d="M57.191,58.78S31.4,58.663,31.259,74.271s-5.117,50.591,1.814,64.3c2.887,5.707,45.358,5.63,56.688,3.472s12.679-12.346,12.552-22.956S101.4,83.28,98.881,71.661c-1.613-7.438-18.709-13.047-41.69-12.881" transform="translate(17.971 35.929)" fill="#3a308f"/>
        <path id="Path_25763" data-name="Path 25763" d="M33.073,163.552c.011.227.021.446.034.675a104.793,104.793,0,0,0,26.266,1.025l.314-10.942c-8.609,4.317-17.346,8.208-26.614,9.242" transform="translate(20.217 94.328)" fill="#f9c1b9"/>
        <path id="Path_25764" data-name="Path 25764" d="M33.073,160.3c.857,18.161,2.222,40.964,2.936,42.746,0,0,13.056,4.12,22.349-1.175l1.154-40.277c-8.67.9-17.776.018-26.438-1.294" transform="translate(20.217 97.988)" fill="#ebe9f4"/>
        <path id="Path_25765" data-name="Path 25765" d="M33.534,164.026c7.644,3.245,17.436,3.023,25.307.641a.314.314,0,0,0-.168-.606,50.965,50.965,0,0,1-25.017-.326c-.168-.045-.293.218-.122.29" transform="translate(20.449 100.086)" fill="#635ba8"/>
        <path id="Path_25766" data-name="Path 25766" d="M34.211,160.645a5.588,5.588,0,0,0-.172,2,12.356,12.356,0,0,0,.05,3.2.333.333,0,0,0,.638,0,14.269,14.269,0,0,0-.026-3.2,5.78,5.78,0,0,0-.184-2,.16.16,0,0,0-.306,0" transform="translate(20.756 98.131)" fill="#635ba8"/>
        <path id="Path_25767" data-name="Path 25767" d="M37.031,166.7c.168-1.79.047-3.588.15-5.382.029-.5-.773-.508-.786,0-.05,1.795.085,3.588.1,5.382a.268.268,0,0,0,.537,0" transform="translate(22.241 98.379)" fill="#635ba8"/>
        <path id="Path_25768" data-name="Path 25768" d="M39.633,167.049a31.27,31.27,0,0,0,.063-5.561.338.338,0,0,0-.675,0,31.422,31.422,0,0,0,.063,5.561.275.275,0,0,0,.549,0" transform="translate(23.792 98.517)" fill="#635ba8"/>
        <path id="Path_25769" data-name="Path 25769" d="M42.069,167.373c.677-1.664.575-3.886.551-5.648a.456.456,0,0,0-.912,0,47.49,47.49,0,0,0,.023,5.648c.029.193.282.139.338,0" transform="translate(25.439 98.591)" fill="#635ba8"/>
        <path id="Path_25770" data-name="Path 25770" d="M45.3,166.93a29.561,29.561,0,0,0-.069-5.093.387.387,0,0,0-.773,0,40.425,40.425,0,0,0,.367,5.029c.029.243.433.359.475.064" transform="translate(27.174 98.7)" fill="#635ba8"/>
        <path id="Path_25771" data-name="Path 25771" d="M47.641,166.311c.412-1.466-.114-3.012.282-4.492.114-.425-.54-.736-.738-.311-.683,1.466.126,3.216.053,4.748a.206.206,0,0,0,.4.055" transform="translate(28.675 98.603)" fill="#635ba8"/>
        <path id="Path_25772" data-name="Path 25772" d="M33.14,160.539c8.369,2.77,17.642,2.227,26.3,1.627.553-.039.559-.9,0-.867-8.872.532-17.433.5-26.167-1.226a.242.242,0,0,0-.129.466" transform="translate(20.154 97.847)" fill="#635ba8"/>
        <path id="Path_25773" data-name="Path 25773" d="M60.456,145.833l-28,.49s.419,10.12,1,22.411c9.267-1.034,18-4.926,26.612-9.242Z" transform="translate(19.839 89.146)" fill="#ed9996"/>
        <path id="Path_25774" data-name="Path 25774" d="M25.026,192.191s-.353,3.219,4.589,4.346a69.418,69.418,0,0,0,22,1.125c7.763-1.06,11.294-1.882,11.294-1.882a26.128,26.128,0,0,0,.532-3.588c.185-2.153-38.411,0-38.411,0" transform="translate(15.295 116.899)" fill="#09b1c0"/>
        <path id="Path_25775" data-name="Path 25775" d="M25.035,194.09c-.527,2.369,5.965,3.82,14.076,4.226a27.246,27.246,0,0,0-5.39-10.188c-3.932,1.424-8.137,3.5-8.686,5.962" transform="translate(15.285 115)" fill="#09b1c0"/>
        <path id="Path_25776" data-name="Path 25776" d="M59.844,186.1a35.3,35.3,0,0,1-22.352,1.176,65.8,65.8,0,0,0-7.078,2.095,27.233,27.233,0,0,1,5.391,10.19c8.213.413,18.09-.245,24.039-2.109,0,0,1.236-6.645,0-11.352" transform="translate(18.592 113.759)" fill="#ffcc72"/>
        <path id="Path_25777" data-name="Path 25777" d="M36.156,190.609c-1.66-.411-3.7-.9-4.71-2.4-.435-.648-.1-1.437.715-1.218a3.971,3.971,0,0,1,1.431,1.121,15.311,15.311,0,0,1,2.1,2.966c.259-.153.522-.3.781-.456-.617-1.015-1.252-2.009-1.8-3.065-.2-.385-1.919-4.732-.055-3.732.96.516.912,2.823.96,3.709a31.625,31.625,0,0,1-.029,3.316c-.032.685,1.046.685,1.068,0,.058-1.787.559-8.134-2.41-8-3.743.163.793,7.061,1.486,8.232a.453.453,0,0,0,.781-.456,11.493,11.493,0,0,0-3.714-4.263c-.669-.392-1.992-.49-2.341.395-1.191,3,3.717,4.225,5.664,4.352a.256.256,0,0,0,.069-.5" transform="translate(18.485 111.773)" fill="#09b1c0"/>
        <path id="Path_25778" data-name="Path 25778" d="M84.615,163.552c-.01.227-.023.446-.032.675a104.819,104.819,0,0,1-26.269,1.025L58,154.31c8.609,4.317,17.35,8.208,26.617,9.242" transform="translate(35.453 94.328)" fill="#f9c1b9"/>
        <path id="Path_25779" data-name="Path 25779" d="M84.548,160.3c-.857,18.161-2.224,40.964-2.934,42.746,0,0-13.056,4.12-22.349-1.175l-1.157-40.277c8.675.9,17.781.018,26.44-1.294" transform="translate(35.521 97.988)" fill="#ebe9f4"/>
        <path id="Path_25780" data-name="Path 25780" d="M83.652,163.736a50.959,50.959,0,0,1-25.02.326.314.314,0,0,0-.168.606c7.871,2.381,17.666,2.6,25.31-.641.168-.071.047-.335-.122-.29" transform="translate(35.602 100.086)" fill="#635ba8"/>
        <path id="Path_25781" data-name="Path 25781" d="M73.4,160.645a5.738,5.738,0,0,0-.184,2,14.367,14.367,0,0,0-.027,3.2.333.333,0,0,0,.638,0,12.287,12.287,0,0,0,.052-3.2,5.625,5.625,0,0,0-.172-2,.16.16,0,0,0-.306,0" transform="translate(44.684 98.131)" fill="#635ba8"/>
        <path id="Path_25782" data-name="Path 25782" d="M71.4,166.7c.016-1.793.151-3.587.1-5.382-.013-.508-.817-.5-.786,0,.1,1.793-.018,3.592.148,5.382a.268.268,0,0,0,.537,0" transform="translate(43.225 98.379)" fill="#635ba8"/>
        <path id="Path_25783" data-name="Path 25783" d="M68.839,167.049a31.269,31.269,0,0,0,.063-5.561.338.338,0,0,0-.675,0,31.423,31.423,0,0,0,.063,5.561.275.275,0,0,0,.549,0" transform="translate(41.645 98.517)" fill="#635ba8"/>
        <path id="Path_25784" data-name="Path 25784" d="M66.248,167.373a46.818,46.818,0,0,0,.021-5.648.456.456,0,0,0-.912,0c-.021,1.763-.124,3.983.553,5.648.056.139.309.193.338,0" transform="translate(39.941 98.591)" fill="#635ba8"/>
        <path id="Path_25785" data-name="Path 25785" d="M63.126,166.866a40.731,40.731,0,0,0,.366-5.029.387.387,0,0,0-.773,0,29.56,29.56,0,0,0-.066,5.093c.04.292.446.18.474-.064" transform="translate(38.237 98.7)" fill="#635ba8"/>
        <path id="Path_25786" data-name="Path 25786" d="M60.74,166.256c-.069-1.532.736-3.281.055-4.748-.2-.422-.852-.119-.738.311.395,1.481-.129,3.024.28,4.492a.206.206,0,0,0,.4-.055" transform="translate(36.704 98.604)" fill="#635ba8"/>
        <path id="Path_25787" data-name="Path 25787" d="M84.521,160.073c-8.74,1.731-17.294,1.758-26.169,1.226-.559-.032-.554.828,0,.867,8.654.6,17.927,1.144,26.3-1.627a.242.242,0,0,0-.129-.466" transform="translate(35.415 97.847)" fill="#635ba8"/>
        <path id="Path_25788" data-name="Path 25788" d="M57.757,145.833l28,.49s-.417,10.12-1,22.411c-9.267-1.034-18.008-4.926-26.617-9.242Z" transform="translate(35.306 89.146)" fill="#ed9996"/>
        <path id="Path_25789" data-name="Path 25789" d="M97.137,192.191s.356,3.219-4.587,4.346a69.412,69.412,0,0,1-22,1.125c-7.765-1.06-11.292-1.882-11.292-1.882a26.128,26.128,0,0,1-.532-3.588c-.187-2.153,38.408,0,38.408,0" transform="translate(35.899 116.899)" fill="#09b1c0"/>
        <path id="Path_25790" data-name="Path 25790" d="M87.9,194.09c.528,2.369-5.96,3.82-14.073,4.226a27.227,27.227,0,0,1,5.391-10.188c3.93,1.424,8.134,3.5,8.682,5.962" transform="translate(45.132 115)" fill="#09b1c0"/>
        <path id="Path_25791" data-name="Path 25791" d="M59.12,186.1a35.3,35.3,0,0,0,22.352,1.176,65.762,65.762,0,0,1,7.08,2.095,27.237,27.237,0,0,0-5.393,10.19c-8.213.413-18.092-.245-24.039-2.109,0,0-1.236-6.645,0-11.352" transform="translate(35.804 113.759)" fill="#ffcc72"/>
        <path id="Path_25792" data-name="Path 25792" d="M73.884,190.609c1.656-.411,3.7-.9,4.707-2.4.437-.648.1-1.437-.712-1.218a3.944,3.944,0,0,0-1.431,1.121,15.325,15.325,0,0,0-2.108,2.966q-.389-.23-.778-.456c.616-1.015,1.252-2.009,1.8-3.065.2-.385,1.919-4.732.055-3.732-.959.516-.912,2.823-.959,3.709a31.189,31.189,0,0,0,.029,3.316c.034.685-1.047.685-1.07,0-.056-1.787-.559-8.134,2.41-8,3.743.163-.791,7.061-1.486,8.232a.451.451,0,0,1-.778-.456,11.489,11.489,0,0,1,3.712-4.263c.67-.392,1.993-.49,2.341.395,1.192,3-3.717,4.225-5.662,4.352a.256.256,0,0,1-.069-.5" transform="translate(44.837 111.773)" fill="#09b1c0"/>
        <path id="Path_25793" data-name="Path 25793" d="M95.785,118.045,33.4,119.991s-1.6,9.5-3.07,21.037a244.988,244.988,0,0,0,67.044-15.283c-.954-4.661-1.594-7.7-1.594-7.7" transform="translate(18.543 72.159)" fill="#3a308f"/>
        <path id="Path_25794" data-name="Path 25794" d="M31.239,138.106c-1.818,14.278-3.427,31.673-1.534,38.071,1.661,5.614,16.788,5.417,34.923,3.061l-1.971-28.394s6.276,3.108,10.723,1.527L72.8,179.239s30.621,3.559,33.911-5.683c1.115-3.132-5.327-35.6-8.432-50.731a244.927,244.927,0,0,1-67.044,15.281" transform="translate(17.639 75.081)" fill="#635ba8"/>
        <path id="Path_25795" data-name="Path 25795" d="M43.067,139.673c10.233.176,21.353,1.587,32.116,1.233" transform="translate(26.326 85.38)" fill="#635ba8"/>
        <path id="Path_25796" data-name="Path 25796" d="M43.324,140.641c10.593.5,21.762,2.733,32.31,1.249.888-.127.566-1.382-.193-1.457-10.533-1.03-21.524-1.162-32.116-1.2a.7.7,0,0,0,0,1.4" transform="translate(26.069 85.114)" fill="#3a308f"/>
        <path id="Path_25797" data-name="Path 25797" d="M33.468,92.557l-3.327,42.306s31.418,7.273,55.573,3.248c-19.63-12.8-37.57-27.584-52.246-45.554" transform="translate(18.425 56.579)" fill="#009599"/>
        <path id="Path_25798" data-name="Path 25798" d="M85.717,87.417a47.819,47.819,0,0,1-2.077-7.939c-16.371,1.61-32.82,2.728-49.3,3.034-.132,1.589-.309,3.142-.525,4.641a502.032,502.032,0,0,0,51.906.264" transform="translate(20.668 48.584)" fill="#ffbd48"/>
        <path id="Path_25799" data-name="Path 25799" d="M91.695,102.939,90.13,91.381c-19.123,1.147-38.246.841-57.37-2.09-.061.147-.113.314-.177.454l-.377,4.808c.843,1.031,1.734,2.019,2.6,3.032,18.763,3.219,37.976,5.728,56.891,5.353" transform="translate(19.687 54.582)" fill="#ffbd48"/>
        <path id="Path_25800" data-name="Path 25800" d="M33.818,94.439C48,111.032,64.966,124.894,83.465,136.962a53.482,53.482,0,0,0,11.83-3.25L90.709,99.792c-18.917.377-38.128-2.133-56.891-5.353" transform="translate(20.673 57.729)" fill="#09b1c0"/>
        <path id="Path_25801" data-name="Path 25801" d="M89.92,94.468l-.553-4.106A23.147,23.147,0,0,1,86.488,84.5a501.579,501.579,0,0,1-51.906-.264,34.551,34.551,0,0,1-2.032,8.139c19.124,2.929,38.247,3.237,57.37,2.09" transform="translate(19.897 51.495)" fill="#09b1c0"/>
        <path id="Path_25802" data-name="Path 25802" d="M82.76,66.972l-6.3-1.394s-32.525-.511-32.872,0S34.118,67.4,34.118,67.4a172.768,172.768,0,0,1,.031,23.746c16.483-.308,32.933-1.424,49.3-3.034a81.271,81.271,0,0,1-.693-21.142" transform="translate(20.856 39.948)" fill="#09b1c0"/>
        <path id="Path_25803" data-name="Path 25803" d="M73.408,55.623,39.993,56.717S43,66.907,44.108,71.523a100.859,100.859,0,0,1,27.568-7.629,36.4,36.4,0,0,1,1.732-8.271" transform="translate(24.447 34.002)" fill="#ed9996"/>
        <path id="Path_25804" data-name="Path 25804" d="M43.326,68.386A8.752,8.752,0,0,1,43.72,70.6l-.093.008s-2.354-.412-2.354,1.229,7.043,11.358,13.472,11.358c13.234,0,17.412-9.655,19.3-12.632,1.751-2.771-3.1-2.156-3.8-2.053.185-2.871.382-5.432.651-7.749a100.859,100.859,0,0,0-27.568,7.629" transform="translate(25.229 37.14)" fill="#f9c1b9"/>
        <path id="Path_25805" data-name="Path 25805" d="M13.172,39.68c.817,5.456,6.492,10.771,17.537,6.717V38.683a16.948,16.948,0,0,0-17.537,1" transform="translate(8.052 22.438)" fill="#f9c1b9"/>
        <path id="Path_25806" data-name="Path 25806" d="M16.443,34.322c-2.593,1.5-3.693,4.647-3.231,7.749a16.945,16.945,0,0,1,17.536-1V35.753S23.6,30.191,16.443,34.322" transform="translate(8.013 20.047)" fill="#ed9996"/>
        <path id="Path_25807" data-name="Path 25807" d="M16.535,37.883c2.931.013,6.808-1.405,8.872,1.516,1.3,1.845,1.126,4.4,1.192,6.54a.319.319,0,0,0,.638,0c.066-2.454.013-5.528-1.842-7.393-2.278-2.29-6.1-1.561-8.888-.868a.1.1,0,0,0,.027.2" transform="translate(10.045 22.614)" fill="#8e4f4f"/>
        <path id="Path_25808" data-name="Path 25808" d="M19.711,39.769c1.266-.58,2.369-.714,3.458.284a19.607,19.607,0,0,1,1.735,2.24c.263.321.68-.089.533-.412-1.089-2.4-3.574-4.423-6.02-2.489-.23.182.064.483.293.379" transform="translate(11.819 23.606)" fill="#8e4f4f"/>
        <path id="Path_25809" data-name="Path 25809" d="M90.948,39.68c-.815,5.456-6.485,10.771-17.534,6.717V38.683a16.942,16.942,0,0,1,17.534,1" transform="translate(44.877 22.438)" fill="#f9c1b9"/>
        <path id="Path_25810" data-name="Path 25810" d="M87.721,34.322c2.593,1.5,3.691,4.647,3.227,7.749a16.943,16.943,0,0,0-17.534-1V35.753s7.151-5.562,14.307-1.431" transform="translate(44.877 20.047)" fill="#ed9996"/>
        <path id="Path_25811" data-name="Path 25811" d="M85.071,37.679c-2.791-.693-6.613-1.42-8.891.868-1.855,1.863-1.908,4.94-1.842,7.393a.318.318,0,0,0,.636,0c.068-2.166-.1-4.67,1.194-6.54,2.033-2.947,5.968-1.5,8.875-1.516a.1.1,0,0,0,.027-.2" transform="translate(45.432 22.614)" fill="#8e4f4f"/>
        <path id="Path_25812" data-name="Path 25812" d="M80.379,39.389c-2.444-1.934-4.931.09-6.02,2.491-.145.319.269.736.533.412a19.329,19.329,0,0,1,1.735-2.24c1.089-1,2.187-.865,3.458-.285.227.1.525-.193.293-.379" transform="translate(45.437 23.606)" fill="#8e4f4f"/>
        <path id="Path_25813" data-name="Path 25813" d="M23.355,48.193s-.424,14.985,3.177,22.4S42.217,86.279,58.325,87.763s37.511-3.816,42.387-15.472,6.78-19.711,5.3-31.581-2.119-17.165-13.142-22.463S21.873-13.843,23.355,48.193" transform="translate(14.26 4.863)" fill="#f9c1b9"/>
        <path id="Path_25814" data-name="Path 25814" d="M48.111,33a37.844,37.844,0,0,0-.8,4.017,4.44,4.44,0,0,0,.018,2.768,1.7,1.7,0,0,0,1.577,1.02,2.454,2.454,0,0,0,.964-.441c.168-.093.353-.327.54-.372q.889-.723.819.8.952,1.23-.533,1.577c-.458.171-.258.91.2.736a2.629,2.629,0,0,0,1.89-2.5A1.733,1.733,0,0,0,51,39.033c-.641.042-.931.528-1.478.749-2.22.9-1.776-1.755-1.563-2.826.222-1.118,1.022-2.892.408-3.986a.144.144,0,0,0-.261.034" transform="translate(28.786 20.111)" fill="#8e4f4f"/>
        <path id="Path_25815" data-name="Path 25815" d="M45.146,43.63c-.585-2.68,4.246-3.679,5.984-3.741,3.087-.113,6.5,1.225,6.853,4.662.052.5-.794.62-.891.119-.562-2.937-3.213-3.99-5.962-3.928a6.5,6.5,0,0,0-5.751,2.92.129.129,0,0,1-.234-.031" transform="translate(27.567 31.379)" fill="#8e4f4f"/>
        <path id="Path_25816" data-name="Path 25816" d="M31.619,34.25A11.1,11.1,0,0,1,38.863,29.4c.392-.082.276-.645-.09-.667-2.788-.171-6.919,2.562-7.492,5.378a.186.186,0,0,0,.338.142" transform="translate(19.119 17.558)" fill="#8e4f4f"/>
        <path id="Path_25817" data-name="Path 25817" d="M60.877,28.687c2.73.672,5.406,1.073,7.467,3.189.427.438,1.042-.208.662-.662a9.608,9.608,0,0,0-8.129-2.958.226.226,0,0,0,0,.432" transform="translate(37.115 17.205)" fill="#8e4f4f"/>
        <path id="Path_25818" data-name="Path 25818" d="M46.3,48.166a7.669,7.669,0,0,1-7.9,7.418,7.667,7.667,0,0,1-7.894-7.418,7.667,7.667,0,0,1,7.894-7.418,7.669,7.669,0,0,1,7.9,7.418" transform="translate(18.652 24.909)" fill="#ed9996"/>
        <path id="Path_25819" data-name="Path 25819" d="M73.1,48.166a7.91,7.91,0,0,1-15.789,0,7.91,7.91,0,0,1,15.789,0" transform="translate(35.033 24.909)" fill="#ed9996"/>
        <path id="Path_25820" data-name="Path 25820" d="M48.105,44.276a4.241,4.241,0,0,1,4.135.189.271.271,0,0,1-.274.467,5.708,5.708,0,0,0-3.693-.258c-.227.044-.4-.28-.168-.4" transform="translate(29.338 33.792)" fill="#8e4f4f"/>
        <path id="Path_25821" data-name="Path 25821" d="M42.4,36.377a2.777,2.777,0,0,1-2.417,3.05A2.775,2.775,0,0,1,37.421,36.5a2.773,2.773,0,0,1,2.419-3.047,2.772,2.772,0,0,1,2.56,2.926" transform="translate(22.875 20.448)" fill="#111"/>
        <path id="Path_25822" data-name="Path 25822" d="M61.608,35.8a2.532,2.532,0,1,1-4.979.121,2.532,2.532,0,1,1,4.979-.121" transform="translate(34.616 20.097)" fill="#111"/>
        <path id="Path_25823" data-name="Path 25823" d="M33.955,42.581a.771.771,0,1,1-.764-.867.817.817,0,0,1,.764.867" transform="translate(19.822 25.499)" fill="#8e4f4f"/>
        <path id="Path_25824" data-name="Path 25824" d="M37.242,45.681a.771.771,0,1,1-.765-.865.819.819,0,0,1,.765.865" transform="translate(21.83 27.395)" fill="#8e4f4f"/>
        <path id="Path_25825" data-name="Path 25825" d="M33.239,47.775a.77.77,0,1,1-.764-.864.819.819,0,0,1,.764.864" transform="translate(19.384 28.676)" fill="#8e4f4f"/>
        <path id="Path_25826" data-name="Path 25826" d="M39.591,41.8a.77.77,0,1,1-.764-.865.818.818,0,0,1,.764.865" transform="translate(23.267 25.024)" fill="#8e4f4f"/>
        <path id="Path_25827" data-name="Path 25827" d="M42.4,46.756a.771.771,0,1,1-.764-.867.818.818,0,0,1,.764.867" transform="translate(24.985 28.051)" fill="#8e4f4f"/>
        <path id="Path_25828" data-name="Path 25828" d="M58.365,42.581a.77.77,0,1,1-.765-.867.817.817,0,0,1,.765.867" transform="translate(34.744 25.499)" fill="#8e4f4f"/>
        <path id="Path_25829" data-name="Path 25829" d="M60.3,47.775a.771.771,0,1,1-.764-.864.819.819,0,0,1,.764.864" transform="translate(35.925 28.676)" fill="#8e4f4f"/>
        <path id="Path_25830" data-name="Path 25830" d="M64.31,42.876a.771.771,0,1,1-.764-.867.819.819,0,0,1,.764.867" transform="translate(38.376 25.68)" fill="#8e4f4f"/>
        <path id="Path_25831" data-name="Path 25831" d="M67.183,46.756a.77.77,0,1,1-.765-.867.819.819,0,0,1,.765.867" transform="translate(40.135 28.051)" fill="#8e4f4f"/>
        <path id="Path_25832" data-name="Path 25832" d="M63.263,46.218a.77.77,0,1,1-.762-.865.819.819,0,0,1,.762.865" transform="translate(37.738 27.724)" fill="#8e4f4f"/>
        <path id="Path_25833" data-name="Path 25833" d="M49.435,5.718A91.148,91.148,0,0,0,27.641,42.992l.322,1.31A86.8,86.8,0,0,0,41,40.374a30.744,30.744,0,0,0,2.805-1.26C46.931,26.723,54.34,15.576,62.9,5.156c-4.18.4-8.7.554-13.466.562" transform="translate(16.897 3.152)" fill="#f26952"/>
        <path id="Path_25834" data-name="Path 25834" d="M93.762,13.881C90.233,10.683,81.5,10,81.5,10s9.086-7.536,4.663-8.949-8.728,5.53-8.728,5.53S72-1.774,68.705.345s1.631,5.087,1.631,5.087A50.16,50.16,0,0,1,56.77,8.309C48.209,18.729,40.8,29.876,37.67,42.265a62.858,62.858,0,0,0,12.139-8.572A56.208,56.208,0,0,0,45.5,40.027c11.487-.011,25.566-12.686,25.566-12.686s6.35,14.643,7.831,14.226.991-5.581.991-5.581.108-.33.174-.53c.045-.131.055-.164.048-.139.006-.026,0,.008-.048.139-.174.53,5.293,12.354,6,11.646s1.06-3.577,1.06-3.577C91.353,52.653,97.732,54.55,97.732,54.55l2.6-4.22c8.2-14.6,3.812-27.044-6.572-36.449" transform="translate(23.027 0)" fill="#f1583a"/>
        <path id="Path_25835" data-name="Path 25835" d="M49.079,5.473c-13.15-.235-24.272,5.2-29.881,21.437a21.121,21.121,0,0,0,7.509,24.782c3.477.048,5.683-14.05,5.683-14.05L33.656,42.8A91.166,91.166,0,0,1,55.45,5.529q-3.13,0-6.371-.056" transform="translate(10.882 3.341)" fill="#f1583a"/>
        <path id="Path_25836" data-name="Path 25836" d="M61.165,64.292c2.931-.619,7.61.332,12.47,2.868,0,0-2.264,13.625-.991,21.786S76.05,109.9,76.05,109.9s1.568,16.442,1.45,22.233c-10.48-10.826-14.152-18.469-17.347-39.525-1.518-10.037.1-22.676,1.012-28.318" transform="translate(36.39 39.189)" fill="#635ba8"/>
        <path id="Path_25837" data-name="Path 25837" d="M59.355,66.621c.306-1.27,1.394-2.059,2.987-2.4-.907,5.643-2.53,18.28-1.01,28.318,3.2,21.055,6.866,28.7,17.346,39.525a6.776,6.776,0,0,1-.567,3.139,75.306,75.306,0,0,1-17.47-31.19c-5.374-19.387-2.156-33.792-1.286-37.395" transform="translate(35.213 39.259)" fill="#3a308f"/>
        <path id="Path_25838" data-name="Path 25838" d="M48.664,64.769c-2.912-.722-7.62.069-12.563,2.433,0,0,1.79,13.7.237,21.807s-4.088,19.06-4.088,19.06-1.436,19.46-1.518,25.255C41.581,122.868,44.773,114.034,48.69,93.1c1.869-9.979.685-22.668-.026-28.336" transform="translate(18.786 39.435)" fill="#635ba8"/>
        <path id="Path_25839" data-name="Path 25839" d="M51.565,67.172c-.259-1.284-1.321-2.112-2.9-2.5.712,5.669,1.895,18.357.026,28.336-3.917,20.929-7.109,29.764-17.958,40.219a6.768,6.768,0,0,0,.459,3.155,92.192,92.192,0,0,0,17.8-31.887c6.034-19.187,3.322-33.69,2.573-37.322" transform="translate(18.785 39.532)" fill="#3a308f"/>
        <path id="Path_25840" data-name="Path 25840" d="M51.3,120.436s3.061-4.937,1.563-5.867-6.585,4.117-6.585,4.117c-2.381-1.339-17.379-5.351-14.116-8.954S49.716,94.812,49.716,94.812s2.673-19.8-.208-28.631c0,0-23.5,16.385-32.437,25.99s-12.94,24.7,0,31.011c9.4,4.587,18.267,8.72,22.421,10.646h0c.648.3,1.191.554,1.594.74.047-.021.093-.031.14-.048,3.335,1.283,10.551,3.806,13.159,2.794,3.442-1.339-3.094-4.524-3.094-4.524s4.439,1.208,6.118-1.365-4.555-3.371-4.555-3.371,3.957-.823,5.193-2.779-6.756-4.837-6.756-4.837" transform="translate(5.379 40.456)" fill="#f9c1b9"/>
        <path id="Path_25841" data-name="Path 25841" d="M69.538,120.436s-3.061-4.937-1.565-5.867,6.587,4.117,6.587,4.117c2.383-1.339,17.383-5.351,14.116-8.954S71.122,94.812,71.122,94.812s-2.675-19.8.206-28.631c0,0,23.5,16.385,32.435,25.99s12.94,24.7,0,31.011c-9.4,4.587-18.267,8.72-22.424,10.646-.648.3-1.189.554-1.594.74-.045-.021-.093-.031-.142-.048-3.335,1.283-10.546,3.806-13.158,2.794-3.443-1.339,3.092-4.524,3.092-4.524S65.1,134,63.423,131.424s4.55-3.371,4.55-3.371-3.956-.823-5.19-2.779,6.755-4.837,6.755-4.837" transform="translate(38.299 40.456)" fill="#f9c1b9"/>
      </g>
    </g>
  </g>
</svg>
