<svg xmlns="http://www.w3.org/2000/svg" xmlns:xlink="http://www.w3.org/1999/xlink" width="61.916" height="71.015" viewBox="0 0 61.916 71.015">
  <defs>
    <clipPath id="clip-path">
      <rect id="Rectangle_10275" data-name="Rectangle 10275" width="40.608" height="59.42" fill="none"/>
    </clipPath>
    <clipPath id="clip-path-3">
      <rect id="Rectangle_10270" data-name="Rectangle 10270" width="31.284" height="47.922" fill="none"/>
    </clipPath>
    <clipPath id="clip-path-4">
      <rect id="Rectangle_10269" data-name="Rectangle 10269" width="31.284" height="46.45" fill="none"/>
    </clipPath>
    <clipPath id="clip-path-5">
      <rect id="Rectangle_10271" data-name="Rectangle 10271" width="27.856" height="41.85" fill="none"/>
    </clipPath>
    <clipPath id="clip-path-6">
      <rect id="Rectangle_10272" data-name="Rectangle 10272" width="26.751" height="20.416" fill="none"/>
    </clipPath>
    <clipPath id="clip-path-7">
      <rect id="Rectangle_10273" data-name="Rectangle 10273" width="30.716" height="16.216" fill="none"/>
    </clipPath>
  </defs>
  <g id="Group_27885" data-name="Group 27885" transform="translate(61.916 53.853) rotate(155)">
    <g id="Group_27884" data-name="Group 27884" clip-path="url(#clip-path)">
      <g id="Group_27883" data-name="Group 27883">
        <g id="Group_27882" data-name="Group 27882" clip-path="url(#clip-path)">
          <path id="Path_26508" data-name="Path 26508" d="M41.768,48.714S53.083,1.931,49.086.074c-4.3-2-31.714,36.707-31.714,36.707s6.021-.418,13.788,3.189a28.733,28.733,0,0,1,10.607,8.743" transform="translate(-9.333 0)" fill="#efa25a"/>
          <g id="Group_27872" data-name="Group 27872" transform="translate(9.236 0.403)" opacity="0.43">
            <g id="Group_27871" data-name="Group 27871">
              <g id="Group_27870" data-name="Group 27870" clip-path="url(#clip-path-3)">
                <path id="Path_26509" data-name="Path 26509" d="M69.092,103.565l.415-.152.14-.589-.882.322c.128.161.239.3.327.418" transform="translate(-46.179 -55.643)" fill="#9a4316"/>
                <g id="Group_27869" data-name="Group 27869" opacity="0.47">
                  <g id="Group_27868" data-name="Group 27868">
                    <g id="Group_27867" data-name="Group 27867" clip-path="url(#clip-path-4)">
                      <path id="Path_26510" data-name="Path 26510" d="M45.424,3.7q-.417.4-.856.851l.26-.095,1.39,3.8-3.8,1.39-.731-2-.381.429.638,1.743-3.117,1.14q-.454.54-.914,1.095l1.318,3.6-3.8,1.39-.49-1.338-.369.462.384,1.05-1.708.625-.591.754,2.473-.9,1.39,3.8-3.8,1.391-1.087-2.971-.365.472.977,2.672-3.8,1.391L28.35,24.2q-.432.572-.855,1.133l.645-.236,1.39,3.8-3.8,1.391-.636-1.74-.36.486.522,1.428-2.154.788-.537.734,2.865-1.048,1.39,3.8-3.8,1.391-1.161-3.174-.358.492L22.544,36.3l-2.585.945c.352.011.776.034,1.264.075l1.494-.547.276.755c.186.027.375.057.571.09L23.191,36.6l3.8-1.391,1.3,3.564q.56.18,1.143.389l3.393-1.241,1.194,3.266q.623.341,1.206.7l3.439-1.258,1.39,3.8-.955.349q.218.192.425.382l.7-.257.534,1.459c.329.338.623.657.886.952l-.945-2.585,3.8-1.39.006.018q.1-.44.206-.906l-1.3-3.561,2.286-.836.129-.584-2.588.946-1.39-3.8,3.8-1.39.689,1.885q.1-.46.2-.927l-.414-1.131.709-.259.123-.583-1.005.368-1.39-3.8,3.351-1.225c.039-.193.077-.386.116-.58L44.4,28.308l-1.39-3.8,3.8-1.39L48.1,26.654q.094-.478.188-.956l-1.007-2.754,1.649-.6.107-.577-1.929.705-1.39-3.8,3.8-1.39.212.58q.11-.642.213-1.274l-.124.045-1.391-3.8,2.208-.808c.026-.19.051-.379.076-.566l-2.457.9-1.391-3.8,3.8-1.39L51.083,8.3q.06-.607.106-1.178l-.049-.134.061-.022c.015-.187.028-.372.041-.553l-.275.1-1.39-3.8,1.632-.6c-.027-.181-.06-.349-.1-.5L49.4,2.239,48.9.872c-.141.078-.288.167-.44.267l.466,1.274Zm-7.11,7.985,3.8-1.39,1.39,3.8-3.8,1.39ZM35.845,31.436l-1.39-3.8,3.8-1.39,1.39,3.8Zm3.975-.916,1.39,3.8-3.8,1.391-1.39-3.8ZM35.37,31.609,31.569,33l-1.39-3.8,3.8-1.39Zm1.8-9.814,3.8-1.39,1.39,3.8-3.8,1.391Zm2.711-5.839,3.8-1.39,1.39,3.8-3.8,1.39ZM35.6,17.52l3.8-1.39,1.39,3.8-3.8,1.39Zm1.089,4.449,1.39,3.8-3.8,1.391-1.391-3.8Zm-8.077,2.954,3.8-1.39,1.39,3.8-3.8,1.391ZM25.9,30.762l3.8-1.391,1.39,3.8-3.8,1.391Zm2.954,8.077-1.39-3.8,3.8-1.391,1.39,3.8Zm2.885-5.365,3.8-1.39,1.39,3.8-3.8,1.391ZM34.7,41.551l-1.39-3.8,3.8-1.39,1.39,3.8Zm9.64,1.321-3.8,1.391-1.39-3.8,3.8-1.391ZM42.773,38.6l-3.8,1.391-1.39-3.8,3.8-1.391Zm2.712-5.839-3.8,1.391-1.39-3.8,3.8-1.39Zm-1.564-4.276-3.8,1.39-1.39-3.8,3.8-1.39Zm2.712-5.839-3.8,1.391-1.39-3.8,3.8-1.39ZM49.345,16.8l-3.8,1.39-1.39-3.8,3.8-1.39Zm-1.564-4.276-3.8,1.39-1.39-3.8,3.8-1.39Zm2.712-5.839-3.8,1.39L45.3,4.278l3.8-1.39Z" transform="translate(-19.959 -0.872)" fill="#9a4316"/>
                    </g>
                  </g>
                </g>
              </g>
            </g>
          </g>
          <g id="Group_27875" data-name="Group 27875" transform="translate(11.644 0.002)" opacity="0.64" style="mix-blend-mode: darken;isolation: isolate">
            <g id="Group_27874" data-name="Group 27874">
              <g id="Group_27873" data-name="Group 27873" clip-path="url(#clip-path-5)">
                <path id="Path_26511" data-name="Path 26511" d="M25.16,31.788a32.16,32.16,0,0,1,13.3,3.2,28.707,28.707,0,0,1,9.087,6.862c.429-1.892.918-4.081,1.43-6.447-3.112-.984-8.1-3.438-8.485-9.116-.4-5.879,7.74-19.08,12.523-26.281C49.151-.418,32.572,21.635,25.16,31.788" transform="translate(-25.16 -0.003)" fill="#e4943f"/>
              </g>
            </g>
          </g>
          <path id="Path_26512" data-name="Path 26512" d="M42.457,86.851A29.075,29.075,0,0,0,32.13,78.673,37.177,37.177,0,0,0,18.84,75.424c-.622.864-1.049,1.463-1.236,1.726a.908.908,0,0,0,.357.071,35.489,35.489,0,0,1,13.4,3.1,27.185,27.185,0,0,1,10.232,8.422.9.9,0,0,0,.342.3c.079-.33.261-1.093.521-2.2" transform="translate(-9.457 -40.52)" fill="#cc7e33"/>
          <g id="Group_27878" data-name="Group 27878" transform="translate(8.039 28.299)" opacity="0.64" style="mix-blend-mode: darken;isolation: isolate">
            <g id="Group_27877" data-name="Group 27877">
              <g id="Group_27876" data-name="Group 27876" clip-path="url(#clip-path-6)">
                <path id="Path_26513" data-name="Path 26513" d="M34.364,64.218c-4.425-2.055-8.385-3.207-10.834-3.054-3.636,4.907-6.16,8.47-6.16,8.47s6.021-.418,13.789,3.189a28.732,28.732,0,0,1,10.607,8.744s1.028-4.251,2.355-10.24c-1.722-2.237-5.432-5.1-9.758-7.108" transform="translate(-17.371 -61.151)" fill="#df8b35"/>
              </g>
            </g>
          </g>
          <path id="Path_26514" data-name="Path 26514" d="M33.519,92.373S37.052,78.8,36.874,76.622,31.958,70.154,26.1,67.431,15.185,63.57,13.388,64.954c-2.466,1.9-10.123,12.418-10.123,12.418a64.048,64.048,0,0,1,16.253,5.075,44.381,44.381,0,0,1,14,9.926" transform="translate(-1.754 -34.578)" fill="#f2b771"/>
          <g id="Group_27881" data-name="Group 27881" transform="translate(1.511 41.579)" opacity="0.64" style="mix-blend-mode: darken;isolation: isolate">
            <g id="Group_27880" data-name="Group 27880">
              <g id="Group_27879" data-name="Group 27879" clip-path="url(#clip-path-7)">
                <path id="Path_26515" data-name="Path 26515" d="M19.929,96.06a36.054,36.054,0,0,1,7.309,4.563,37.683,37.683,0,0,1,6.279,5.441s.183-.7.462-1.809A39.163,39.163,0,0,0,20.8,94.2,50.4,50.4,0,0,0,4.158,89.849c-.556.75-.894,1.214-.894,1.214A59.333,59.333,0,0,1,13,93.541a44.661,44.661,0,0,1,6.924,2.518" transform="translate(-3.264 -89.849)" fill="#e4943f"/>
              </g>
            </g>
          </g>
          <path id="Path_26516" data-name="Path 26516" d="M18.581,96.277a38.283,38.283,0,0,1,13.858,10.91.974.974,0,0,1-.256,1.44,1.205,1.205,0,0,1-1.558-.349,36.5,36.5,0,0,0-12.91-10.136A48.045,48.045,0,0,0,1.162,93.973,1.187,1.187,0,0,1,0,92.89a.988.988,0,0,1,1.069-1.011,49.634,49.634,0,0,1,17.512,4.4" transform="translate(0 -49.36)" fill="#fdce86"/>
          <path id="Path_26517" data-name="Path 26517" d="M38.278,76.684c1.212,2.968,13.149,11.6,15.081,12.843,1.013-4.152,2.3-9.793,2.2-11.13-.178-2.175-4.916-6.468-10.778-9.19-1.272-.59-2.5-1.106-3.674-1.538-1.267,2.032-3.863,6.47-2.824,9.015" transform="translate(-20.435 -36.354)" fill="#fdce86"/>
        </g>
      </g>
    </g>
  </g>
</svg>
