<svg id="Component_17_1" data-name="Component 17 – 1" xmlns="http://www.w3.org/2000/svg" xmlns:xlink="http://www.w3.org/1999/xlink" width="276.88" height="289.014" viewBox="0 0 276.88 289.014">
  <defs>
    <clipPath id="clip-path">
      <rect id="Rectangle_10279" data-name="Rectangle 10279" width="196.488" height="224.252" fill="none"/>
    </clipPath>
    <clipPath id="clip-path-3">
      <rect id="Rectangle_10276" data-name="Rectangle 10276" width="130.496" height="63.943" fill="none"/>
    </clipPath>
    <clipPath id="clip-path-4">
      <rect id="Rectangle_10277" data-name="Rectangle 10277" width="68.947" height="82.595" fill="none"/>
    </clipPath>
  </defs>
  <g id="Group_27895" data-name="Group 27895" transform="matrix(-0.891, 0.454, -0.454, -0.891, 276.88, 199.81)">
    <g id="Group_27894" data-name="Group 27894" transform="translate(0 0)" clip-path="url(#clip-path)">
      <g id="Group_27893" data-name="Group 27893" transform="translate(0 0)">
        <g id="Group_27892" data-name="Group 27892" clip-path="url(#clip-path)">
          <path id="Path_26518" data-name="Path 26518" d="M118.634,3.313h0c16.213,7.08,23.288,23.908,16.131,38.357L74.315,163.684.23,131.333,73.383,15.5C82.21,1.515,102.2-3.865,118.634,3.313" transform="translate(58.989 0.077)" fill="#7f5132"/>
          <path id="Path_26519" data-name="Path 26519" d="M111.123,39.788c7.159-14.449.082-31.279-16.131-38.357-1.141-.5-2.3-.93-3.47-1.311A33.058,33.058,0,0,0,73.38,13.668L.226,129.5l54.63,23.856Z" transform="translate(82.631 1.96)" fill="#9e6f4f"/>
          <path id="Path_26520" data-name="Path 26520" d="M75.8,6.378,73.279,10.75l-1.853-.809c-.519.5-1.022,1.023-1.5,1.564l2.334,1.02L64.077,26.74l-3.343-1.461-1.1,1.74,3.421,1.495L54.875,42.73,50.83,40.963l-1.1,1.738,4.123,1.8L45.673,58.72l-4.749-2.075-1.1,1.74,4.826,2.107L36.471,74.708l-5.449-2.379-1.1,1.738,5.527,2.415L27.269,90.7,21.117,88.01l-1.1,1.74,6.23,2.719-8.181,14.218-6.855-2.993-1.1,1.738,6.932,3.027L8.865,122.675l-7.555-3.3-1.1,1.74,7.633,3.333L2.825,133.17l2.045.892,5.019-8.721L26.271,132.5l-5.019,8.721,2.045.892,5.017-8.721,16.382,7.154-5.017,8.721,2.042.892,5.019-8.721,16.382,7.154L58.1,157.308l2.045.892,5.019-8.721,8,3.492.9-1.824-7.879-3.441,8.181-14.218,6.944,3.033.9-1.824-6.827-2.982L83.569,117.5l5.892,2.572.9-1.824-5.775-2.522,8.181-14.216,4.838,2.113.9-1.824-4.721-2.063,8.181-14.216,3.786,1.654.9-1.824-3.669-1.6,8.181-14.216,2.734,1.193.9-1.824L112.2,67.761l8.181-14.216,1.679.733.9-1.824-1.563-.684,8.181-14.216.329.143a25.836,25.836,0,0,0,1.209-7.261l-2.562,4.453-16.382-7.154,8.181-14.218,7.2,3.143a29.551,29.551,0,0,0-2.035-3.108l-4.142-1.807,1-1.743q-.805-.783-1.683-1.518l-1.362,2.368L102.952,3.7,104.593.846c-.773-.156-1.551-.287-2.329-.4l-1.357,2.36L94.765.125a38.746,38.746,0,0,0-4.078.438l9.2,4.017L91.705,18.8,75.324,11.643,79.668,4.1A34.486,34.486,0,0,0,75.8,6.378m35.355,23.131,16.382,7.154-8.181,14.216-16.382-7.154Zm-9.2,15.99,16.382,7.154-8.181,14.216L93.77,59.715Zm-9.2,15.988,16.382,7.154-8.181,14.218L84.568,75.7Zm-9.2,15.99,16.382,7.154L91.747,98.846,75.366,91.692Zm-9.2,15.99,16.382,7.154-8.181,14.216-16.382-7.154Zm-9.2,15.99,16.382,7.154-8.181,14.216-16.382-7.154Zm-9.2,15.988L72.323,132.6l-8.181,14.216L47.76,139.66ZM101.931,5.473l16.382,7.154-8.181,14.216L93.75,19.689Zm-9.2,15.99,16.382,7.154-8.181,14.216L84.548,35.679Zm-9.2,15.99,16.382,7.154L91.727,58.822,75.346,51.669Zm-9.2,15.988,16.382,7.154L82.525,74.812,66.144,67.658Zm-9.2,15.99L81.5,76.584,73.321,90.8,56.94,83.646Zm-9.2,15.99L72.3,92.574,64.119,106.79,47.738,99.636Zm-9.2,15.99L63.1,108.564,54.917,122.78l-16.382-7.154Zm-9.2,15.988L53.9,124.552l-8.181,14.216-16.382-7.154ZM27.291,130.721,10.91,123.568l8.181-14.216,16.382,7.154Zm9.2-15.988L20.112,107.58l8.181-14.216,16.382,7.154Zm9.2-15.99L29.314,91.59,37.5,77.374l16.382,7.154Zm9.2-15.99L38.516,75.6,46.7,61.385l16.382,7.154Zm9.2-15.988L47.718,59.612,55.9,45.395l16.382,7.154Zm9.2-15.99L56.92,43.622,65.1,29.407l16.382,7.154ZM90.685,20.571,82.5,34.786,66.122,27.633,74.3,13.417Z" transform="translate(65.415 0.148)" fill="#553214"/>
          <path id="Path_26521" data-name="Path 26521" d="M128.449,100.418s10.542-34.568,9.878-47.729c-.8-15.753-12.945-33.04-37.847-43.914S61.49-1.576,46.109,3.859C28.777,9.983.071,40.748.071,40.748A306.644,306.644,0,0,1,69.4,61.644c38.735,16.915,59.046,38.774,59.046,38.774" transform="translate(6.8 117.949)" fill="#543115"/>
          <g id="Group_27888" data-name="Group 27888" transform="translate(6.863 154.254)" opacity="0.64" style="mix-blend-mode: darken;isolation: isolate">
            <g id="Group_27887" data-name="Group 27887">
              <g id="Group_27886" data-name="Group 27886" clip-path="url(#clip-path-3)">
                <path id="Path_26522" data-name="Path 26522" d="M71.125,25.093a159.246,159.246,0,0,1,30.9,17.927c17.381,11.439,26.361,21.092,26.361,21.092s.871-2.6,2.209-6.711C123.864,49.937,105.1,31.331,75.08,18.22,44.3,4.777,14.353.97,4,.005c-2.483,2.739-4,4.438-4,4.438A286.775,286.775,0,0,1,41.629,14.858a210.852,210.852,0,0,1,29.5,10.235" transform="translate(0.001 0)" fill="#e4943f"/>
              </g>
            </g>
          </g>
          <path id="Path_26523" data-name="Path 26523" d="M79.564,18.526c37.528,16.389,57.479,41.38,58.309,42.437a3.384,3.384,0,0,1-1.277,5.355,5.684,5.684,0,0,1-6.663-1.489c-.213-.272-19.385-24.172-54.325-39.43C40.365,10.006,5.224,7.879,4.873,7.859,2.223,7.71.045,5.837.007,3.671S2.082-.131,4.732.015A240.281,240.281,0,0,1,79.564,18.526" transform="translate(0.275 157.604)" fill="#945f37"/>
          <g id="Group_27891" data-name="Group 27891" transform="translate(76.117 118.645)" opacity="0.47">
            <g id="Group_27890" data-name="Group 27890">
              <g id="Group_27889" data-name="Group 27889" clip-path="url(#clip-path-4)">
                <path id="Path_26524" data-name="Path 26524" d="M5.155.007c7.41,1.074,15.8,3.614,26.01,8.072,24.9,10.875,37.049,28.161,37.847,43.914.352,6.988-2.453,20.008-5.163,30.685,0,0-23.2-25.955-47.635-38.337S1.216,8.42,5.155.007" transform="translate(-0.001 -0.001)" fill="#7f5132"/>
              </g>
            </g>
          </g>
        </g>
      </g>
    </g>
  </g>
</svg>
