<svg xmlns="http://www.w3.org/2000/svg" xmlns:xlink="http://www.w3.org/1999/xlink" width="31.408" height="31.252" viewBox="0 0 31.408 31.252">
    <defs>
        <clipPath id="clip-path">
            <rect id="Rectangle_10268" data-name="Rectangle 10268" width="31.408" height="31.252" fill="none"/>
        </clipPath>
    </defs>
    <g id="Group_27866" data-name="Group 27866" transform="translate(0 0)">
        <g id="Group_27865" data-name="Group 27865" transform="translate(0 0)" clip-path="url(#clip-path)">
            <path id="Path_26500" data-name="Path 26500" d="M26.525,25.7c2.712-.581,6.917-8.1,3.755-16.007S19.015-.184,15.458.014C5,.595.452,8.13.044,14.045c-.4,5.731,1.982,10.941,3.36,11.066,2.174.2,1.976-3.36,3.557-2.767s.4,8.5,3.162,8.893,1.186-7.114,2.964-6.917,1.179,4.545,4.15,4.545c3.162,0,1.778-5.138,3.952-5.336S23.758,26.3,26.525,25.7" transform="translate(0 0)" fill="#ffa727"/>
            <path id="Path_26501" data-name="Path 26501" d="M26.525,25.7c2.712-.581,6.917-8.1,3.755-16.007S19.015-.184,15.458.014C5,.595.452,8.13.044,14.045c-.4,5.731,1.982,10.941,3.36,11.066,2.174.2,1.976-3.36,3.557-2.767s.4,8.5,3.162,8.893,1.186-7.114,2.964-6.917,1.179,4.545,4.15,4.545c3.162,0,1.778-5.138,3.952-5.336S23.758,26.3,26.525,25.7" transform="translate(0 0)" fill="#804331"/>
            <path id="Path_26502" data-name="Path 26502" d="M22.723,15.274a7.415,7.415,0,0,1,2.669.636,4.1,4.1,0,0,0,3.739-.981,3.789,3.789,0,0,0,.984-3.862c-3-7.51-10.7-9.388-14.082-9.2C6.1,2.419,1.776,9.578,1.388,15.2c-.375,5.445,1.927,6.043,3.174,5.628,1.818.54,3.224-2.617,5.116-2.485a2.772,2.772,0,0,1,1.849.983c.415.531,1.036,1.087,1.676.877.564-.185.8-.872,1.315-1.171.785-.457,1.726.161,2.513.615a4.182,4.182,0,0,0,2.332.646,2.283,2.283,0,0,0,1.958-1.27c.388-.913,0-2.061.539-2.9.322-.5.273-.772.863-.851" transform="translate(-0.763 -1.05)" fill="#91533e"/>
            <path id="Path_26503" data-name="Path 26503" d="M29.16,11.008C28.355,6.175,20.86,3.7,17.3,4.1c-8.135.927-12.843,7.3-12.25,10.859A1.7,1.7,0,0,0,6.9,16.336a3.814,3.814,0,0,0,2.218-1.321c2.023-2.021,4.091-4.517,6.952-4.654,3.151-.151,5.643,2.661,8.7,3.44a4.305,4.305,0,0,0,2.722-.09,2.788,2.788,0,0,0,1.673-2.7" transform="translate(-2.833 -2.299)" fill="#9d6149"/>
            <path id="Path_26504" data-name="Path 26504" d="M19.042,11.379c-.252-.534-2.077.973-1.729,1.512.241.373,2.069-.795,1.729-1.512" transform="translate(-9.784 -6.383)" fill="#bb8772"/>
            <path id="Path_26505" data-name="Path 26505" d="M8.752,29.772c-.5-.534-1.147,2.107-.571,2.6.4.344,1.239-1.887.571-2.6" transform="translate(-4.507 -16.828)" fill="#bb8772"/>
            <path id="Path_26506" data-name="Path 26506" d="M11.863,17.836c-1.406-.281-2.461,2.461-1.79,2.909s2.909-2.686,1.79-2.909" transform="translate(-5.59 -10.094)" fill="#bb8772"/>
            <path id="Path_26507" data-name="Path 26507" d="M41.56,43.432c-.927,1.317-2.7,4.255-4.3,4.476-2.03.282-4.533-3.432-6.287-2.373-1.028.62-1.436,1.872-2.019,2.921s-.982,2.218-2.069,2.237c-1.143.02-1.321-1.752-1.683-2.836s-1.561-2.22-2.49-1.556a1.965,1.965,0,0,0-.619.992,12.565,12.565,0,0,0-.633,2.745,2.654,2.654,0,0,1-.41,1.411,1.648,1.648,0,0,1-2.449-.3c.246,2.194.612,4.451,2.058,4.658,2.767.4,1.185-7.114,2.964-6.917s1.179,4.545,4.15,4.545c3.162,0,1.778-5.138,3.952-5.336s2.569,2.767,5.336,2.174c1.6-.342,3.708-3.089,4.532-6.9l-.037.055" transform="translate(-10.541 -24.576)" fill="#723727"/>
        </g>
    </g>
</svg>
