<svg id="Group_27792" data-name="Group 27792" xmlns="http://www.w3.org/2000/svg" xmlns:xlink="http://www.w3.org/1999/xlink" width="171.062" height="313.873" viewBox="0 0 171.062 313.873">
  <defs>
    <clipPath id="clip-path">
      <rect id="Rectangle_10242" data-name="Rectangle 10242" width="171.062" height="313.873" fill="none"/>
    </clipPath>
    <clipPath id="clip-path-3">
      <rect id="Rectangle_10240" data-name="Rectangle 10240" width="171.062" height="39.784" fill="none"/>
    </clipPath>
  </defs>
  <g id="Group_27791" data-name="Group 27791" clip-path="url(#clip-path)">
    <g id="Group_27790" data-name="Group 27790">
      <g id="Group_27789" data-name="Group 27789" clip-path="url(#clip-path)">
        <g id="Group_27788" data-name="Group 27788" transform="translate(0 274.09)" opacity="0.3">
          <g id="Group_27787" data-name="Group 27787">
            <g id="Group_27786" data-name="Group 27786" clip-path="url(#clip-path-3)">
              <path id="Path_25842" data-name="Path 25842" d="M171.062,192.059c0,10.985-38.294,19.892-85.532,19.892S0,203.044,0,192.059s38.292-19.892,85.53-19.892,85.532,8.906,85.532,19.892" transform="translate(0 -172.167)" fill="#bcbcbc"/>
            </g>
          </g>
        </g>
        <path id="Path_25843" data-name="Path 25843" d="M24.389,44.4s8.178,48.072-4.725,60.275S.14,128.233,13.737,138.425s17.974-2.364,17.974-2.364-8.361,24.16,10.717,22.887,29.99-17.173,29.99-17.173,25.341,25.981,47.676,20.172c10.453-1.479,14.345-10.6,17.455-19.117,3.459,2.993,12.523,5.572,15.313-19.882,0,0,13.249,2.652,7.322-16.523S137.7,93.471,132.959,75.39s-5.225-43.88-5.225-43.88S35.395,13.95,24.389,44.4" transform="translate(3.687 15.672)" fill="#f1583a"/>
        <path id="Path_25844" data-name="Path 25844" d="M56.316,65.95S30.956,68.484,32.422,83.837s.177,50.243,8.393,63c3.426,5.314,45.154.874,56.065-2.41s11.192-13.436,9.975-23.85S102.274,85.484,98.6,74.325c-2.347-7.146-19.723-10.9-42.288-8.376" transform="translate(19.157 38.576)" fill="#f27fb2"/>
        <path id="Path_25845" data-name="Path 25845" d="M58.065,65.863S32.706,68.4,34.174,83.749s.172,50.245,8.39,63c3.424,5.317,45.155.876,56.064-2.41s11.193-13.433,9.975-23.848-4.579-35.092-8.248-46.251c-2.348-7.146-19.723-10.9-42.29-8.374" transform="translate(20.194 38.524)" fill="#f16790"/>
        <path id="Path_25846" data-name="Path 25846" d="M96.154,181.553s.326,2.983-4.254,4.025a64.269,64.269,0,0,1-20.386,1.046c-7.194-.984-10.466-1.746-10.466-1.746a24.467,24.467,0,0,1-.5-3.324c-.17-1.995,35.6,0,35.6,0" transform="translate(35.846 106.954)" fill="#f16790"/>
        <path id="Path_25847" data-name="Path 25847" d="M87.766,183.277c.486,2.192-5.531,3.537-13.046,3.916a25.171,25.171,0,0,1,5-9.441c3.641,1.318,7.541,3.24,8.049,5.524" transform="translate(44.234 105.229)" fill="#f16790"/>
        <path id="Path_25848" data-name="Path 25848" d="M60.917,175.847a32.716,32.716,0,0,0,20.713,1.091,60.456,60.456,0,0,1,6.561,1.944,25.163,25.163,0,0,0-5,9.441c-7.613.384-16.765-.224-22.275-1.955,0,0-1.145-6.156,0-10.52" transform="translate(35.762 104.101)" fill="#f27fb2"/>
        <path id="Path_25849" data-name="Path 25849" d="M74.764,179.995c1.535-.384,3.429-.842,4.362-2.226.406-.6.091-1.329-.659-1.124a3.688,3.688,0,0,0-1.331,1.038,14.357,14.357,0,0,0-1.947,2.749c-.245-.142-.484-.283-.723-.425.568-.939,1.159-1.861,1.667-2.839.185-.357,1.777-4.386.051-3.459-.888.479-.847,2.617-.89,3.439a29.528,29.528,0,0,0,.024,3.073c.033.637-.966.637-.985,0-.054-1.656-.522-7.538,2.23-7.417,3.472.151-.732,6.543-1.374,7.629a.419.419,0,0,1-.723-.425,10.582,10.582,0,0,1,3.439-3.947c.619-.366,1.842-.457,2.17.361,1.1,2.778-3.447,3.918-5.25,4.033a.235.235,0,0,1-.06-.46" transform="translate(43.967 102.298)" fill="#f16790"/>
        <path id="Path_25850" data-name="Path 25850" d="M29.589,181.553s-.328,2.983,4.252,4.025a64.28,64.28,0,0,0,20.387,1.046c7.194-.984,10.467-1.746,10.467-1.746a24.262,24.262,0,0,0,.49-3.324c.175-1.995-35.6,0-35.6,0" transform="translate(17.513 106.954)" fill="#f16790"/>
        <path id="Path_25851" data-name="Path 25851" d="M29.6,183.277c-.487,2.192,5.529,3.537,13.046,3.916a25.263,25.263,0,0,0-5-9.441c-3.642,1.318-7.541,3.24-8.049,5.524" transform="translate(17.505 105.229)" fill="#f16790"/>
        <path id="Path_25852" data-name="Path 25852" d="M61.918,175.847a32.715,32.715,0,0,1-20.712,1.091,60.5,60.5,0,0,0-6.564,1.944,25.254,25.254,0,0,1,5,9.441c7.611.384,16.764-.224,22.277-1.955,0,0,1.143-6.156,0-10.52" transform="translate(20.508 104.101)" fill="#f27fb2"/>
        <path id="Path_25853" data-name="Path 25853" d="M39.961,179.995c-1.536-.384-3.429-.842-4.364-2.226-.4-.6-.091-1.329.662-1.124a3.677,3.677,0,0,1,1.328,1.038,14.372,14.372,0,0,1,1.95,2.749l.721-.425c-.57-.939-1.157-1.861-1.667-2.839-.188-.357-1.777-4.386-.051-3.459.89.479.845,2.617.89,3.439a28.674,28.674,0,0,1-.029,3.073c-.029.637.971.637.99,0,.056-1.656.522-7.538-2.234-7.417-3.469.151.734,6.543,1.379,7.629a.419.419,0,0,0,.721-.425,10.639,10.639,0,0,0-3.439-3.947c-.619-.366-1.844-.457-2.171.361-1.1,2.778,3.445,3.918,5.25,4.033a.235.235,0,0,0,.062-.46" transform="translate(20.411 102.298)" fill="#f16790"/>
        <path id="Path_25854" data-name="Path 25854" d="M37.622,138.3c-.166,13.677,2.988,63.443,3.927,69.381,0,0,11.957,4.308,18.722-1.044,0,0,2.671-57.836,2.16-60.9,0,0,6.327.75,10.326-.933,0,0,.382,59.493,1.426,63.215,0,0,11.854,5.994,17.421-.3,0,0,3.959-68.586,2.3-83.878A149.49,149.49,0,0,1,37.622,138.3" transform="translate(22.269 73.316)" fill="#c4badc"/>
        <path id="Path_25855" data-name="Path 25855" d="M93.386,118.729c-2.662-4.5-54.97-.97-54.97-.97s-.661,13.917-.8,24.92A149.453,149.453,0,0,0,93.9,128.228c-.435-4.012.037-8.568-.516-9.5" transform="translate(22.271 68.934)" fill="#b4aad3"/>
        <path id="Path_25856" data-name="Path 25856" d="M69.068,121.955c1.49,4.088,3.8,9.32,6.65,12.59" transform="translate(40.888 72.197)" fill="#635ba8"/>
        <path id="Path_25857" data-name="Path 25857" d="M68.915,122.147a25.812,25.812,0,0,0,2.476,6.457,24.66,24.66,0,0,0,4.1,6.443c.446.47,1.043-.245.65-.782a45.506,45.506,0,0,1-3.923-6.241c-1.011-1.966-1.691-4.267-2.832-6.113-.17-.275-.524-.118-.466.236" transform="translate(40.794 72.088)" fill="#635ba8"/>
        <path id="Path_25858" data-name="Path 25858" d="M38.12,132.835c2.853-2.125,3.529-6.05,4.752-9.647" transform="translate(22.567 72.927)" fill="#635ba8"/>
        <path id="Path_25859" data-name="Path 25859" d="M38.459,133.374c2.834-1.532,4.532-6.553,4.886-10.045a.327.327,0,0,0-.615-.2,28.293,28.293,0,0,0-1.879,4.981A13.83,13.83,0,0,1,38,132.649c-.337.384.089.925.462.724" transform="translate(22.422 72.787)" fill="#635ba8"/>
        <path id="Path_25860" data-name="Path 25860" d="M47.925,136.884c7.871.164,16.423,1.471,24.7,1.145" transform="translate(28.371 81.035)" fill="#635ba8"/>
        <path id="Path_25861" data-name="Path 25861" d="M48.119,137.777c8.146.463,16.74,2.536,24.854,1.156.683-.116.438-1.28-.151-1.347a220.287,220.287,0,0,0-24.7-1.11c-.7,0-.693,1.259,0,1.3" transform="translate(28.177 80.793)" fill="#635ba8"/>
        <path id="Path_25862" data-name="Path 25862" d="M54.661,147.459c-.409-8.995-.544-17.99-.409-27.147" transform="translate(32.087 71.224)" fill="#635ba8"/>
        <path id="Path_25863" data-name="Path 25863" d="M55.337,147.69c.1-9,.014-18.154-.269-27.147-.025-.834-1.022-.825-1.068,0a181.16,181.16,0,0,0,.544,27.147c.057.6.786.632.793,0" transform="translate(31.805 70.993)" fill="#635ba8"/>
        <path id="Path_25864" data-name="Path 25864" d="M55.706,147.573c7.938-2.187,4.821-19.206,4.3-25.864-.075-.942-1.24-.979-1.242,0-.014,6.354,3.644,22.161-3.3,24.834-.546.21-.323,1.181.236,1.03" transform="translate(32.653 71.625)" fill="#635ba8"/>
        <path id="Path_25865" data-name="Path 25865" d="M35.509,131.4s35.68,7.863,64.46-.86l-.118-2.1C76.893,124.305,54.839,113.128,36.3,98.254Z" transform="translate(21.021 58.166)" fill="#fcb31d"/>
        <path id="Path_25866" data-name="Path 25866" d="M117.567,98.77S109.508,74.427,87.06,71.157s-32.233,2.574-32.233,2.574S40.384,75.438,33.841,86.125s-6.323,19.187-6.323,19.187,4.1,3.238,12.658,3.865q.487.036,1,.057l-.135,5.65c18.532,14.874,40.588,26.05,63.546,30.186l-2.058-36.27a29.269,29.269,0,0,0,15.043-10.03" transform="translate(16.29 41.536)" fill="#ffbd48"/>
        <path id="Path_25867" data-name="Path 25867" d="M63.532,130.17c-1.006.635-29.775-16.969-19.545-35.1,11.388-12.787,18.881,7.285,18.881,7.285s1.4-19.664,14.186-20.823,7.884,35.156-13.522,48.639" transform="translate(24.74 48.25)" fill="#09b1c0"/>
        <path id="Path_25868" data-name="Path 25868" d="M65.382,69.044c2.921-.5,7.5.626,12.2,3.319,0,0-2.765,13.36-1.829,21.466s5.569,26.545,5.569,26.545,1.738,10.725,1.4,16.441c-9.926-11.1-17.111-18.942-19.437-39.852-1.113-9.969.981-22.383,2.1-27.919" transform="translate(37.276 40.806)" fill="#f27fb2"/>
        <path id="Path_25869" data-name="Path 25869" d="M63.464,71.251c.35-1.24,1.457-1.979,3.042-2.251-1.118,5.535-3.209,17.951-2.1,27.919,2.326,20.911,9.511,28.753,19.437,39.852a6.7,6.7,0,0,1-.686,3.076s-15.344-12.284-19.887-31.63-.809-33.441.193-36.966" transform="translate(36.152 40.848)" fill="#f16790"/>
        <path id="Path_25870" data-name="Path 25870" d="M87.282,111.734C82.237,109.4,74.9,101.862,74.9,101.862l-.271-4.778s9.184-3.625,12.27-7.132c0,0,3.935,7.638,7.363,15.3-9.151,6.331-6.982,6.483-6.982,6.483" transform="translate(44.182 53.251)" fill="#ed9996"/>
        <path id="Path_25871" data-name="Path 25871" d="M108.852,120.264c-.441-2.831-2.542-8.073-4.881-13.308-7.2,4.981-7.392,6.132-7.146,6.4-5.214-2.585-21.1-18.383-21.1-18.383a10.267,10.267,0,0,0,0-4.144c-.419-2.534-2.049-.39-3.173.724-1.307-1.344-5.585-5.583-7.454-4.212-1.637,1.2,1.087,5.015,1.087,5.015s-3.267-3.488-4.467-2.452,1.091,4.741,1.091,4.741-3.491-4.087-4.47-1.8,5.545,10.636,5.545,10.636l0,0a33.268,33.268,0,0,0,5.067,6.54c11.119,13.954,22.458,22.457,29.243,23.765s11.749-6.54,10.655-13.519" transform="translate(34.476 51.546)" fill="#f9c1b9"/>
        <path id="Path_25872" data-name="Path 25872" d="M17.013,44.69c.841,5.631,6.7,11.117,18.1,6.933V43.659a17.494,17.494,0,0,0-18.1,1.032" transform="translate(10.072 24.639)" fill="#f9c1b9"/>
        <path id="Path_25873" data-name="Path 25873" d="M20.387,39.112c-2.678,1.546-3.814,4.8-3.335,8a17.5,17.5,0,0,1,18.1-1.032V40.589s-7.384-5.742-14.764-1.477" transform="translate(10.031 22.221)" fill="#ed9996"/>
        <path id="Path_25874" data-name="Path 25874" d="M20.521,42.841c3.025.013,7.029-1.452,9.159,1.562,1.345,1.9,1.161,4.536,1.231,6.752a.329.329,0,0,0,.657,0c.068-2.533.013-5.706-1.9-7.63-2.35-2.361-6.295-1.613-9.175-.893a.107.107,0,0,0,.029.21" transform="translate(12.086 24.817)" fill="#8e4f4f"/>
        <path id="Path_25875" data-name="Path 25875" d="M23.837,44.8c1.307-.6,2.445-.737,3.571.295A20.091,20.091,0,0,1,29.2,47.408c.271.331.7-.091.551-.425-1.124-2.479-3.692-4.564-6.214-2.569-.237.188.065.5.3.392" transform="translate(13.881 25.821)" fill="#8e4f4f"/>
        <path id="Path_25876" data-name="Path 25876" d="M98.036,44.69c-.839,5.631-6.7,11.117-18.1,6.933V43.659a17.492,17.492,0,0,1,18.1,1.032" transform="translate(47.324 24.639)" fill="#f9c1b9"/>
        <path id="Path_25877" data-name="Path 25877" d="M92.514,40.079c2.675,1.547,6,3.429,5.523,6.631a17.489,17.489,0,0,0-18.1-1.033V40.19s5.19-4.378,12.574-.111" transform="translate(47.324 22.621)" fill="#ed9996"/>
        <path id="Path_25878" data-name="Path 25878" d="M91.981,42.63c-2.878-.718-6.826-1.468-9.178.895-1.912,1.922-1.968,5.1-1.9,7.629a.329.329,0,0,0,.657,0c.07-2.235-.1-4.819,1.231-6.75,2.1-3.042,6.161-1.552,9.16-1.562a.108.108,0,0,0,.029-.212" transform="translate(47.885 24.818)" fill="#8e4f4f"/>
        <path id="Path_25879" data-name="Path 25879" d="M87.14,44.414c-2.523-1.995-5.09.088-6.214,2.569-.15.33.277.759.551.425a19.917,19.917,0,0,1,1.788-2.31c1.126-1.032,2.259-.895,3.572-.293.234.107.543-.2.3-.392" transform="translate(47.89 25.821)" fill="#8e4f4f"/>
        <path id="Path_25880" data-name="Path 25880" d="M49.526,71.028a7.914,7.914,0,0,1-.751,2.063s9.238,9.786,21,1.532a56.992,56.992,0,0,1,.116-7.474,79.827,79.827,0,0,0-20.363,3.88" transform="translate(28.875 39.751)" fill="#f9c1b9"/>
        <path id="Path_25881" data-name="Path 25881" d="M71.44,62.15,48.776,64.022s1.753,5.605.75,9.966a79.84,79.84,0,0,1,20.363-3.88A31.656,31.656,0,0,1,71.44,62.15" transform="translate(28.875 36.793)" fill="#ed9996"/>
        <path id="Path_25882" data-name="Path 25882" d="M27.647,53.115S27.21,68.58,30.93,76.236,47.114,92.423,63.736,93.953s38.714-3.939,43.746-15.966,7-20.343,5.469-32.591S110.766,27.678,99.389,22.21,26.116-10.91,27.647,53.115" transform="translate(16.351 6.86)" fill="#f9c1b9"/>
        <path id="Path_25883" data-name="Path 25883" d="M44.718,42.337a2.742,2.742,0,0,1-2.461,2.953A2.741,2.741,0,0,1,39.8,42.337a2.741,2.741,0,0,1,2.461-2.953,2.742,2.742,0,0,1,2.461,2.953" transform="translate(23.559 23.315)" fill="#111"/>
        <path id="Path_25884" data-name="Path 25884" d="M70.065,42.337a2.5,2.5,0,1,1-4.921,0,2.5,2.5,0,1,1,4.921,0" transform="translate(38.565 23.315)" fill="#111"/>
        <path id="Path_25885" data-name="Path 25885" d="M53.493,37.751a39.1,39.1,0,0,0-.826,4.144,4.582,4.582,0,0,0,.019,2.859,1.76,1.76,0,0,0,1.63,1.052,2.482,2.482,0,0,0,.993-.457c.172-.1.365-.336.557-.382q.917-.747.844.823.981,1.27-.554,1.627c-.471.175-.266.939.21.759A2.71,2.71,0,0,0,58.319,45.6a1.785,1.785,0,0,0-1.837-1.622c-.662.043-.962.544-1.524.774-2.292.93-1.836-1.812-1.616-2.918.229-1.153,1.055-2.985.422-4.114a.15.15,0,0,0-.271.035" transform="translate(31.045 22.285)" fill="#8e4f4f"/>
        <path id="Path_25886" data-name="Path 25886" d="M52.222,48.912c-.7,2.1,2.359,3.576,3.974,3.633a4,4,0,0,0,4.332-3.926c0-.621-.858-.576-.935,0a3.225,3.225,0,0,1-3.528,3.038,3.971,3.971,0,0,1-2.348-.884c-.632-.535-.785-1.266-1.253-1.893a.135.135,0,0,0-.242.032" transform="translate(30.854 28.516)" fill="#8e4f4f"/>
        <path id="Path_25887" data-name="Path 25887" d="M35.358,36.242a11.433,11.433,0,0,1,7.474-5.007c.406-.084.285-.665-.092-.689-2.877-.178-7.14,2.643-7.731,5.55a.192.192,0,0,0,.349.146" transform="translate(20.723 18.078)" fill="#8e4f4f"/>
        <path id="Path_25888" data-name="Path 25888" d="M65.924,30.493c2.815.694,5.578,1.1,7.7,3.289.439.454,1.075-.212.683-.683a9.89,9.89,0,0,0-8.385-3.05.232.232,0,0,0,0,.444" transform="translate(38.929 17.721)" fill="#8e4f4f"/>
        <path id="Path_25889" data-name="Path 25889" d="M51.42,53.5a7.912,7.912,0,0,1-8.148,7.654,7.67,7.67,0,1,1,0-15.31A7.913,7.913,0,0,1,51.42,53.5" transform="translate(20.793 27.138)" fill="#ed9996"/>
        <path id="Path_25890" data-name="Path 25890" d="M79.414,53.5a8.164,8.164,0,1,1-8.149-7.656A7.912,7.912,0,0,1,79.414,53.5" transform="translate(37.366 27.138)" fill="#ed9996"/>
        <path id="Path_25891" data-name="Path 25891" d="M39.465,49.354a.76.76,0,1,1-.756-.855.81.81,0,0,1,.756.855" transform="translate(22.47 28.711)" fill="#8e4f4f"/>
        <path id="Path_25892" data-name="Path 25892" d="M42.752,52.455A.762.762,0,1,1,42,51.6a.812.812,0,0,1,.756.856" transform="translate(24.414 30.546)" fill="#8e4f4f"/>
        <path id="Path_25893" data-name="Path 25893" d="M38.75,54.55a.761.761,0,1,1-.756-.856.81.81,0,0,1,.756.856" transform="translate(22.045 31.787)" fill="#8e4f4f"/>
        <path id="Path_25894" data-name="Path 25894" d="M45.1,48.576a.762.762,0,1,1-.755-.855.811.811,0,0,1,.755.855" transform="translate(25.805 28.251)" fill="#8e4f4f"/>
        <path id="Path_25895" data-name="Path 25895" d="M47.913,53.529a.761.761,0,1,1-.756-.855.811.811,0,0,1,.756.855" transform="translate(27.47 31.183)" fill="#8e4f4f"/>
        <path id="Path_25896" data-name="Path 25896" d="M63.877,49.354a.761.761,0,1,1-.755-.855.809.809,0,0,1,.755.855" transform="translate(36.92 28.711)" fill="#8e4f4f"/>
        <path id="Path_25897" data-name="Path 25897" d="M65.81,54.55a.761.761,0,1,1-.755-.856.808.808,0,0,1,.755.856" transform="translate(38.066 31.787)" fill="#8e4f4f"/>
        <path id="Path_25898" data-name="Path 25898" d="M69.819,49.649a.76.76,0,1,1-.756-.855.81.81,0,0,1,.756.855" transform="translate(40.439 28.886)" fill="#8e4f4f"/>
        <path id="Path_25899" data-name="Path 25899" d="M72.693,53.529a.76.76,0,1,1-.753-.855.81.81,0,0,1,.753.855" transform="translate(42.141 31.183)" fill="#8e4f4f"/>
        <path id="Path_25900" data-name="Path 25900" d="M68.775,52.993a.761.761,0,1,1-.753-.856.809.809,0,0,1,.753.856" transform="translate(39.821 30.865)" fill="#8e4f4f"/>
        <path id="Path_25901" data-name="Path 25901" d="M62.069,45.6a14.813,14.813,0,1,0-.049,1.939c.777-.763,4.338-3.568,11.462.473a14.818,14.818,0,1,0-.139-1.923M47.176,59.5A13.408,13.408,0,1,1,60.582,46.09,13.423,13.423,0,0,1,47.176,59.5m41.085,0A13.408,13.408,0,1,1,101.669,46.09,13.424,13.424,0,0,1,88.261,59.5" transform="translate(19.095 18.453)" fill="#f16790"/>
        <path id="Path_25902" data-name="Path 25902" d="M24.929,15.623a24.1,24.1,0,0,0-7.283,16.152c-.021.3-.035.581-.053.874A51.372,51.372,0,0,0,42.3,43.9a67.936,67.936,0,0,0,4.2-5.355C38.012,32.4,30.948,24.424,24.929,15.623" transform="translate(10.415 9.249)" fill="#f26952"/>
        <path id="Path_25903" data-name="Path 25903" d="M77.771,39.284s.1.212.245.573c1.181,2.665,6.575,13.836,14.029,14.336-2.6-17.717-9.216-34.79-21.2-47.889a83.431,83.431,0,0,0-26.989,6.479S47.27-.99,42.774.057,39.672,14,39.672,14,36.163,3.367,33.823,5.46,36.36,16.967,36.36,16.967A32.71,32.71,0,0,0,22.2,24.873c6.019,8.8,13.083,16.778,21.573,22.925,2.515-3.579,4.515-7.369,4.964-10.783,0,0,8.648,8.74,17.109,12.492a2.76,2.76,0,0,0,.5-1.681,2.76,2.76,0,0,1-.5,1.681,16,16,0,0,0,7.414,1.654c8.482-.624,5.679-9.025,4.755-11.3-.158-.361-.245-.573-.245-.573" transform="translate(13.143 0)" fill="#f1583a"/>
        <path id="Path_25904" data-name="Path 25904" d="M74.9,6.688A42.694,42.694,0,0,0,63.077,4.053a71.183,71.183,0,0,0-10.319-.029c11.981,13.1,18.6,30.17,21.2,47.887a8.2,8.2,0,0,0,6.748-2.55c1.439-14.645-.191-29.412-5.8-42.673" transform="translate(31.233 2.28)" fill="#f26952"/>
        <path id="Path_25905" data-name="Path 25905" d="M89.651,26.184C87.1,20.579,79.551,10.492,66.667,5.633c5.612,13.261,7.24,28.03,5.8,42.673,2.528-2.987,1.9-7.476,1.9-7.476S79.71,58.758,90.318,57.986s2.587-24.652-.667-31.8" transform="translate(39.467 3.335)" fill="#f1583a"/>
        <path id="Path_25906" data-name="Path 25906" d="M18.492,47.119A13.16,13.16,0,0,1,33.7,46.442a98.813,98.813,0,0,0,8.734-8.871A51.372,51.372,0,0,1,17.723,26.318c-1.108,18.708.769,20.8.769,20.8" transform="translate(10.285 15.58)" fill="#f1583a"/>
        <path id="Path_25907" data-name="Path 25907" d="M57.353,25.248c-.146-.36-.245-.572-.245-.572s.086.212.245.572" transform="translate(33.808 14.608)" fill="#f26952"/>
        <path id="Path_25908" data-name="Path 25908" d="M49.334,70.61c-2.942-.371-7.468.947-12.048,3.838,0,0,3.337,13.231,2.748,21.369s-4.427,26.76-4.427,26.76-1.28,10.787-.693,16.482C44.354,127.548,51.2,119.4,52.626,98.412c.681-10.009-1.939-22.321-3.292-27.8" transform="translate(20.577 41.764)" fill="#f27fb2"/>
        <path id="Path_25909" data-name="Path 25909" d="M52.412,72.7c-.406-1.227-1.541-1.917-3.136-2.119,1.353,5.481,3.974,17.8,3.294,27.8-1.431,20.992-8.274,29.137-17.713,40.647a6.682,6.682,0,0,0,.814,3.044s14.8-12.925,18.517-32.451S53.563,76.183,52.412,72.7" transform="translate(20.635 41.787)" fill="#f16790"/>
        <path id="Path_25910" data-name="Path 25910" d="M32.506,112.677c4.766-2.869,11.246-11.152,11.246-11.152L42.74,95.958a54.485,54.485,0,0,1-12.811-3.367S27.449,99,24.868,106.984c9.781,5.306,7.638,5.693,7.638,5.693" transform="translate(14.722 54.814)" fill="#ed9996"/>
        <path id="Path_25911" data-name="Path 25911" d="M22.725,124.266c.134-2.861,1.659-8.3,3.42-13.756,7.693,4.174,8.009,5.3,7.794,5.591,4.9-3.133,18.994-20.551,18.994-20.551a10.28,10.28,0,0,1-.446-4.118c.146-2.565,1.992-.608,3.235.379,1.153-1.479,4.948-6.151,6.955-4.989,1.753,1.016-.541,5.1-.541,5.1S65.01,88.1,66.314,89s-.572,4.832-.572,4.832,3.026-4.44,4.251-2.273-4.37,11.176-4.37,11.176l0-.006a33.352,33.352,0,0,1-4.332,7.048c-9.55,15.073-19.908,24.749-26.515,26.781s-12.383-5.234-12.05-12.292" transform="translate(13.445 51.289)" fill="#f9c1b9"/>
      </g>
    </g>
  </g>
</svg>
