<svg id="Group_27778" data-name="Group 27778" xmlns="http://www.w3.org/2000/svg" xmlns:xlink="http://www.w3.org/1999/xlink" width="179.372" height="307.787" viewBox="0 0 179.372 307.787">
  <defs>
    <clipPath id="clip-path">
      <rect id="Rectangle_10234" data-name="Rectangle 10234" width="179.372" height="307.787" fill="none"/>
    </clipPath>
    <clipPath id="clip-path-3">
      <rect id="Rectangle_10232" data-name="Rectangle 10232" width="179.372" height="41.716" fill="none"/>
    </clipPath>
  </defs>
  <g id="Group_27777" data-name="Group 27777" clip-path="url(#clip-path)">
    <g id="Group_27776" data-name="Group 27776">
      <g id="Group_27775" data-name="Group 27775" clip-path="url(#clip-path)">
        <g id="Group_27774" data-name="Group 27774" transform="translate(0 266.071)" opacity="0.3">
          <g id="Group_27773" data-name="Group 27773">
            <g id="Group_27772" data-name="Group 27772" clip-path="url(#clip-path-3)">
              <path id="Path_25682" data-name="Path 25682" d="M179.372,180.246c0,11.518-40.154,20.857-89.687,20.857S0,191.765,0,180.246s40.154-20.858,89.685-20.858,89.687,9.34,89.687,20.858" transform="translate(0 -159.387)" fill="#bcbcbc"/>
            </g>
          </g>
        </g>
        <path id="Path_25683" data-name="Path 25683" d="M26.336,36.524S22.882,50.877,16.108,56.972s-5.756,12.191,0,14.9,8.465-5.824,8.465-5.824-.906,18.7,12.765,21.74c18.273,4.066,20.478-12.55,20.478-12.55S64.8,91.509,81.26,91.849s25.15-16.612,25.15-16.612,5.086,18.424,14.522,14.921c15.937-5.913,5.268-22.541,5.268-22.541s5.719,11.026,13.849,2.053-10.4-25.531-8.645-32.055" transform="translate(7.632 24.447)" fill="#fcb31d"/>
        <path id="Path_25684" data-name="Path 25684" d="M61.731,54.8S36.98,54.612,36.8,69.591s-5.051,48.533,1.557,61.7c2.756,5.487,29.963,5.534,40.842,3.5s12.2-11.812,12.109-22-.778-34.363-3.16-45.514c-1.526-7.148-4.37-12.575-26.421-12.48" transform="translate(23.363 36.679)" fill="#b4aad3"/>
        <path id="Path_25685" data-name="Path 25685" d="M63.351,54.893s-24.75-.187-24.927,14.79-5.053,48.534,1.554,61.7c2.756,5.489,29.968,5.537,40.844,3.5s12.2-11.811,12.109-21.99-.775-34.365-3.16-45.519C88.246,60.226,85.4,54.8,63.351,54.893" transform="translate(24.448 36.741)" fill="#635ba8"/>
        <path id="Path_25686" data-name="Path 25686" d="M17.689,35.6c.82,5.465,6.507,10.794,17.578,6.729V34.594a16.988,16.988,0,0,0-17.578,1" transform="translate(11.84 21.829)" fill="#f9c1b9"/>
        <path id="Path_25687" data-name="Path 25687" d="M20.969,30.362c-2.6,1.5-3.7,4.657-3.239,7.766a16.984,16.984,0,0,1,17.578-1V31.8s-7.168-5.576-14.34-1.434" transform="translate(11.798 19.298)" fill="#ed9996"/>
        <path id="Path_25688" data-name="Path 25688" d="M20.945,33.786c2.938.01,6.826-1.412,8.894,1.517,1.307,1.85,1.128,4.405,1.2,6.555a.32.32,0,0,0,.639,0c.065-2.461.012-5.542-1.846-7.41-2.284-2.294-6.113-1.564-8.911-.868a.105.105,0,0,0,.028.205" transform="translate(13.951 22.016)" fill="#8e4f4f"/>
        <path id="Path_25689" data-name="Path 25689" d="M24.026,35.616c1.27-.578,2.377-.713,3.469.287a19.149,19.149,0,0,1,1.738,2.242c.264.321.683-.088.536-.412-1.092-2.411-3.586-4.43-6.036-2.5-.23.184.063.486.294.381" transform="translate(15.829 23.068)" fill="#8e4f4f"/>
        <path id="Path_25690" data-name="Path 25690" d="M93.547,35.6c-.815,5.465-6.5,10.794-17.575,6.729V34.594a16.982,16.982,0,0,1,17.575,1" transform="translate(50.851 21.829)" fill="#f9c1b9"/>
        <path id="Path_25691" data-name="Path 25691" d="M90.312,30.362c2.6,1.5,3.7,4.657,3.235,7.766a16.978,16.978,0,0,0-17.575-1V31.8s7.17-5.576,14.34-1.434" transform="translate(50.851 19.298)" fill="#ed9996"/>
        <path id="Path_25692" data-name="Path 25692" d="M87.624,33.581c-2.8-.7-6.629-1.426-8.913.868-1.858,1.866-1.913,4.953-1.846,7.41a.32.32,0,0,0,.639,0c.067-2.17-.1-4.681,1.2-6.555,2.038-2.955,5.985-1.507,8.9-1.517a.1.1,0,0,0,.028-.205" transform="translate(51.438 22.016)" fill="#8e4f4f"/>
        <path id="Path_25693" data-name="Path 25693" d="M82.922,35.237c-2.452-1.935-4.943.085-6.036,2.5-.145.321.269.736.534.412A19.32,19.32,0,0,1,79.16,35.9c1.092-1,2.194-.866,3.469-.284.229.1.527-.2.294-.381" transform="translate(51.442 23.068)" fill="#8e4f4f"/>
        <path id="Path_25694" data-name="Path 25694" d="M47.839,60.027a7.749,7.749,0,0,1-.729,2s8.971,9.5,20.389,1.489a55.781,55.781,0,0,1,.115-7.26,77.42,77.42,0,0,0-19.775,3.768" transform="translate(31.532 37.656)" fill="#f9c1b9"/>
        <path id="Path_25695" data-name="Path 25695" d="M69.118,51.628l-22.01,1.82s1.7,5.445.729,9.679a77.433,77.433,0,0,1,19.775-3.768,30.781,30.781,0,0,1,1.506-7.731" transform="translate(31.531 34.556)" fill="#ed9996"/>
        <path id="Path_25696" data-name="Path 25696" d="M27.54,45.13s-.424,15.019,3.187,22.453S46.445,83.3,62.593,84.792s37.6-3.823,42.483-15.508,6.8-19.755,5.31-31.651-2.122-17.208-13.169-22.518S26.053-17.049,27.54,45.13" transform="translate(18.415 3.212)" fill="#f9c1b9"/>
        <path id="Path_25697" data-name="Path 25697" d="M43.572,33.411a2.663,2.663,0,0,1-2.39,2.87,2.663,2.663,0,0,1-2.39-2.87,2.663,2.663,0,0,1,2.39-2.868,2.663,2.663,0,0,1,2.39,2.868" transform="translate(25.964 20.443)" fill="#111"/>
        <path id="Path_25698" data-name="Path 25698" d="M67.048,33.411a2.429,2.429,0,1,1-4.778,0,2.429,2.429,0,1,1,4.778,0" transform="translate(41.679 20.443)" fill="#111"/>
        <path id="Path_25699" data-name="Path 25699" d="M51.528,29.036a38.054,38.054,0,0,0-.8,4.025,4.462,4.462,0,0,0,.018,2.778,1.708,1.708,0,0,0,1.583,1.022,2.386,2.386,0,0,0,.963-.444c.169-.092.354-.327.541-.371q.891-.726.821.8.954,1.234-.539,1.579c-.457.17-.257.911.2.738a2.629,2.629,0,0,0,1.9-2.5,1.735,1.735,0,0,0-1.785-1.576c-.644.042-.935.529-1.482.751-2.225.9-1.78-1.761-1.566-2.835.222-1.12,1.025-2.9.409-4a.144.144,0,0,0-.26.035" transform="translate(33.804 19.365)" fill="#8e4f4f"/>
        <path id="Path_25700" data-name="Path 25700" d="M50.306,42.21c-.684-2.037,2.29-3.474,3.858-3.527a3.88,3.88,0,0,1,4.205,3.811c.005.6-.833.559-.908,0a3.133,3.133,0,0,0-3.425-2.95,3.872,3.872,0,0,0-2.279.858c-.614.521-.761,1.229-1.215,1.838a.131.131,0,0,1-.235-.03" transform="translate(33.604 25.89)" fill="#8e4f4f"/>
        <path id="Path_25701" data-name="Path 25701" d="M34.7,27.889a11.084,11.084,0,0,1,7.258-4.861c.394-.082.275-.646-.09-.669-2.794-.175-6.934,2.564-7.507,5.389a.186.186,0,0,0,.339.142" transform="translate(22.995 14.96)" fill="#8e4f4f"/>
        <path id="Path_25702" data-name="Path 25702" d="M63,22.333c2.733.674,5.417,1.075,7.479,3.2.427.441,1.043-.207.663-.663A9.605,9.605,0,0,0,63,21.9a.226.226,0,0,0,0,.432" transform="translate(42.061 14.585)" fill="#8e4f4f"/>
        <path id="Path_25703" data-name="Path 25703" d="M50.29,43.96a7.685,7.685,0,0,1-7.911,7.434,7.684,7.684,0,0,1-7.914-7.434,7.684,7.684,0,0,1,7.914-7.435A7.685,7.685,0,0,1,50.29,43.96" transform="translate(23.069 24.447)" fill="#ed9996"/>
        <path id="Path_25704" data-name="Path 25704" d="M76.217,43.96a7.928,7.928,0,0,1-15.825,0,7.928,7.928,0,0,1,15.825,0" transform="translate(40.422 24.447)" fill="#ed9996"/>
        <path id="Path_25705" data-name="Path 25705" d="M54.3,3.288c-1.564.409-3.16.836-4.811,1.3C43.84,19.921,35.687,34.276,23.853,45.864a8.815,8.815,0,0,1,5.485,1.9S50.122,32.488,57.393,18.714c0,0,37.1,26.96,55.931,28.718a15.923,15.923,0,0,1,11.872.027s-.287-7.474-1.491-16.311c-25.7-.255-50.86-9.413-69.4-27.86" transform="translate(15.966 2.201)" fill="#fcb31d"/>
        <path id="Path_25706" data-name="Path 25706" d="M51.839,4.065c-1.392.389-2.808.8-4.262,1.224,0,0-14.091-5.6-22.88,7.263-6.387,9.355-3.606,12.487-4.35,33.782a16.356,16.356,0,0,1,5.853-.99C38.034,33.756,46.187,19.4,51.839,4.065" transform="translate(13.619 2.721)" fill="#ffbd48"/>
        <path id="Path_25707" data-name="Path 25707" d="M111.5,33.346C109.96,22.083,106.937,8.6,101.116,5.562,91.506.547,77.954-3.877,42.1,5.486c18.543,18.444,43.7,27.6,69.4,27.86" transform="translate(28.176 0.004)" fill="#ffbd48"/>
        <path id="Path_25708" data-name="Path 25708" d="M51.49,10.136c18.545-7.959,37.909-.908,47.1,8.689,7.918,8.258,9.435,13.053,11.413,20.7,1.03-.559.6-7.292-2.183-14.54C103.674,14.141,92.826.14,71.087,0S31.664,11.218,28.614,24.986c-1.644,7.4-1.891,11.58-1.476,13.291C29.6,31.867,37,16.354,51.49,10.136" transform="translate(18.046 0)" fill="#f26952"/>
        <path id="Path_25709" data-name="Path 25709" d="M98.523,16.143c-9.195-9.6-28.559-16.648-47.1-8.689C36.931,13.673,29.533,29.184,27.067,35.6c.357,1.472,1.205,1.13,2.1-.619,0,0,11.223-26,33.8-27.8s41.084,14.9,44.471,25.282c1.123,3.44,1.992,4.667,2.5,4.389-1.98-7.649-3.5-12.443-11.413-20.7" transform="translate(18.117 2.682)" fill="#f1583a"/>
        <path id="Path_25710" data-name="Path 25710" d="M35.179,146.5c.01.215.02.431.032.648a100.486,100.486,0,0,0,25.205.985l.3-10.5c-8.26,4.145-16.648,7.879-25.539,8.869" transform="translate(23.547 92.121)" fill="#f9c1b9"/>
        <path id="Path_25711" data-name="Path 25711" d="M35.179,143.178C36,160.6,37.311,182.486,38,184.2c0,0,12.528,3.951,21.448-1.13l1.108-38.647c-8.325.86-17.062.02-25.372-1.242" transform="translate(23.547 95.834)" fill="#ebe9f4"/>
        <path id="Path_25712" data-name="Path 25712" d="M35.608,146.641c7.335,3.115,16.732,2.9,24.284.614a.3.3,0,0,0-.16-.583,48.882,48.882,0,0,1-24.007-.311c-.16-.043-.28.209-.117.279" transform="translate(23.782 97.962)" fill="#635ba8"/>
        <path id="Path_25713" data-name="Path 25713" d="M36.242,143.5a5.36,5.36,0,0,0-.165,1.918,11.813,11.813,0,0,0,.048,3.072.32.32,0,0,0,.613,0,13.8,13.8,0,0,0-.025-3.072,5.559,5.559,0,0,0-.177-1.918.154.154,0,0,0-.294,0" transform="translate(24.093 95.979)" fill="#635ba8"/>
        <path id="Path_25714" data-name="Path 25714" d="M38.865,149.3c.16-1.718.045-3.442.144-5.163.028-.482-.741-.487-.755,0-.047,1.723.082,3.442.1,5.163a.257.257,0,0,0,.514,0" transform="translate(25.598 96.231)" fill="#635ba8"/>
        <path id="Path_25715" data-name="Path 25715" d="M41.277,149.625a29.962,29.962,0,0,0,.06-5.333.324.324,0,0,0-.648,0,30.277,30.277,0,0,0,.06,5.333.264.264,0,0,0,.528,0" transform="translate(27.171 96.37)" fill="#635ba8"/>
        <path id="Path_25716" data-name="Path 25716" d="M43.528,149.934a14.835,14.835,0,0,0,.529-5.42.438.438,0,0,0-.876,0,45.147,45.147,0,0,0,.023,5.42c.027.185.27.132.324,0" transform="translate(28.843 96.445)" fill="#635ba8"/>
        <path id="Path_25717" data-name="Path 25717" d="M46.527,149.5a28.3,28.3,0,0,0-.063-4.888.372.372,0,0,0-.743,0,39.591,39.591,0,0,0,.351,4.826c.027.234.416.344.456.062" transform="translate(30.601 96.555)" fill="#635ba8"/>
        <path id="Path_25718" data-name="Path 25718" d="M48.7,148.911c.392-1.406-.112-2.888.267-4.307.109-.409-.519-.708-.709-.3-.653,1.407.122,3.083.053,4.554a.2.2,0,0,0,.389.052" transform="translate(32.123 96.458)" fill="#635ba8"/>
        <path id="Path_25719" data-name="Path 25719" d="M35.246,143.418c8.031,2.658,16.93,2.135,25.234,1.563.531-.037.536-.865,0-.833-8.512.509-16.728.481-25.11-1.177a.232.232,0,0,0-.124.447" transform="translate(23.481 95.691)" fill="#635ba8"/>
        <path id="Path_25720" data-name="Path 25720" d="M61.477,129.781l-26.871.469s.4,9.711.955,21.5c8.893-.99,17.279-4.724,25.539-8.869Z" transform="translate(23.163 86.867)" fill="#ed9996"/>
        <path id="Path_25721" data-name="Path 25721" d="M27.725,172.749s-.337,3.09,4.405,4.17A66.6,66.6,0,0,0,53.238,178c7.452-1.017,10.836-1.806,10.836-1.806a25.042,25.042,0,0,0,.512-3.444c.177-2.067-36.861,0-36.861,0" transform="translate(18.554 115.012)" fill="#3a308f"/>
        <path id="Path_25722" data-name="Path 25722" d="M27.734,174.674c-.5,2.272,5.724,3.664,13.508,4.058a26.172,26.172,0,0,0-5.172-9.777c-3.773,1.367-7.809,3.354-8.337,5.719" transform="translate(18.545 113.087)" fill="#3a308f"/>
        <path id="Path_25723" data-name="Path 25723" d="M60.954,167.072A33.875,33.875,0,0,1,39.509,168.2a62.982,62.982,0,0,0-6.793,2.012,26.158,26.158,0,0,1,5.173,9.776c7.883.394,17.358-.234,23.065-2.027,0,0,1.185-6.375,0-10.892" transform="translate(21.898 111.827)" fill="#635ba8"/>
        <path id="Path_25724" data-name="Path 25724" d="M38.228,171.511c-1.589-.4-3.549-.87-4.517-2.3-.421-.618-.092-1.376.684-1.165a3.8,3.8,0,0,1,1.377,1.075,15,15,0,0,1,2.018,2.843c.247-.14.5-.289.748-.434-.591-.972-1.2-1.93-1.726-2.94-.194-.371-1.841-4.544-.053-3.584.92.494.875,2.711.92,3.561a29.759,29.759,0,0,1-.027,3.182c-.03.658,1,.659,1.025,0,.055-1.713.538-7.806-2.312-7.681-3.592.155.76,6.777,1.426,7.9a.432.432,0,0,0,.748-.434,10.989,10.989,0,0,0-3.561-4.09c-.644-.377-1.911-.472-2.249.376-1.142,2.875,3.566,4.056,5.435,4.175a.244.244,0,0,0,.063-.477" transform="translate(21.789 109.814)" fill="#3a308f"/>
        <path id="Path_25725" data-name="Path 25725" d="M62.784,150.137a102.852,102.852,0,0,0,25.414-1c-.028-.214-.06-.422-.092-.636-.7-5.108-1.357-9.817-1.878-13.495a81.7,81.7,0,0,1-23.94,12.815Z" transform="translate(41.692 90.364)" fill="#f9c1b9"/>
        <path id="Path_25726" data-name="Path 25726" d="M59.583,130.146l2.786,12.906,1.729,8.025A81.657,81.657,0,0,0,88.04,138.259c-.663-4.679-1.09-7.684-1.09-7.684Z" transform="translate(39.881 87.111)" fill="#ed9996"/>
        <path id="Path_25727" data-name="Path 25727" d="M88.035,143.318c2.357,17.159,5.035,38.712,4.657,40.4,0,0-11.994,3.906-21.982-1.083L62.5,144.573c8.609.838,17.326,0,25.531-1.255" transform="translate(41.836 95.928)" fill="#ebe9f4"/>
        <path id="Path_25728" data-name="Path 25728" d="M87.814,146.455c-8.253,2.314-15.955,1.983-24.292.336a.3.3,0,0,0-.16.581c7.629,2.132,17.2,2.611,24.569-.638.159-.07.043-.324-.117-.279" transform="translate(42.266 98.024)" fill="#635ba8"/>
        <path id="Path_25729" data-name="Path 25729" d="M76.716,143.64a4.9,4.9,0,0,0,.144,1.751,14.658,14.658,0,0,0,.546,3.165.319.319,0,0,0,.623-.085,11.851,11.851,0,0,0-.521-3.027,5.329,5.329,0,0,0-.512-1.841.155.155,0,0,0-.279.037" transform="translate(51.32 96.071)" fill="#635ba8"/>
        <path id="Path_25730" data-name="Path 25730" d="M75.97,149.286c-.3-1.7-.492-3.424-.856-5.115-.1-.472-.846-.274-.73.2.416,1.674.616,3.392,1.09,5.051a.257.257,0,0,0,.5-.137" transform="translate(49.779 96.318)" fill="#635ba8"/>
        <path id="Path_25731" data-name="Path 25731" d="M73.6,149.676a30.365,30.365,0,0,0-.928-5.337c-.1-.337-.666-.29-.636.085a30.439,30.439,0,0,0,1.047,5.322c.075.277.549.234.518-.07" transform="translate(48.213 96.459)" fill="#635ba8"/>
        <path id="Path_25732" data-name="Path 25732" d="M71.241,149.943a42.739,42.739,0,0,0-.988-5.407c-.088-.554-.94-.324-.845.234a14.628,14.628,0,0,0,1.519,5.26.17.17,0,0,0,.314-.087" transform="translate(46.452 96.531)" fill="#635ba8"/>
        <path id="Path_25733" data-name="Path 25733" d="M68.156,149.505a39.363,39.363,0,0,0-.546-4.849c-.1-.476-.786-.265-.716.2a27.636,27.636,0,0,0,.806,4.714c.08.234.476.214.456-.062" transform="translate(44.771 96.643)" fill="#635ba8"/>
        <path id="Path_25734" data-name="Path 25734" d="M65.865,148.876c-.326-1.412.11-3.17-.741-4.434a.387.387,0,0,0-.668.391c.613,1.337.414,2.876,1.048,4.2.1.207.409.057.361-.152" transform="translate(43.114 96.556)" fill="#635ba8"/>
        <path id="Path_25735" data-name="Path 25735" d="M87.991,143.112c-8.4,1.716-16.707,1.664-25.245,1.187-.536-.03-.533.8,0,.831,8.317.544,17.331,1.144,25.369-1.571a.232.232,0,0,0-.124-.447" transform="translate(41.73 95.786)" fill="#635ba8"/>
        <path id="Path_25736" data-name="Path 25736" d="M105.726,172.416s.908,3.043-3.7,4.112a67.7,67.7,0,0,1-21.234,1.09c-7.752-.993-11.335-1.764-11.335-1.764a27.567,27.567,0,0,1-1.148-3.392c-.561-2.033,37.421-.045,37.421-.045" transform="translate(45.714 114.821)" fill="#3a308f"/>
        <path id="Path_25737" data-name="Path 25737" d="M95.921,174.321c.928,2.237-5.14,3.616-12.974,4.01a20.858,20.858,0,0,1,3.464-9.632c4.078,1.34,8.54,3.294,9.51,5.622" transform="translate(55.519 112.916)" fill="#3a308f"/>
        <path id="Path_25738" data-name="Path 25738" d="M67.519,166.869A37.119,37.119,0,0,0,89.5,167.952a74.5,74.5,0,0,1,7.263,1.971,20.855,20.855,0,0,0-3.462,9.632c-7.928.4-17.663-.209-23.785-1.961,0,0-2.372-6.278-2-10.725" transform="translate(45.166 111.691)" fill="#635ba8"/>
        <path id="Path_25739" data-name="Path 25739" d="M82.131,171.223c1.542-.391,3.446-.861,4.167-2.272a.785.785,0,0,0-.908-1.149c-.5.135-.893.694-1.2,1.06a11.452,11.452,0,0,0-1.529,2.806l-.84-.431c.422-.958.866-1.9,1.217-2.9.127-.362,1.033-4.472-.606-3.527-.841.489-.389,2.671-.28,3.507a31.421,31.421,0,0,0,.608,3.133c.157.648-.895.648-1.038,0-.369-1.686-1.978-7.686.94-7.569,3.678.147.472,6.676,0,7.782-.2.474-1.042.047-.84-.431a8.421,8.421,0,0,1,2.866-4.031,1.79,1.79,0,0,1,2.352.367c1.684,2.833-2.876,4-4.753,4.118-.279.018-.411-.406-.155-.469" transform="translate(54.18 109.694)" fill="#3a308f"/>
        <path id="Path_25740" data-name="Path 25740" d="M40.908,102.781,27.967,136.974s-4.385,6.646,2.209,8.338,2.895,1.354,13.041,7.786,19.708,2.033,28.644,1.693,17.515,2.212,26.431-.925,10.41-4.153,15.249-6.187c2.736-1.145,3.971-1.648,3.627-5.04-29.636-3.491-58.1-16.378-76.26-39.859" transform="translate(17.763 68.795)" fill="#f16790"/>
        <path id="Path_25741" data-name="Path 25741" d="M110.18,156.9c-3.878-13.719-13.568-39.181-17.663-49.771.13-.06.4-9.415.4-9.415a69.39,69.39,0,0,1,10.166-21.222c-3.689-7.151-7.355-11.323-10.213-13.605.015-.058.032-.127.047-.184l-.342-.045c-2.147-1.644-3.806-2.212-4.629-2.162-3.838-1.2-10.066.174-10.066.174s-6.1,7.186-20.364-.92c0,0-4.773-.451-7.9.746C47.4,60.36,39.1,64.634,31.558,82.816a85.037,85.037,0,0,1,13.725,16.71c.454-.84,1.356,7.427,1.356,7.427l-9.091,24.686c18.162,23.483,46.623,36.368,76.26,39.859-.262-2.609-1.459-6.938-3.627-14.6" transform="translate(21.123 39.937)" fill="#f27fb2"/>
        <path id="Path_25742" data-name="Path 25742" d="M74.358,127.41s-6.457-4.072-4.415-6.612,3.021,3.305,3.021,3.305-.417-6.357,2.292-5.342-.9,8.649-.9,8.649" transform="translate(46.548 79.417)" fill="#f1583a"/>
        <path id="Path_25743" data-name="Path 25743" d="M55.354,132.748s-4.916-5.838-2.2-7.642,1.876,4.068,1.876,4.068,1.532-6.187,3.8-4.394-3.479,7.968-3.479,7.968" transform="translate(35.03 83.302)" fill="#f1583a"/>
        <path id="Path_25744" data-name="Path 25744" d="M38.327,125.52s-3.606-6.726-.578-7.931,1,4.367,1,4.367,2.774-5.736,4.627-3.516-5.048,7.08-5.048,7.08" transform="translate(24.457 78.592)" fill="#f1583a"/>
        <path id="Path_25745" data-name="Path 25745" d="M51.243,117.729s-6.826-3.415-5.041-6.146,3.33,2.991,3.33,2.991-1.038-6.287,1.756-5.539-.045,8.694-.045,8.694" transform="translate(30.725 72.939)" fill="#f1583a"/>
        <path id="Path_25746" data-name="Path 25746" d="M70.465,75.086s-6.824-3.419-5.043-6.151,3.334,3,3.334,3-1.04-6.288,1.753-5.539-.043,8.694-.043,8.694" transform="translate(43.591 44.397)" fill="#f1583a"/>
        <path id="Path_25747" data-name="Path 25747" d="M64.509,113.089s-4.743-5.98-1.975-7.7,1.759,4.12,1.759,4.12,1.709-6.14,3.928-4.28-3.713,7.863-3.713,7.863" transform="translate(41.276 70.197)" fill="#f1583a"/>
        <path id="Path_25748" data-name="Path 25748" d="M56.29,91.22s-6.579-3.866-4.621-6.472,3.127,3.21,3.127,3.21-.618-6.343,2.123-5.41-.629,8.672-.629,8.672" transform="translate(34.34 55.189)" fill="#f1583a"/>
        <path id="Path_25749" data-name="Path 25749" d="M58.869,80.993s-4.459-6.193-1.613-7.787,1.564,4.2,1.564,4.2,1.995-6.055,4.125-4.1-4.077,7.682-4.077,7.682" transform="translate(37.688 48.808)" fill="#f1583a"/>
        <path id="Path_25750" data-name="Path 25750" d="M49.694,74.475S44.4,68.983,46.983,67s2.148,3.935,2.148,3.935,1.107-6.278,3.5-4.644-2.933,8.186-2.933,8.186" transform="translate(30.971 44.188)" fill="#f1583a"/>
        <path id="Path_25751" data-name="Path 25751" d="M43.425,103.027s-1.88-7.4,1.35-7.836-.083,4.477-.083,4.477,4.073-4.9,5.337-2.3-6.6,5.654-6.6,5.654" transform="translate(28.702 63.696)" fill="#f1583a"/>
        <path id="Path_25752" data-name="Path 25752" d="M62.016,101.19s-6.133-4.542-3.911-6.926,2.771,3.524,2.771,3.524.057-6.375,2.683-5.153-1.542,8.555-1.542,8.555" transform="translate(38.567 61.899)" fill="#f1583a"/>
        <path id="Path_25753" data-name="Path 25753" d="M39.667,77.127S35,71.087,37.789,69.4,39.5,73.543,39.5,73.543s1.79-6.116,3.985-4.23-3.814,7.814-3.814,7.814" transform="translate(24.699 46.152)" fill="#f1583a"/>
        <path id="Path_25754" data-name="Path 25754" d="M38.372,73.534a119.578,119.578,0,0,0-4.392,12.7c-.023.077-11.1,40.925-11.1,40.925s-2.6,7.792-.967,9.053S26,131.194,26,131.194s-1.115,6.779.846,6.988,3.068-6.26,3.068-6.26-.818,6.939,1.621,6.405,2.883-8.968,2.883-8.968,2.33,1.86,4.465,1.319-1.9-7.02-1.9-7.02l6.968-18.116c-.058-.078,4.03-7.692,8.141-15.3a84.97,84.97,0,0,0-13.724-16.71" transform="translate(14.31 49.219)" fill="#f9c1b9"/>
        <path id="Path_25755" data-name="Path 25755" d="M86.01,88.775A104.829,104.829,0,0,0,78.7,69.746,68.925,68.925,0,0,0,67.991,92.961c4.08,7.545,8.1,15.041,8.046,15.118L83,126.2s-4.036,6.48-1.9,7.02,4.464-1.319,4.464-1.319.447,8.433,2.885,8.968,1.621-6.407,1.621-6.407,1.105,6.475,3.068,6.26.845-6.986.845-6.986,2.462,6.28,4.09,5.02-.968-9.051-.968-9.051S86.031,88.852,86.01,88.775" transform="translate(45.509 46.683)" fill="#f9c1b9"/>
        <path id="Path_25756" data-name="Path 25756" d="M50.407,59.469c-2.456-.324-6.25.753-10.093,3.145,0,0,2.719,11.083,2.185,17.884s-3.838,22.354-3.838,22.354S37.535,111.869,38,116.63c7.954-9.575,13.719-16.349,15.022-33.9.621-8.367-1.507-18.677-2.611-23.266" transform="translate(25.358 39.767)" fill="#b4aad3"/>
        <path id="Path_25757" data-name="Path 25757" d="M52.973,61.233a2.858,2.858,0,0,0-2.611-1.786c1.1,4.589,3.232,14.9,2.611,23.264-1.3,17.548-7.068,24.322-15.022,33.9a5.639,5.639,0,0,0,.664,2.549s12.447-10.732,15.65-27.042-.347-27.97-1.292-30.883" transform="translate(25.402 39.79)" fill="#635ba8"/>
        <path id="Path_25758" data-name="Path 25758" d="M62.984,59.469c2.459-.324,6.25.753,10.1,3.145,0,0-2.721,11.083-2.19,17.884s3.839,22.354,3.839,22.354,1.127,9.018.666,13.779c-7.953-9.575-13.717-16.349-15.021-33.9-.623-8.367,1.507-18.677,2.609-23.266" transform="translate(40.336 39.767)" fill="#b4aad3"/>
        <path id="Path_25759" data-name="Path 25759" d="M61.375,61.233a2.855,2.855,0,0,1,2.609-1.786c-1.1,4.589-3.23,14.9-2.609,23.264,1.3,17.548,7.068,24.322,15.021,33.9a5.592,5.592,0,0,1-.666,2.549S63.285,108.425,60.081,92.116s.351-27.97,1.294-30.883" transform="translate(39.336 39.79)" fill="#635ba8"/>
      </g>
    </g>
  </g>
</svg>
