<svg id="Group_27917" data-name="Group 27917" xmlns="http://www.w3.org/2000/svg" xmlns:xlink="http://www.w3.org/1999/xlink" width="173.135" height="317.676" viewBox="0 0 173.135 317.676">
  <defs>
    <clipPath id="clip-path">
      <rect id="Rectangle_10242" data-name="Rectangle 10242" width="173.134" height="317.676" fill="none"/>
    </clipPath>
    <clipPath id="clip-path-3">
      <rect id="Rectangle_10240" data-name="Rectangle 10240" width="173.134" height="40.266" fill="none"/>
    </clipPath>
  </defs>
  <g id="Group_27791" data-name="Group 27791" clip-path="url(#clip-path)">
    <g id="Group_27790" data-name="Group 27790">
      <g id="Group_27789" data-name="Group 27789" clip-path="url(#clip-path)">
        <g id="Group_27788" data-name="Group 27788" transform="translate(0 277.411)" opacity="0.3">
          <g id="Group_27787" data-name="Group 27787">
            <g id="Group_27786" data-name="Group 27786" clip-path="url(#clip-path-3)">
              <path id="Path_25842" data-name="Path 25842" d="M173.134,192.3c0,11.118-38.758,20.133-86.568,20.133S0,203.418,0,192.3s38.756-20.133,86.566-20.133,86.568,9.014,86.568,20.133" transform="translate(0 -172.167)" fill="#bcbcbc"/>
            </g>
          </g>
        </g>
        <path id="Path_25843" data-name="Path 25843" d="M24.609,44.621s8.277,48.654-4.782,61-19.761,23.841-6,34.156,18.191-2.393,18.191-2.393-8.462,24.453,10.847,23.164S73.22,143.172,73.22,143.172s25.648,26.3,48.253,20.417c10.58-1.5,14.519-10.731,17.666-19.348,3.5,3.029,12.674,5.64,15.5-20.123,0,0,13.409,2.684,7.41-16.724s-22.759-13.111-27.555-31.41-5.288-44.412-5.288-44.412S35.748,13.8,24.609,44.621" transform="translate(3.807 16.183)" fill="#f1583a"/>
        <path id="Path_25844" data-name="Path 25844" d="M56.606,65.959s-25.668,2.565-24.184,18.1.179,50.852,8.495,63.762c3.467,5.378,45.7.885,56.745-2.439s11.327-13.6,10.1-24.139-4.637-35.518-8.351-46.811C97.032,67.2,79.445,63.4,56.606,65.959" transform="translate(19.782 39.833)" fill="#f27fb2"/>
        <path id="Path_25845" data-name="Path 25845" d="M58.355,65.872s-25.666,2.567-24.181,18.1.174,50.854,8.491,63.76c3.466,5.382,45.7.886,56.743-2.439s11.329-13.6,10.1-24.137-4.634-35.518-8.348-46.811c-2.377-7.233-19.962-11.032-42.8-8.475" transform="translate(20.853 39.78)" fill="#f16790"/>
        <path id="Path_25846" data-name="Path 25846" d="M96.585,181.563s.33,3.02-4.305,4.073A65.048,65.048,0,0,1,71.648,186.7c-7.281-1-10.593-1.768-10.593-1.768a24.766,24.766,0,0,1-.5-3.364c-.172-2.019,36.033,0,36.033,0" transform="translate(37.014 110.439)" fill="#f16790"/>
        <path id="Path_25847" data-name="Path 25847" d="M87.924,183.344c.491,2.219-5.6,3.58-13.2,3.964a25.476,25.476,0,0,1,5.058-9.555c3.685,1.334,7.633,3.279,8.147,5.591" transform="translate(45.675 108.658)" fill="#f16790"/>
        <path id="Path_25848" data-name="Path 25848" d="M60.923,175.847a33.112,33.112,0,0,0,20.964,1.1,61.183,61.183,0,0,1,6.64,1.967,25.468,25.468,0,0,0-5.059,9.555c-7.705.388-16.968-.227-22.545-1.979,0,0-1.159-6.231,0-10.647" transform="translate(36.927 107.493)" fill="#f27fb2"/>
        <path id="Path_25849" data-name="Path 25849" d="M74.77,180.082c1.553-.388,3.471-.852,4.415-2.253.411-.6.092-1.345-.667-1.138a3.732,3.732,0,0,0-1.347,1.051,14.531,14.531,0,0,0-1.971,2.783c-.248-.143-.49-.287-.732-.43.575-.951,1.173-1.884,1.687-2.873.187-.361,1.8-4.439.052-3.5-.9.485-.857,2.649-.9,3.48a29.887,29.887,0,0,0,.024,3.11c.034.645-.978.645-1,0-.055-1.676-.528-7.629,2.257-7.507,3.514.153-.741,6.622-1.391,7.721a.425.425,0,0,1-.732-.43,10.711,10.711,0,0,1,3.48-3.994c.627-.371,1.864-.462,2.2.366,1.117,2.812-3.488,3.965-5.314,4.081a.238.238,0,0,1-.061-.466" transform="translate(45.4 105.631)" fill="#f16790"/>
        <path id="Path_25850" data-name="Path 25850" d="M29.589,181.563s-.332,3.02,4.3,4.073A65.059,65.059,0,0,0,54.527,186.7c7.281-1,10.594-1.768,10.594-1.768a24.557,24.557,0,0,0,.5-3.364c.177-2.019-36.028,0-36.028,0" transform="translate(18.084 110.439)" fill="#f16790"/>
        <path id="Path_25851" data-name="Path 25851" d="M29.6,183.344c-.493,2.219,5.6,3.58,13.2,3.964a25.569,25.569,0,0,0-5.058-9.555c-3.687,1.334-7.633,3.279-8.147,5.591" transform="translate(18.076 108.658)" fill="#f16790"/>
        <path id="Path_25852" data-name="Path 25852" d="M62.248,175.847a33.111,33.111,0,0,1-20.963,1.1,61.232,61.232,0,0,0-6.643,1.967,25.56,25.56,0,0,1,5.059,9.555c7.7.388,16.967-.227,22.547-1.979,0,0,1.157-6.231,0-10.647" transform="translate(21.176 107.493)" fill="#f27fb2"/>
        <path id="Path_25853" data-name="Path 25853" d="M40.027,180.082c-1.555-.388-3.471-.852-4.417-2.253-.409-.6-.092-1.345.67-1.138a3.722,3.722,0,0,1,1.344,1.051,14.547,14.547,0,0,1,1.974,2.783l.73-.43c-.577-.951-1.171-1.884-1.687-2.873-.19-.361-1.8-4.439-.052-3.5.9.485.856,2.649.9,3.48a29.022,29.022,0,0,1-.029,3.11c-.029.645.983.645,1,0,.056-1.676.529-7.629-2.261-7.507-3.511.153.743,6.622,1.4,7.721a.424.424,0,0,0,.73-.43,10.768,10.768,0,0,0-3.48-3.994c-.627-.371-1.866-.462-2.2.366-1.117,2.812,3.487,3.965,5.314,4.081a.238.238,0,0,0,.063-.466" transform="translate(21.076 105.631)" fill="#f16790"/>
        <path id="Path_25854" data-name="Path 25854" d="M37.622,138.472c-.168,13.843,3.024,64.211,3.975,70.221,0,0,12.1,4.36,18.949-1.057,0,0,2.7-58.536,2.187-61.633,0,0,6.4.759,10.451-.944,0,0,.387,60.214,1.444,63.981,0,0,12,6.066,17.632-.3,0,0,4.007-69.417,2.328-84.894a151.3,151.3,0,0,1-56.965,14.626" transform="translate(22.994 75.705)" fill="#c4badc"/>
        <path id="Path_25855" data-name="Path 25855" d="M94.062,118.757c-2.694-4.552-55.636-.981-55.636-.981S37.757,131.861,37.62,143a151.264,151.264,0,0,0,56.964-14.626c-.44-4.06.037-8.672-.522-9.615" transform="translate(22.997 71.18)" fill="#b4aad3"/>
        <path id="Path_25856" data-name="Path 25856" d="M69.068,121.955c1.508,4.138,3.846,9.432,6.73,12.742" transform="translate(42.22 74.549)" fill="#635ba8"/>
        <path id="Path_25857" data-name="Path 25857" d="M68.915,122.151a26.125,26.125,0,0,0,2.506,6.535,24.958,24.958,0,0,0,4.146,6.521c.451.475,1.055-.248.657-.791a46.054,46.054,0,0,1-3.97-6.316c-1.023-1.99-1.711-4.318-2.866-6.187-.172-.279-.53-.119-.472.238" transform="translate(42.123 74.437)" fill="#635ba8"/>
        <path id="Path_25858" data-name="Path 25858" d="M38.12,132.952c2.887-2.151,3.572-6.123,4.81-9.764" transform="translate(23.302 75.303)" fill="#635ba8"/>
        <path id="Path_25859" data-name="Path 25859" d="M38.466,133.5c2.868-1.55,4.587-6.632,4.945-10.167a.331.331,0,0,0-.622-.2,28.636,28.636,0,0,0-1.9,5.042,14,14,0,0,1-2.889,4.6c-.342.388.09.936.467.733" transform="translate(23.152 75.158)" fill="#635ba8"/>
        <path id="Path_25860" data-name="Path 25860" d="M47.925,136.884c7.966.166,16.622,1.489,25,1.159" transform="translate(29.296 83.675)" fill="#635ba8"/>
        <path id="Path_25861" data-name="Path 25861" d="M48.125,137.792c8.245.469,16.943,2.567,25.155,1.17.691-.118.443-1.3-.153-1.363a222.95,222.95,0,0,0-25-1.123c-.707,0-.7,1.275,0,1.316" transform="translate(29.096 83.426)" fill="#635ba8"/>
        <path id="Path_25862" data-name="Path 25862" d="M54.667,147.788c-.414-9.1-.551-18.208-.414-27.476" transform="translate(33.132 73.545)" fill="#635ba8"/>
        <path id="Path_25863" data-name="Path 25863" d="M55.357,148.026c.1-9.109.015-18.373-.272-27.476-.026-.844-1.034-.835-1.081,0a183.353,183.353,0,0,0,.551,27.476c.058.6.8.64.8,0" transform="translate(32.842 73.306)" fill="#635ba8"/>
        <path id="Path_25864" data-name="Path 25864" d="M55.713,147.895c8.034-2.214,4.879-19.439,4.355-26.177-.076-.954-1.255-.991-1.257,0-.015,6.431,3.688,22.429-3.337,25.134-.553.213-.327,1.2.238,1.043" transform="translate(33.717 73.958)" fill="#635ba8"/>
        <path id="Path_25865" data-name="Path 25865" d="M35.509,131.8s36.112,7.958,65.241-.87l-.119-2.129c-23.236-4.185-45.558-15.5-64.316-30.552Z" transform="translate(21.706 60.061)" fill="#fcb31d"/>
        <path id="Path_25866" data-name="Path 25866" d="M118.658,99.117S110.5,74.479,87.781,71.169s-32.624,2.605-32.624,2.605S40.54,75.5,33.917,86.318s-6.4,19.419-6.4,19.419,4.146,3.277,12.811,3.912q.493.036,1.009.058l-.137,5.718c18.757,15.054,41.08,26.365,64.316,30.552l-2.083-36.71a29.623,29.623,0,0,0,15.225-10.151" transform="translate(16.82 42.889)" fill="#ffbd48"/>
        <path id="Path_25867" data-name="Path 25867" d="M63.8,130.759c-1.018.643-30.136-17.175-19.782-35.526,11.526-12.942,19.11,7.373,19.11,7.373S64.54,82.7,77.481,81.531s7.979,35.582-13.686,49.228" transform="translate(25.546 49.822)" fill="#09b1c0"/>
        <path id="Path_25868" data-name="Path 25868" d="M65.411,69.045c2.957-.5,7.591.633,12.347,3.36,0,0-2.8,13.522-1.851,21.727S81.543,121,81.543,121s1.76,10.855,1.416,16.64C72.913,126.4,65.642,118.466,63.287,97.3c-1.126-10.09.993-22.655,2.124-28.257" transform="translate(38.491 42.135)" fill="#f27fb2"/>
        <path id="Path_25869" data-name="Path 25869" d="M63.493,71.278c.354-1.255,1.474-2,3.079-2.278-1.131,5.6-3.248,18.169-2.124,28.257,2.354,21.164,9.626,29.1,19.672,40.335a6.782,6.782,0,0,1-.694,3.113S67.9,128.273,63.3,108.692s-.819-33.847.195-37.414" transform="translate(37.33 42.179)" fill="#f16790"/>
        <path id="Path_25870" data-name="Path 25870" d="M87.435,112c-5.106-2.364-12.529-9.992-12.529-9.992l-.274-4.835s9.3-3.669,12.418-7.219c0,0,3.983,7.731,7.452,15.484C85.241,111.845,87.435,112,87.435,112" transform="translate(45.622 54.986)" fill="#ed9996"/>
        <path id="Path_25871" data-name="Path 25871" d="M109.465,120.666c-.446-2.865-2.573-8.171-4.94-13.469-7.286,5.042-7.481,6.207-7.233,6.477-5.277-2.617-21.356-18.606-21.356-18.606a10.391,10.391,0,0,0,0-4.194c-.424-2.565-2.074-.395-3.211.733-1.323-1.36-5.652-5.651-7.544-4.263-1.656,1.215,1.1,5.076,1.1,5.076s-3.306-3.53-4.521-2.481,1.1,4.8,1.1,4.8S59.33,90.6,58.339,92.916s5.612,10.765,5.612,10.765l0,0a33.671,33.671,0,0,0,5.129,6.619c11.253,14.123,22.73,22.729,29.6,24.053s11.891-6.619,10.784-13.683" transform="translate(35.599 53.226)" fill="#f9c1b9"/>
        <path id="Path_25872" data-name="Path 25872" d="M17.013,44.728c.851,5.7,6.777,11.252,18.317,7.017V43.684a17.706,17.706,0,0,0-18.317,1.044" transform="translate(10.4 25.442)" fill="#f9c1b9"/>
        <path id="Path_25873" data-name="Path 25873" d="M20.429,39.131c-2.71,1.565-3.861,4.853-3.376,8.092a17.709,17.709,0,0,1,18.319-1.044V40.626s-7.473-5.812-14.943-1.5" transform="translate(10.358 22.945)" fill="#ed9996"/>
        <path id="Path_25874" data-name="Path 25874" d="M20.522,42.852c3.061.013,7.114-1.469,9.27,1.581,1.362,1.927,1.175,4.591,1.246,6.833a.333.333,0,0,0,.665,0c.069-2.564.013-5.775-1.924-7.723-2.378-2.39-6.371-1.632-9.286-.9a.109.109,0,0,0,.029.213" transform="translate(12.48 25.626)" fill="#8e4f4f"/>
        <path id="Path_25875" data-name="Path 25875" d="M23.841,44.819c1.323-.606,2.475-.746,3.614.3a20.334,20.334,0,0,1,1.811,2.336c.274.335.711-.092.558-.43-1.138-2.509-3.737-4.62-6.289-2.6-.24.19.066.506.306.4" transform="translate(14.333 26.662)" fill="#8e4f4f"/>
        <path id="Path_25876" data-name="Path 25876" d="M98.255,44.728c-.849,5.7-6.779,11.252-18.315,7.017V43.684a17.7,17.7,0,0,1,18.315,1.044" transform="translate(48.866 25.442)" fill="#f9c1b9"/>
        <path id="Path_25877" data-name="Path 25877" d="M92.666,40.1c2.707,1.566,6.075,3.471,5.59,6.711A17.7,17.7,0,0,0,79.94,45.766V40.214s5.253-4.431,12.726-.113" transform="translate(48.866 23.358)" fill="#ed9996"/>
        <path id="Path_25878" data-name="Path 25878" d="M92.116,42.639c-2.913-.727-6.909-1.486-9.289.906-1.935,1.945-1.992,5.161-1.922,7.721a.333.333,0,0,0,.665,0c.071-2.262-.1-4.877,1.246-6.832,2.124-3.079,6.236-1.571,9.271-1.581a.11.11,0,0,0,.029-.214" transform="translate(49.446 25.626)" fill="#8e4f4f"/>
        <path id="Path_25879" data-name="Path 25879" d="M87.216,44.423c-2.554-2.019-5.151.089-6.289,2.6-.151.334.28.769.558.43a20.156,20.156,0,0,1,1.809-2.338c1.139-1.044,2.286-.906,3.616-.3.237.108.549-.2.306-.4" transform="translate(49.45 26.662)" fill="#8e4f4f"/>
        <path id="Path_25880" data-name="Path 25880" d="M49.536,71.075a8.01,8.01,0,0,1-.761,2.088s9.35,9.9,21.253,1.55a57.682,57.682,0,0,1,.118-7.565,80.794,80.794,0,0,0-20.61,3.927" transform="translate(29.816 41.047)" fill="#f9c1b9"/>
        <path id="Path_25881" data-name="Path 25881" d="M71.714,62.15,48.776,64.045s1.774,5.673.759,10.087A80.807,80.807,0,0,1,70.145,70.2a32.039,32.039,0,0,1,1.569-8.055" transform="translate(29.816 37.991)" fill="#ed9996"/>
        <path id="Path_25882" data-name="Path 25882" d="M27.648,53.618S27.2,69.27,30.97,77.019s16.38,16.384,33.2,17.932,39.183-3.986,44.277-16.16,7.085-20.589,5.535-32.986-2.212-17.932-13.727-23.467S26.1-11.183,27.648,53.618" transform="translate(16.883 7.084)" fill="#f9c1b9"/>
        <path id="Path_25883" data-name="Path 25883" d="M44.778,42.373a2.776,2.776,0,0,1-2.491,2.989A2.775,2.775,0,0,1,39.8,42.373a2.775,2.775,0,0,1,2.491-2.989,2.776,2.776,0,0,1,2.491,2.989" transform="translate(24.327 24.075)" fill="#111"/>
        <path id="Path_25884" data-name="Path 25884" d="M70.124,42.373a2.532,2.532,0,1,1-4.98,0,2.532,2.532,0,1,1,4.98,0" transform="translate(39.822 24.075)" fill="#111"/>
        <path id="Path_25885" data-name="Path 25885" d="M53.506,37.752a39.567,39.567,0,0,0-.836,4.194,4.637,4.637,0,0,0,.019,2.894,1.782,1.782,0,0,0,1.65,1.065,2.512,2.512,0,0,0,1.005-.462c.174-.1.369-.34.564-.387q.928-.757.854.833.993,1.286-.561,1.647c-.477.177-.269.951.213.769a2.742,2.742,0,0,0,1.975-2.612A1.806,1.806,0,0,0,56.53,44.05c-.67.044-.973.551-1.542.783-2.32.941-1.858-1.834-1.635-2.953.232-1.167,1.068-3.021.427-4.164a.152.152,0,0,0-.274.035" transform="translate(32.056 23.011)" fill="#8e4f4f"/>
        <path id="Path_25886" data-name="Path 25886" d="M52.224,51.85c-.712-2.124,2.388-3.619,4.022-3.677a4.046,4.046,0,0,1,4.384,3.973c0,.628-.868.583-.946,0a3.264,3.264,0,0,0-3.571-3.074,4.02,4.02,0,0,0-2.377.894c-.64.541-.794,1.281-1.268,1.916a.136.136,0,0,1-.245-.032" transform="translate(31.86 29.446)" fill="#8e4f4f"/>
        <path id="Path_25887" data-name="Path 25887" d="M35.363,36.311a11.571,11.571,0,0,1,7.565-5.067c.411-.085.288-.674-.093-.7-2.912-.18-7.227,2.675-7.824,5.617a.194.194,0,0,0,.353.148" transform="translate(21.398 18.667)" fill="#8e4f4f"/>
        <path id="Path_25888" data-name="Path 25888" d="M65.926,30.5c2.849.7,5.646,1.118,7.8,3.329.445.459,1.088-.214.691-.691a10.01,10.01,0,0,0-8.487-3.087.235.235,0,0,0,0,.45" transform="translate(40.198 18.298)" fill="#8e4f4f"/>
        <path id="Path_25889" data-name="Path 25889" d="M51.617,53.591a8.007,8.007,0,0,1-8.247,7.747,7.763,7.763,0,1,1,0-15.5,8.009,8.009,0,0,1,8.247,7.749" transform="translate(21.471 28.023)" fill="#ed9996"/>
        <path id="Path_25890" data-name="Path 25890" d="M79.611,53.591a8.263,8.263,0,1,1-8.248-7.749,8.008,8.008,0,0,1,8.248,7.749" transform="translate(38.583 28.023)" fill="#ed9996"/>
        <path id="Path_25891" data-name="Path 25891" d="M39.483,49.364a.77.77,0,1,1-.765-.865.82.82,0,0,1,.765.865" transform="translate(23.202 29.647)" fill="#8e4f4f"/>
        <path id="Path_25892" data-name="Path 25892" d="M42.771,52.466a.771.771,0,1,1-.765-.867.822.822,0,0,1,.765.867" transform="translate(25.209 31.542)" fill="#8e4f4f"/>
        <path id="Path_25893" data-name="Path 25893" d="M38.768,54.561A.771.771,0,1,1,38,53.694a.819.819,0,0,1,.765.867" transform="translate(22.764 32.822)" fill="#8e4f4f"/>
        <path id="Path_25894" data-name="Path 25894" d="M45.121,48.586a.771.771,0,1,1-.764-.865.821.821,0,0,1,.764.865" transform="translate(26.646 29.171)" fill="#8e4f4f"/>
        <path id="Path_25895" data-name="Path 25895" d="M47.931,53.539a.77.77,0,1,1-.765-.865.821.821,0,0,1,.765.865" transform="translate(28.365 32.199)" fill="#8e4f4f"/>
        <path id="Path_25896" data-name="Path 25896" d="M63.9,49.364a.77.77,0,1,1-.764-.865.819.819,0,0,1,.764.865" transform="translate(38.124 29.647)" fill="#8e4f4f"/>
        <path id="Path_25897" data-name="Path 25897" d="M65.828,54.561a.77.77,0,1,1-.764-.867.818.818,0,0,1,.764.867" transform="translate(39.306 32.822)" fill="#8e4f4f"/>
        <path id="Path_25898" data-name="Path 25898" d="M69.838,49.659a.77.77,0,1,1-.765-.865.82.82,0,0,1,.765.865" transform="translate(41.757 29.827)" fill="#8e4f4f"/>
        <path id="Path_25899" data-name="Path 25899" d="M72.712,53.539a.77.77,0,1,1-.762-.865.819.819,0,0,1,.762.865" transform="translate(43.514 32.199)" fill="#8e4f4f"/>
        <path id="Path_25900" data-name="Path 25900" d="M68.793,53a.77.77,0,1,1-.762-.867.819.819,0,0,1,.762.867" transform="translate(41.119 31.871)" fill="#8e4f4f"/>
        <path id="Path_25901" data-name="Path 25901" d="M62.431,45.776a14.992,14.992,0,1,0-.05,1.963c.786-.772,4.391-3.611,11.6.479a15,15,0,1,0-.14-1.946M47.357,59.841A13.57,13.57,0,1,1,60.926,46.27a13.586,13.586,0,0,1-13.569,13.57m41.582,0a13.57,13.57,0,1,1,13.57-13.57,13.587,13.587,0,0,1-13.57,13.57" transform="translate(19.718 19.054)" fill="#f16790"/>
        <path id="Path_25902" data-name="Path 25902" d="M25.018,15.623a24.387,24.387,0,0,0-7.372,16.348c-.021.3-.035.588-.053.885A52,52,0,0,0,42.6,44.246a68.759,68.759,0,0,0,4.254-5.42c-8.595-6.221-15.744-14.3-21.836-23.2" transform="translate(10.754 9.55)" fill="#f26952"/>
        <path id="Path_25903" data-name="Path 25903" d="M78.445,39.76s.1.214.248.58c1.2,2.7,6.655,14,14.2,14.51C90.263,36.918,83.564,19.638,71.435,6.381a84.442,84.442,0,0,0-27.316,6.558S47.574-1,43.024.058s-3.14,14.116-3.14,14.116-3.551-10.767-5.92-8.648,2.568,11.646,2.568,11.646a33.107,33.107,0,0,0-14.331,8c6.092,8.907,13.242,16.981,21.835,23.2,2.546-3.622,4.57-7.459,5.024-10.913,0,0,8.753,8.846,17.317,12.644a2.793,2.793,0,0,0,.506-1.7,2.793,2.793,0,0,1-.506,1.7,16.19,16.19,0,0,0,7.5,1.674c8.585-.632,5.747-9.134,4.813-11.442-.16-.366-.248-.58-.248-.58" transform="translate(13.571 0)" fill="#f1583a"/>
        <path id="Path_25904" data-name="Path 25904" d="M75.171,6.722A43.211,43.211,0,0,0,63.2,4.055a72.045,72.045,0,0,0-10.444-.029C64.885,17.284,71.584,34.562,74.212,52.494a8.3,8.3,0,0,0,6.83-2.581C82.5,35.09,80.849,20.144,75.171,6.722" transform="translate(32.25 2.354)" fill="#f26952"/>
        <path id="Path_25905" data-name="Path 25905" d="M89.929,26.433c-2.583-5.673-10.222-15.882-23.262-20.8C72.347,19.055,74,34,72.539,48.824c2.559-3.023,1.921-7.567,1.921-7.567S79.868,59.4,90.6,58.62s2.618-24.951-.675-32.187" transform="translate(40.753 3.443)" fill="#f1583a"/>
        <path id="Path_25906" data-name="Path 25906" d="M18.506,47.371A13.319,13.319,0,0,1,33.9,46.686a100.011,100.011,0,0,0,8.84-8.978,52,52,0,0,1-25.007-11.39c-1.121,18.934.778,21.053.778,21.053" transform="translate(10.62 16.088)" fill="#f1583a"/>
        <path id="Path_25907" data-name="Path 25907" d="M57.356,25.254c-.148-.364-.248-.578-.248-.578s.087.214.248.578" transform="translate(34.909 15.084)" fill="#f26952"/>
        <path id="Path_25908" data-name="Path 25908" d="M49.51,70.611c-2.978-.375-7.559.959-12.194,3.885,0,0,3.377,13.391,2.781,21.628s-4.481,27.084-4.481,27.084-1.3,10.918-.7,16.682C44.47,128.238,51.4,120,52.842,98.75c.69-10.13-1.963-22.592-3.332-28.14" transform="translate(21.248 43.125)" fill="#f27fb2"/>
        <path id="Path_25909" data-name="Path 25909" d="M52.625,72.731c-.411-1.242-1.56-1.94-3.174-2.145,1.37,5.548,4.022,18.011,3.334,28.139-1.449,21.246-8.374,29.49-17.927,41.139a6.763,6.763,0,0,0,.823,3.081S50.664,129.864,54.421,110.1s-.632-33.85-1.8-37.371" transform="translate(21.308 43.148)" fill="#f16790"/>
        <path id="Path_25910" data-name="Path 25910" d="M32.6,112.921c4.824-2.9,11.382-11.287,11.382-11.287L42.956,96A55.145,55.145,0,0,1,29.99,92.591s-2.51,6.487-5.122,14.568c9.9,5.37,7.731,5.762,7.731,5.762" transform="translate(15.201 56.6)" fill="#ed9996"/>
        <path id="Path_25911" data-name="Path 25911" d="M22.725,124.722c.135-2.9,1.679-8.4,3.461-13.923,7.786,4.225,8.106,5.364,7.889,5.659,4.963-3.171,19.224-20.8,19.224-20.8a10.4,10.4,0,0,1-.451-4.168c.148-2.6,2.016-.616,3.274.383,1.167-1.5,5.008-6.226,7.04-5.05,1.774,1.028-.548,5.163-.548,5.163s2.908-3.865,4.228-2.955-.578,4.89-.578,4.89,3.063-4.494,4.3-2.3-4.423,11.311-4.423,11.311l0-.006a33.757,33.757,0,0,1-4.384,7.133c-9.666,15.256-20.149,25.049-26.836,27.105s-12.533-5.3-12.2-12.441" transform="translate(13.883 52.96)" fill="#f9c1b9"/>
      </g>
    </g>
  </g>
</svg>
