<svg xmlns="http://www.w3.org/2000/svg" xmlns:xlink="http://www.w3.org/1999/xlink" width="39.531" height="20.651" viewBox="0 0 39.531 20.651">
  <defs>
    <clipPath id="clip-path">
      <rect id="Rectangle_10258" data-name="Rectangle 10258" width="39.531" height="20.651" fill="none"/>
    </clipPath>
  </defs>
  <g id="Group_27842" data-name="Group 27842" transform="translate(0 0)">
    <g id="Group_27841" data-name="Group 27841" transform="translate(0 0)" clip-path="url(#clip-path)">
      <path id="Path_26470" data-name="Path 26470" d="M27.407.9l-.243,1.177a.745.745,0,0,0,.361.8l1.044.594a.745.745,0,0,1-.286,1.387l-1.194.133a.744.744,0,0,0-.647.589L26.2,6.754a.745.745,0,0,1-1.408.157l-.5-1.095a.745.745,0,0,0-.761-.433l-1.194.133a.745.745,0,0,1-.584-1.29l.888-.81a.744.744,0,0,0,.177-.857l-.5-1.095A.745.745,0,0,1,23.373.509l1.044.595a.745.745,0,0,0,.87-.1L26.176.2a.745.745,0,0,1,1.231.7" transform="translate(-9.878 0)" fill="#3951ff"/>
      <path id="Path_26471" data-name="Path 26471" d="M27.446,1.3l-.192.931a.588.588,0,0,0,.286.631l.826.471a.59.59,0,0,1-.227,1.1l-.945.1A.588.588,0,0,0,26.682,5l-.192.931a.59.59,0,0,1-1.115.124l-.392-.866a.59.59,0,0,0-.6-.343l-.945.105a.59.59,0,0,1-.462-1.022l.7-.64a.589.589,0,0,0,.14-.679l-.392-.866a.59.59,0,0,1,.829-.756l.826.471a.589.589,0,0,0,.688-.076l.7-.641a.589.589,0,0,1,.974.555" transform="translate(-10.46 -0.268)" fill="#7bbae5"/>
      <path id="Path_26472" data-name="Path 26472" d="M50.024,3.244l.5,1.091a.746.746,0,0,0,.764.427l1.193-.142a.745.745,0,0,1,.594,1.286l-.882.817a.745.745,0,0,0-.17.859l.5,1.091a.745.745,0,0,1-1.039.962l-1.049-.586a.746.746,0,0,0-.87.1l-.882.816a.744.744,0,0,1-1.236-.691L47.69,8.1a.744.744,0,0,0-.367-.794l-1.049-.586a.745.745,0,0,1,.275-1.39l1.193-.142a.744.744,0,0,0,.642-.594l.233-1.179a.745.745,0,0,1,1.407-.168" transform="translate(-21.072 -1.291)" fill="#fc4259"/>
      <path id="Path_26473" data-name="Path 26473" d="M50.09,4.108l.4.863a.589.589,0,0,0,.6.338l.944-.112a.589.589,0,0,1,.47,1.018l-.7.646a.589.589,0,0,0-.135.679l.4.864a.589.589,0,0,1-.823.761l-.83-.464a.589.589,0,0,0-.688.082l-.7.646a.589.589,0,0,1-.979-.547l.185-.933a.591.591,0,0,0-.291-.629l-.83-.464a.589.589,0,0,1,.218-1.1l.944-.112a.59.59,0,0,0,.508-.471l.185-.933a.589.589,0,0,1,1.113-.133" transform="translate(-21.498 -1.729)" fill="#ff6f64"/>
      <path id="Path_26474" data-name="Path 26474" d="M65.691,21.96,65.28,23.09a.744.744,0,0,0,.241.842l.947.74A.745.745,0,0,1,65.983,26l-1.2-.042a.744.744,0,0,0-.726.489l-.411,1.129a.745.745,0,0,1-1.416-.05L61.9,26.373a.744.744,0,0,0-.69-.539l-1.2-.042a.745.745,0,0,1-.39-1.362l1-.672a.745.745,0,0,0,.3-.823l-.331-1.155a.745.745,0,0,1,1.175-.792l.946.74a.746.746,0,0,0,.875.031l1-.672a.745.745,0,0,1,1.116.872" transform="translate(-27.223 -9.563)" fill="#9dc762"/>
      <path id="Path_26475" data-name="Path 26475" d="M65.8,22.25l-.326.893a.59.59,0,0,0,.191.666l.749.586a.589.589,0,0,1-.383,1.053l-.95-.033a.589.589,0,0,0-.575.387l-.325.893a.59.59,0,0,1-1.121-.039l-.262-.914a.589.589,0,0,0-.546-.427l-.95-.034A.59.59,0,0,1,60.99,24.2l.789-.532a.589.589,0,0,0,.237-.651l-.262-.915a.589.589,0,0,1,.93-.627l.749.586a.59.59,0,0,0,.693.024l.789-.532a.589.589,0,0,1,.883.691" transform="translate(-27.885 -9.805)" fill="#dae379"/>
      <path id="Path_26476" data-name="Path 26476" d="M25.652,20.49l-.014,1.2a.745.745,0,0,0,.506.714l1.138.385a.745.745,0,0,1-.016,1.416l-1.147.358a.745.745,0,0,0-.523.7l-.014,1.2a.745.745,0,0,1-1.352.422l-.7-.98a.745.745,0,0,0-.829-.28l-1.147.359a.745.745,0,0,1-.819-1.156l.717-.964a.744.744,0,0,0,.01-.876l-.695-.98a.745.745,0,0,1,.846-1.136l1.138.384A.745.745,0,0,0,23.593,21l.717-.964a.745.745,0,0,1,1.342.453" transform="translate(-9.455 -9.062)" fill="#ff8336"/>
      <path id="Path_26477" data-name="Path 26477" d="M25.608,21.049,25.6,22a.59.59,0,0,0,.4.565l.9.3a.589.589,0,0,1-.013,1.121l-.908.284a.589.589,0,0,0-.414.556l-.011.951a.589.589,0,0,1-1.07.334l-.551-.776a.589.589,0,0,0-.657-.222l-.907.283a.589.589,0,0,1-.648-.915l.568-.763a.59.59,0,0,0,.008-.693l-.55-.776a.589.589,0,0,1,.669-.9l.9.3a.59.59,0,0,0,.661-.207l.568-.763a.589.589,0,0,1,1.062.359" transform="translate(-9.919 -9.391)" fill="#fdb688"/>
      <path id="Path_26478" data-name="Path 26478" d="M40.606,24.664l.746.942a.744.744,0,0,0,.843.236l1.127-.419a.745.745,0,0,1,.879,1.111l-.665,1a.743.743,0,0,0,.036.875l.746.942a.745.745,0,0,1-.785,1.18l-1.157-.323a.745.745,0,0,0-.821.3l-.665,1a.745.745,0,0,1-1.364-.381l-.05-1.2a.744.744,0,0,0-.543-.686l-1.157-.324a.745.745,0,0,1-.059-1.415l1.127-.418a.746.746,0,0,0,.485-.729l-.05-1.2a.745.745,0,0,1,1.328-.493" transform="translate(-17.095 -11.194)" fill="#fac464"/>
      <path id="Path_26479" data-name="Path 26479" d="M40.74,25.637l.591.746a.589.589,0,0,0,.667.187l.892-.332a.59.59,0,0,1,.7.879l-.527.792a.589.589,0,0,0,.029.692l.59.745a.589.589,0,0,1-.62.933l-.916-.256a.59.59,0,0,0-.65.241l-.527.792a.589.589,0,0,1-1.079-.3l-.039-.95a.589.589,0,0,0-.43-.544l-.916-.256a.59.59,0,0,1-.047-1.121l.891-.331a.589.589,0,0,0,.384-.577l-.039-.95a.589.589,0,0,1,1.051-.39" transform="translate(-17.481 -11.668)" fill="#f7ec98"/>
      <path id="Path_26480" data-name="Path 26480" d="M5.062,17.483l-.014,1.2a.745.745,0,0,0,.506.714l1.138.385A.745.745,0,0,1,6.677,21.2l-1.147.358a.745.745,0,0,0-.523.7l-.014,1.2a.745.745,0,0,1-1.352.422l-.7-.98a.745.745,0,0,0-.829-.28L.97,22.982a.745.745,0,0,1-.819-1.156l.717-.964a.744.744,0,0,0,.01-.876l-.695-.98a.745.745,0,0,1,.846-1.136l1.138.384A.745.745,0,0,0,3,17.994l.717-.964a.745.745,0,0,1,1.342.453" transform="translate(0 -7.681)" fill="#ff39c2"/>
      <path id="Path_26481" data-name="Path 26481" d="M5.018,18.042l-.011.951a.59.59,0,0,0,.4.565l.9.3A.589.589,0,0,1,6.3,20.983l-.907.284a.589.589,0,0,0-.414.556l-.011.951a.589.589,0,0,1-1.07.334l-.551-.776a.589.589,0,0,0-.657-.222l-.908.283a.589.589,0,0,1-.648-.915l.568-.763a.59.59,0,0,0,.008-.693l-.55-.776a.589.589,0,0,1,.669-.9l.9.3a.59.59,0,0,0,.661-.207l.568-.763a.589.589,0,0,1,1.062.359" transform="translate(-0.465 -8.01)" fill="#fa9dd5"/>
    </g>
  </g>
</svg>
