<svg xmlns="http://www.w3.org/2000/svg" width="23.177" height="23.177" viewBox="0 0 23.177 23.177">
  <g id="Group_27839" data-name="Group 27839" transform="translate(-6240.871 -3384.59)">
    <path id="Path_26372" data-name="Path 26372" d="M.863,91.245A11.585,11.585,0,1,1,15.97,97.589,11.585,11.585,0,0,1,.863,91.245" transform="translate(6240.872 3309.315)" fill="#ea65cb"/>
    <path id="Path_26373" data-name="Path 26373" d="M4.114,92.593a10.126,10.126,0,1,1,13.2,5.544,10.127,10.127,0,0,1-13.2-5.544" transform="translate(6238.972 3307.415)" fill="#d152b9"/>
    <path id="Path_26374" data-name="Path 26374" d="M5.643,93.228A9.44,9.44,0,1,1,17.952,98.4,9.44,9.44,0,0,1,5.643,93.228" transform="translate(6238.078 3306.521)" fill="#efb4ca"/>
    <path id="Path_26375" data-name="Path 26375" d="M11.918,120.211c-.088.321-.157.639-.209.945a7.5,7.5,0,0,0,2.927,1.474q-.059-.473-.078-.911a10.172,10.172,0,0,1-2.639-1.508" transform="translate(6234.25 3283.901)" fill="#f2bdcf"/>
    <path id="Path_26376" data-name="Path 26376" d="M4.515,113.184q.143-.3.294-.573a10.133,10.133,0,0,1-1.3-2.28c-.045-.11-.086-.222-.126-.333a9.887,9.887,0,0,0-1.091,1.188,11.6,11.6,0,0,0,1.259,2.182,1.266,1.266,0,0,1,.481-.28.478.478,0,0,1,.481.1" transform="translate(6239.574 3289.677)" fill="#ffccdb"/>
    <path id="Path_26377" data-name="Path 26377" d="M24.265,125.688a11.2,11.2,0,0,0,3.216-.263c-.146-.195-.278-.387-.4-.578a10.064,10.064,0,0,1-3.051.114c.072.252.153.494.239.726" transform="translate(6227.283 3281.279)" fill="#f2bdcf"/>
    <path id="Path_26378" data-name="Path 26378" d="M1.627,97.823a9.372,9.372,0,0,0-1.539.423,11.5,11.5,0,0,0,.088,3.337,10.972,10.972,0,0,1,1.347-.893,10.07,10.07,0,0,1,.1-2.867" transform="translate(6240.869 3296.563)" fill="#ffccdb"/>
    <path id="Path_26379" data-name="Path 26379" d="M49.365,95.488a10.068,10.068,0,0,1,.257,2.825,10.049,10.049,0,0,0,1.472-.477,11.523,11.523,0,0,0-.447-3.208,11.006,11.006,0,0,1-1.282.861" transform="translate(6212.953 3298.37)" fill="#ffccdb"/>
    <path id="Path_26380" data-name="Path 26380" d="M4.736,86.533a8.932,8.932,0,0,0-1.506-.442,11.645,11.645,0,0,0-1.537,2.84,10.451,10.451,0,0,1,1.6-.05,10.142,10.142,0,0,1,1.447-2.349" transform="translate(6239.914 3303.198)" fill="#ffccdb"/>
    <path id="Path_26381" data-name="Path 26381" d="M13.1,79.881l.05-.019c-.062-.081-.125-.16-.189-.238-.989.4-1.59.738-1.883.527a1.339,1.339,0,0,1-.4-.647,11.489,11.489,0,0,0-1.234.909,10.136,10.136,0,0,1,1.368.772,10.131,10.131,0,0,1,2.288-1.3" transform="translate(6235.531 3306.924)" fill="#ffccdb"/>
    <path id="Path_26382" data-name="Path 26382" d="M46.146,111.109a10.488,10.488,0,0,0,1.54.283,11.672,11.672,0,0,0,1.251-3.088,11.641,11.641,0,0,1-1.553.15,10.181,10.181,0,0,1-1.238,2.654" transform="translate(6214.773 3290.635)" fill="#f2bdcf"/>
    <path id="Path_26383" data-name="Path 26383" d="M39.149,119.159a10.088,10.088,0,0,1-2.5,1.676c.177.171.358.33.537.48.566-.238.94-.375,1.152-.222a.947.947,0,0,1,.261.323,11.53,11.53,0,0,0,2-1.633,11.993,11.993,0,0,1-1.451-.624" transform="translate(6220.145 3284.496)" fill="#f2bdcf"/>
    <path id="Path_26384" data-name="Path 26384" d="M36.758,80.394c.094-.246.175-.494.244-.74a8.462,8.462,0,0,0-2.617-1.062c0,.2-.007.4-.02.59a10.165,10.165,0,0,1,2.393,1.212" transform="translate(6221.436 3307.439)" fill="#ffccdb"/>
    <path id="Path_26385" data-name="Path 26385" d="M44.217,85.058q-.148.271-.3.518a10.084,10.084,0,0,1,1.554,2.268,9.476,9.476,0,0,0,1.066-1.1q-.269-.483-.578-.931a1.255,1.255,0,0,1-.509.3c-.474.156-.716-.348-1.229-1.057" transform="translate(6216.036 3303.782)" fill="#ffccdb"/>
    <path id="Path_26386" data-name="Path 26386" d="M25.476,77.792a11.288,11.288,0,0,0-2.742.176c.054.1.106.2.153.3a10.045,10.045,0,0,1,2.657-.063c-.019-.141-.042-.279-.068-.417" transform="translate(6228.014 3307.902)" fill="#ffccdb"/>
    <path id="Path_26387" data-name="Path 26387" d="M44.569,111.085c.229.081.458.152.686.212a10.2,10.2,0,0,0,1.238-2.654c-.248.007-.487,0-.718-.006a9.485,9.485,0,0,1-1.206,2.448" transform="translate(6215.665 3290.447)" fill="#e5a1bd"/>
    <path id="Path_26388" data-name="Path 26388" d="M5.568,109.459c-.073-.181-.139-.362-.2-.545-.2.15-.383.309-.56.471.041.111.081.222.126.333A10.13,10.13,0,0,0,6.23,112q.188-.339.384-.639a9.478,9.478,0,0,1-1.047-1.9" transform="translate(6238.153 3290.29)" fill="#efb4ca"/>
    <path id="Path_26389" data-name="Path 26389" d="M48.1,99.566q.355-.053.7-.134a10.066,10.066,0,0,0-.257-2.824q-.321.183-.631.33a9.4,9.4,0,0,1,.193,2.628" transform="translate(6213.774 3297.25)" fill="#efb4ca"/>
    <path id="Path_26390" data-name="Path 26390" d="M34.268,79.951c-.016.244-.041.478-.074.7A9.487,9.487,0,0,1,36.381,81.8q.157-.317.281-.642a10.191,10.191,0,0,0-2.393-1.212" transform="translate(6221.533 3306.671)" fill="#e5a1bd"/>
    <path id="Path_26391" data-name="Path 26391" d="M35.488,119.845c.163.186.332.361.5.527a10.086,10.086,0,0,0,2.5-1.676q-.336-.173-.637-.355a9.423,9.423,0,0,1-2.368,1.5" transform="translate(6220.801 3284.958)" fill="#e5a1bd"/>
    <path id="Path_26392" data-name="Path 26392" d="M44.4,88.956c.191-.139.374-.286.548-.437A10.045,10.045,0,0,0,43.39,86.25q-.2.312-.4.586a9.416,9.416,0,0,1,1.407,2.12" transform="translate(6216.559 3303.108)" fill="#efb4ca"/>
    <path id="Path_26393" data-name="Path 26393" d="M25.744,78.7a10.063,10.063,0,0,0-2.657.063q.159.332.278.65a9.372,9.372,0,0,1,2.441-.013c-.009-.237-.031-.47-.062-.7" transform="translate(6227.814 3307.414)" fill="#e5a1bd"/>
    <path id="Path_26394" data-name="Path 26394" d="M23.8,124.139a10.047,10.047,0,0,0,3.051-.114c-.139-.213-.268-.424-.383-.631a9.38,9.38,0,0,1-2.839.03c.048.245.106.484.172.716" transform="translate(6227.506 3282.101)" fill="#e5a1bd"/>
    <path id="Path_26395" data-name="Path 26395" d="M4.243,97.6c-.243.02-.482.054-.716.1a10.068,10.068,0,0,0-.1,2.866q.335-.186.657-.332A9.406,9.406,0,0,1,4.243,97.6" transform="translate(6238.968 3296.688)" fill="#efb4ca"/>
    <path id="Path_26396" data-name="Path 26396" d="M14.83,120.805c-.012-.256-.013-.5-.007-.74a9.473,9.473,0,0,1-2.409-1.471c-.086.234-.16.469-.224.7a10.165,10.165,0,0,0,2.639,1.508" transform="translate(6233.977 3284.815)" fill="#e5a1bd"/>
    <path id="Path_26397" data-name="Path 26397" d="M7.465,87.4q-.322-.165-.652-.295a10.158,10.158,0,0,0-1.447,2.349c.252.013.493.035.723.065A9.454,9.454,0,0,1,7.465,87.4" transform="translate(6237.837 3302.623)" fill="#efb4ca"/>
    <path id="Path_26398" data-name="Path 26398" d="M15.14,80.983c.064-.027.129-.049.193-.073-.126-.2-.261-.4-.4-.581l-.05.019a10.14,10.14,0,0,0-2.288,1.3c.207.14.4.283.578.427a9.451,9.451,0,0,1,1.97-1.1" transform="translate(6233.75 3306.457)" fill="#e5a1bd"/>
    <path id="Path_26399" data-name="Path 26399" d="M19.8,78.22a11.978,11.978,0,0,0-2.257.678q.1.117.189.238a10.142,10.142,0,0,1,2.221-.612c-.048-.1-.1-.2-.153-.3" transform="translate(6230.952 3307.65)" fill="#ef4162"/>
    <path id="Path_26400" data-name="Path 26400" d="M20.474,79.569c-.08-.212-.172-.429-.279-.65a10.142,10.142,0,0,0-2.221.612c.142.185.277.378.4.581a9.445,9.445,0,0,1,2.1-.543" transform="translate(6230.706 3307.254)" fill="#d32f56"/>
    <path id="Path_26401" data-name="Path 26401" d="M31.049,123.811c.125.191.258.383.4.578a14.89,14.89,0,0,0,2.566-.893c-.179-.15-.359-.309-.537-.48-.165.078-.332.152-.5.222a10.177,10.177,0,0,1-1.93.573" transform="translate(6223.312 3282.314)" fill="#d32f56"/>
    <path id="Path_26402" data-name="Path 26402" d="M32.22,121.918a9.45,9.45,0,0,1-2.053.577q.173.311.383.632a10.173,10.173,0,0,0,1.929-.573c.171-.07.338-.144.5-.222-.172-.166-.341-.341-.5-.527-.086.038-.171.077-.258.113" transform="translate(6223.81 3283)" fill="#c12b56"/>
    <path id="Path_26403" data-name="Path 26403" d="M8.428,82.368A10.083,10.083,0,0,0,7.06,81.6a11.522,11.522,0,0,0-1.83,1.953,8.931,8.931,0,0,1,1.506.442,10.06,10.06,0,0,1,1.692-1.623" transform="translate(6237.914 3305.74)" fill="#ef4162"/>
    <path id="Path_26404" data-name="Path 26404" d="M9.349,85.29A9.375,9.375,0,0,1,10.967,83.8q-.268-.217-.578-.427A10.077,10.077,0,0,0,8.7,85q.329.13.652.295" transform="translate(6235.953 3304.736)" fill="#d32f56"/>
    <path id="Path_26405" data-name="Path 26405" d="M42.4,116.671a11.994,11.994,0,0,0,1.451.624,11.6,11.6,0,0,0,1.715-2.252,10.431,10.431,0,0,1-1.54-.283,10.089,10.089,0,0,1-1.626,1.911" transform="translate(6216.889 3286.984)" fill="#d32f56"/>
    <path id="Path_26406" data-name="Path 26406" d="M40.939,116.04q.3.182.637.355a10.086,10.086,0,0,0,1.625-1.911c-.227-.06-.456-.13-.685-.212a9.4,9.4,0,0,1-1.577,1.768" transform="translate(6217.718 3287.26)" fill="#c12b56"/>
    <path id="Path_26407" data-name="Path 26407" d="M2.442,92.5a10.452,10.452,0,0,0-1.6.049,11.623,11.623,0,0,0-.651,2.68,9.325,9.325,0,0,1,1.539-.424A10.162,10.162,0,0,1,2.442,92.5" transform="translate(6240.761 3299.579)" fill="#ef4162"/>
    <path id="Path_26408" data-name="Path 26408" d="M5.168,92.581c-.231-.03-.471-.053-.723-.065a10.14,10.14,0,0,0-.708,2.306c.234-.042.473-.076.716-.1a9.476,9.476,0,0,1,.715-2.144" transform="translate(6238.758 3299.564)" fill="#d32f56"/>
    <path id="Path_26409" data-name="Path 26409" d="M49,104.895a11.572,11.572,0,0,0,1.553-.15,11.566,11.566,0,0,0,.336-2.734,10,10,0,0,1-1.472.477A10.145,10.145,0,0,1,49,104.895" transform="translate(6213.161 3294.195)" fill="#ef4162"/>
    <path id="Path_26410" data-name="Path 26410" d="M47.345,105.511c.23.011.47.012.717.006a10.123,10.123,0,0,0,.417-2.407q-.34.081-.7.134a9.437,9.437,0,0,1-.439,2.267" transform="translate(6214.095 3293.573)" fill="#c12b56"/>
    <path id="Path_26411" data-name="Path 26411" d="M1.743,104.422a10.943,10.943,0,0,0-1.348.893,11.624,11.624,0,0,0,.692,2.415c.042.1.088.2.133.3a9.928,9.928,0,0,1,1.092-1.188,10.112,10.112,0,0,1-.569-2.423" transform="translate(6240.648 3292.831)" fill="#ef4162"/>
    <path id="Path_26412" data-name="Path 26412" d="M4.154,103.657c-.215.1-.434.208-.657.332a10.12,10.12,0,0,0,.569,2.423c.178-.163.363-.321.56-.471a9.414,9.414,0,0,1-.472-2.284" transform="translate(6238.894 3293.263)" fill="#c12b56"/>
    <path id="Path_26413" data-name="Path 26413" d="M47.821,90.758a10.232,10.232,0,0,1,.484,1.509,10.985,10.985,0,0,0,1.281-.861,11.311,11.311,0,0,0-1.03-2.474,9.474,9.474,0,0,1-1.066,1.1c.118.235.231.475.332.722" transform="translate(6214.013 3301.591)" fill="#ef4162"/>
    <path id="Path_26414" data-name="Path 26414" d="M46.775,91.471c-.174.152-.357.3-.548.437.086.179.169.359.245.544a9.505,9.505,0,0,1,.487,1.58q.31-.147.631-.33a10.163,10.163,0,0,0-.483-1.509c-.1-.248-.214-.487-.332-.722" transform="translate(6214.727 3300.155)" fill="#d32f56"/>
    <path id="Path_26415" data-name="Path 26415" d="M9.485,117.837A10.071,10.071,0,0,1,7.7,116.013q-.151.273-.294.573a21.818,21.818,0,0,0,1.869,2.2c.053-.307.121-.624.209-.945" transform="translate(6236.683 3286.275)" fill="#d32f56"/>
    <path id="Path_26416" data-name="Path 26416" d="M10.092,116.3a9.4,9.4,0,0,1-1.624-1.76q-.2.3-.384.639A10.066,10.066,0,0,0,9.867,117c.064-.233.138-.468.225-.7" transform="translate(6236.3 3287.106)" fill="#c12b56"/>
    <path id="Path_26417" data-name="Path 26417" d="M39.874,81.776A10.055,10.055,0,0,1,41.629,83.3q.156-.246.3-.518a6.475,6.475,0,0,0-1.815-1.747c-.069.246-.149.494-.244.74" transform="translate(6218.32 3306.057)" fill="#ef4162"/>
    <path id="Path_26418" data-name="Path 26418" d="M39.229,83.383a9.414,9.414,0,0,1,1.633,1.468c.136-.182.27-.377.4-.586a10.09,10.09,0,0,0-1.755-1.524c-.082.216-.176.43-.28.642" transform="translate(6218.685 3305.093)" fill="#d32f56"/>
    <path id="Path_26419" data-name="Path 26419" d="M18.266,123.683c.013.292.038.6.078.912a11.954,11.954,0,0,0,1.191.265,13.283,13.283,0,0,0,1.472.169c-.086-.232-.167-.474-.239-.727a10.153,10.153,0,0,1-2.5-.62" transform="translate(6230.541 3281.937)" fill="#d32f56"/>
    <path id="Path_26420" data-name="Path 26420" d="M20.755,123.339c-.066-.232-.123-.471-.172-.716a9.464,9.464,0,0,1-2.337-.644c-.007.238-.006.484.006.74a10.153,10.153,0,0,0,2.5.62" transform="translate(6230.554 3282.901)" fill="#c12b56"/>
    <path id="Path_26421" data-name="Path 26421" d="M31.357,78.743c.012-.19.019-.387.02-.59-.255-.061-.522-.118-.807-.166a13.254,13.254,0,0,0-1.524-.172c.026.137.049.276.068.417a10.132,10.132,0,0,1,2.243.511" transform="translate(6224.444 3307.879)" fill="#ef4162"/>
    <path id="Path_26422" data-name="Path 26422" d="M29.2,78.773c.031.23.053.464.062.7a9.481,9.481,0,0,1,2.106.512c.033-.224.058-.457.074-.7a10.156,10.156,0,0,0-2.243-.511" transform="translate(6224.355 3307.337)" fill="#d32f56"/>
    <path id="Path_26423" data-name="Path 26423" d="M24.659,76.381a9.053,9.053,0,0,0-.275-1.077,11.484,11.484,0,0,0-3.094.217,10.281,10.281,0,0,1,.627,1.036,11.288,11.288,0,0,1,2.742-.176" transform="translate(6228.831 3309.313)" fill="#ffe1eb"/>
    <path id="Path_26424" data-name="Path 26424" d="M44.612,83.962c.513.709.755,1.212,1.229,1.057a1.255,1.255,0,0,0,.509-.3,11.507,11.507,0,0,0-1.323-1.594q-.2.449-.414.842" transform="translate(6215.641 3304.878)" fill="#ffe1eb"/>
    <path id="Path_26425" data-name="Path 26425" d="M12.684,79.139c.293.211.894-.129,1.883-.527a8.966,8.966,0,0,0-.86-.9,11.586,11.586,0,0,0-1.423.777,1.339,1.339,0,0,0,.4.647" transform="translate(6233.925 3307.935)" fill="#ffe1eb"/>
    <path id="Path_26426" data-name="Path 26426" d="M36.975,78.417c.069-.246.126-.49.173-.729A11.658,11.658,0,0,0,34.317,76.4c.029.331.041.648.04.951a8.467,8.467,0,0,1,2.617,1.062" transform="translate(6221.463 3308.676)" fill="#ffe1eb"/>
    <path id="Path_26427" data-name="Path 26427" d="M18.048,75.834a11.722,11.722,0,0,0-2.043.62c-.151.063-.3.129-.447.2a8.876,8.876,0,0,1,.861.9,11.871,11.871,0,0,1,2.257-.678,10.293,10.293,0,0,0-.628-1.037" transform="translate(6232.072 3308.999)" fill="#f95d82"/>
    <path id="Path_26428" data-name="Path 26428" d="M42.25,81.834q.216-.394.414-.842a11.565,11.565,0,0,0-2.056-1.634c-.047.239-.1.483-.173.729a6.469,6.469,0,0,1,1.815,1.747" transform="translate(6218.003 3307.006)" fill="#f95d82"/>
    <path id="Path_26429" data-name="Path 26429" d="M30.211,76.584c.285.049.551.106.807.167q0-.455-.04-.951a11.581,11.581,0,0,0-2.565-.465,9.075,9.075,0,0,1,.275,1.077,13.353,13.353,0,0,1,1.524.172" transform="translate(6224.803 3309.281)" fill="#f95d82"/>
    <path id="Path_26430" data-name="Path 26430" d="M37.884,123.748c.234.2.467.372.69.53.248-.135.488-.279.723-.43a.941.941,0,0,0-.261-.322c-.212-.153-.586-.016-1.152.222" transform="translate(6219.446 3282.063)" fill="#ffe1eb"/>
    <path id="Path_26431" data-name="Path 26431" d="M24.576,126.44c.1.278.212.54.324.783a11.5,11.5,0,0,0,3.454-.348c-.2-.235-.391-.468-.562-.7a11.2,11.2,0,0,1-3.216.263" transform="translate(6226.972 3280.527)" fill="#ffe1eb"/>
    <path id="Path_26432" data-name="Path 26432" d="M11.59,122.387c-.038.222-.069.438-.092.646a11.631,11.631,0,0,0,3.127,1.53c-.044-.239-.08-.474-.109-.7a7.5,7.5,0,0,1-2.927-1.475" transform="translate(6234.369 3282.67)" fill="#ffe1eb"/>
    <path id="Path_26433" data-name="Path 26433" d="M6.155,117.17a.479.479,0,0,0-.481-.1,1.266,1.266,0,0,0-.481.28c.183.249.376.488.577.719.121-.32.25-.621.385-.9" transform="translate(6237.935 3285.69)" fill="#ffe1eb"/>
    <path id="Path_26434" data-name="Path 26434" d="M31.978,125.014c.172.23.36.463.562.7a11.407,11.407,0,0,0,2.693-1.061c-.223-.159-.456-.335-.69-.53a14.816,14.816,0,0,1-2.566.893" transform="translate(6222.786 3281.689)" fill="#c12b56"/>
    <path id="Path_26435" data-name="Path 26435" d="M6.906,117.331c-.135.283-.264.584-.385.9a11.519,11.519,0,0,0,2.162,1.938c.023-.207.053-.424.092-.646a21.708,21.708,0,0,1-1.869-2.2" transform="translate(6237.184 3285.53)" fill="#c12b56"/>
    <path id="Path_26436" data-name="Path 26436" d="M21.109,126.216a13.369,13.369,0,0,1-1.472-.169,11.9,11.9,0,0,1-1.191-.266q.043.341.109.7a11.609,11.609,0,0,0,2.878.517c-.111-.243-.221-.5-.324-.783" transform="translate(6230.439 3280.751)" fill="#c12b56"/>
    <path id="Path_26437" data-name="Path 26437" d="M30.128,118.565a6.584,6.584,0,0,1-.8,1.012,9.436,9.436,0,0,0,4.753-2.006,5.484,5.484,0,0,0-.124-1.02,8.612,8.612,0,0,1-3.833,2.014" transform="translate(6224.282 3285.971)" fill="#c12b56"/>
    <path id="Path_26438" data-name="Path 26438" d="M32.626,82.658a6.038,6.038,0,0,1,1.217-.175,9.48,9.48,0,0,0-4.356-1.96,8.28,8.28,0,0,0-.616.779,8.622,8.622,0,0,1,3.754,1.356" transform="translate(6224.542 3306.346)" fill="#ef4162"/>
    <path id="Path_26439" data-name="Path 26439" d="M7.431,89.344a6.309,6.309,0,0,1-.166-1.213,9.483,9.483,0,0,0-2.025,4.453,5.981,5.981,0,0,0,.778.629,8.62,8.62,0,0,1,1.412-3.868" transform="translate(6237.907 3302.044)" fill="#ef4162"/>
    <path id="Path_26440" data-name="Path 26440" d="M14.068,118.393a6.593,6.593,0,0,1-1.275.119,9.479,9.479,0,0,0,4.732,2.086,4.83,4.83,0,0,0,.665-.791,8.62,8.62,0,0,1-4.122-1.415" transform="translate(6233.636 3284.929)" fill="#d32f56"/>
    <path id="Path_26441" data-name="Path 26441" d="M6.005,104.682a6.5,6.5,0,0,1-.974-.762,9.454,9.454,0,0,0,1.761,4.686,4.924,4.924,0,0,0,1.011-.091,8.622,8.622,0,0,1-1.8-3.833" transform="translate(6238.026 3293.115)" fill="#d32f56"/>
    <path id="Path_26442" data-name="Path 26442" d="M18.07,81.286a6.135,6.135,0,0,1,.712-.968,9.438,9.438,0,0,0-4.468,1.634,6.949,6.949,0,0,0,.109.984,8.6,8.6,0,0,1,3.647-1.65" transform="translate(6232.776 3306.463)" fill="#ef4162"/>
    <path id="Path_26443" data-name="Path 26443" d="M43.707,92.922a6.143,6.143,0,0,1,.992.762,9.441,9.441,0,0,0-1.753-4.529,8.058,8.058,0,0,0-.993.116,8.589,8.589,0,0,1,1.755,3.652" transform="translate(6217.145 3301.466)" fill="#ef4162"/>
    <path id="Path_26444" data-name="Path 26444" d="M43.018,107.867a6.454,6.454,0,0,1,.093,1.292,9.484,9.484,0,0,0,2.127-4.61,7.185,7.185,0,0,0-.78-.659,8.619,8.619,0,0,1-1.44,3.976" transform="translate(6216.542 3293.131)" fill="#d32f56"/>
    <path id="Path_26445" data-name="Path 26445" d="M11.3,90.312a7.886,7.886,0,0,0,1.4,1.179,4.993,4.993,0,0,1,.89-1.569,5.746,5.746,0,0,1-1.11-2.076c-.162-.6-.271-1.1-.341-1.5a8.543,8.543,0,0,0-1.86,1.989A4.3,4.3,0,0,0,11.3,90.312" transform="translate(6235.056 3303.055)" fill="#ffccdb"/>
    <path id="Path_26446" data-name="Path 26446" d="M9.365,103.108a7.962,7.962,0,0,0,1.673-.156c-.051-.1-.1-.21-.146-.32a4.958,4.958,0,0,1-.334-1.292,5.678,5.678,0,0,1-2.175-.642,16.077,16.077,0,0,1-1.417-.871,8.535,8.535,0,0,0,.1,2.54,4.395,4.395,0,0,0,2.293.74" transform="translate(6236.959 3295.429)" fill="#ffccdb"/>
    <path id="Path_26447" data-name="Path 26447" d="M28.55,113.522a7.957,7.957,0,0,0-.183-1.69,5,5,0,0,1-1.609.6,5.625,5.625,0,0,1-.6,2.1,15.143,15.143,0,0,1-.941,1.559,8.52,8.52,0,0,0,2.584-.2,4.438,4.438,0,0,0,.751-2.374" transform="translate(6226.611 3288.64)" fill="#ffccdb"/>
    <path id="Path_26448" data-name="Path 26448" d="M38.85,96.312a7.8,7.8,0,0,0-2.018.139c.07.136.136.275.2.42a4.959,4.959,0,0,1,.31,1.119,5.859,5.859,0,0,1,2.382.773c.511.315.917.592,1.24.834a8.54,8.54,0,0,0-.149-2.634,4.225,4.225,0,0,0-1.961-.65" transform="translate(6220.041 3297.425)" fill="#ffccdb"/>
    <path id="Path_26449" data-name="Path 26449" d="M38.272,106.55a7.853,7.853,0,0,0-1.394-1.277,5.02,5.02,0,0,1-.584,1.259,5.687,5.687,0,0,1,1.154,1.967,15.7,15.7,0,0,1,.45,1.674,8.544,8.544,0,0,0,1.317-1.524,4.337,4.337,0,0,0-.944-2.1" transform="translate(6220.345 3292.349)" fill="#ffccdb"/>
    <path id="Path_26450" data-name="Path 26450" d="M31.671,86.341a7.784,7.784,0,0,0-1.352,1.552,5.011,5.011,0,0,1,1.449.771,5.884,5.884,0,0,1,2.244-1.2c.533-.136.981-.23,1.36-.3a8.543,8.543,0,0,0-1.928-1.73,4.193,4.193,0,0,0-1.773.9" transform="translate(6223.724 3303.568)" fill="#ffccdb"/>
    <path id="Path_26451" data-name="Path 26451" d="M15.574,113.149a8,8,0,0,0,1.05-1.251,5,5,0,0,1-1.574-.792,5.593,5.593,0,0,1-1.867,1.03,15.258,15.258,0,0,1-1.772.443,8.55,8.55,0,0,0,1.875,1.693,4.467,4.467,0,0,0,2.288-1.123" transform="translate(6234.417 3289.05)" fill="#ffccdb"/>
    <path id="Path_26452" data-name="Path 26452" d="M21.531,84.305a7.821,7.821,0,0,0,.154,1.948c.063-.029.128-.058.194-.085a4.97,4.97,0,0,1,1.348-.341A5.878,5.878,0,0,1,23.97,83.4c.278-.466.526-.845.746-1.155a8.526,8.526,0,0,0-2.569.1,4.225,4.225,0,0,0-.616,1.959" transform="translate(6228.699 3305.403)" fill="#ffccdb"/>
    <path id="Path_26453" data-name="Path 26453" d="M33.655,90.917a4.94,4.94,0,0,1,1.38,1.644,7.8,7.8,0,0,1,2.018-.139,4.227,4.227,0,0,1,1.961.65,8.568,8.568,0,0,0-1.755-3.652c-.378.065-.826.159-1.36.3a5.872,5.872,0,0,0-2.244,1.2" transform="translate(6221.837 3301.315)" fill="#ef4162"/>
    <path id="Path_26454" data-name="Path 26454" d="M25.445,85.9a4.962,4.962,0,0,1,2.117.231,7.758,7.758,0,0,1,1.352-1.552,4.193,4.193,0,0,1,1.773-.9,8.62,8.62,0,0,0-3.754-1.356c-.22.311-.467.689-.746,1.155a5.878,5.878,0,0,0-.742,2.426" transform="translate(6226.481 3305.333)" fill="#f95d82"/>
    <path id="Path_26455" data-name="Path 26455" d="M21.392,113.054a4.957,4.957,0,0,1-2.327-.125,8,8,0,0,1-1.05,1.251,4.468,4.468,0,0,1-2.288,1.123,8.622,8.622,0,0,0,4.122,1.415,15.216,15.216,0,0,0,.94-1.559,5.625,5.625,0,0,0,.6-2.1" transform="translate(6231.977 3288.019)" fill="#f95d82"/>
    <path id="Path_26456" data-name="Path 26456" d="M37.794,100.192a4.95,4.95,0,0,1-.156,2.207,7.851,7.851,0,0,1,1.394,1.277,4.339,4.339,0,0,1,.944,2.1,8.619,8.619,0,0,0,1.44-3.977c-.324-.242-.729-.518-1.24-.833a5.851,5.851,0,0,0-2.382-.773" transform="translate(6219.585 3295.223)" fill="#ef4162"/>
    <path id="Path_26457" data-name="Path 26457" d="M33.392,108.171a4.944,4.944,0,0,1-1.661,1.59,7.9,7.9,0,0,1,.183,1.691,4.433,4.433,0,0,1-.751,2.373A8.607,8.607,0,0,0,35,111.812a15.781,15.781,0,0,0-.45-1.674,5.688,5.688,0,0,0-1.155-1.967" transform="translate(6223.247 3290.71)" fill="#ef4162"/>
    <path id="Path_26458" data-name="Path 26458" d="M16.015,87.774a4.951,4.951,0,0,1,1.734-1.321,7.821,7.821,0,0,1-.154-1.948,4.225,4.225,0,0,1,.616-1.959,8.6,8.6,0,0,0-3.647,1.65c.07.407.179.9.341,1.5a5.746,5.746,0,0,0,1.11,2.076" transform="translate(6232.635 3305.203)" fill="#f95d82"/>
    <path id="Path_26459" data-name="Path 26459" d="M10.623,96.3a4.961,4.961,0,0,1,.242-2.223,7.891,7.891,0,0,1-1.4-1.179,4.3,4.3,0,0,1-1.021-1.978,8.625,8.625,0,0,0-1.412,3.868,16.077,16.077,0,0,0,1.417.871,5.686,5.686,0,0,0,2.175.642" transform="translate(6236.895 3300.465)" fill="#ef4162"/>
    <path id="Path_26460" data-name="Path 26460" d="M12.71,108.034a4.949,4.949,0,0,1-1.471-1.776,7.963,7.963,0,0,1-1.673.156,4.4,4.4,0,0,1-2.293-.74,8.622,8.622,0,0,0,1.8,3.833,15.283,15.283,0,0,0,1.772-.443,5.593,5.593,0,0,0,1.867-1.03" transform="translate(6236.758 3292.123)" fill="#f95d82"/>
    <path id="Path_26461" data-name="Path 26461" d="M22.488,103.631c.146-.919.35-1.718.423-1.988l-.032-.054h0l-.026.055.015,0-.021.007a12.553,12.553,0,0,1-3.056,4.068,5.006,5.006,0,0,0,1.574.792,7.028,7.028,0,0,0,1.126-2.884" transform="translate(6229.68 3294.434)" fill="#efb4ca"/>
    <path id="Path_26462" data-name="Path 26462" d="M18.56,97.2c.917.159,1.713.374,1.982.451l.079-.046-.034-.017-.005.015-.007-.021a12.787,12.787,0,0,1-3.83-3.006,4.994,4.994,0,0,0-.89,1.569,7.026,7.026,0,0,0,2.7,1.056" transform="translate(6231.904 3298.397)" fill="#efb4ca"/>
    <path id="Path_26463" data-name="Path 26463" d="M18.565,102.929c.559-.408,1.092-.745,1.429-.949a12.516,12.516,0,0,1-4.695.577,4.942,4.942,0,0,0,.335,1.292c.045.109.094.215.145.32a7.026,7.026,0,0,0,2.786-1.24" transform="translate(6232.219 3294.212)" fill="#efb4ca"/>
    <path id="Path_26464" data-name="Path 26464" d="M27.322,93.568c-.187.911-.428,1.7-.514,1.967l.031.057h0l.029-.055-.015-.005.021-.007a12.986,12.986,0,0,1,2.908-3.665,5,5,0,0,0-1.449-.772,7.053,7.053,0,0,0-1.012,2.478" transform="translate(6225.71 3300.371)" fill="#efb4ca"/>
    <path id="Path_26465" data-name="Path 26465" d="M22.995,93.539c.39.571.709,1.115.9,1.458a12.79,12.79,0,0,1-.46-4.438,4.978,4.978,0,0,0-1.348.341c-.066.027-.13.056-.194.085a7.04,7.04,0,0,0,1.1,2.554" transform="translate(6228.488 3300.671)" fill="#efb4ca"/>
    <path id="Path_26466" data-name="Path 26466" d="M28.272,103.663c-.416-.553-.76-1.081-.969-1.415a12.422,12.422,0,0,1,.636,4.765,4.989,4.989,0,0,0,1.609-.6,7.029,7.029,0,0,0-1.275-2.748" transform="translate(6225.43 3294.06)" fill="#efb4ca"/>
    <path id="Path_26467" data-name="Path 26467" d="M29.159,97.7c-.577.382-1.125.693-1.471.882a12.782,12.782,0,0,1,4.478-.393,4.985,4.985,0,0,0-.31-1.12c-.059-.144-.125-.284-.2-.419a7.033,7.033,0,0,0-2.5,1.05" transform="translate(6225.212 3297.226)" fill="#efb4ca"/>
    <path id="Path_26468" data-name="Path 26468" d="M28.993,101.935a20.31,20.31,0,0,1-1.96-.542l-.079.041.032.014,0-.015.008.021a12.718,12.718,0,0,1,4.014,2.883,5.02,5.02,0,0,0,.584-1.259,7.043,7.043,0,0,0-2.6-1.144" transform="translate(6225.627 3294.544)" fill="#efb4ca"/>
    <path id="Path_26469" data-name="Path 26469" d="M20.319,95.189,20.3,95.2l.015.005-.029.055h0l-.031-.057c.085-.268.326-1.056.514-1.967a7.053,7.053,0,0,1,1.012-2.478,4.967,4.967,0,0,0-2.117-.231,12.8,12.8,0,0,0,.46,4.438c-.194-.344-.514-.888-.9-1.459a7.04,7.04,0,0,1-1.1-2.554,4.949,4.949,0,0,0-1.734,1.321,12.794,12.794,0,0,0,3.83,3.006l.007.021.005-.015.034.017-.079.046c-.27-.076-1.066-.292-1.982-.451a7.021,7.021,0,0,1-2.7-1.056,4.963,4.963,0,0,0-.242,2.224,12.5,12.5,0,0,0,4.695-.578c-.338.2-.871.541-1.429.949a7.024,7.024,0,0,1-2.786,1.24A4.949,4.949,0,0,0,17.2,99.448a12.566,12.566,0,0,0,3.056-4.068l.021-.007-.016,0,.026-.055h0l.032.053c-.073.271-.277,1.07-.423,1.989a7.028,7.028,0,0,1-1.126,2.884,4.957,4.957,0,0,0,2.327.125,12.424,12.424,0,0,0-.636-4.765c.209.335.553.863.969,1.415a7.028,7.028,0,0,1,1.275,2.749,4.944,4.944,0,0,0,1.661-1.591,12.728,12.728,0,0,0-4.013-2.883l-.008-.02,0,.015-.032-.014.079-.041c.267.089,1.051.341,1.96.541a7.037,7.037,0,0,1,2.6,1.144,4.963,4.963,0,0,0,.156-2.207,12.772,12.772,0,0,0-4.478.393c.347-.189.894-.5,1.471-.882a7.052,7.052,0,0,1,2.5-1.05,4.935,4.935,0,0,0-1.38-1.644,12.989,12.989,0,0,0-2.908,3.665" transform="translate(6232.265 3300.709)" fill="#ef4162"/>
  </g>
</svg>
