<svg id="Group_27852" data-name="Group 27852" xmlns="http://www.w3.org/2000/svg" xmlns:xlink="http://www.w3.org/1999/xlink" width="30.531" height="30.561" viewBox="0 0 30.531 30.561">
  <defs>
    <clipPath id="clip-path">
      <rect id="Rectangle_10262" data-name="Rectangle 10262" width="30.531" height="30.561" fill="none"/>
    </clipPath>
    <clipPath id="clip-path-3">
      <rect id="Rectangle_10259" data-name="Rectangle 10259" width="4.377" height="3.276" fill="none"/>
    </clipPath>
    <clipPath id="clip-path-4">
      <rect id="Rectangle_10260" data-name="Rectangle 10260" width="1.973" height="2.544" fill="none"/>
    </clipPath>
  </defs>
  <g id="Group_27851" data-name="Group 27851" clip-path="url(#clip-path)">
    <g id="Group_27850" data-name="Group 27850" transform="translate(0 0)">
      <g id="Group_27849" data-name="Group 27849" clip-path="url(#clip-path)">
        <path id="Path_26482" data-name="Path 26482" d="M26.12,22.612c2.608-.652,6.32-5.554,3.256-13.215S18.46-.179,15.012.012C4.878.576.469,7.878.074,13.61c-.383,5.554.766,8.044,2.49,10.342A6.938,6.938,0,0,1,3.835,27.56c.063,1.228.46,2.741,1.666,2.974,1.225.236,2.184-1.108,2.419-2.334a6.464,6.464,0,0,0-.126-2.961,7.182,7.182,0,0,1-.4-1.647,1.41,1.41,0,0,1,.76-1.4c.673-.259,1.4.288,1.762.912a11.142,11.142,0,0,0,1.013,1.9,2.246,2.246,0,0,0,2.985.254c1.458-1.178,3.16-3.864,5.034-3.887a9.851,9.851,0,0,1,3.274.893,7.966,7.966,0,0,0,3.9.347" transform="translate(0 0)" fill="#d992e8"/>
        <path id="Path_26483" data-name="Path 26483" d="M30.02,10.822C27.137,3.616,19.751,1.814,16.508,1.994c-9.534.53-13.681,7.4-14.053,12.791-.11,1.6.253,3.681,1.688,4.392,1.5.742,3.25-.323,4.444-1.491S11.009,15.1,12.677,15c2.142-.131,4.235,2.013,6.189,1.125,1.093-.5,1.586-1.742,2.091-2.831S22.283,11.032,23.484,11c1.05-.027,1.877.829,2.641,1.55s1.844,1.4,2.8.965a2.292,2.292,0,0,0,1.1-2.691" transform="translate(-1.479 -1.204)" fill="#e99ff4"/>
        <path id="Path_26484" data-name="Path 26484" d="M18.424,4.394c-7.884.9-12.066,7.086-11.491,10.533a1.652,1.652,0,0,0,1.788,1.334,3.7,3.7,0,0,0,2.149-1.28c1.961-1.959,3.965-4.377,6.738-4.51a16.66,16.66,0,0,1,3.5.008,4.9,4.9,0,0,0,3.824-.914c1.014-1.03.606-2.2-.383-3.256S19.861,4.23,18.424,4.394" transform="translate(-4.178 -2.658)" fill="#eab0ff"/>
        <g id="Group_27845" data-name="Group 27845" transform="translate(7.515 3.448)" opacity="0.65">
          <g id="Group_27844" data-name="Group 27844">
            <g id="Group_27843" data-name="Group 27843" clip-path="url(#clip-path-3)">
              <path id="Path_26485" data-name="Path 26485" d="M23.373,8.981c-.713-1-5.056,1.942-4.106,2.944.659.694,5.064-1.6,4.106-2.944" transform="translate(-19.132 -8.778)" fill="#fbf8f3"/>
            </g>
          </g>
        </g>
        <g id="Group_27848" data-name="Group 27848" transform="translate(3.727 8.422)" opacity="0.65">
          <g id="Group_27847" data-name="Group 27847">
            <g id="Group_27846" data-name="Group 27846" clip-path="url(#clip-path-4)">
              <path id="Path_26486" data-name="Path 26486" d="M11.2,21.458c-1.2-.24-2.107,2.107-1.532,2.49s2.49-2.3,1.532-2.49" transform="translate(-9.488 -21.441)" fill="#fbf8f3"/>
            </g>
          </g>
        </g>
        <path id="Path_26487" data-name="Path 26487" d="M42.159,45.929a3.366,3.366,0,0,1-2.732.533,7.536,7.536,0,0,1-1.679-1.138,4.423,4.423,0,0,0-4.332-.357,9.829,9.829,0,0,0-2.649,2.207c-1.875,2.109-3.435,1.976-5.418,1.493a9.421,9.421,0,0,0,.968,1.818,2.245,2.245,0,0,0,2.985.254c1.458-1.178,3.16-3.864,5.034-3.887a9.858,9.858,0,0,1,3.274.893,7.968,7.968,0,0,0,3.9.347c1.676-.419,3.8-2.6,4.3-6.129a9.5,9.5,0,0,1-3.655,3.966" transform="translate(-15.392 -25.48)" fill="#c27fd3"/>
      </g>
    </g>
  </g>
</svg>
