<svg xmlns="http://www.w3.org/2000/svg" width="19.713" height="22.992" viewBox="0 0 19.713 22.992">
  <g id="Group_27838" data-name="Group 27838" transform="translate(-6365.489 -3394.102)">
    <path id="Path_26165" data-name="Path 26165" d="M309.213,97.17a3.879,3.879,0,0,0-2.212,2.7c-.542,1.867,1.111,3.653,1.111,3.653l.964.161a9.982,9.982,0,0,1,.968-1.322,2.731,2.731,0,0,0,.242-3.078c-.649-1.162-.767-2.139-1.073-2.118" transform="translate(6067.304 3296.933)" fill="#36bd1b"/>
    <path id="Path_26166" data-name="Path 26166" d="M309.074,100.481c2.676.214.792-2.787.792-2.787-.337-.018-3.063,2.606-.792,2.787" transform="translate(6066.576 3296.636)" fill="#6de045"/>
    <path id="Path_26167" data-name="Path 26167" d="M294.895,106.38c-1.577-.057-2.12-.259-2.442-.718s-.2-.66-.4-.669-.624,1.392.4,2.474a4.824,4.824,0,0,0,2.574,1.285l1.741-1.134a1.857,1.857,0,0,0-1.874-1.239" transform="translate(6075.847 3292.508)" fill="#36bd1b"/>
    <path id="Path_26168" data-name="Path 26168" d="M323.922,108.182c-.206-.02-.117.2-.515.6s-.97.529-2.536.36a1.927,1.927,0,0,0-2.066.957l1.522,1.368a4.968,4.968,0,0,0,2.766-.9c1.2-.922,1.035-2.365.829-2.385" transform="translate(6060.566 3290.705)" fill="#36bd1b"/>
    <path id="Path_26169" data-name="Path 26169" d="M317.32,101.607c-.208,0-.747,1-1.693,1.422a9.1,9.1,0,0,0-3.134,1.6,4.96,4.96,0,0,0-1.173,1.7l2.365.111a5.56,5.56,0,0,0,3.33-1.653c1.143-1.417.594-3.19.3-3.187" transform="translate(6064.799 3294.423)" fill="#36bd1b"/>
    <path id="Path_26170" data-name="Path 26170" d="M300.872,100.583c-.7-.715-.788-1.821-.979-1.894-.267-.1-1.511,1.356-1.038,3.057a5.028,5.028,0,0,0,2.4,2.664l2.238.7a4.613,4.613,0,0,0-.382-1.977,8.191,8.191,0,0,0-2.24-2.552" transform="translate(6071.91 3296.076)" fill="#36bd1b"/>
    <path id="Path_26171" data-name="Path 26171" d="M309.149,102.486c-.94-.625-.259-3.224-.259-3.224-1.112,1.882-.5,3.247-.935,3.347-.712.164-.954-1.552-.954-1.552-.542,1.868,1.111,3.654,1.111,3.654l.964.161a10.009,10.009,0,0,1,.968-1.322,2.732,2.732,0,0,0,.242-3.078c.123,1.149-.585,2.382-1.137,2.015" transform="translate(6067.305 3295.749)" fill="#23a80f"/>
    <path id="Path_26172" data-name="Path 26172" d="M300.076,99.462c-.337-.018-1.322,2.192-.437,2.911s1.747-.242,1.181-1.049a5.229,5.229,0,0,1-.744-1.862" transform="translate(6071.609 3295.636)" fill="#6de045"/>
    <path id="Path_26173" data-name="Path 26173" d="M296.606,108.348a3.84,3.84,0,0,1-1.932.419,2.941,2.941,0,0,1-2.143-1.257c.044.966,1.439,1.688,1.439,1.688-.278.219-.9-.341-1.364-.641a2.5,2.5,0,0,0,.267.334,4.825,4.825,0,0,0,2.575,1.285l1.741-1.134a1.469,1.469,0,0,0-.212-.43Z" transform="translate(6075.426 3291.084)" fill="#23a80f"/>
    <path id="Path_26174" data-name="Path 26174" d="M323.671,110.65a3.051,3.051,0,0,1-2.335.936,3.733,3.733,0,0,1-1.834-.689l-.412.209a1.524,1.524,0,0,0-.285.394l1.522,1.368a4.97,4.97,0,0,0,2.766-.9,2.6,2.6,0,0,0,.322-.292c-.513.338-1.443.759-1.626.313,0,0,1.672-.389,1.883-1.336" transform="translate(6060.566 3289.308)" fill="#23a80f"/>
    <path id="Path_26175" data-name="Path 26175" d="M315.316,106.624a7.371,7.371,0,0,0,.9-.751,3.248,3.248,0,0,0,.8-1.451,3.66,3.66,0,0,1-.763.84,6.408,6.408,0,0,1-2.849,1.475c-.57.065-.7-.486-.5-.873a3.456,3.456,0,0,0-.416.361,4.96,4.96,0,0,0-1.173,1.7l2.365.111a5.559,5.559,0,0,0,3.33-1.653,3.1,3.1,0,0,0,.5-.877c-1.4,1.478-2.2,1.114-2.2,1.114" transform="translate(6064.8 3292.83)" fill="#23a80f"/>
    <path id="Path_26176" data-name="Path 26176" d="M303.128,104.585c.044.29-.045.688-.685.709-1.926.064-2.581-3.14-2.581-3.14-.411,1.374,1.121,2.7.715,2.816s-.966-.484-1.341-.948a5.261,5.261,0,0,0,2.3,2.351l2.238.7a4.611,4.611,0,0,0-.382-1.977,3.122,3.122,0,0,0-.259-.513" transform="translate(6071.634 3294.113)" fill="#23a80f"/>
    <path id="Path_26177" data-name="Path 26177" d="M294.125,107.057c-1.556-.166-1.8-1.067-1.8-1.067-.276.06.491,1.524,1.6,1.729s.909-.587.205-.663" transform="translate(6075.575 3291.944)" fill="#6de045"/>
    <path id="Path_26178" data-name="Path 26178" d="M318.914,103.674c-.982.4-2.343.8-2.095,1.284s1.15.315,2.1-.291a3.571,3.571,0,0,0,1.438-2.208,3.084,3.084,0,0,1-1.439,1.215" transform="translate(6061.706 3293.941)" fill="#6de045"/>
    <path id="Path_26179" data-name="Path 26179" d="M325.219,110.144c-.858.141-1.886-.019-2,.408s.983.6,1.719.3,1.4-1.015,1.292-1.237c-.068-.138-.149.388-1.007.528" transform="translate(6058.077 3289.906)" fill="#6de045"/>
    <path id="Path_26180" data-name="Path 26180" d="M309.3,104.724c-.757.408-.686-3.3-.53-4.259a12.021,12.021,0,0,0-.341,2.869c.033,1.421-.053,1.476-.334,1.5-.351.031-1.067-1.421-1.15-1.913a3.535,3.535,0,0,0,.385,1.429c.384.767.612.894.612.894l1.4.08a8.787,8.787,0,0,0,1.173-1.8,1.907,1.907,0,0,0,.168-.887s-.621,1.684-1.378,2.091" transform="translate(6067.272 3295.069)" fill="#187f06"/>
    <path id="Path_26181" data-name="Path 26181" d="M302.059,104.854a5.342,5.342,0,0,1-1.38-2.7,6.482,6.482,0,0,0,.741,2.213,11.617,11.617,0,0,0,1.612,1.734l.469.05a9.693,9.693,0,0,1-1.443-1.3" transform="translate(6070.818 3294.113)" fill="#187f06"/>
    <path id="Path_26182" data-name="Path 26182" d="M292.785,108.016a2.1,2.1,0,0,0,1.117,1.155,7.758,7.758,0,0,0,1.9.456l.335-.176a8.268,8.268,0,0,1-2.088-.415,2.24,2.24,0,0,1-1.269-1.019" transform="translate(6075.282 3290.798)" fill="#187f06"/>
    <path id="Path_26183" data-name="Path 26183" d="M315.228,106.9a3.557,3.557,0,0,1-2.335.185c-.061-.018-.094-.031-.094-.031l-.343.512.713.128s.748.272,2.751-.857c1.882-1.06,1.74-2.409,1.74-2.409a3.694,3.694,0,0,1-2.432,2.473" transform="translate(6064.157 3292.83)" fill="#187f06"/>
    <path id="Path_26184" data-name="Path 26184" d="M321.733,112.09a6.352,6.352,0,0,1-2.276-.353l.184.525a5.574,5.574,0,0,0,2.287,0c1.945-.195,2.013-1.348,2.013-1.348-.369.85-1.224,1.077-2.208,1.181" transform="translate(6060.198 3289.162)" fill="#187f06"/>
    <path id="Path_26185" data-name="Path 26185" d="M300.218,108.277c.29.867,1.484,1.349,1.484,1.349l.56-.164a4.388,4.388,0,0,1-1.023-.319,3.39,3.39,0,0,1-1.02-.866" transform="translate(6071.079 3290.65)" fill="#187f06"/>
    <path id="Path_26186" data-name="Path 26186" d="M317.907,112.309l.034-.005-.117-.059Z" transform="translate(6061.121 3288.406)" fill="#187f06"/>
    <path id="Path_26187" data-name="Path 26187" d="M318.562,111.417a3.321,3.321,0,0,0,1.675-1.161,5.142,5.142,0,0,1-2.145.923Z" transform="translate(6060.97 3289.531)" fill="#187f06"/>
    <path id="Path_26188" data-name="Path 26188" d="M296.889,110.912c-3.656-.385-6.778.135-8.966,3.174s-.513,5.876.506,8.25c.474,1.105.983,3.171,1.847,5.005a32.031,32.031,0,0,1,9.563.531c1.307-1.411,2.467-2.988,3.468-4,2.306-2.336,4.81-5.35,2.032-9.409-2.448-3.576-8.45-3.549-8.45-3.549" transform="translate(6078.638 3289.223)" fill="#ee0d1b"/>
    <path id="Path_26189" data-name="Path 26189" d="M295.764,115.448a4.649,4.649,0,0,0-4.016,2.223c-1.052,1.824-.232,4.1.707,5.762a8.635,8.635,0,0,1,1.279,4.483,5.838,5.838,0,0,0,.264,1.948c.967-.054,1.937-.065,2.906-.031a17.584,17.584,0,0,0,.763-3.28c.285-1.806,3.195-5.944,1.632-8.607-1.264-2.153-2.43-2.34-3.536-2.5" transform="translate(6076.148 3286.603)" fill="#fa394c"/>
    <path id="Path_26190" data-name="Path 26190" d="M313.525,112.719a9.43,9.43,0,0,1,1.673,2.627c1.3,2.907-1.056,6.581-3.3,8.836a38.391,38.391,0,0,0-3.274,4.239,31.9,31.9,0,0,1,3.528.535c1.307-1.411,2.467-2.988,3.468-4,2.306-2.336,4.811-5.35,2.032-9.409a7.856,7.856,0,0,0-4.13-2.826" transform="translate(6066.323 3288.138)" fill="#bc0108"/>
    <path id="Path_26191" data-name="Path 26191" d="M297.476,122.081c-.894-.139-1.04,1.368-.254,1.6s1.428-1.422.254-1.6" transform="translate(6073.063 3282.848)" fill="#d50004"/>
    <path id="Path_26192" data-name="Path 26192" d="M298.2,122.784c-.306-.179-.46,1.018-.136,1.068s.556-.822.136-1.068" transform="translate(6072.396 3282.456)" fill="#f7c030"/>
    <path id="Path_26193" data-name="Path 26193" d="M301.393,118.854c-.893-.139-1.04,1.368-.253,1.6s1.428-1.422.253-1.6" transform="translate(6070.847 3284.673)" fill="#d50004"/>
    <path id="Path_26194" data-name="Path 26194" d="M302.12,119.556c-.305-.179-.46,1.018-.135,1.068s.556-.822.135-1.068" transform="translate(6070.182 3284.281)" fill="#f7c030"/>
    <path id="Path_26195" data-name="Path 26195" d="M301.213,124.71c-.893-.139-1.04,1.368-.253,1.6s1.428-1.422.253-1.6" transform="translate(6070.949 3281.361)" fill="#d50004"/>
    <path id="Path_26196" data-name="Path 26196" d="M301.94,125.413c-.305-.179-.46,1.018-.135,1.068s.556-.822.135-1.068" transform="translate(6070.283 3280.969)" fill="#f7c030"/>
    <path id="Path_26197" data-name="Path 26197" d="M298.1,127.986c-.86.01-.71,1.439.069,1.537s1.062-1.55-.069-1.537" transform="translate(6072.607 3279.504)" fill="#d50004"/>
    <path id="Path_26198" data-name="Path 26198" d="M298.861,128.62c-.319-.119-.235,1.022.077,1.018s.363-.853-.077-1.018" transform="translate(6071.96 3279.15)" fill="#f7c030"/>
    <path id="Path_26199" data-name="Path 26199" d="M301.954,130.829c-.859-.03-.79,1.4-.017,1.537s1.147-1.5.017-1.537" transform="translate(6070.448 3277.896)" fill="#d50004"/>
    <path id="Path_26200" data-name="Path 26200" d="M302.7,131.472c-.312-.134-.292,1.01.02,1.02s.41-.835-.02-1.02" transform="translate(6069.801 3277.538)" fill="#f7c030"/>
    <path id="Path_26201" data-name="Path 26201" d="M305.409,127.733c-.858-.055-.839,1.381-.072,1.536s1.2-1.464.072-1.536" transform="translate(6068.507 3279.648)" fill="#d50004"/>
    <path id="Path_26202" data-name="Path 26202" d="M305.878,128.37c-.331-.151-.371,1.087-.033,1.1s.489-.9.033-1.1" transform="translate(6068.029 3279.293)" fill="#f7c030"/>
    <path id="Path_26203" data-name="Path 26203" d="M305.692,134.554c-.788-.05-.772,1.269-.066,1.412s1.1-1.346.066-1.412" transform="translate(6068.318 3275.79)" fill="#d50004"/>
    <path id="Path_26204" data-name="Path 26204" d="M306.128,135.139c-.3-.139-.335.972-.024.988s.444-.8.024-.988" transform="translate(6067.874 3275.465)" fill="#f7c030"/>
    <path id="Path_26205" data-name="Path 26205" d="M304.656,141.407c-.788-.05-.772,1.269-.066,1.412s1.1-1.346.066-1.412" transform="translate(6068.904 3271.914)" fill="#d50004"/>
    <path id="Path_26206" data-name="Path 26206" d="M305.092,141.993c-.3-.139-.335.972-.024.988s.444-.8.024-.988" transform="translate(6068.459 3271.588)" fill="#f7c030"/>
    <path id="Path_26207" data-name="Path 26207" d="M309.079,131.048c-.982-.131-.486,1.454-.083,1.514.713.106,1.112-1.377.083-1.514" transform="translate(6066.391 3277.776)" fill="#d50004"/>
    <path id="Path_26208" data-name="Path 26208" d="M309.482,131.642c-.3-.139-.341,1-.03,1.015s.45-.823.03-1.015" transform="translate(6065.979 3277.443)" fill="#f7c030"/>
    <path id="Path_26209" data-name="Path 26209" d="M311.687,135.044c-.907-.365-.9,1.283-.53,1.438.656.276,1.479-1.056.53-1.438" transform="translate(6065.024 3275.542)" fill="#d50004"/>
    <path id="Path_26210" data-name="Path 26210" d="M311.585,136.622c.295.091.677-.684.33-.97-.252-.208-.624.879-.33.97" transform="translate(6064.711 3275.183)" fill="#f7c030"/>
    <path id="Path_26211" data-name="Path 26211" d="M314.513,138.137c-.5-.255-.769,1.1-.453,1.23.56.236,1.227-.835.453-1.23" transform="translate(6063.327 3273.781)" fill="#d50004"/>
    <path id="Path_26212" data-name="Path 26212" d="M314.285,139.513c.285.088.655-.661.319-.938-.244-.2-.6.85-.319.938" transform="translate(6063.182 3273.529)" fill="#f7c030"/>
    <path id="Path_26213" data-name="Path 26213" d="M318.482,137.387c-.5-.255-.769,1.1-.453,1.23.56.236,1.227-.835.453-1.23" transform="translate(6061.082 3274.205)" fill="#d50004"/>
    <path id="Path_26214" data-name="Path 26214" d="M318.255,138.763c.285.088.655-.661.319-.938-.244-.2-.6.85-.319.938" transform="translate(6060.937 3273.953)" fill="#f7c030"/>
    <path id="Path_26215" data-name="Path 26215" d="M315.81,141.894c-.479-.245-.738,1.053-.434,1.18.538.226,1.178-.8.434-1.18" transform="translate(6062.58 3271.655)" fill="#d50004"/>
    <path id="Path_26216" data-name="Path 26216" d="M315.61,143.2c.263.082.6-.611.295-.867-.225-.186-.557.785-.295.867" transform="translate(6062.428 3271.402)" fill="#f7c030"/>
    <path id="Path_26217" data-name="Path 26217" d="M313.556,146.01c-.469-.239-.722,1.03-.425,1.156.527.222,1.153-.784.425-1.156" transform="translate(6063.848 3269.327)" fill="#d50004"/>
    <path id="Path_26218" data-name="Path 26218" d="M313.375,147.308c.251.078.577-.583.281-.828-.215-.177-.532.75-.281.828" transform="translate(6063.689 3269.056)" fill="#f7c030"/>
    <path id="Path_26219" data-name="Path 26219" d="M308.836,138.621c-.907-.365-.9,1.283-.53,1.438.656.276,1.479-1.056.53-1.438" transform="translate(6066.637 3273.519)" fill="#d50004"/>
    <path id="Path_26220" data-name="Path 26220" d="M308.946,140.059c.27.089.606-.631.285-.9-.233-.2-.555.814-.285.9" transform="translate(6066.201 3273.201)" fill="#f7c030"/>
    <path id="Path_26221" data-name="Path 26221" d="M308.184,144.825c-.907-.365-.9,1.283-.53,1.438.656.276,1.479-1.056.53-1.438" transform="translate(6067.005 3270.01)" fill="#d50004"/>
    <path id="Path_26222" data-name="Path 26222" d="M308.295,146.263c.27.089.606-.631.285-.9-.233-.2-.555.814-.285.9" transform="translate(6066.569 3269.692)" fill="#f7c030"/>
    <path id="Path_26223" data-name="Path 26223" d="M310.743,143.021c.439.388,1.321-.564.682-1.112-.61-.523-.93.893-.682,1.112" transform="translate(6065.173 3271.695)" fill="#d50004"/>
    <path id="Path_26224" data-name="Path 26224" d="M311.137,143.229c.208.156.651-.45.44-.8-.152-.25-.648.639-.44.8" transform="translate(6064.932 3271.357)" fill="#f7c030"/>
    <path id="Path_26225" data-name="Path 26225" d="M311.861,127.236c-.789-.05-.772,1.269-.066,1.412s1.1-1.346.066-1.412" transform="translate(6064.829 3279.928)" fill="#d50004"/>
    <path id="Path_26226" data-name="Path 26226" d="M312.293,127.822c-.3-.139-.341,1-.03,1.015s.45-.823.03-1.015" transform="translate(6064.389 3279.603)" fill="#f7c030"/>
    <path id="Path_26227" data-name="Path 26227" d="M314.283,130.834c-.788-.05-.633,1.432-.126,1.542.7.153,1.163-1.476.126-1.542" transform="translate(6063.434 3277.893)" fill="#d50004"/>
    <path id="Path_26228" data-name="Path 26228" d="M314.639,131.42c-.3-.139-.365.933-.054.949s.474-.758.054-.949" transform="translate(6063.07 3277.569)" fill="#f7c030"/>
    <path id="Path_26229" data-name="Path 26229" d="M302,136.922c-.788-.05-.772,1.269-.066,1.412s1.1-1.346.066-1.412" transform="translate(6070.408 3274.45)" fill="#d50004"/>
    <path id="Path_26230" data-name="Path 26230" d="M302.656,137.634c-.278-.127-.311.911-.027.927s.411-.752.027-.927" transform="translate(6069.827 3274.053)" fill="#f7c030"/>
    <path id="Path_26231" data-name="Path 26231" d="M299.221,139.395c-.79-.01-.691,1.306.023,1.413s1.017-1.4-.023-1.413" transform="translate(6071.955 3273.051)" fill="#d50004"/>
    <path id="Path_26232" data-name="Path 26232" d="M299.653,140.177c-.288-.114-.256.937.031.937s.367-.78-.031-.937" transform="translate(6071.512 3272.614)" fill="#f7c030"/>
    <path id="Path_26233" data-name="Path 26233" d="M300.6,143.963c-.68,0-.606,1.129.007,1.216s.888-1.213-.007-1.216" transform="translate(6071.134 3270.468)" fill="#d50004"/>
    <path id="Path_26234" data-name="Path 26234" d="M300.971,144.636c-.247-.1-.229.808.019.806s.322-.674-.019-.806" transform="translate(6070.752 3270.091)" fill="#f7c030"/>
    <path id="Path_26235" data-name="Path 26235" d="M304.229,147.223a.537.537,0,0,0-.534.584c.39.011.78.026,1.169.052a.586.586,0,0,0-.636-.636" transform="translate(6069.112 3268.624)" fill="#d50004"/>
    <path id="Path_26236" data-name="Path 26236" d="M317.413,144.969c-.679.365-.572,1.411-.1,1.086s.617-1.363.1-1.086" transform="translate(6061.626 3269.925)" fill="#d50004"/>
    <path id="Path_26237" data-name="Path 26237" d="M317.592,145.575c-.306.219-.389.783-.188.709s.41-.868.188-.709" transform="translate(6061.421 3269.568)" fill="#f7c030"/>
    <path id="Path_26238" data-name="Path 26238" d="M323.6,138.284c-.745.235-.871,1.279-.338,1.046s.9-1.225.338-1.046" transform="translate(6058.229 3273.692)" fill="#d50004"/>
    <path id="Path_26239" data-name="Path 26239" d="M323.691,138.7c-.415.19-.66.831-.406.788s.707-.926.406-.788" transform="translate(6058.091 3273.454)" fill="#f7c030"/>
    <path id="Path_26240" data-name="Path 26240" d="M294.49,144.313c-.51-.286-.387.754.078,1.087s.593-.71-.078-1.087" transform="translate(6074.505 3270.298)" fill="#d50004"/>
    <path id="Path_26241" data-name="Path 26241" d="M294.843,144.921c-.219-.163-.026.634.173.712s.128-.487-.173-.712" transform="translate(6074.173 3269.938)" fill="#f7c030"/>
    <path id="Path_26242" data-name="Path 26242" d="M292.775,139.581c-.51-.286-.387.754.078,1.087s.593-.71-.078-1.087" transform="translate(6075.475 3272.974)" fill="#d50004"/>
    <path id="Path_26243" data-name="Path 26243" d="M293.128,140.189c-.219-.163-.026.634.173.712s.128-.487-.173-.712" transform="translate(6075.143 3272.614)" fill="#f7c030"/>
    <path id="Path_26244" data-name="Path 26244" d="M293.578,136.182c-.594-.35-.415.869.129,1.272s.653-.813-.129-1.272" transform="translate(6075.043 3274.904)" fill="#d50004"/>
    <path id="Path_26245" data-name="Path 26245" d="M294,136.9c-.256-.2-.007.74.224.837s.129-.566-.224-.837" transform="translate(6074.658 3274.478)" fill="#f7c030"/>
    <path id="Path_26246" data-name="Path 26246" d="M291.5,132.13c-.594-.35-.415.869.129,1.272s.653-.813-.129-1.272" transform="translate(6076.217 3277.195)" fill="#d50004"/>
    <path id="Path_26247" data-name="Path 26247" d="M291.92,132.847c-.256-.2-.007.74.224.837s.129-.566-.224-.837" transform="translate(6075.833 3276.77)" fill="#f7c030"/>
    <path id="Path_26248" data-name="Path 26248" d="M292.35,128.354c-.577-.436-.589.878-.074,1.365s.833-.792.074-1.365" transform="translate(6075.781 3279.344)" fill="#d50004"/>
    <path id="Path_26249" data-name="Path 26249" d="M292.827,130.056c.231.127.232-.587-.1-.913-.241-.236-.13.786.1.913" transform="translate(6075.392 3278.869)" fill="#f7c030"/>
    <path id="Path_26250" data-name="Path 26250" d="M290.867,125.216c.476.527.762-.761.358-1.328s-.984.635-.358,1.328" transform="translate(6076.522 3281.905)" fill="#d50004"/>
    <path id="Path_26251" data-name="Path 26251" d="M291.227,125.212c.187.274.292-.749.093-.914s-.35.536-.093.914" transform="translate(6076.241 3281.603)" fill="#f7c030"/>
    <path id="Path_26252" data-name="Path 26252" d="M293.153,122.112c.555.615.941-.731.47-1.392s-1.2.583-.47,1.392" transform="translate(6075.249 3283.719)" fill="#d50004"/>
    <path id="Path_26253" data-name="Path 26253" d="M293.677,122.284c.218.319.341-.874.108-1.066s-.408.626-.108,1.066" transform="translate(6074.868 3283.348)" fill="#f7c030"/>
    <path id="Path_26254" data-name="Path 26254" d="M296.2,118.824c.467.374,1.016-.875.435-1.459-.515-.518-1.178.865-.435,1.459" transform="translate(6073.541 3285.575)" fill="#d50004"/>
    <path id="Path_26255" data-name="Path 26255" d="M296.664,118.707c.156.348.5-.81.3-1.034s-.519.555-.3,1.034" transform="translate(6073.129 3285.359)" fill="#f7c030"/>
    <path id="Path_26256" data-name="Path 26256" d="M299.765,115.91c.3.493,1.28-.517.948-1.244-.295-.644-1.429.458-.948,1.244" transform="translate(6071.401 3287.147)" fill="#d50004"/>
    <path id="Path_26257" data-name="Path 26257" d="M300.319,115.863c.019.375.768-.613.668-.883s-.693.366-.668.883" transform="translate(6071.022 3286.896)" fill="#f7c030"/>
    <path id="Path_26258" data-name="Path 26258" d="M295.922,114.053c.168.406,1.307-.431,1.164-1.03-.126-.53-1.431.384-1.164,1.03" transform="translate(6073.528 3288.056)" fill="#d50004"/>
    <path id="Path_26259" data-name="Path 26259" d="M296.493,114.015c-.069.309.853-.508.822-.731s-.727.3-.822.731" transform="translate(6073.187 3287.849)" fill="#f7c030"/>
    <path id="Path_26260" data-name="Path 26260" d="M292.924,117.545c.285.348,1.124-.742.8-1.282-.283-.477-1.258.728-.8,1.282" transform="translate(6075.271 3286.195)" fill="#d50004"/>
    <path id="Path_26261" data-name="Path 26261" d="M293.411,117.448c.029.315.664-.7.566-.908s-.606.475-.566.908" transform="translate(6074.93 3285.999)" fill="#f7c030"/>
    <path id="Path_26262" data-name="Path 26262" d="M289.557,117.083c.126.294,1.109-.482,1.011-.927-.087-.394-1.212.459-1.011.927" transform="translate(6077.122 3286.251)" fill="#d50004"/>
    <path id="Path_26263" data-name="Path 26263" d="M290.046,117.025c-.068.246.732-.489.714-.657s-.62.318-.714.657" transform="translate(6076.834 3286.094)" fill="#f7c030"/>
    <path id="Path_26264" data-name="Path 26264" d="M289.671,120.752c.345.3.971-.9.556-1.385-.367-.428-1.106.908-.556,1.385" transform="translate(6077.155 3284.426)" fill="#d50004"/>
    <path id="Path_26265" data-name="Path 26265" d="M290.1,120.629c.086.305.525-.793.391-.981s-.51.56-.391.981" transform="translate(6076.812 3284.236)" fill="#f7c030"/>
    <path id="Path_26266" data-name="Path 26266" d="M288.769,127.063c-.521-.267-.636,1.224.074,1.472.446.156.513-1.171-.074-1.472" transform="translate(6077.794 3280.043)" fill="#d50004"/>
    <path id="Path_26267" data-name="Path 26267" d="M289.1,128.386c.209.252.149-.915-.056-1.042s-.233.695.056,1.042" transform="translate(6077.486 3279.874)" fill="#f7c030"/>
    <path id="Path_26268" data-name="Path 26268" d="M287.693,123.976c.315.262.687-.864.3-1.292-.347-.379-.8.875-.3,1.292" transform="translate(6078.289 3282.542)" fill="#d50004"/>
    <path id="Path_26269" data-name="Path 26269" d="M288.008,123.859c.1.277.338-.747.207-.915s-.351.533-.207.915" transform="translate(6078.011 3282.37)" fill="#f7c030"/>
    <path id="Path_26270" data-name="Path 26270" d="M288.82,131.256c-.5-.19-.257,1.11.4,1.268.412.1.166-1.054-.4-1.268" transform="translate(6077.676 3277.665)" fill="#d50004"/>
    <path id="Path_26271" data-name="Path 26271" d="M289.051,131.5c-.2-.094-.038.619.286.9.235.2-.084-.8-.286-.9" transform="translate(6077.444 3277.522)" fill="#f7c030"/>
    <path id="Path_26272" data-name="Path 26272" d="M290.6,135.316c-.5-.19-.257,1.11.4,1.268.412.1.166-1.054-.4-1.268" transform="translate(6076.667 3275.368)" fill="#d50004"/>
    <path id="Path_26273" data-name="Path 26273" d="M290.835,135.558c-.2-.094-.038.619.286.9.235.2-.084-.8-.286-.9" transform="translate(6076.436 3275.226)" fill="#f7c030"/>
    <path id="Path_26274" data-name="Path 26274" d="M296.459,142.171c-.65.063-.274,1.111.334,1.133s.521-1.216-.334-1.133" transform="translate(6073.397 3271.483)" fill="#d50004"/>
    <path id="Path_26275" data-name="Path 26275" d="M297.113,142.684c-.262-.066,0,.775.235.75s.126-.659-.235-.75" transform="translate(6072.896 3271.193)" fill="#f7c030"/>
    <path id="Path_26276" data-name="Path 26276" d="M297.623,146.571c-.5-.1-.454.482-.154.892.3-.016.591-.027.887-.034a.9.9,0,0,0-.732-.858" transform="translate(6072.759 3268.999)" fill="#d50004"/>
    <path id="Path_26277" data-name="Path 26277" d="M305.122,120.648c-.858-.055-.844,1.512-.076,1.668s1.2-1.6.076-1.668" transform="translate(6068.671 3283.655)" fill="#d50004"/>
    <path id="Path_26278" data-name="Path 26278" d="M305.595,121.285c-.331-.151-.371,1.087-.033,1.1s.49-.9.033-1.1" transform="translate(6068.189 3283.301)" fill="#f7c030"/>
    <path id="Path_26279" data-name="Path 26279" d="M309.331,123.409c-.841-.166-1.049,1.257-.315,1.511s1.42-1.293.315-1.511" transform="translate(6066.356 3282.1)" fill="#d50004"/>
    <path id="Path_26280" data-name="Path 26280" d="M309.72,124.042c-.3-.192-.539,1.027-.207,1.089s.626-.823.207-1.089" transform="translate(6065.913 3281.746)" fill="#f7c030"/>
    <path id="Path_26281" data-name="Path 26281" d="M312.241,119.526c-.841-.166-1.049,1.257-.315,1.511s1.42-1.293.315-1.511" transform="translate(6064.71 3284.296)" fill="#d50004"/>
    <path id="Path_26282" data-name="Path 26282" d="M312.63,120.159c-.3-.192-.539,1.027-.207,1.089s.626-.823.207-1.089" transform="translate(6064.267 3283.942)" fill="#f7c030"/>
    <path id="Path_26283" data-name="Path 26283" d="M315.363,123.2c-.725-.282-1.01,1.393-.289,1.55.545.119,1.1-1.232.289-1.55" transform="translate(6062.913 3282.231)" fill="#d50004"/>
    <path id="Path_26284" data-name="Path 26284" d="M315.582,124.764c.271.12.519-.656.178-.985-.247-.238-.449.865-.178.985" transform="translate(6062.462 3281.902)" fill="#f7c030"/>
    <path id="Path_26285" data-name="Path 26285" d="M318.067,126.956c-.658-.394-1.265,1.209-.586,1.479.513.2,1.325-1.037.586-1.479" transform="translate(6061.483 3280.121)" fill="#d50004"/>
    <path id="Path_26286" data-name="Path 26286" d="M318.039,128.477c.243.162.639-.563.368-.941-.2-.274-.611.779-.368.941" transform="translate(6061.042 3279.784)" fill="#f7c030"/>
    <path id="Path_26287" data-name="Path 26287" d="M320.612,131.2c-.643-.312-.921,1.248-.28,1.442.484.146,1-1.092.28-1.442" transform="translate(6059.908 3277.709)" fill="#d50004"/>
    <path id="Path_26288" data-name="Path 26288" d="M320.79,132.668c.24.131.473-.586.173-.917-.217-.24-.414.786-.173.917" transform="translate(6059.506 3277.395)" fill="#f7c030"/>
    <path id="Path_26289" data-name="Path 26289" d="M317.173,133.591c-.608-.365-1.044,1.166-.425,1.413.467.186,1.108-1,.425-1.413" transform="translate(6061.899 3276.365)" fill="#d50004"/>
    <path id="Path_26290" data-name="Path 26290" d="M317.049,135.064c.225.15.53-.544.265-.9-.192-.257-.492.749-.265.9" transform="translate(6061.605 3276.032)" fill="#f7c030"/>
    <path id="Path_26291" data-name="Path 26291" d="M317.6,118.879c-.848-.139-.609,1.311.165,1.544s.95-1.36-.165-1.544" transform="translate(6061.55 3284.66)" fill="#d50004"/>
    <path id="Path_26292" data-name="Path 26292" d="M318.117,119.523c-.347-.185-.2,1.06.138,1.111s.341-.856-.138-1.111" transform="translate(6061.067 3284.301)" fill="#f7c030"/>
    <path id="Path_26293" data-name="Path 26293" d="M322.015,125.066c-.7-.451-1.163.956-.57,1.463s1.495-.87.57-1.463" transform="translate(6059.228 3281.205)" fill="#d50004"/>
    <path id="Path_26294" data-name="Path 26294" d="M321.893,126.789c.305.132.587-.739.2-1.1-.278-.264-.509.971-.2,1.1" transform="translate(6058.902 3280.825)" fill="#f7c030"/>
    <path id="Path_26295" data-name="Path 26295" d="M322.05,119.407c-.709-.318-.745,1.04-.114,1.425s1.047-1.007.114-1.425" transform="translate(6059.049 3284.383)" fill="#d50004"/>
    <path id="Path_26296" data-name="Path 26296" d="M322.212,120.026c-.3-.2-.186.964.105,1.043s.311-.761-.105-1.043" transform="translate(6058.74 3284.019)" fill="#f7c030"/>
    <path id="Path_26297" data-name="Path 26297" d="M325.15,122.591c-.667-.386-.866.96-.285,1.4s1.162-.9.285-1.4" transform="translate(6057.333 3282.594)" fill="#d50004"/>
    <path id="Path_26298" data-name="Path 26298" d="M325.254,124.238c.28.108.4-.726.021-1.047-.275-.233-.3.939-.021,1.047" transform="translate(6057.031 3282.233)" fill="#f7c030"/>
    <path id="Path_26299" data-name="Path 26299" d="M327.765,125.939c-.667-.386-.866.96-.285,1.4s1.162-.9.285-1.4" transform="translate(6055.854 3280.7)" fill="#d50004"/>
    <path id="Path_26300" data-name="Path 26300" d="M327.869,127.587c.28.108.4-.726.021-1.047-.275-.233-.3.939-.021,1.047" transform="translate(6055.552 3280.339)" fill="#f7c030"/>
    <path id="Path_26301" data-name="Path 26301" d="M324.277,128.805c-.592-.476-1.021.825-.525,1.347s1.3-.721.525-1.347" transform="translate(6057.891 3279.099)" fill="#d50004"/>
    <path id="Path_26302" data-name="Path 26302" d="M324.133,130.4c.258.146.522-.659.2-1.031-.232-.269-.461.885-.2,1.031" transform="translate(6057.617 3278.742)" fill="#f7c030"/>
    <path id="Path_26303" data-name="Path 26303" d="M321.85,136.467c.325.556,1.1-.485.564-1.177-.4-.527-.889.622-.564,1.177" transform="translate(6058.904 3275.449)" fill="#d50004"/>
    <path id="Path_26304" data-name="Path 26304" d="M322.139,136.573c.244.138.493-.623.191-.974-.219-.254-.435.835-.191.974" transform="translate(6058.742 3275.219)" fill="#f7c030"/>
    <path id="Path_26305" data-name="Path 26305" d="M325.178,134.165c.325.556,1.178-.543.564-1.177-.474-.489-.889.622-.564,1.177" transform="translate(6057.027 3276.743)" fill="#d50004"/>
    <path id="Path_26306" data-name="Path 26306" d="M325.478,134.254c.244.138.493-.623.191-.974-.219-.254-.435.835-.191.974" transform="translate(6056.854 3276.531)" fill="#f7c030"/>
    <path id="Path_26307" data-name="Path 26307" d="M328.578,131.375c.262.583.948-.782.691-1.12-.4-.528-.953.537-.691,1.12" transform="translate(6055.077 3278.301)" fill="#d50004"/>
    <path id="Path_26308" data-name="Path 26308" d="M328.869,131.567c.227.159.559-.575.3-.951-.189-.273-.525.792-.3.951" transform="translate(6054.917 3278.042)" fill="#f7c030"/>
    <path id="Path_26309" data-name="Path 26309" d="M319,142.081c.181.607,1.048-.671.838-1.034-.328-.569-1.019.427-.838,1.034" transform="translate(6060.472 3272.213)" fill="#d50004"/>
    <path id="Path_26310" data-name="Path 26310" d="M319.294,142.274c.2.184.633-.508.425-.911-.15-.292-.629.727-.425.911" transform="translate(6060.318 3271.968)" fill="#f7c030"/>
    <path id="Path_26311" data-name="Path 26311" d="M318.2,114.209c-.789-.052-.258,1.217.487,1.358s.551-1.29-.487-1.358" transform="translate(6061.13 3287.296)" fill="#d50004"/>
    <path id="Path_26312" data-name="Path 26312" d="M318.377,114.846c-.365-.086.228.956.531.93s-.028-.811-.531-.93" transform="translate(6060.873 3286.938)" fill="#f7c030"/>
    <path id="Path_26313" data-name="Path 26313" d="M323.71,116.055c-.781-.114-.258,1.217.487,1.358s.024-1.284-.487-1.358" transform="translate(6058.011 3286.255)" fill="#d50004"/>
    <path id="Path_26314" data-name="Path 26314" d="M323.884,116.7c-.365-.086.228.956.531.93s-.028-.811-.531-.93" transform="translate(6057.758 3285.889)" fill="#f7c030"/>
    <path id="Path_26315" data-name="Path 26315" d="M327.538,119.855c-.752-.224-.466,1.165.244,1.411s.247-1.264-.244-1.411" transform="translate(6055.878 3284.116)" fill="#d50004"/>
    <path id="Path_26316" data-name="Path 26316" d="M327.655,120.481c-.345-.138.059.977.363.994s.113-.8-.363-.994" transform="translate(6055.636 3283.755)" fill="#f7c030"/>
    <path id="Path_26317" data-name="Path 26317" d="M309.176,115.031c-.841-.166-1.049,1.257-.315,1.511s1.42-1.293.315-1.511" transform="translate(6066.444 3286.838)" fill="#d50004"/>
    <path id="Path_26318" data-name="Path 26318" d="M309.565,115.663c-.3-.192-.539,1.027-.207,1.089s.626-.823.207-1.089" transform="translate(6066 3286.485)" fill="#f7c030"/>
    <path id="Path_26319" data-name="Path 26319" d="M313.25,114.6c-.8.288-.1,1.574.671,1.412s.381-1.791-.671-1.412" transform="translate(6063.907 3287.106)" fill="#d50004"/>
    <path id="Path_26320" data-name="Path 26320" d="M313.842,115.271c-.371-.006.186,1.124.5,1.007s.012-1-.5-1.007" transform="translate(6063.442 3286.695)" fill="#f7c030"/>
    <path id="Path_26321" data-name="Path 26321" d="M305.149,114.663c-.772-.344-1.352.992-.706,1.4s1.721-.947.706-1.4" transform="translate(6068.847 3287.07)" fill="#d50004"/>
    <path id="Path_26322" data-name="Path 26322" d="M304.893,116.3c.306.132.826-.663.49-1.011-.244-.253-.8.879-.49,1.011" transform="translate(6068.485 3286.708)" fill="#f7c030"/>
    <path id="Path_26323" data-name="Path 26323" d="M304.5,111.574c-.71-.153-1.445.814-.866,1.022s1.8-.821.866-1.022" transform="translate(6069.266 3288.795)" fill="#d50004"/>
    <path id="Path_26324" data-name="Path 26324" d="M304.054,112.746c.281.058.89-.535.606-.737-.205-.146-.887.679-.606.737" transform="translate(6068.947 3288.55)" fill="#f7c030"/>
    <path id="Path_26325" data-name="Path 26325" d="M308.919,111.306c-.96,0-.028,1.258.588,1.173s.142-1.177-.588-1.173" transform="translate(6066.391 3288.937)" fill="#d50004"/>
    <path id="Path_26326" data-name="Path 26326" d="M309.55,111.794c-.327.139.117.841.406.842s-.169-.943-.406-.842" transform="translate(6065.866 3288.665)" fill="#f7c030"/>
    <path id="Path_26327" data-name="Path 26327" d="M314.178,111.88c-.908.281.414,1.2.969.944s-.278-1.157-.969-.944" transform="translate(6063.358 3288.631)" fill="#d50004"/>
    <path id="Path_26328" data-name="Path 26328" d="M314.908,112.294c-.262.225.406.764.68.682s-.491-.845-.68-.682" transform="translate(6062.804 3288.391)" fill="#f7c030"/>
    <path id="Path_26329" data-name="Path 26329" d="M320.488,113.47c-.884.19.47.991,1.005.8s-.333-.949-1.005-.8" transform="translate(6059.78 3287.723)" fill="#d50004"/>
    <path id="Path_26330" data-name="Path 26330" d="M321.22,113.815c-.248.172.44.636.707.581s-.527-.706-.707-.581" transform="translate(6059.23 3287.527)" fill="#f7c030"/>
    <path id="Path_26331" data-name="Path 26331" d="M301.074,111.325c-.624-.15-1.251.725-.741.924s1.561-.727.741-.924" transform="translate(6071.12 3288.937)" fill="#d50004"/>
    <path id="Path_26332" data-name="Path 26332" d="M300.7,112.385c.248.057.77-.478.518-.667-.183-.137-.765.61-.518.667" transform="translate(6070.839 3288.714)" fill="#f7c030"/>
    <path id="Path_26333" data-name="Path 26333" d="M294.976,124.877c-.661-.111-.652,1.65-.07,1.689.772.051.9-1.55.07-1.689" transform="translate(6074.327 3281.265)" fill="#d50004"/>
    <path id="Path_26334" data-name="Path 26334" d="M295.525,126.922c.251.152.416-.631.088-1.006-.238-.272-.338.854-.088,1.006" transform="translate(6073.815 3280.698)" fill="#f7c030"/>
    <path id="Path_26335" data-name="Path 26335" d="M295.419,130.306c-.671.039-.272,1.714.3,1.622.762-.121.536-1.671-.3-1.622" transform="translate(6073.991 3278.192)" fill="#d50004"/>
    <path id="Path_26336" data-name="Path 26336" d="M296.057,131.192c-.3-.211-.1.9.186.994s.233-.7-.186-.994" transform="translate(6073.517 3277.706)" fill="#f7c030"/>
    <path id="Path_26337" data-name="Path 26337" d="M298.644,133.444c-.652.189.153,1.749.7,1.53.72-.29.118-1.766-.7-1.53" transform="translate(6072.106 3276.431)" fill="#d50004"/>
    <path id="Path_26338" data-name="Path 26338" d="M299.4,134.281c-.351-.139.126.911.428.938s.056-.745-.428-.937" transform="translate(6071.613 3275.95)" fill="#f7c030"/>
    <path id="Path_26339" data-name="Path 26339" d="M295.936,135.736c-.575.159.158,1.542.638,1.354.635-.248.082-1.554-.638-1.354" transform="translate(6073.62 3275.132)" fill="#d50004"/>
    <path id="Path_26340" data-name="Path 26340" d="M296.608,136.477c-.313-.126.123.8.391.83s.041-.656-.391-.83" transform="translate(6073.182 3274.708)" fill="#f7c030"/>
  </g>
</svg>
