<svg id="Group_27854" data-name="Group 27854" xmlns="http://www.w3.org/2000/svg" xmlns:xlink="http://www.w3.org/1999/xlink" width="29.025" height="29.853" viewBox="0 0 29.025 29.853">
    <defs>
        <clipPath id="clip-path">
            <rect id="Rectangle_10263" data-name="Rectangle 10263" width="29.025" height="29.853" fill="none"/>
        </clipPath>
    </defs>
    <g id="Group_27853" data-name="Group 27853" transform="translate(0 0)" clip-path="url(#clip-path)">
        <path id="Path_26488" data-name="Path 26488" d="M14.326.012C4.639.55.426,7.53.048,13.009-.319,18.317,1.512,20.7,2.794,20.7s1.83-1.647,2.929-1.281S7,23.443,9.017,23.992s1.648-2.563,4.393-1.464.366,7.139,2.929,7.322,1.281-7.5,3.478-7.322,1.647,3.478,4.21,3.295,6.956-9.519,4.027-16.84S17.621-.171,14.326.012" transform="translate(0 0)" fill="#ffa727"/>
        <path id="Path_26489" data-name="Path 26489" d="M28.57,10.491c-2.783-6.957-9.913-8.7-13.044-8.522C6.323,2.481,2.319,9.112,1.96,14.317c-.348,5.044,1.785,5.6,2.94,5.213,1.684.5,2.986-2.424,4.738-2.3,1,.07,1.66,1.013,2.429,1.652a4.735,4.735,0,0,0,6.646-.915c.92-1.334,1.4-3.362,3.008-3.578a6.868,6.868,0,0,1,2.473.589,3.8,3.8,0,0,0,3.464-.909,3.511,3.511,0,0,0,.911-3.578" transform="translate(-1.191 -1.213)" fill="#ffb850"/>
        <path id="Path_26490" data-name="Path 26490" d="M28.158,10.723c-.746-4.477-7.688-6.773-10.985-6.4-7.535.859-11.9,6.764-11.347,10.058a1.579,1.579,0,0,0,1.709,1.275,3.534,3.534,0,0,0,2.054-1.223c1.874-1.872,3.79-4.184,6.44-4.311,2.919-.14,5.227,2.465,8.058,3.186a3.986,3.986,0,0,0,2.522-.083,2.582,2.582,0,0,0,1.55-2.5" transform="translate(-3.582 -2.656)" fill="#ffca83"/>
        <path id="Path_26491" data-name="Path 26491" d="M23.847,7.9c-.681-.954-4.833,1.857-3.924,2.814.629.664,4.84-1.533,3.924-2.814" transform="translate(-12.267 -4.775)" fill="#ffdfb8"/>
        <path id="Path_26492" data-name="Path 26492" d="M11.9,20.225C10.754,20,9.89,22.239,10.44,22.6s2.379-2.2,1.465-2.379" transform="translate(-6.365 -12.525)" fill="#ffdfb8"/>
        <path id="Path_26493" data-name="Path 26493" d="M38.234,44.55c-.688,1.121-1.738,2.243-3.053,2.191a5.772,5.772,0,0,1-2.649-1.265,2.534,2.534,0,0,0-2.776-.291,5.073,5.073,0,0,0-.976,1.4c-.314.479-.893.9-1.424.691-.42-.168-.6-.648-.83-1.038a3.231,3.231,0,0,0-4.573-.885,6.673,6.673,0,0,1-1.42,1.118,2.138,2.138,0,0,1-2.419-.931c.459,1.126,1.013,2.388,2.13,2.693,2.014.549,1.648-2.562,4.393-1.464S25,53.907,27.565,54.09s1.281-7.5,3.478-7.322,1.648,3.478,4.21,3.3c1.9-.136,4.805-5.3,4.987-10.951a17.414,17.414,0,0,1-2.007,5.438" transform="translate(-11.226 -24.24)" fill="#f78f08"/>
    </g>
</svg>
