<svg id="Component_11_1" data-name="Component 11 – 1" xmlns="http://www.w3.org/2000/svg" xmlns:xlink="http://www.w3.org/1999/xlink" width="151.336" height="477.409" viewBox="0 0 151.336 477.409">
    <defs>
        <clipPath id="clip-path">
            <rect id="Rectangle_10011" data-name="Rectangle 10011" width="151.336" height="477.409" fill="none"/>
        </clipPath>
    </defs>
    <g id="Group_27211" data-name="Group 27211" clip-path="url(#clip-path)">
        <path id="Path_20696" data-name="Path 20696" d="M153.96,50.737a19.429,19.429,0,0,1-1.578,4.4,9.236,9.236,0,0,1-6.557,4.755,10.781,10.781,0,0,0-3.459.852,4.31,4.31,0,0,0-1.783,1.756c-.384.757-1.388.85-1.668,1.677a.444.444,0,0,1-.5-.249,6.169,6.169,0,0,0-2.9-2.034,23.556,23.556,0,0,0-3.483-1.187,1.458,1.458,0,0,1-.969-.489,1.8,1.8,0,0,1-.1-1.41c.3-1.109.119-2.293.45-3.4a11.461,11.461,0,0,0,.232-4.442,3.475,3.475,0,0,0-4.085-3c-1.9.388-1.9.388-2.574-1.448a2.348,2.348,0,0,0-3.249-1.661,9.691,9.691,0,0,0-1.577.694,4.341,4.341,0,0,1-6.251-2.2,12.41,12.41,0,0,1-.91-3.4,24.266,24.266,0,0,0-.721-4.236,5.808,5.808,0,0,0-7.608-3.583,3.286,3.286,0,0,0-2.174,3.65A18.965,18.965,0,0,1,96.86,52.843a11.783,11.783,0,0,1-2.874,2.181c-1.225-.053-2.165.686-3.181,1.188a13.411,13.411,0,0,0-1.54.763,14.489,14.489,0,0,1-3.916.32,18.955,18.955,0,0,1-6.124-1.275c-.8-.291-.888-.218-.743.592.451,2.524-.927,5.781-3.552,6.816-.936.369-.916.516-.632,1.531a12.5,12.5,0,0,1,.205,7.453,1.484,1.484,0,0,1-.545.852,11.176,11.176,0,0,1-2.919.546c-.2-.152-.336,0-.484.107a.8.8,0,0,1-.644-.327c-.517-1.3-1.534-1.411-2.711-1.14a10.292,10.292,0,0,0-2.65.94,5,5,0,0,0-1.876,1.823,3.686,3.686,0,0,1-1.391,1.575c-2.293-2.8-2.067-5.9-.975-9.05a4.133,4.133,0,0,0-.223-3.556c-1.644-2.968-1.062-5.791.545-8.55a53.016,53.016,0,0,1,3.136-4.551,4.451,4.451,0,0,0,.2-4.835A28.787,28.787,0,0,1,61.3,39.879,14.072,14.072,0,0,1,63.358,28.63a15.2,15.2,0,0,1,9.332-6.776,5.025,5.025,0,0,1,2.914-.136c.731.257,1.377-.326,1.555-1.352a38.045,38.045,0,0,1,2.451-8.733C81.621,7.01,84.5,3.108,89.318,1.045A12.448,12.448,0,0,1,94.076.15a2.569,2.569,0,0,1,.815-.057c3.77-.037,7.134,1.339,10.386,3.048a39.755,39.755,0,0,1,6.211,4.329c2.291,1.83,4.64,3.6,7.549,4.381a36.06,36.06,0,0,0,5.437.872,46.523,46.523,0,0,1,8.657,1.408c6.08,1.869,9.912,6,11.989,11.9a38.79,38.79,0,0,1,1.479,6.022,16.342,16.342,0,0,0,4.645,8.859,9.013,9.013,0,0,1,2.715,5.339Z" transform="translate(-2.624 -0.004)" fill="#3b1d18"/>
        <path id="Path_20697" data-name="Path 20697" d="M48.658,473.188a4.589,4.589,0,0,1-1.948-.626c-1-.379-1.2-.273-1.141.819a16.042,16.042,0,0,1,.011,2.882,30.533,30.533,0,0,1-.04,4.627c-.133,1.22.021,2.455-.054,3.689-.163,2.662-.278,5.327-.363,7.994a1.27,1.27,0,0,1-.606,1.165,25.461,25.461,0,0,1-4,.465c-2.994.26-6,.543-9,.568-3.874.031-7.737.395-11.607.344-2.514-.033-5.018.129-7.523.227-2.068.08-4.134.285-6.208.333a1.548,1.548,0,0,0-.592.095c-1.727.788-3.41.052-5.106-.143-.169-.02-.319-.209-.478-.32V494.27a16.083,16.083,0,0,1,5.272-2.679c2.555-.918,5.055-1.993,7.583-2.989,1.211-.478,2.421-.96,3.65-1.387.632-.22.753-.435.165-.842-.088-.061-.243-.1-.259-.173-.074-.317-.674-.548-.219-.942.431-.374.665-.016.915.313a1.546,1.546,0,0,0,2.076.564c1.226-.556,2.482-1.049,3.747-1.579a3.622,3.622,0,0,0-1.015-.919.587.587,0,0,1-.227-.938c.339-.4.59-.045.836.19a3.223,3.223,0,0,0,4.2.171c.31-.264.156-.345-.107-.6-1.743-1.734-3.673-3.317-4.781-5.6a11.752,11.752,0,0,1-.946-3.438.873.873,0,0,1,.448-1.01.885.885,0,0,1,1.151.271c.4.637.8,1.273,1.149,1.936.788,1.491,1.572,2.984,2.617,4.593-.074-1.223-.414-2.254-.013-3.245.216-.533.047-1.375,1.033-1.375a.674.674,0,0,1,.76.515,17.09,17.09,0,0,1,.537,6.379c-.024.285-.338.623.189.7.42.059.821-.067.884-.573.087-.695.144-1.394.186-2.094.241-3.935.58-7.865.571-11.812.493-.216.811.065,1.114.392a1.015,1.015,0,0,1,.117.585c-.264,1.77-.1,3.556-.24,5.332-.174,2.26-.36,4.521-.434,6.788a2.547,2.547,0,0,1-.861,2.235c-.272.2-.24.43-.03.66a7.361,7.361,0,0,0,.944.881,7.993,7.993,0,0,1,1.3,1.25c.3.36.462.779.067,1.154s-.766.129-1.064-.162c-.7-.684-1.535-1.224-2.163-1.973a1.74,1.74,0,0,0-2.357-.492c-1.559.733-1.406.525-.312,1.643.5.513,1.02,1.011,1.565,1.481.378.327.613.757.213,1.2s-.775.114-1.131-.147c-.955-.7-1.731-1.6-2.638-2.35a1.4,1.4,0,0,0-1.658-.229c-.8.381-1.67.615-2.484.985-.527.24-.536.483-.163.892a22.824,22.824,0,0,0,2.137,2.247c.362.3.592.668.223,1.109s-.786.292-1.146,0a27.85,27.85,0,0,1-2.409-2.343,1.879,1.879,0,0,0-2.27-.475c-5.007,2.076-10.139,3.856-15.075,6.266a37.155,37.155,0,0,0,6.344-.149c2.406-.09,4.811-.285,7.216-.443,3.408-.225,6.826-.228,10.232-.488,1.459-.112,2.926-.1,4.388-.16,3.041-.117,6.079-.3,9.118-.408,1.146-.041,2.292-.136,3.439-.18,1.126-.043,1.317-.322,1.382-1.412.241-4.1.34-8.2.647-12.292.147-1.974.038-3.965.026-5.949a2.469,2.469,0,0,0-.8-1.57c-.072-.35.195-.43.4-.363.928.3,1.947.032,2.841.457.721.342,1.6.534,1.771,1.522" transform="translate(0 -20.763)" fill="#0c2127"/>
        <path id="Path_20698" data-name="Path 20698" d="M96.57,0c0,.047,0,.094.008.14L95.7.146A.938.938,0,0,0,95.707,0Z" transform="translate(-4.249)" fill="#cbc0be"/>
        <path id="Path_20699" data-name="Path 20699" d="M32.731,458.574l-1-.342a.779.779,0,0,0-.811-.7c-.824-.058-1.091-.557-.939-1.332.614-3.133,1.081-6.291,1.56-9.447.472-3.1,1.046-6.183,1.531-9.28.438-2.8.8-5.611,1.225-8.412.373-2.435.815-4.859,1.193-7.294.482-3.1.9-6.216,1.4-9.317.543-3.4,1.154-6.787,1.711-10.184.593-3.622,1.121-7.253,1.744-10.869.561-3.252,1.1-6.508,1.675-9.757s1.154-6.5,1.781-9.734c.764-3.943,1.472-7.9,2.365-11.817,1.017-4.458,1.853-8.956,2.806-13.429.54-2.532,1.135-5.053,1.745-7.57,1.126-4.65,2.242-9.3,3.433-13.937.982-3.821,2.051-7.619,3.113-11.418.868-3.1,1.778-6.19,2.685-9.28.094-.319.077-.491-.286-.518a.634.634,0,0,1,.073-.867,5.655,5.655,0,0,0,1.032-2.434c.723-2.689,1.457-5.376,2.023-8.1a2.732,2.732,0,0,1,1.494-2.059,28.692,28.692,0,0,1,3.472-1.693c2.6-1.534,5.3-2.88,7.963-4.287a2.285,2.285,0,0,1,1.147-.333,2.079,2.079,0,0,0,1.379-.339c1.2-.585,2.386-1.211,3.6-1.77a83.727,83.727,0,0,1,7.912-4.182,26.506,26.506,0,0,0,5.231-2.4c2.832-1.635,5.711-3.19,8.563-4.789a1.242,1.242,0,0,0,.743-1.215,61.9,61.9,0,0,0-.6-7.8c-.133-1.083-.321-2.158-.428-3.241a4.539,4.539,0,0,0-.351-1.5c-.82-1.759.247-2.712,2.061-2.424a62.6,62.6,0,0,1,6.485,1.374c1.843.494,3.741.571,5.6.9,1.016.18,2.032.377,3.054.527a1.189,1.189,0,0,1,.99.953,53.347,53.347,0,0,1,2.313,9.084,29.956,29.956,0,0,0,2.125,6.78,25.147,25.147,0,0,1,1.225,4.838c.457,2.1.865,4.215,1.19,6.339.161,1.055.266,2.128.356,3.193a34.341,34.341,0,0,1,.152,3.581c-.06,2.914-.312,5.823-.636,8.725-.1.9-.1,1.818-.139,2.721-.056,1.338-.151,2.68-.252,4.009-.182,2.393-.331,4.79-.62,7.177-.169,1.4-.238,2.819-.378,4.228-.215,2.162-.427,4.322-.658,6.481-.145,1.347-.238,2.706-.392,4.054-.216,1.9-.386,3.808-.636,5.707-.161,1.227-.266,2.471-.394,3.708-.2,1.932-.5,3.855-.656,5.79-.1,1.3-.252,2.59-.362,3.885-.2,2.364-.395,4.727-.686,7.084-.174,1.4-.221,2.821-.365,4.229-.206,2.018-.513,4.028-.656,6.049-.1,1.385-.259,2.762-.38,4.143-.192,2.192-.4,4.381-.646,6.569-.143,1.26-.255,2.53-.387,3.8-.215,2.075-.513,4.141-.659,6.221q-.153,2.163-.374,4.316c-.228,2.188-.359,4.385-.671,6.567-.184,1.285-.216,2.592-.37,3.883-.221,1.844-.377,3.694-.631,5.536-.162,1.169-.282,2.354-.406,3.532-.2,1.875-.491,3.74-.653,5.618-.1,1.183-.25,2.358-.368,3.539-.213,2.132-.463,4.262-.66,6.394-.141,1.521-.279,3.047-.389,4.573-.2,2.852-.457,5.7-.675,8.552-.061.791-.106,1.591-.136,2.376-.049,1.282-.278,2.552-.23,3.841.019.529-.122,1.063-.157,1.6a17.525,17.525,0,0,0,.86,5.985,9.541,9.541,0,0,1-.384,5.843c-.523,1.518-1.27,2.959-1.935,4.427-.235.519-.519.976-1.228.568-.231-.133-.439.008-.442.316a1.053,1.053,0,0,1-1.166.146,5.667,5.667,0,0,0-3.544-.372c-2.729.218-5.456.105-8.184.124-.7.005-1.168.177-1.308.908-.367.337-.665.116-.961-.119-.063-.834-.424-1.321-1.349-1.208a12.369,12.369,0,0,1-2.284-.159.775.775,0,0,1-.62-.394,5.8,5.8,0,0,1-1.088-5.069,3.938,3.938,0,0,1,1.2-1.7,4.088,4.088,0,0,0,1.217-2.94c.2-2.817.162-5.644.351-8.459.169-2.519.36-5.036.52-7.556.131-2.072.242-4.143.348-6.217.116-2.273.248-4.545.345-6.82.086-2.044.224-4.088.347-6.13.166-2.749.4-5.493.521-8.247.116-2.59.211-5.181.344-7.769.178-3.453.2-6.908.363-10.357.12-2.578-.068-5.161.161-7.722.2-2.265-.04-4.528.161-6.775.25-2.807-.042-5.621.184-8.412.21-2.58-.044-5.159.16-7.724.258-3.238-.045-6.482.187-9.706.195-2.7.039-5.382.137-8.071.362-9.961.14-19.927.131-29.89,0-2.311.015-4.64-.172-6.943-.123-1.517-.011-3.03-.157-4.532a5.153,5.153,0,0,0-.331-1.972,9.224,9.224,0,0,0-.193-3.87c-.259-1.438-.154-2.917-.309-4.373a1.083,1.083,0,0,1,.094-.664c-.594,1.87-1.185,3.838-1.785,5.8a13.99,13.99,0,0,1-1.552,3.993,1.506,1.506,0,0,0-.2.655c-.759,2.439-1.5,4.884-2.282,7.316-1.315,4.1-2.686,8.177-3.977,12.282-1.733,5.509-3.465,11.019-5.1,16.556q-2.4,8.112-4.593,16.282c-1.193,4.4-2.2,8.856-3.415,13.251-.916,3.3-1.674,6.637-2.494,9.957-1.194,4.84-2.237,9.717-3.347,14.578-1.09,4.78-2.118,9.573-3.244,14.345-.82,3.469-1.631,6.942-2.391,10.424C60,423.13,58.324,429.654,56.716,436.2q-1.006,4.093-2.111,8.158a2.754,2.754,0,0,0,.746,2.929,3.286,3.286,0,0,1,.624,3.852,16.794,16.794,0,0,1-1.712,3.043,3.308,3.308,0,0,0-.623,2.885,2.615,2.615,0,0,1-.174,1.771,26.011,26.011,0,0,1-1.732,4.147c-.492.839-1,1.07-1.746.741a3.676,3.676,0,0,0-3.481-1.5c-.56.078-.96-.617-1.52-.2-.42.177-.789-.046-1.153-.178-3.206-1.154-6.459-2.167-9.7-3.227a1.667,1.667,0,0,0-1.407-.043" transform="translate(-1.329 -11.298)" fill="#222726"/>
        <path id="Path_20700" data-name="Path 20700" d="M88.626,272.206c-2.548,1.448-5.249,2.61-7.745,4.152-1.51.29-2.74,1.231-4.142,1.772-.283.11-.514.376-.862.306a26.464,26.464,0,0,0-4.618,2.239c-1.482.745-2.908,1.6-4.358,2.412-1.3.021-2.249.883-3.322,1.422-1.331.666-2.6,1.456-3.938,2.108-1.1.536-1.8,1.559-2.814,2.217-1.584,1.03-3.222,1.967-4.82,2.971a5.8,5.8,0,0,0-2.506,1.45c-1.529.887-2.946,2.008-4.776,2.255a1.444,1.444,0,0,0-.6.359c-.364.224-.721.5-1.171.188.618-1.475.17-3.052.44-4.571.45-2.535.512-5.118.745-7.68.191-2.092.285-4.2.524-6.278.285-2.492.315-5,.5-7.494.162-2.145.545-4.278.537-6.458-.009-2.372.434-4.744.654-7.118.143-1.557.3-3.116.346-4.677.076-2.71.309-5.412.4-8.123.063-1.929.173-3.866.313-5.8a1.225,1.225,0,0,0-.374-.993c.664-.476,1.3-.383,1.562.368a18.463,18.463,0,0,0,2.285,3.828c1.578,2.429,3.211,4.822,4.777,7.26a6.473,6.473,0,0,0,4.362,3.22c.328.113.679.085,1.013.166a11.325,11.325,0,0,0,4.2-.187,38.9,38.9,0,0,0,12.567-5.1c3.4-2.059,5.408-5.244,6.736-8.908a36.731,36.731,0,0,0,1.12-3.984,5.9,5.9,0,0,0,.223-1.02,82.637,82.637,0,0,0,1.345-12.133,8.988,8.988,0,0,0-.6,2.972c-.534,4.039-.725,8.132-1.922,12.067a28.494,28.494,0,0,1-2.221,5.415,12.8,12.8,0,0,1-4.392,4.763,39.973,39.973,0,0,1-11.848,5.254,13.693,13.693,0,0,1-4.86.414,6.636,6.636,0,0,1-4.859-2.755c-1.51-2.033-2.767-4.234-4.2-6.317-1.027-1.492-1.971-3.043-3.035-4.506a2.159,2.159,0,0,1-.1-2.681,103.762,103.762,0,0,1,7.792-11.58,118.58,118.58,0,0,1,10.594-11.441c1.779-1.711,3.643-3.335,5.394-5.078a13.933,13.933,0,0,0,1.519-1.647,1.421,1.421,0,0,1,1.812-.527c2.12.732,4.25,1.432,6.381,2.129.334.11.678.322,1.065.109-.1-.382-.43-.386-.679-.484-1.578-.629-3.194-1.146-4.817-1.636a7.531,7.531,0,0,1-3.588-2.116c-.441-.492-.928-.942-1.4-1.407a3.837,3.837,0,0,0-4.658-.808,18.4,18.4,0,0,1-2.325,1.112c-.523,0-.727-.406-.933-.775q-.523-.936-1.088-1.844c-.084-.136-.156-.278-.226-.42a3.851,3.851,0,0,0-.451-.784,1.5,1.5,0,0,1-.124-.2,10.393,10.393,0,0,0-.887-1.4,82.648,82.648,0,0,0-6.8-9.44c-.221-.266-.423-.546-.648-.807a1.749,1.749,0,0,1-.236-2.006c1.467-3.438,2.857-6.906,4.119-10.427a88.828,88.828,0,0,0,3.109-10.317,32.608,32.608,0,0,1,1.913-5.076c1.933-4.708,3.762-9.458,5.621-14.2.119-.3.441-.8.117-.922-.453-.176-.491.429-.61.735q-2.2,5.671-4.448,11.319c-.149.374-.22,1.067-.684.941s-.188-.757-.125-1.162a44.161,44.161,0,0,0,.33-9.032,24.439,24.439,0,0,0-1.6-7.567,7.869,7.869,0,0,0-6.1-5.046,10.02,10.02,0,0,0-3.079-.317,2.238,2.238,0,0,0,1.533.523,10.3,10.3,0,0,1,3.931,1.205,7.323,7.323,0,0,1,3.416,4.384,28.743,28.743,0,0,1,1.542,8.792,58.269,58.269,0,0,1-2.327,15.985A133.6,133.6,0,0,1,55.154,182.1c-.557,1.315-.655,1.88-1.837.278a20.668,20.668,0,0,0-3.355-3.316,2.683,2.683,0,0,1-1.074-2.041,20.2,20.2,0,0,0-1.461-7.393,6.929,6.929,0,0,0-2.1-2.361,18.917,18.917,0,0,0-3.788-2.011c-1.595-.809-3.3-.6-4.986-.512a11.632,11.632,0,0,0-3.336.3c-.287.1-.7.084-.668.522a.819.819,0,0,0,.772.8c.658.074,1.323,0,1.983.033a9.345,9.345,0,0,1,6.65,2.828,8.251,8.251,0,0,1,2.248,4.93c.085.864-.186,1.063-.973.656a22.438,22.438,0,0,0-2.272-1.039,12.134,12.134,0,0,0-9.633.371,24.029,24.029,0,0,0-6.893,4.818,41.492,41.492,0,0,0-5.212,5.848,2.38,2.38,0,0,0-.464.916.266.266,0,0,0,.1.3c.121.071.221-.015.3-.1a2.223,2.223,0,0,0,.242-.355A34.21,34.21,0,0,1,29.71,175.559c5.009-3.074,10.04-2.761,14.834.7a52.62,52.62,0,0,1,8.49,8.055,90.326,90.326,0,0,1,8.208,10.753q1.759,2.718,3.311,5.555c.69,1.258.6,1.809-.617,2.611a48.431,48.431,0,0,0-8.816,7.7c-4.8,5.162-8.567,10.943-10.425,17.837a15.559,15.559,0,0,1-.578,2.751c-.788-.453-1.7-.571-2.516-1-4.5-2.363-8.854-4.978-13.214-7.584a24.277,24.277,0,0,1-3.6-2.247,2.408,2.408,0,0,0-.9-.554,23.873,23.873,0,0,1-4.462-2.746,81.63,81.63,0,0,1-8.047-5.647,11.986,11.986,0,0,1-4.534-8.012,34.7,34.7,0,0,1,1.167-12.111,63.15,63.15,0,0,1,3.318-9.481c1.048-2.56,2.143-5.1,3.317-7.609,1.729-3.69,3.485-7.37,5.341-11,2.228-4.356,4.634-8.618,7.023-12.888,1.393-2.489,2.729-5.009,4.318-7.382.5-.749,1.072-1.453,1.612-2.179a21.342,21.342,0,0,0,1.8-3.022,24.844,24.844,0,0,1,7.044-6.843,46.316,46.316,0,0,1,10.234-5.069,77.389,77.389,0,0,1,8.081-2.666c.947-.222,1.849-.621,2.8-.848a1.623,1.623,0,0,1,.778.1c.569.17.876.694,1.35.994a9.8,9.8,0,0,1,2.106,1.882,13.408,13.408,0,0,0,11.892,3.06,1.632,1.632,0,0,1,.933-.044,3.225,3.225,0,0,1,.972.964,46.722,46.722,0,0,1,6.243,11.477,42.6,42.6,0,0,1,1.4,4.89,12.869,12.869,0,0,0,2.061,4.518,15.4,15.4,0,0,1,2.38,5.963,27.689,27.689,0,0,1,.387,5.06c.065,3.07.374,6.129.6,9.193.372,5.1,1.154,10.157,1.317,15.278a67.319,67.319,0,0,0,1.216,9.9c.48,2.649.573,5.365.829,8.052q.413,4.329.781,8.663c.152,1.8.3,3.6.414,5.409q.277,4.253.64,8.5c.3,3.493.691,6.974,1.085,10.455.458,4.024.8,8.058,1.172,12.089.4,4.375.922,8.737,1.266,13.116a4.632,4.632,0,0,0,.2,1.188c.276.779-.1,1.19-.726,1.514-4.568,2.365-8.941,5.088-13.56,7.358" transform="translate(-0.297 -5.444)" fill="#557e76"/>
        <path id="Path_20701" data-name="Path 20701" d="M64.735,199c.141.063.138.188.132.313.317.755.818,1.412,1.16,2.157.12.261.208.718.71.5.763-.388,1.524-.779,2.288-1.165a4.038,4.038,0,0,1,4.918.8c.485.566,1.071,1.044,1.575,1.6a7,7,0,0,0,3.3,1.881c1.745.533,3.457,1.173,5.183,1.772.34.118.84.178.67.693-.161.493-.636.287-.958.183-1.74-.557-3.47-1.147-5.2-1.726a16.859,16.859,0,0,1-1.778-.615,1.16,1.16,0,0,0-1.547.469,79.793,79.793,0,0,1-6.5,6.364c-1.978,1.916-3.974,3.818-5.8,5.887-1.079,1.221-2.192,2.412-3.267,3.638a75.892,75.892,0,0,0-6.828,9.2c-1.06,1.658-2.026,3.377-3.067,5.047a1.443,1.443,0,0,0,.136,1.778c1.731,2.551,3.43,5.123,5.128,7.695a26.607,26.607,0,0,0,3.265,4.493,5.771,5.771,0,0,0,3.457,1.511c3.356.468,6.421-.628,9.456-1.79a40.779,40.779,0,0,0,7.664-3.99,14.045,14.045,0,0,0,5-6.486,33.679,33.679,0,0,0,2.408-9.049c.309-2.227.477-4.473.721-6.709.1-.876.234-1.748.34-2.623.026-.219.055-.4.329-.4a.461.461,0,0,1,.527.443A6.722,6.722,0,0,1,88,222.126c-.115,2.823-.556,5.609-.9,8.405a7.665,7.665,0,0,1-.523,2.487c-.059.333-.315.635-.161,1a25.734,25.734,0,0,1-3.067,8.105,15.168,15.168,0,0,1-5.154,5.153,43.511,43.511,0,0,1-8.54,3.921,19.416,19.416,0,0,1-7.273,1.294c-.274-.013-.581.1-.81-.157-.309-.271-.721.044-1.038-.183a4.676,4.676,0,0,1-3.536-2c-2.585-3.7-5.049-7.495-7.568-11.246a2.177,2.177,0,0,1-.3-.695c-.246-.946-.61-1.142-1.544-.881a3.8,3.8,0,0,0-.91-.4,3.044,3.044,0,0,1-2.163-3.2,3.234,3.234,0,0,1,.148-1.756,20.433,20.433,0,0,1,2.22-8.021,43.237,43.237,0,0,1,4.663-7.979,61.327,61.327,0,0,1,8.512-9.165c1.35-1.194,2.828-2.21,4.277-3.273,1.261-.923,1.315-.982.515-2.458a79.224,79.224,0,0,0-4.3-7,101.075,101.075,0,0,0-6.655-8.58,64.43,64.43,0,0,0-5.76-6.026c-2.438-2.2-5.013-4.224-8.338-5.019a12.2,12.2,0,0,0-9.13,1.56,31.87,31.87,0,0,0-7.524,6.327,16.685,16.685,0,0,0-3.211,4.2c-.141.307-.355.476-.675.331-.369-.167-.348-.491-.207-.809a13.324,13.324,0,0,1,2.127-2.989,42.147,42.147,0,0,1,4.056-4.215,21.157,21.157,0,0,1,8.886-5.291,12.743,12.743,0,0,1,9.485,1.35c.15.079.284.19.439.257a3.959,3.959,0,0,0,.49.142,8.291,8.291,0,0,0-7.1-8.078A15.6,15.6,0,0,0,34,167.1a1.181,1.181,0,0,1-1.169-.815c-.215-.429-.115-.793.482-.951a13.925,13.925,0,0,1,4.179-.35,14.364,14.364,0,0,1,2.736-.065,21.3,21.3,0,0,1,3.809,1.472,11.809,11.809,0,0,1,2.825,1.906,6.975,6.975,0,0,1,1.93,3.378,21.864,21.864,0,0,1,.853,6.085c.04.764.529,1.14,1,1.6,1.291,1.269,2.828,2.3,3.78,3.9a3.585,3.585,0,0,0,.492.526,143.146,143.146,0,0,0,5.645-15.023,98.394,98.394,0,0,0,3.054-12.424,40.328,40.328,0,0,0,.523-9.579,23.81,23.81,0,0,0-2.036-8.51,7.279,7.279,0,0,0-5.38-3.95,23.1,23.1,0,0,0-2.359-.355c-.388-.051-.717-.229-.676-.623.044-.414.467-.243.713-.231a10.942,10.942,0,0,1,6.634,2.168,9.289,9.289,0,0,1,2.79,4.635,36.445,36.445,0,0,1,1.186,12.316c-.04,1.214-.311,2.42-.47,3.632a.728.728,0,0,0,.107.645c.719-1.829,1.416-3.6,2.106-5.368q1.429-3.667,2.852-7.336a4.648,4.648,0,0,1,.268-.539c.1-.182.212-.36.465-.256a.515.515,0,0,1,.393.494,2.576,2.576,0,0,1-.354,1.048c-2.265,5.791-4.514,11.588-6.918,17.325a41.453,41.453,0,0,0-1.5,5.336,115.368,115.368,0,0,1-4.148,12.045c-.695,1.78-1.408,3.559-2.221,5.287-.545,1.16.227,1.776.811,2.467a92.492,92.492,0,0,1,6.741,9.255,2.031,2.031,0,0,1,.166.476,12.843,12.843,0,0,0,.872,1.412l-.01-.012c.2.279.275.644.558.873" transform="translate(-0.842 -5.908)" fill="#264741"/>
        <path id="Path_20702" data-name="Path 20702" d="M31.8,137.886c-1.761-1.17-2.434-2.989-2.925-4.914a10.024,10.024,0,0,1-.2-4.528,6.083,6.083,0,0,1,2.651-3.689,48.427,48.427,0,0,1,11.038-5.619c4.733-1.9,9.472-3.8,14.363-5.28a20.8,20.8,0,0,1,5.656-1.192,2.977,2.977,0,0,0,.644-.158.809.809,0,0,1,.155.876,10.053,10.053,0,0,0,.695,6.253,1.052,1.052,0,0,1,.116.491.282.282,0,0,1-.324.212,15.169,15.169,0,0,0-4.893.9c-2.578.8-5.215,1.435-7.725,2.435a70.65,70.65,0,0,0-7.676,3.47,17.2,17.2,0,0,0-4.277,3.319,24.947,24.947,0,0,1-2.385,2.241,32.665,32.665,0,0,0-3.8,4.207c-.319.368-.483.947-1.109.976" transform="translate(-1.266 -4.995)" fill="#bf4f1b"/>
        <path id="Path_20703" data-name="Path 20703" d="M46.317,302.783c1.532-.09,2.646-1.146,3.969-1.718a9.354,9.354,0,0,0,.886-.5,8.77,8.77,0,0,1,2.389-1.417c1.939-1.323,4.163-2.264,5.889-3.844,2.379-2.176,5.468-3.043,8.061-4.788.393-.265.716.1,1.072.017-1.229.459-2.348,1.144-3.528,1.7a2.634,2.634,0,0,0-1.453,2.146c-.641,3.13-1.53,6.2-2.336,9.288-.185.71-1.047,1.035-.957,1.861a26.672,26.672,0,0,0-4.4.208,11.946,11.946,0,0,1-4.923-.207,18.265,18.265,0,0,0-2.817-.145,7.149,7.149,0,0,1-2.619-.534c-.532-.25-1.1-.565-.915-1.344a2.278,2.278,0,0,0,1.167-.372.889.889,0,0,0,.512-.353" transform="translate(-1.98 -12.895)" fill="#264741"/>
        <path id="Path_20704" data-name="Path 20704" d="M31.958,138.237c1.073-1.3,2.157-2.584,3.219-3.888a32.036,32.036,0,0,1,2.4-2.188,31.9,31.9,0,0,1,5.254-4.529,17.779,17.779,0,0,1,2.282-1.171,63.843,63.843,0,0,1,10.263-4c1.843-.483,3.636-1.21,5.51-1.591,1.031-.211,2.082-.695,3.183-.269.573.034.545.526.682.894a1.052,1.052,0,0,1-.718,1.213c-1.555.466-3.067,1.053-4.66,1.421a34.769,34.769,0,0,0-4.232,1.409c-2.035.757-4.089,1.483-6.067,2.373a36.468,36.468,0,0,0-9.467,6.005,16.887,16.887,0,0,0-4.478,5.8,2.069,2.069,0,0,1-1.069,1.266c.456-1.306.46-1.315-.919-2a5.943,5.943,0,0,1-1.181-.742" transform="translate(-1.419 -5.347)" fill="#6f2b14"/>
        <path id="Path_20705" data-name="Path 20705" d="M65.982,120.548c-.178-.291-.134-.708-.5-.891a10.032,10.032,0,0,1-.937-6.97,3.916,3.916,0,0,0,.056-.767,6.88,6.88,0,0,1-.832-3.094c.077-.289-.117-.582.017-.87a15.067,15.067,0,0,1,5.491-7.644,3.33,3.33,0,0,0,.44-.406,1.567,1.567,0,0,1,.954-.431c.228.007,1.585-.161,1.706.07.062.447-1.29,1.007-1.574,1.233a18.1,18.1,0,0,0-5.879,7.868,3.264,3.264,0,0,0-.182.482c-.063.3-.055.6.283.72.3.105.482-.122.619-.348a10.729,10.729,0,0,0,.652-1.5,9.709,9.709,0,0,1,2.2-3.351c.455-.273.784-.3.743.384-.641,1.315-1.486,2.517-2.127,3.837a16.136,16.136,0,0,0-1.773,6.6,8.12,8.12,0,0,0,.965,3.544,11.341,11.341,0,0,0,3.473,4.638,3.863,3.863,0,0,0,.821.588,21.628,21.628,0,0,0,6.541,2.564,7.583,7.583,0,0,0,3.754-.1,13.743,13.743,0,0,0,4.962-2.077,11.773,11.773,0,0,0,3.37-4.5,13.472,13.472,0,0,0,1.489-5.621,12.218,12.218,0,0,0-.166-2.054,16.7,16.7,0,0,0-3.72-8.841,1.9,1.9,0,0,0-1.193-1.035,2.28,2.28,0,0,1-.775-.519.884.884,0,0,0-.684-.32c-.882-.273-1.718-.679-2.622-.891a2.517,2.517,0,0,0-1.047-.074q-1.329.011-2.655.006c-.359-.024-.72-.028-1.079-.024a3.265,3.265,0,0,0-.812.064c-.288.088-.6.051-.883.146a1.866,1.866,0,0,1-.217.058,1.742,1.742,0,0,0-.942.328,7.727,7.727,0,0,1-1,.459c-.415.085-.891.6-1.187-.165a.665.665,0,0,1,.162-.462c.356-.413.453-.807.01-1.235a.241.241,0,0,1,.075-.414,1.78,1.78,0,0,1,1.189-.07,6.191,6.191,0,0,0,2.7-.08c4.058-.333,8.033-.108,11.327,2.7a13.685,13.685,0,0,1,3.739,5.809,16.457,16.457,0,0,1-.357,12.916c-.2.447-.39.9-.581,1.346a14.464,14.464,0,0,1-5.863,5.185c-.656-.248-1.3-.431-1.795.3a13.5,13.5,0,0,1-12.682-2.782c-.779-.655-1.273-1.624-2.266-2.027a8.068,8.068,0,0,0-.861-1.126,4.366,4.366,0,0,1-.544-1.158" transform="translate(-2.83 -4.408)" fill="#f9a94b"/>
        <path id="Path_20706" data-name="Path 20706" d="M61.35,80.143c.472-.678.936-1.364,1.419-2.034a6.019,6.019,0,0,1,4.449-2.428A4.27,4.27,0,0,1,70.159,76.9l.52.3a1.407,1.407,0,0,1,.786.511,2.172,2.172,0,0,1,.169.324c.588.746,1.523,1.06,2.126,1.833a21.946,21.946,0,0,1,2.373,3.664c.2.4.454.856-.177,1.151-.349-.115-.422-.449-.563-.723a15.243,15.243,0,0,0-4.158-5.106,14.384,14.384,0,0,0-3.391-1.831c-1.378-.586-2.641.078-3.726.971a5.315,5.315,0,0,0-1.543,2.36,11.735,11.735,0,0,0,2.254,12.317A10.335,10.335,0,0,0,67.466,95a6.409,6.409,0,0,0,5.711.56c.405-.149.8-.33,1.215-.446.361-.1.7-.095.869.314a.712.712,0,0,1-.309.9,4.131,4.131,0,0,1-1.1.493,6.77,6.77,0,0,1-4.382.4c-.424-.132-.875-.071-1.3-.18a14.438,14.438,0,0,1-6.575-6.789,8.8,8.8,0,0,1-.358-1.757c-.1-.519-.437-.951-.539-1.469-.028-2.317-.233-4.652.655-6.883" transform="translate(-2.693 -3.36)" fill="#b55e3d"/>
        <path id="Path_20707" data-name="Path 20707" d="M60.549,87.554a1.9,1.9,0,0,1,.678,1.394c.079.186.144.522-.058.5-.776-.093-.873.579-1.072.975-2.243,4.466-2.35,9.258.9,13.436a28.324,28.324,0,0,0,2.279,2.46c.312.317.582.647.379,1.135-.064.283.073.607-.171.854-.955-1.208-2.179-2.16-3.136-3.374A13.16,13.16,0,0,1,57.4,97.778c-.34-3.862,1.02-7.149,3.148-10.224" transform="translate(-2.546 -3.888)" fill="#2d271f"/>
        <path id="Path_20708" data-name="Path 20708" d="M48.588,105.122c-.021.338-.246.417-.45.515q-3.082,1.486-6.165,2.973c-.267.129-.616.261-.767-.025-.2-.388.2-.527.475-.66q3-1.452,6.012-2.892c.319-.153.67-.376.9.089" transform="translate(-1.827 -4.655)" fill="#1c1a1b"/>
        <path id="Path_20709" data-name="Path 20709" d="M39.922,97.819c-.24.039-.5.028-.534-.265-.045-.356.259-.4.515-.433,1.876-.239,3.753-.469,5.629-.7.427-.053.852-.118,1.28-.161.255-.027.566-.066.613.286.043.328-.229.438-.5.473-1.079.144-2.159.288-3.24.411-1.254.142-2.509.263-3.764.393" transform="translate(-1.749 -4.273)" fill="#1c1a1b"/>
        <path id="Path_20710" data-name="Path 20710" d="M48.758,90.524a1.147,1.147,0,0,1-1.184.176c-1.726-.415-3.443-.864-5.163-1.3-.294-.075-.722-.08-.626-.524.1-.459.506-.277.79-.206,1.805.45,3.606.916,5.408,1.382a1.444,1.444,0,0,1,.775.476" transform="translate(-1.855 -3.933)" fill="#1d1a1b"/>
        <path id="Path_20711" data-name="Path 20711" d="M83.2,128.92c.358-1,.807-1.1,1.732-.373a29.612,29.612,0,0,1,4.793,7.669A67.285,67.285,0,0,1,93.09,146.5a9.173,9.173,0,0,0,1.419,3.115c.471.625.556,1.453,1.107,2.03.113.135.168.313.327.43a3.852,3.852,0,0,0-.142-.722,49.486,49.486,0,0,1,.083-6.174c.16-1.535-.081-3.09.2-4.625a11.562,11.562,0,0,1,.386-1.669c.678-1.818,1.232-3.679,1.864-5.515.075-.216.139-.435.228-.645.1-.236.2-.548.477-.551.339,0,.426.323.5.606a3.068,3.068,0,0,1,.158.85,56.145,56.145,0,0,1-.271,6.88c-.475,3.4-.1,6.812-.027,10.218a57.893,57.893,0,0,0,.116,5.858c.364,2.938.281,5.906.548,8.851q.186,2.06.338,4.122a52.148,52.148,0,0,0,.735,7.1c.53,2.479.834,4.991,1.155,7.495.426,3.331.629,6.69.94,10.036.182,1.942.423,3.877.665,5.812.433,3.475.721,6.967,1.156,10.445.621,4.953,1.176,9.916,1.721,14.879.25,2.279.6,4.556.947,6.828.262,1.7.442,3.411.594,5.122.13,1.465.466,2.893.642,4.346.2,1.681.573,3.337.768,5.018.165,1.419.158,1.449,1.553,1.656,3.5.519,6.929,1.406,10.383,2.159,1.079.235,1.123.2.861-.858-1.35-5.472-2.977-10.868-4.487-16.3-3.014-10.832-5.9-21.695-8.031-32.742-1.544-7.991-2.731-16.036-3.729-24.112-.44-3.564-.953-7.121-1.289-10.7q-.367-3.9-.6-7.814c-.105-1.8-.243-3.608-.376-5.412a1.7,1.7,0,0,1,.027-.851c.421-.488.826-.383,1.222.032a30.837,30.837,0,0,1,.482,4.7q.542,8.864,1.659,17.669c.224,1.737.507,3.47.6,5.221a3.233,3.233,0,0,0,.059,1.129,2.321,2.321,0,0,1,.068.405,2.1,2.1,0,0,0,.176,1.032,3.063,3.063,0,0,1,.2,1.358,1.859,1.859,0,0,0,.161,1.067c.509,2.329.815,4.693,1.161,7.049.861,5.857,2.045,11.652,3.346,17.423,1.086,4.818,2.248,9.619,3.588,14.375a4.615,4.615,0,0,1,.2,1.1,13.655,13.655,0,0,0,1.121,4.343,17,17,0,0,1,1.1,3.879,2.447,2.447,0,0,0,.173,1.187,1.3,1.3,0,0,1,.063.232,3.663,3.663,0,0,0,.646,1.661c1.012,3.236,1.886,6.509,2.806,9.769,1.436,5.089,2.459,10.274,3.576,15.438a3.291,3.291,0,0,1,.123,1.668c.594-4.178.526-8.31.778-12.422a10.761,10.761,0,0,0-.016-1.229c-.073-4.687.139-9.371.225-14.054.063-3.362-.011-6.727.134-10.085.113-2.612-.095-5.219.1-7.837a45.206,45.206,0,0,0-.3-5.844c-.256-4.336-.8-8.641-1.372-12.944-.232-1.739-.57-3.462-.872-5.19a1.957,1.957,0,0,1-.025-.937.368.368,0,0,1,.2-.215,1.531,1.531,0,0,1,1.3,1.39,113.61,113.61,0,0,1,1.652,11.774c.1,1.143.214,2.287.323,3.43a.785.785,0,0,0,.958.82,10.143,10.143,0,0,0,4.405-1.376,22.133,22.133,0,0,0,11.263-14.647,106.879,106.879,0,0,0,2.42-14.093c.23-2.227.414-4.457.569-6.69a2.509,2.509,0,0,0,.1-.968c.122-3.5.479-7,.322-10.5-.184-4.108-.078-8.215-.173-12.321a34.211,34.211,0,0,0-.238-3.433c-.078-.632-.353-1.124-1.1-1.052-2.572.248-5.155.29-7.733.454-.745.047-.946.418-.959,1.114a56.7,56.7,0,0,1-.586,7.465c-.485,3.171-1.031,6.339-1.714,9.481-.506,2.328-.886,4.682-1.457,7a32.087,32.087,0,0,1-3.593,9.188,13.223,13.223,0,0,1-4.273,4.3,5.275,5.275,0,0,1-1.649.472c-.546.137-.894.387-.75,1.019a.644.644,0,0,1,.008.172c-.018.417-.078.909-.534.97-.472.063-.5-.466-.587-.8q-1.072-4.221-2.191-8.428c-1.568-5.918-3.389-11.767-4.791-17.729-.981-4.168-1.927-8.345-2.876-12.52a25.6,25.6,0,0,0-3.654-8.966c-.44-.642-.519-1.466-1.034-2.071-.106-.322-.271-.654.132-.9a15.776,15.776,0,0,1,2.967,3.98c1.69,2.728,2.321,5.85,3.022,8.909.708,3.092,1.506,6.165,2.165,9.267,1.363,6.405,3.4,12.632,4.965,18.986.1.4.28.781.352,1.2a.91.91,0,0,0,.775.8c1.959.138,3.873.03,5.34-1.534a7,7,0,0,0,.987-2.375,60.165,60.165,0,0,0,2.688-7.37c.625-2.336,1-4.74,1.61-7.079a35.826,35.826,0,0,0,.972-10.062,22.087,22.087,0,0,0-.3-3.546c-.277-1.475-.067-1.69,1.544-1.877a2.138,2.138,0,0,1,1.3-.366,47.221,47.221,0,0,0,7.792-.441,1.548,1.548,0,0,1,1.082.148c.395.354.879.214,1.317.191,1.263-.067,1.619.3,1.775,1.707.47,4.245.326,8.511.38,12.772a37.861,37.861,0,0,1,.133,4.275c-.2,1.944-.055,3.89-.175,5.828-.119,1.9-.177,3.81-.355,5.7-.288,3.061-.575,6.123-.97,9.175a83.938,83.938,0,0,1-1.931,10.674,22.96,22.96,0,0,1-4.67,9.692,24.165,24.165,0,0,1-9.569,6.848,10.283,10.283,0,0,1-2.661.445c-.486.051-.62.139-.574.653.054.621-.081,1.257-.074,1.885.024,1.83.078,3.659.118,5.489.13,5.855-.122,11.707-.228,17.558-.063,3.467.068,6.94-.151,10.4-.117,1.833.034,3.671-.171,5.482-.173,1.518-.015,3.031-.152,4.536-.276,3.041-.232,6.1-.8,9.129a5.924,5.924,0,0,0,.408,2.724,1.089,1.089,0,0,1,.027.5,1.189,1.189,0,0,1-.481-.694,23.214,23.214,0,0,1-1.829-5.831,62.167,62.167,0,0,0-1.961-8.06c-.414-1.5-1.04-2.163-2.582-2.269-1.843-.127-3.674-.464-5.5-.761-.9-.145-1.778-.41-2.669-.609-1.864-.417-3.725-.857-5.6-1.213a2.681,2.681,0,0,0-1.5.194.944.944,0,0,0-.487,1.372,11.328,11.328,0,0,1,.852,4,68.354,68.354,0,0,1,.759,9.22,1.317,1.317,0,0,1-.958,1.454,35.16,35.16,0,0,0-3.529,1.94,92.852,92.852,0,0,1-9.24,4.905,2.31,2.31,0,0,1-1.151.294A7.563,7.563,0,0,1,94.339,271c2.481-1.436,5-2.815,7.506-4.2,1.275-.7,2.571-1.365,3.852-2.055.376-.2.564-.349.4-.949a20.8,20.8,0,0,1-.416-3.382c-.226-2.151-.461-4.3-.668-6.455-.2-2.042-.35-4.089-.544-6.132-.209-2.21-.446-4.418-.666-6.627-.183-1.842-.344-3.688-.543-5.528-.2-1.895-.457-3.784-.659-5.679-.148-1.388-.26-2.782-.37-4.174q-.351-4.433-.681-8.87c-.131-1.764-.211-3.533-.363-5.3-.2-2.3-.49-4.588-.648-6.888-.1-1.4-.242-2.784-.385-4.172a40.9,40.9,0,0,0-.821-6.439,35.69,35.69,0,0,1-.721-5.782c-.291-2.95-.244-5.923-.665-8.87-.294-2.056-.363-4.144-.552-6.216-.214-2.354-.543-4.7-.65-7.06q-.146-3.217-.245-6.442a16.035,16.035,0,0,0-3-9.383,14.356,14.356,0,0,1-2.122-5.467,40.878,40.878,0,0,0-6.786-14.287,10.6,10.6,0,0,0-1.4-1.732" transform="translate(-3.694 -5.687)" fill="#264741"/>
        <path id="Path_20712" data-name="Path 20712" d="M98.6,474.526l.856.176a.941.941,0,0,1,.4.815c.172,1.8.24,3.609.357,5.413.134,2.035.332,4.063.461,6.1.081,1.318.212,2.638.214,3.953,0,1.67.218,3.325.218,4.993,0,.924.347,1.223,1.38,1.243,2.1.04,4.2,0,6.3.015,5.432.031,10.859-.159,16.29-.218,4.561-.049,9.123-.319,13.681-.523,2.639-.117,5.286.016,7.918-.289a9.793,9.793,0,0,0,2.38-.482,2.905,2.905,0,0,0-1.375-.588c-5.9-1.292-11.706-2.948-17.6-4.262-.649-.145-1.271-.363-1.911-.533a1.569,1.569,0,0,0-2.206,1.033c-.232.494-.392,1.022-.643,1.507-.226.438-.475.973-1.085.715-.668-.282-.412-.856-.228-1.339.234-.619.57-1.193.862-1.786.24-.487.105-.76-.433-.849q-.85-.142-1.687-.357c-1.022-.264-1.361-.128-1.923.8-.52.86-.906,1.8-1.449,2.646a1.606,1.606,0,0,1-.635.683.72.72,0,0,1-.74,0c-.259-.172-.236-.446-.176-.7a7.957,7.957,0,0,1,1.1-2.141,11.257,11.257,0,0,0,.734-1.266c.174-.405.061-.668-.375-.77-.5-.119-1.005-.247-1.509-.363a.968.968,0,0,0-1.123.594c-.447.8-.872,1.619-1.33,2.418a5.14,5.14,0,0,1-.349.594c-.257.34-.558.627-1.014.368s-.41-.677-.218-1.058c.416-.82.88-1.615,1.329-2.417.474-.847.471-.871-.436-1.284a1.864,1.864,0,0,1-1.059-1.566,61.048,61.048,0,0,1-.725-7.284,26.407,26.407,0,0,0-.132-3.615.937.937,0,0,1,.2-.888l.844-.176q.188,3.24.416,6.474a11,11,0,0,0,.333,3.446,7.261,7.261,0,0,1,.687,2.369c.018.306.816.484,1.3.3a.844.844,0,0,0,.5-1.166c-.267-.756-.6-1.489-.855-2.248a8.383,8.383,0,0,1,.535-6.665,1.021,1.021,0,0,1,1.072-.622c.613,0,.634.55.646.828a28.441,28.441,0,0,1-.032,4.374,12.167,12.167,0,0,0-.243,2.457,26.3,26.3,0,0,1,1.722-2.457c1.285-1.454,2.531-2.971,4.433-3.715a1.008,1.008,0,0,1,1.087.2c.389.312.112.693-.051,1a14.472,14.472,0,0,1-3.2,3.712,34.426,34.426,0,0,0-4.2,4.09c-.465.6.131.787.471.863.492.109.969.248,1.452.379a1.615,1.615,0,0,0,1.949-.975c.144-.256.211-.6.641-.566.228.017.413.082.485.284.135.381-.094.63-.352.886-.669.668-.656.67.3.942a10.48,10.48,0,0,0,2.457.493.993.993,0,0,0,1.137-.655,3.053,3.053,0,0,1,.422-.621.6.6,0,0,1,.748-.26c.292.133.166.473.115.69-.1.423-.6.8-.3,1.258.269.409.832.284,1.255.377,5.411,1.186,10.73,2.742,16.132,3.954a34.21,34.21,0,0,1,5.26,1.471,1.147,1.147,0,0,1,.8,1.539,2.792,2.792,0,0,1-2.234,1.087,38.881,38.881,0,0,1-5.221.319c-.8.02-1.587-.131-2.382-.031a52.633,52.633,0,0,0-5.719.232c-2.607.375-5.2-.021-7.793.178-2.169.167-4.342.032-6.5.178-3.127.212-6.253-.033-9.373.136-3.626.2-7.242-.025-10.862-.011-.653,0-.872-.213-.826-.848a4.21,4.21,0,0,0-.224-1.861,2.056,2.056,0,0,1-.125-1.016c.409-2.543-.175-5.058-.2-7.588-.017-1.9-.242-3.8-.326-5.7-.092-2.075-.341-4.143-.515-6.215a5.289,5.289,0,0,1,.019-.6" transform="translate(-4.377 -21.039)" fill="#0c2127"/>
        <path id="Path_20713" data-name="Path 20713" d="M71.855,77.237c0-.1-.006-.206-.01-.31-.033-.341-.611-.3-.517-.728l3.1-.539a2.751,2.751,0,0,1,1.441.029c.483.357.942-.011,1.413-.051a4.212,4.212,0,0,0,1.167-.132,5.066,5.066,0,0,1,.961-.068c.679-.062,1.354-.163,2.03-.253a1.622,1.622,0,0,1,.268-.055,5.522,5.522,0,0,0,1.331-.137c1.119-.351,1.193-.414,1.171-1.563a19.134,19.134,0,0,1,.652-6.053,14.791,14.791,0,0,1,7.388-8.914,3.535,3.535,0,0,1,1.1-.41,1.715,1.715,0,0,0,.926-.355c4.145-2.038,8.051-1.346,11.71,1.17,3.73,2.565,5.473,6.278,5.976,10.7a21.52,21.52,0,0,1-.107,4.374,3.3,3.3,0,0,0,1.213-.313,9.306,9.306,0,0,1,5.172-.381.931.931,0,0,0,1.268-.66,19.38,19.38,0,0,1,4.238-6.534,9.906,9.906,0,0,1,5.9-3.287c.68-.086,1.366.043,2.047-.034a32.316,32.316,0,0,1,4.557,1.5,6.716,6.716,0,0,1,3.206,2.452c.626,1.545,1.806,2.8,2.284,4.427a12.888,12.888,0,0,1-.474,8.744,19.208,19.208,0,0,1-3.9,6.12,15.528,15.528,0,0,1-6.885,4.191c-.47.139-.928.285-1.022.864a.693.693,0,0,1-.927.221,2.347,2.347,0,0,0-1.558-.316,10.614,10.614,0,0,1-2.133-.1,1.261,1.261,0,0,1-.8-.463,1.325,1.325,0,0,1-.011-1.163c.376-.311.691.014,1.024.1,1.357.358,2.7.6,3.892-.442a1.035,1.035,0,0,1,.819-.038.97.97,0,0,0,.98.036,16.7,16.7,0,0,0,8.8-8.1c.291-.574.156-.724-.474-.74-2.156-.053-4.3.3-6.453.185-.43-.024-.744.287-1.144.338-.344-.645-.227-1.12.425-1.722,2.351.22,4.691-.173,7.041-.135,1.364.023,1.589-.258,1.9-1.6a10.723,10.723,0,0,0-1.483-8.163,4.853,4.853,0,0,1-.539-.975,1.157,1.157,0,0,0-.631-1.008,10.511,10.511,0,0,0-6.278-2.756,4.6,4.6,0,0,0-3.637.529,13.83,13.83,0,0,0-6.115,5.723,23.022,23.022,0,0,0-1.433,2.833,1.043,1.043,0,0,0,.048,1.194.6.6,0,0,1-.2,1c-.425.215-.465.713-.8.982a.722.722,0,0,1-.881-.212.56.56,0,0,1-.075-.154c-.335-1.449-.405-1.614-1.9-1.682a7.094,7.094,0,0,0-4.739,1.233,4.838,4.838,0,0,0-1.527,2.249,13.158,13.158,0,0,1-10.832,8.779,12.963,12.963,0,0,1-13.592-6.943,19.455,19.455,0,0,1-1.287-2.726,1.091,1.091,0,0,0-1.314-.789,61.5,61.5,0,0,1-6.69.552c-1.337-.348-2.67.132-4,.02-.449-.038-.671.415-1.078.447" transform="translate(-3.167 -2.509)" fill="#bf4f1b"/>
        <path id="Path_20714" data-name="Path 20714" d="M100.234,133.28c-.061-.235-.121-.47-.183-.706a.474.474,0,0,0,.021-.494c-.6-.82-.242-1.6.116-2.345,1.072-2.252,1.919-4.6,2.943-6.873.2-.444.246-1.032.862-1.185a6.179,6.179,0,0,1,.44,1.9,7.837,7.837,0,0,0,3.725,5.148,4.954,4.954,0,0,0,1.034.418c.4.128.847.255.853.816-.545.234-.268.738-.373,1.118a9.379,9.379,0,0,0-.328,2.485,9.222,9.222,0,0,1,.08,1.506c-.516,1.948-.621,3.969-1.038,5.933-.667,3.144-1.137,6.331-2.084,9.413-.1.323-.121.686-.43.913-.33.022-.671-.24-.989.041a2.089,2.089,0,0,1-.4-1.37,36.13,36.13,0,0,0-1.687-7.542c-.835-2.534-1.517-5.112-2.31-7.659-.154-.494-.117-1.022-.256-1.519" transform="translate(-4.429 -5.403)" fill="#bf4f1b"/>
        <path id="Path_20715" data-name="Path 20715" d="M148.443,141.942l-1.013.043a14.151,14.151,0,0,1,.6-7.525,3.932,3.932,0,0,0,.334-1.59c0-.489.012-.979,0-1.467-.119-4.168.19-8.331.174-12.5a2.969,2.969,0,0,0-.412-1.823,22.158,22.158,0,0,0-.283,2.841c.078,1.722-.207,3.441-.026,5.163a1.345,1.345,0,0,1-.13.757.64.64,0,0,1-.619.387.565.565,0,0,1-.549-.461,1.193,1.193,0,0,1-.073-.423c.1-1.836-.031-3.673.119-5.514a61.048,61.048,0,0,0,.031-6.809,3.482,3.482,0,0,0-.314-1.25c-.1-.236-.218-.513-.543-.45-.285.054-.273.335-.3.558a4.71,4.71,0,0,0-.016.6c0,4.342.01,8.684-.008,13.025a3.537,3.537,0,0,0,.693,2.254,8.073,8.073,0,0,1,1.037,1.981c.126.33.195.718-.2.914s-.719-.028-.949-.363c-.278-.4-.429-.875-.691-1.291a3.16,3.16,0,0,0-2.93-1.63,13.752,13.752,0,0,0-2.638.382c-2.1.463-3.184-.275-3.518-2.392a10.871,10.871,0,0,1-.008-3.179,8.979,8.979,0,0,0-.144-3.171c-.044-.2-.089-.443-.3-.488-.289-.06-.369.225-.463.421a6.38,6.38,0,0,0-.552,1.9,53.374,53.374,0,0,0-.55,8.852,17.256,17.256,0,0,0,.323,2.824,3.776,3.776,0,0,0,2.068,2.81,8.8,8.8,0,0,1,1.476.887,3.371,3.371,0,0,1,1.4,2.3,22.29,22.29,0,0,1,.006,3.945l-1.206.143a11.061,11.061,0,0,0-.025-4.482,2.049,2.049,0,0,0-1.361-1.311,5.253,5.253,0,0,1-3.353-3.652,21.031,21.031,0,0,1-.31-7.208c.118-1.043.085-2.105.2-3.156a17.12,17.12,0,0,1,.72-4.065c.246-.666.541-1.383,1.36-1.612.652-.183,1.158-.051,1.376.65a6.3,6.3,0,0,1,.349,1.9c0,1.61,0,3.22,0,4.831a4.727,4.727,0,0,0,.367,1.808.687.687,0,0,0,.822.47c.43-.1.364-.45.365-.759,0-3.106.012-6.211,0-9.316a51.306,51.306,0,0,1,.529-6.88,1.253,1.253,0,0,1,1.969-.936c.408.285.572.3.78-.151a1.365,1.365,0,0,1,1.4-.915,1.472,1.472,0,0,1,1.327,1.162c.183.745.474,1.087,1.3,1.072.883-.014,1.111.8,1.306,1.463a7.742,7.742,0,0,1,.36,3.023.808.808,0,0,0,.529.941,2.044,2.044,0,0,1,1.177,1.641c-.043.117-.182.231,0,.35a100.932,100.932,0,0,1,.148,12.118,17.376,17.376,0,0,1-.459,5.148c-.1.293-.249.568-.338.863a6.116,6.116,0,0,0-.4,2.776,24.8,24.8,0,0,1,.04,3.568" transform="translate(-5.908 -4.787)" fill="#b65e3d"/>
        <path id="Path_20716" data-name="Path 20716" d="M103.808,120.419c-.968,1.9-1.737,3.893-2.534,5.868-.355.879-.835,1.7-1.171,2.576-.205.539-.516,1.094-.077,1.7a.577.577,0,0,1-.1.717c-.056-.207.032-.479-.319-.611-.869,2.125-1.363,4.386-2.292,6.488-.717-.785-.412-1.716-.377-2.61,1.089-3.119,2.192-6.234,3.47-9.283a94.188,94.188,0,0,1,4.867-10.565c.414-.721.3-.959-.5-1.134a5.836,5.836,0,0,0-1.195-.164,3.321,3.321,0,0,1-.516-.031c-.527-.093-1.167-.251-1.115-.853.055-.664.753-.619,1.25-.547,1.506.224,3,.529,4.514.707a33.926,33.926,0,0,0,8.851.025,10.836,10.836,0,0,0,8.421-6.022,35.806,35.806,0,0,0,2.884-7.648c.467-1.78.885-3.573,1.353-5.351.087-.33.037-.776.527-.878l.847-.173a81.149,81.149,0,0,1-2.9,10.879,20.607,20.607,0,0,1-2.777,5.542c-.227.374-.394.784-.655,1.139a11.663,11.663,0,0,1-5.993,3.548c-1.831.376-3.7.459-5.547.671-1.505-.166-3.018-.251-4.53-.314a1.263,1.263,0,0,0-1.235.463,27.025,27.025,0,0,0-2.73,5.32c-.072.23-.153.454-.414.538" transform="translate(-4.3 -4.113)" fill="#b65e3d"/>
        <path id="Path_20717" data-name="Path 20717" d="M124.515,110.788a1.548,1.548,0,0,1,.721-.97c.231,1.018,1.205,1.506,1.681,2.378a9.51,9.51,0,0,1,1.267,3.841A13.374,13.374,0,0,1,116.82,130a16.276,16.276,0,0,1-6.579-.567c-.368-.662-1.127-.58-1.684-.881a8.189,8.189,0,0,1-4.358-7.037,2.529,2.529,0,0,0-.068-.334c.073-.173.144-.346.217-.52.455-.462.654-.052.823.272a3,3,0,0,1,.24,1,7.288,7.288,0,0,0,4.8,6.123,12.283,12.283,0,0,0,16.874-11.267,7.466,7.466,0,0,0-1.983-5.013c-.248-.3-.656-.5-.584-.991" transform="translate(-4.624 -4.876)" fill="#2d271f"/>
        <path id="Path_20718" data-name="Path 20718" d="M95.176,303.237a.651.651,0,0,1,.037-.722c1.414-2.688,1.849-5.7,2.882-8.518.183-.5.38-.995.613-1.6.333,1.886.218,3.664.425,5.417a3.249,3.249,0,0,0,.192,1.005,3.143,3.143,0,0,1-.205,2.879,3.465,3.465,0,0,0-3.944,1.543" transform="translate(-4.222 -12.983)" fill="#264741"/>
        <path id="Path_20719" data-name="Path 20719" d="M46.584,494.139a2.537,2.537,0,0,0,.356-.955c.163-3.622.348-7.241.509-10.863.084-1.885.133-3.771.2-5.656a9.18,9.18,0,0,1,.17,3.73c-.176,1.6.14,3.175-.048,4.756-.2,1.692.186,3.423-.3,5.094-.246.838.526,1.473.373,2.308-.144.788-.368,1.429-1.258,1.586" transform="translate(-2.068 -21.164)" fill="#1d3641"/>
        <path id="Path_20720" data-name="Path 20720" d="M143.014,498.684c.255-.286.592-.158.891-.155a36.552,36.552,0,0,0,7.32-.509,3.784,3.784,0,0,0,1.627-.712,2.33,2.33,0,0,1-2.528,1.6c-1.907-.124-3.81,0-5.715.029a9.176,9.176,0,0,1-1.595-.255" transform="translate(-6.35 -22.081)" fill="#1f3943"/>
        <path id="Path_20721" data-name="Path 20721" d="M109.746,135.53c-.034-.471-.373-.951.035-1.412l.36.354c-.162.237-.041.479-.011.718-.125.117-.023.49-.384.341" transform="translate(-4.866 -5.955)" fill="#3f574c"/>
        <path id="Path_20722" data-name="Path 20722" d="M150.193,117.9c-.141.028-.338.267-.4.011-.057-.22.255-.251.408-.361,0,.117,0,.233,0,.35" transform="translate(-6.651 -5.219)" fill="#b65e3d"/>
        <path id="Path_20723" data-name="Path 20723" d="M132.738,61.685c-.519.485-1.13.137-1.688.209a8.077,8.077,0,0,0-3.593,1.213A18.277,18.277,0,0,0,120.7,71.78c-.258.656-.537.893-1.267.688a9.967,9.967,0,0,0-6.4.738c-.128.049-.261.084-.455.145.07-.67.149-1.286.195-1.9a14.984,14.984,0,0,0-3.22-10.98,12.978,12.978,0,0,0-7.565-4.591,8.932,8.932,0,0,0-5.263.459,4.814,4.814,0,0,0-1.422.548.541.541,0,0,1-.5.01c-.039-.54.485-.352.711-.549a18.976,18.976,0,0,0,6.966-8.141,18.614,18.614,0,0,0,1.5-5.679,21.511,21.511,0,0,0-.193-5.678,3.327,3.327,0,0,1,2.145-3.416c4.318-1.64,8.148,1.2,8.584,5.623.222,2.257.3,4.613,1.755,6.6a4.053,4.053,0,0,0,5.025,1.334,8.4,8.4,0,0,1,2.489-1.01,2.589,2.589,0,0,1,3.108,2.115c.409,1.506.442,1.61,1.858,1.149a4.055,4.055,0,0,1,4.57,2.29,7.845,7.845,0,0,1,.24,1.658,10.008,10.008,0,0,1-.331,3.8,8.574,8.574,0,0,0-.3,2.095,2.072,2.072,0,0,1-.3,1.547c-.247.293.256.679.107,1.061" transform="translate(-4.209 -1.463)" fill="#f2966c"/>
        <path id="Path_20724" data-name="Path 20724" d="M76.174,75.945a4.927,4.927,0,0,1-1.608-.219,7.932,7.932,0,0,0,.779-4.991,12.55,12.55,0,0,0-.9-3.924c-.208-.441.309-.747.715-.9a5.746,5.746,0,0,0,3.77-4.848,11.957,11.957,0,0,0-.2-3.082c1.229.376,2.413.736,3.594,1.1,2.379.734,4.815.5,7.241.421.126,0,.249-.121.374-.186a9,9,0,0,0,1.5-.549c.313-.148.694-.458,1.082-.086a15.46,15.46,0,0,0-5.652,5.185,15.225,15.225,0,0,0-2.279,7.5c-.02.746,0,1.494,0,2.241,0,1.323-.053,1.385-1.4,1.644-.447.166-.936-.07-1.379.141a.562.562,0,0,0-.168.032,13.2,13.2,0,0,0-2.013.229c-.417.054-.859-.128-1.251.14a6.276,6.276,0,0,1-.984.033c-.414-.085-.77.407-1.2.121" transform="translate(-3.303 -2.574)" fill="#f2966c"/>
        <path id="Path_20725" data-name="Path 20725" d="M93.236,58.658a3.912,3.912,0,0,0-1.51.459,1.482,1.482,0,0,1-1.067.178c1.109-.574,2.221-1.145,3.326-1.726a2.975,2.975,0,0,1,1.349-.139l-.679.5c.057.334-.26.223-.392.332l-1.027.4" transform="translate(-4.025 -2.55)" fill="#3b1d18"/>
        <path id="Path_20726" data-name="Path 20726" d="M70.465,76.895a24.244,24.244,0,0,0-2.941-1.224,2.607,2.607,0,0,1,1.81-.128c.777.085.731.917,1.131,1.352" transform="translate(-2.998 -3.35)" fill="#3b1d18"/>
        <path id="Path_20727" data-name="Path 20727" d="M71.321,77.112c.074.313.578.318.517.727-.22-.2-.578-.243-.692-.576.031-.082-.066-.312.175-.151" transform="translate(-3.159 -3.421)" fill="#8c4726"/>
        <path id="Path_20728" data-name="Path 20728" d="M31.453,468.037c.075-.526.358-.538.8-.393,3.828,1.247,7.666,2.468,11.452,3.841a1.571,1.571,0,0,1,1.037,1.7c0,1.9.084,3.8-.019,5.693-.2,3.6-.483,7.194-.533,10.8-.011.76-.142,1.535-.136,2.308a.783.783,0,0,1-.713.9,5.476,5.476,0,0,1-.839.159c-2.953-.02-5.889.314-8.84.388-2.687.068-5.376.224-8.064.337-2.659.112-5.319.235-7.978.342-3.224.13-6.438.557-9.661.618-2.231.042-4.48.572-6.816-.024A48.31,48.31,0,0,1,7.3,491.874c3.057-1.224,6.122-2.432,9.176-3.664,1.389-.561,1.777-.5,2.83.549.733.731,1.453,1.475,2.206,2.187.255.242.568.555.953.142.242-.26.26-.522-.05-.725a22.364,22.364,0,0,1-2.706-2.75c-.358-.334-.34-.546.129-.729,1.147-.448,2.287-.913,3.43-1.371a.948.948,0,0,1,1.1.186c.99.91,2.01,1.788,3.015,2.682.256.227.525.583.85.169.294-.375.059-.706-.279-.941a28.95,28.95,0,0,1-2.5-2.362c-.361-.32-.287-.5.137-.623a.327.327,0,0,0,.084-.019c1.727-1.13,3.185-1.017,4.461.772a12.261,12.261,0,0,0,1.447,1.331c.208.206.443.456.733.189.319-.293.215-.631-.072-.9-.751-.707-1.5-1.414-2.272-2.1-.484-.431-.77-.748.088-1.116.671-.289.678-1,.712-1.635.12-2.285.156-4.578.375-6.853.2-2.084.084-4.177.312-6.255" transform="translate(-0.051 -20.76)" fill="#17323d"/>
        <path id="Path_20729" data-name="Path 20729" d="M25.921,479.239a6.933,6.933,0,0,1-2.83-5.218l2.83,5.218" transform="translate(-1.025 -21.047)" fill="#fff"/>
        <path id="Path_20730" data-name="Path 20730" d="M28.5,476.927a8.618,8.618,0,0,1,.333,3.57,6.984,6.984,0,0,1-.333-3.57" transform="translate(-1.26 -21.176)" fill="#fff"/>
        <path id="Path_20731" data-name="Path 20731" d="M112.957,473.988a110.761,110.761,0,0,0,.863,11.7c.149.884.514,1.5,1.495,1.586.548.046.7.287.39.8-.574.958-1.121,1.933-1.66,2.913-.17.311-.457.682.032.965s.649-.158.823-.469c.589-1.05,1.18-2.1,1.733-3.169a.908.908,0,0,1,1.143-.5c.639.146,1.268.343,1.909.48.508.11.622.371.377.8-.454.8-.927,1.58-1.385,2.375a4.638,4.638,0,0,0-.5.991c-.07.245-.46.612.022.8a.692.692,0,0,0,.853-.412c.387-.7.766-1.411,1.153-2.115.207-.376.441-.739.634-1.121a1.35,1.35,0,0,1,1.879-.672,9.078,9.078,0,0,0,1.925.4c.824.092.918.293.571,1.034a21.32,21.32,0,0,0-1.1,2.336c-.1.311-.149.578.2.719s.542-.06.667-.359c.255-.607.5-1.218.764-1.822a1.878,1.878,0,0,1,2.333-1.275c4.878,1.329,9.794,2.523,14.7,3.74,1.717.426,3.459.754,5.178,1.173.6.146,1.633.37,1.586.752-.07.57-1.021.438-1.6.608a12.268,12.268,0,0,1-3.406.281c-3.044.023-6.081.193-9.12.26q-4.419.1-8.838.356c-1.838.107-3.669.1-5.5.119-6.117.071-12.233.274-18.351.184-1.615-.024-1.8-.238-1.862-1.831-.14-3.573-.272-7.149-.534-10.714-.182-2.479-.386-4.954-.529-7.437a9.958,9.958,0,0,0-.311-2.8c.011-1.208.011-1.208,1.191-1.208,1.89,0,3.78,0,5.671,0,1.684,0,3.356-.279,5.046-.182a1.8,1.8,0,0,1,1.556.7" transform="translate(-4.418 -21.014)" fill="#17323d"/>
        <path id="Path_20732" data-name="Path 20732" d="M74.21,138.73a16.449,16.449,0,0,0,.386-2.542c.018-.267.1-.632.506-.542.325.072.3.347.255.627-.138.817-.239,1.641-.388,2.455-.046.239-.17.541-.52.421a.362.362,0,0,1-.239-.419" transform="translate(-3.295 -6.022)" fill="#284a43"/>
        <path id="Path_20733" data-name="Path 20733" d="M66.061,121.537l.682,1.028c-.07.274-.32.24-.514.3l-.706-.115c.27-.365.676-.671.538-1.216" transform="translate(-2.909 -5.396)" fill="#557e76"/>
        <path id="Path_20734" data-name="Path 20734" d="M53.866,299.558l-2.389,1.417" transform="translate(-2.286 -13.301)" fill="#819d98"/>
        <path id="Path_20735" data-name="Path 20735" d="M66.262,122.916l.514-.3c.28.4.692.716.722,1.256-.459-.257-.69-.809-1.237-.953" transform="translate(-2.942 -5.444)" fill="#557e76"/>
        <path id="Path_20736" data-name="Path 20736" d="M46.373,303.357c0,.361-.124.55-.512.353a.588.588,0,0,1,.512-.353" transform="translate(-2.036 -13.469)" fill="#365b54"/>
        <path id="Path_20737" data-name="Path 20737" d="M46.6,236.907a28.074,28.074,0,0,1,1.969-8.5,46.784,46.784,0,0,1,5.668-9.546,48.067,48.067,0,0,1,3.361-3.994,49.5,49.5,0,0,1,9.75-8.158A31.357,31.357,0,0,1,70.309,205a4.341,4.341,0,0,1,5.61,1.84,1.213,1.213,0,0,1-.165,1.489,78.607,78.607,0,0,1-6.915,6.815q-3.6,3.4-6.925,7.049A85.467,85.467,0,0,0,50.738,237.7c-.1.173-.226.33-.332.5-.344.551-.425,1.44-1.311,1.364a3.115,3.115,0,0,1-2.494-2.281,2.237,2.237,0,0,1,0-.374" transform="translate(-2.069 -9.084)" fill="#557e76"/>
        <path id="Path_20738" data-name="Path 20738" d="M128.176,92.023c-.716,2.158-1.1,4.4-1.725,6.582-.966,3.387-2.073,6.713-4.263,9.561a10.2,10.2,0,0,1-6.473,3.854,32.45,32.45,0,0,1-10.994-.106q-1.6-.257-3.193-.55c-.029,0-.057,0-.086-.007-.382-.034-.886.046-.939.36-.065.389.442.611.789.634.713.047,1.421.1,2.128.207.77.117,1.031.585.647,1.243a103.537,103.537,0,0,0-6.4,14.291c-.743,1.875-1.393,3.786-2.086,5.682-.4-.477-.2-1.044-.231-1.573-.123-2.257-.361-4.479-1.8-6.361a35.009,35.009,0,0,0-3.2-3.6c-.3-.3-.662-.573-.647-1.069a5.317,5.317,0,0,1,.688-1.833,15.362,15.362,0,0,0,1.353-6.579A16.9,16.9,0,0,0,88,102.3a9.978,9.978,0,0,0-6.445-3.54,19.394,19.394,0,0,0-4.264-.351,4.351,4.351,0,0,0-1.7.175c-4.135-.088-4.881.013-5.09-.035-.54-.362-1.168-.668-.96-1.507a7.949,7.949,0,0,0,4.9-.7,3.081,3.081,0,0,0,.543-.251.513.513,0,0,0,.157-.69c-.124-.28-.337-.226-.576-.126-.42.176-.853.323-1.282.478-2.831,1.02-5.232.235-7.388-1.715a12.48,12.48,0,0,1-4.048-6.812,11.137,11.137,0,0,1,1.433-8.633c.823-1.279,3.047-2.572,4.675-1.838a16.389,16.389,0,0,1,3.493,1.91,17.327,17.327,0,0,1,4.62,5.951c.024.015.048.032.073.046.334.195.261.9.783.77.481-.123.428-.7.519-1.1a5.343,5.343,0,0,0-.808-4.337c-.416-.618-.868-1.208-1.313-1.805-.136-.182-.282-.389-.132-.627s.391-.21.618-.165a1.32,1.32,0,0,0,.758-.007c2.4-.023,4.756-.434,7.134-.655.436-.04.678.185.857.635a16.975,16.975,0,0,0,3.692,6.19,12.888,12.888,0,0,0,9.117,3.833,13.346,13.346,0,0,0,9.843-4.193,10.417,10.417,0,0,0,2.687-4.311,5.154,5.154,0,0,1,4.764-3.772,7.571,7.571,0,0,1,2.276-.066c1.645.284,1.572.588,1.6,1.959a.864.864,0,0,1,.111.5,12.673,12.673,0,0,0,2.686,9.186,8.335,8.335,0,0,1,1.346,2.774,3.145,3.145,0,0,1-1.111,3.465,8.5,8.5,0,0,1-1.3.991c-.143.088-.314.221-.187.409s.317.1.465.012a6.1,6.1,0,0,0,2.526-2.515c.141-.277.171-.7.642-.679,1.144.638,2.39.256,3.587.357.376.031.85-.114.87.516" transform="translate(-2.733 -3.33)" fill="#f2966c"/>
        <path id="Path_20739" data-name="Path 20739" d="M87.015,103.52a14.166,14.166,0,0,1,3.4,7.025c.129.9.395,1.777.506,2.693a11.006,11.006,0,0,1-.646,5.109,14.142,14.142,0,0,1-3.234,5.664,9.819,9.819,0,0,1-4.738,2.639,18.311,18.311,0,0,1-4.041.589,13.755,13.755,0,0,1-3.134-.775,13.736,13.736,0,0,1-4.592-2.035,3.654,3.654,0,0,0-.719-.544,8.218,8.218,0,0,1-2.762-3.062A10.188,10.188,0,0,1,65.2,114.7a15.5,15.5,0,0,1,1.537-5.416,30.727,30.727,0,0,1,2.413-4.23,7.087,7.087,0,0,1,3.364-3.085,2.311,2.311,0,0,0,.485-.334l.965-.358c.31-.25.724-.193,1.061-.363l-.014.01c.321-.228.746.081,1.056-.2l.515-.085a2.657,2.657,0,0,0,1.222-.057l2.9.007c.33.2.722-.032,1.055.153a16.653,16.653,0,0,1,2.567.874c.224.128.5.148.689.35l.661.494a3.93,3.93,0,0,1,1.339,1.06" transform="translate(-2.894 -4.466)" fill="#bf4f1b"/>
        <path id="Path_20740" data-name="Path 20740" d="M90.747,123.312c.847,1.115,1.9,2.039,2.838,3.076a10.217,10.217,0,0,1,2.9,6.371c.067,1.054.069,2.108.142,3.16a7.047,7.047,0,0,0,.161,2.6,28.806,28.806,0,0,0-.554,5.828c-.142,2.367-.081,4.731-.155,7.1-.108.226-.23.4-.482.141a20.29,20.29,0,0,1-2.584-5.045c-.75-2.626-1.323-5.32-2.3-7.858a50.438,50.438,0,0,0-3.555-7.421,7.668,7.668,0,0,0-1.271-1.384,3.138,3.138,0,0,1-.873-1.544,19.125,19.125,0,0,0,5.737-5.024" transform="translate(-3.775 -5.475)" fill="#bf4f1b"/>
        <path id="Path_20741" data-name="Path 20741" d="M63.693,107.516c.034-.461-.27-.73-.565-1.006a16.971,16.971,0,0,1-3.524-4.4,11.718,11.718,0,0,1-.634-9.388,7.811,7.811,0,0,1,1.159-2.658c.277-.344.341-1.089,1.1-.715.012-.114.026-.227.039-.339a8.832,8.832,0,0,0,2.26,4.677A9.072,9.072,0,0,0,66.843,96.6a5.567,5.567,0,0,1,1.146.876,4.451,4.451,0,0,1,1.563,2.085c-.463.788-1.369,1.059-1.971,1.7a19.6,19.6,0,0,0-3.888,6.258" transform="translate(-2.588 -3.952)" fill="#453c2f"/>
        <path id="Path_20742" data-name="Path 20742" d="M71.356,100.309c.22-.067.7-.327.917-.394.846.769.5.832-.334,1.942a24.775,24.775,0,0,1-2.884,2.859c-.147.134-.272.283-.416.418a11.263,11.263,0,0,0-2.385,4.039,5.161,5.161,0,0,1-.344.786c-.209.385-.51.666-.974.436a.728.728,0,0,1-.352-1.024c.367-.871.7-1.759,1.138-2.6a18.623,18.623,0,0,1,5.136-6.162c.156-.122.36-.158.5-.3" transform="translate(-2.864 -4.436)" fill="#bf4f1b"/>
        <path id="Path_20743" data-name="Path 20743" d="M68.476,104.766a15.7,15.7,0,0,1,3.3-3.276c1.569-.881,4.191-1.9,6.181-.9a15.738,15.738,0,0,0-6.736,2.378c-.843.774-5.166,6.425-5.428,7.867.043-.764-1.416,1.546,2.683-6.07" transform="translate(-2.912 -4.448)" fill="#f29f46"/>
        <path id="Path_20744" data-name="Path 20744" d="M70,99.949a21.554,21.554,0,0,1-1.563-2.085c.476.028.979-.153,1.412.19.059.668.664.989.96,1.506L70,99.949" transform="translate(-3.039 -4.344)" fill="#302920"/>
        <path id="Path_20745" data-name="Path 20745" d="M77.115,100.639l1.223-.056" transform="translate(-3.424 -4.466)" fill="#6f4b2c"/>
        <path id="Path_20746" data-name="Path 20746" d="M70.037,124.967a.768.768,0,0,1,.719.544,1.106,1.106,0,0,1-.719-.544" transform="translate(-3.11 -5.549)" fill="#9d5b2b"/>
        <path id="Path_20747" data-name="Path 20747" d="M77.029,77.493c-.4.3-.888.023-1.383.229.5.787,1.086,1.489,1.616,2.22,1.293,1.779,1.148,3.663.638,5.615a.464.464,0,0,1-.5.363c-.27.008-.506,0-.592-.326-.077-.3-.181-.587-.272-.88a.893.893,0,0,0,0-.9,19.049,19.049,0,0,0-3.111-4.486c-.429-.467-1.219-.518-1.539-1.169a.97.97,0,0,1,1.161-.712c1.325.142,2.662-.365,3.989.043" transform="translate(-3.191 -3.434)" fill="#3b1e18"/>
        <path id="Path_20748" data-name="Path 20748" d="M109.594,135.58l.384-.34a35.386,35.386,0,0,1,4.835,11.2c.536,2.647,1.211,5.265,1.774,7.907,1.84,8.635,4.574,17.035,6.7,25.595.494,1.983,1.05,3.952,1.594,5.99a1.149,1.149,0,0,0,.352-1.364c-.137-.484-.094-.773.522-.893,3.275-.628,5.161-2.906,6.677-5.649a22.286,22.286,0,0,0,2.059-4.529c.68-2.352,1.379-4.7,1.829-7.114.262-1.4.5-2.809.832-4.2.364-1.535.456-3.113.8-4.645a60.406,60.406,0,0,0,1.21-9.578c.055-.884.15-1.768.149-2.655,0-.485.147-.7.682-.757,2.134-.238,4.284-.137,6.419-.327.653-.058,1.293-.187,1.958-.2.726-.01,1,.284,1.146.959a33.319,33.319,0,0,1,.284,3.749,32.1,32.1,0,0,1,.03,4.395c-.1,3.331.249,6.654.168,9.98-.069,2.858-.235,5.713-.357,8.571-.16.268.036.6-.146.862-.034,2.683-.384,5.338-.66,8-.32,3.085-.808,6.137-1.415,9.172a31.488,31.488,0,0,1-3.982,11.123,23.42,23.42,0,0,1-7.554,6.953,10.581,10.581,0,0,1-5.53,1.84c-.65.01-.836-.272-.885-.861a131.463,131.463,0,0,0-2.017-15.643c-.137-.666-.794-.6-.929-1.1-.08-.09-.191-.158-.213-.29-.042.1.05.181.046.276.324,1.9.675,3.8.962,5.714.241,1.6.408,3.215.6,4.824q.335,2.749.665,5.5c.116.964.044,1.932.155,2.909a43.821,43.821,0,0,1,.343,6.238c-.043,1.484-.119,2.971-.124,4.458-.01,3.806.122,7.616-.043,11.414-.136,3.129.046,6.259-.172,9.373-.157,2.238-.035,4.47-.152,6.7a2.132,2.132,0,0,0-.006,1.172c-.253,2.1-.033,4.218-.291,6.32-.148,1.215.007,2.45-.182,3.678a19.968,19.968,0,0,1-.48,2.683c-1.754-9.246-4.149-18.325-6.808-27.338a4.04,4.04,0,0,1-.487-1.557l0,.012a4.023,4.023,0,0,1-.353-1.239,19.47,19.47,0,0,0-1.065-3.954c-.5-1.411-.8-2.877-1.18-4.321a30.057,30.057,0,0,0-1.138-4.452q-2.523-9.793-4.514-19.705c-.784-3.925-1.288-7.907-1.959-11.858a32.165,32.165,0,0,0-.7-4.016c-.153-.331.057-.713-.141-1.04-.041-.46.142-.954-.2-1.369-.168-.33.055-.715-.148-1.04-.009-.115-.018-.229-.027-.343-.162-.331.056-.714-.145-1.04-.058-1.789-.413-3.544-.607-5.319-.181-1.664-.417-3.323-.6-4.984-.239-2.144-.456-4.291-.671-6.437-.088-.878-.067-1.759-.163-2.643-.213-1.952-.205-3.927-.4-5.88-.087-.853-.114-1.7-.167-2.557.266-1.618.875-3.15,1.158-4.768.525-3,1.3-5.956,1.638-8.994a22.227,22.227,0,0,0,.342-2.35c0-.184.154-.215.3-.239" transform="translate(-4.714 -6.005)" fill="#557e76"/>
        <path id="Path_20749" data-name="Path 20749" d="M100.23,133.819q1.018,3.338,2.034,6.678c.489,1.615.968,3.233,1.456,4.849a35.333,35.333,0,0,1,1.159,6.564c.226,2.414.335,4.836.523,7.251.231,2.98.463,5.961.8,8.935.336,3,.735,5.987,1.092,8.982.384,3.217.939,6.412,1.339,9.628.459,3.7,1.131,7.361,1.776,11.027q.91,5.165,2.08,10.28,1.531,6.74,3.254,13.436c1.324,5.1,2.749,10.167,4.157,15.241,1.27,4.58,2.646,9.131,3.763,13.753.2.832.14.889-.695.685-3.646-.888-7.3-1.711-11-2.363l-.085-.012c-1.478-.247-1.71-.48-1.676-1.987a15.443,15.443,0,0,0-.391-2.365c-.369-2.815-.983-5.6-1.251-8.424-.29-3.065-.748-6.1-1.133-9.153-.44-3.478-.686-6.981-1.332-10.434-.178-.951-.084-1.94-.169-2.915-.234-2.677-.843-5.3-1.049-7.978-.152-1.966-.279-3.94-.573-5.886-.355-2.338-.5-4.695-.766-7.04-.175-1.563-.25-3.137-.4-4.7-.163-1.678-.363-3.352-.561-5.026-.36-3.041-1.125-6.016-1.354-9.077-.309-4.132-.754-8.253-.881-12.4-.081-2.658-.495-5.3-.479-7.969.01-1.658.048-3.319-.023-4.974-.059-1.373-.2-2.741-.19-4.12a11.18,11.18,0,0,1,.058-1.192,53.124,53.124,0,0,0,.478-6.812c-.009-.828-.022-1.652.048-2.477" transform="translate(-4.424 -5.942)" fill="#557e76"/>
        <path id="Path_20750" data-name="Path 20750" d="M139.514,142.6a4.1,4.1,0,0,1-.178-2.092c.179-2.493-.414-3.657-2.687-4.73a4.457,4.457,0,0,1-2.491-3.811,26.088,26.088,0,0,1-.138-5.666c.2-2.512.12-5.084,1.145-7.48.144-.337.261-.672.67-.662.431.01.439.444.489.715a10.274,10.274,0,0,1,.149,3.656,9.135,9.135,0,0,0,.185,3.833c.309,1.175,1.479,1.673,2.853,1.343a16.611,16.611,0,0,1,2.864-.456A3.59,3.59,0,0,1,145.9,129.6c.222.448.294,1.353.951,1.042.687-.326-.07-.912-.23-1.36a5.54,5.54,0,0,0-1.005-1.688,2,2,0,0,1-.411-1.363q0-7.16,0-14.319c0-.367-.072-.774.475-.855.519-.078.747.233.868.643a7,7,0,0,1,.392,2.094c-.032,1.782.107,3.575-.041,5.346-.172,2.063-.067,4.124-.181,6.184-.017.318-.158.836.37.885.618.056.581-.481.52-.858a36.475,36.475,0,0,1,.031-4.7c-.037-1.2.1-2.4.157-3.6.01-.191-.039-.433.261-.451.239-.013.358.154.436.35a4.252,4.252,0,0,1,.338,1.578c0,4.967-.3,9.931-.177,14.9a3.179,3.179,0,0,1-.444,1.462,7.193,7.193,0,0,0-.6,2.565,12.554,12.554,0,0,0,0,3.575,1.736,1.736,0,0,1-.141,1.093,2.209,2.209,0,0,1-1.274.309c-2.227.032-4.448.355-6.681.164" transform="translate(-5.947 -4.931)" fill="#f2966c"/>
        <path id="Path_20751" data-name="Path 20751" d="M137.813,154.4a8.567,8.567,0,0,1-.315,3.58,13.063,13.063,0,0,1,.315-3.58" transform="translate(-6.104 -6.856)" fill="#264741"/>
        <path id="Path_20752" data-name="Path 20752" d="M96.087,152.894l.481-.14c.271.208.208.473.131.763a.916.916,0,0,1-.612-.622" transform="translate(-4.266 -6.782)" fill="#bf4f1b"/>
        <path id="Path_20753" data-name="Path 20753" d="M138.81,154.611a1.6,1.6,0,0,1,.038-1.3c.292.5-.006.771-.038,1.3" transform="translate(-6.158 -6.807)" fill="#264741"/>
        <path id="Path_20754" data-name="Path 20754" d="M97.782,158.193a2.386,2.386,0,0,1-.009,1.261,2.409,2.409,0,0,1,.009-1.261" transform="translate(-4.338 -7.024)" fill="#264741"/>
        <path id="Path_20755" data-name="Path 20755" d="M129.622,255.622a1.056,1.056,0,0,1,.007-1.172q0,.586-.007,1.172" transform="translate(-5.748 -11.298)" fill="#749690"/>
        <path id="Path_20756" data-name="Path 20756" d="M97.957,160.07a1.692,1.692,0,0,1,.012,1.067,1.636,1.636,0,0,1-.012-1.067" transform="translate(-4.346 -7.107)" fill="#264741"/>
        <path id="Path_20757" data-name="Path 20757" d="M151.508,174.242c.022-.292-.1-.609.145-.863-.047.288.189.624-.145.863" transform="translate(-6.727 -7.698)" fill="#799a94"/>
        <path id="Path_20758" data-name="Path 20758" d="M118.372,477.169a28.678,28.678,0,0,1-.334,5.647c-.806-.982-.64-4.012.334-5.647" transform="translate(-5.218 -21.187)" fill="#fff"/>
        <path id="Path_20759" data-name="Path 20759" d="M121.374,482.254a7.641,7.641,0,0,1,2.974-2.974l-2.974,2.974" transform="translate(-5.389 -21.281)" fill="#fff"/>
        <path id="Path_20760" data-name="Path 20760" d="M111.485,71.17a14.613,14.613,0,0,1-3.184,9.671,12.186,12.186,0,0,1-8.04,4.744c-5.387.691-9.578-1.863-12.182-6.109a12.988,12.988,0,0,1-2.12-7.776,14.232,14.232,0,0,1,3.192-8.381,15.6,15.6,0,0,1,6.411-4.8,10.533,10.533,0,0,1,10.963,1.8,13.777,13.777,0,0,1,4.949,9.131,11.765,11.765,0,0,1,.011,1.722" transform="translate(-3.816 -2.563)" fill="#f2966c"/>
        <path id="Path_20761" data-name="Path 20761" d="M131.231,89.317c-.21.731-.892.756-1.43.819a4.966,4.966,0,0,1-3.415-.669c-.392-.115-.5-.462-.6-.786a11.668,11.668,0,0,0-1.981-3.7,10.868,10.868,0,0,1-1.984-7.57,1.305,1.305,0,0,1,.207-.733c.014-.355.1-.807.393-.9.977-.306.617-.689.163-1.158a.517.517,0,0,1-.049-.619c1.459-3.431,3.388-6.481,6.652-8.5a9.5,9.5,0,0,1,4.058-1.39c.335-.036.7-.068.906.313a27.6,27.6,0,0,1,1.022,3.7,7.7,7.7,0,0,1-.222,2.65c-1.168,5.924-2.158,11.881-3.337,17.8a1.072,1.072,0,0,1-.389.737" transform="translate(-5.407 -2.846)" fill="#f2966c"/>
        <path id="Path_20762" data-name="Path 20762" d="M134.2,81c-.394,2.069-.781,4.138-1.184,6.2a10.833,10.833,0,0,1-.5,2.267l-.852.014q.678-3.6,1.356-7.207c.731-3.854,1.479-7.7,2.188-11.563.148-.809.156-1.646.228-2.469.471-.462.927-.29,1.379.033-.755.486-.424,1.284-.561,1.948-.561,2.717-1.131,5.432-1.67,8.153a1.7,1.7,0,0,0,.006,1.062c-.237.492-.643.942-.392,1.558" transform="translate(-5.846 -3.018)" fill="#b65e3d"/>
        <path id="Path_20763" data-name="Path 20763" d="M122,77.258a20.072,20.072,0,0,0,.187,4.061,9.462,9.462,0,0,0,1.537,3.769,12.359,12.359,0,0,1,2.355,4.423,2.619,2.619,0,0,0,.274.534q0,.6.008,1.2c-.287.483-.582.961-.857,1.451a6.645,6.645,0,0,1-2.289,2.018.554.554,0,0,1-.884-.156c-.245-.409.126-.568.384-.7a6.681,6.681,0,0,0,1.69-1.3,3.1,3.1,0,0,0,.457-3.723,10.826,10.826,0,0,0-1.412-2.442,11.452,11.452,0,0,1-2.307-5.893,9.038,9.038,0,0,1,.039-3.4,1.066,1.066,0,0,0,.818.153" transform="translate(-5.373 -3.424)" fill="#b65e3d"/>
        <path id="Path_20764" data-name="Path 20764" d="M136.957,68.12c-.461.045-.914-.209-1.379-.033-.207-1.236-.994-2.336-.847-3.654a1.911,1.911,0,0,1,1.576.1c1.208.407,2.39.9,3.552,1.423a2.668,2.668,0,0,1,1.238,1.259c.11.078.228.162.176.32-.032.093-.119.074-.195.035a13.249,13.249,0,0,1-4.122.546" transform="translate(-5.981 -2.855)" fill="#3b1e18"/>
        <path id="Path_20765" data-name="Path 20765" d="M79.809,76.408a4.254,4.254,0,0,1,2.058-.178,9.694,9.694,0,0,1-2.062.294c0-.039,0-.077,0-.117" transform="translate(-3.543 -3.383)" fill="#bf4f1b"/>
        <path id="Path_20766" data-name="Path 20766" d="M141.374,67.71c.209-.108.033-.236.019-.355a.724.724,0,0,1,.683.887l-.7-.531" transform="translate(-6.277 -2.991)" fill="#bf4f1b"/>
        <path id="Path_20767" data-name="Path 20767" d="M76.257,76.771c.4.047.743-.29,1.155-.178.057.031.076.061.055.09a.079.079,0,0,1-.059.042c-.388-.077-.743.662-1.152.046" transform="translate(-3.386 -3.4)" fill="#bf4f1b"/>
        <path id="Path_20768" data-name="Path 20768" d="M82.139,76.19c.429-.349.919-.1,1.379-.141-.438.266-.917.116-1.379.141" transform="translate(-3.647 -3.375)" fill="#bf4f1b"/>
        <path id="Path_20769" data-name="Path 20769" d="M77.462,76.722c0-.044,0-.088,0-.133l1.023-.033c.094-.083.167-.068.221.044a2.326,2.326,0,0,1-1.248.122" transform="translate(-3.439 -3.397)" fill="#bf4f1b"/>
        <path id="Path_20770" data-name="Path 20770" d="M78.758,76.593l-.221-.045c.374-.335.808-.112,1.216-.134,0,.039,0,.078,0,.117l-.991.062" transform="translate(-3.487 -3.391)" fill="#bf4f1b"/>
        <path id="Path_20771" data-name="Path 20771" d="M94.43,58.283l.392-.332.465.042a.887.887,0,0,1-.857.29" transform="translate(-4.193 -2.573)" fill="#6a3a20"/>
        <path id="Path_20772" data-name="Path 20772" d="M139.947,119.779c0-1.9-.05-3.8.016-5.692a11.807,11.807,0,0,1,.634-3.775c.105-.279.184-.647.481-.625s.363.407.415.688a16.668,16.668,0,0,1,.35,2.965c.009,3.8,0,7.59,0,11.385a3.737,3.737,0,0,0,.025.688.456.456,0,0,0,.587.363c.312-.046.479-.252.379-.548a6.4,6.4,0,0,1-.117-2.221c.038-2.41-.308-4.809-.184-7.221a19.962,19.962,0,0,0,.019-4.352,3.027,3.027,0,0,1,.473-1.968c.184-.326.388-.747.785-.68.373.063.539.494.608.871a19.9,19.9,0,0,1,.342,2.19,14.491,14.491,0,0,1,0,2.585,32.263,32.263,0,0,0-.011,5.992c.134,1.8.026,3.621.034,5.432,0,.571-.34.7-.794.608a6.333,6.333,0,0,0-3.382.113c-.621.212-.655-.24-.656-.675q0-3.062,0-6.123" transform="translate(-6.213 -4.83)" fill="#f2966c"/>
        <path id="Path_20773" data-name="Path 20773" d="M124.525,110.833a23.406,23.406,0,0,1,1.712,2.139,8.548,8.548,0,0,1,.725,6.8,12.258,12.258,0,0,1-6.564,8.168,11.732,11.732,0,0,1-11.653-.326,7.127,7.127,0,0,1-3.509-5.336,11.494,11.494,0,0,0-.2-1.179c-.084-.322-.264-.6-.682-.394a2.156,2.156,0,0,1,.3-1.135,27.779,27.779,0,0,0,1.65-3.111c.56-1.322,1.4-2.078,2.881-1.794,1.265.243,2.569.012,3.819.365.542.419.4.8-.124,1.046-.57.269-1.155.513-1.734.766a1.18,1.18,0,0,1-1.372-.049c-.236-.2-.506-.217-.581.16-.119.6-.561.828-1.059,1.021-.179.069-.445.147-.346.4s.348.109.534.064c1.231-.3,1.588-.095,2.05,1.075a1,1,0,0,1-.5,1.436c-.56.293-1.134.56-1.692.857-.241.129-.556.186-.635.529.243.264.48.08.7-.011.664-.274,1.323-.561,1.967-.881.327-.161.686-.252.938.094a3.815,3.815,0,0,1,.826,2.137,1.12,1.12,0,0,1-.616.97c-.452.311-.97.5-1.428.8-.118.077-.249.188-.163.352.078.146.237.137.381.1a3.266,3.266,0,0,0,.843-.424c1.239-.722,1.56-.651,2.38.52a.218.218,0,0,0,.243.1c.209-.114.068-.277.008-.424-.365-.882-.245-1.317.57-1.768a18.5,18.5,0,0,1,1.982-.845.8.8,0,0,1,1.028.395c.149.211.264.444.416.654a.256.256,0,0,0,.3.107c.188-.066.161-.219.106-.356-.2-.5-.572-.989-.281-1.549.275-.53.893-.594,1.372-.829,1.462-.718,1.725-.629,2.645.744a.322.322,0,0,0,.317.2c.169-.384-.114-.68-.253-.992-.434-.97-.359-1.194.592-1.7a9.712,9.712,0,0,0,1.288-.693c.071-.053.112-.13.082-.291-.513-.145-.9.214-1.315.409-1.29.607-1.593.516-2.233-.74-.078-.154-.159-.307-.231-.462-.431-.915-.33-1.173.6-1.587,1.312-.583,2.612-1.2,3.926-1.776a1.479,1.479,0,0,0,.378-.2c.112-.1.221-.206.121-.363-.068-.108-.194-.1-.31-.079a2.678,2.678,0,0,0-.715.3c-1.116.6-2.3,1.049-3.433,1.61a1.455,1.455,0,0,1-1.978-.477c-.231-.347-.414-.726.081-1.032a12.666,12.666,0,0,0,5.836-3.5" transform="translate(-4.634 -4.921)" fill="#453c2f"/>
        <path id="Path_20774" data-name="Path 20774" d="M118.819,114.466a.792.792,0,0,0,.256,1.13,1.2,1.2,0,0,0,1.412.277c1.177-.593,2.379-1.14,3.571-1.707.207-.1.406-.22.621-.3.29-.106.646-.265.828.112s-.053.638-.418.8c-.735.324-1.459.67-2.193,1-.785.348-1.577.679-2.363,1.023-.183.079-.454.166-.442.368a4.265,4.265,0,0,0,.933,2.083c.315.47.829.151,1.246-.046.441-.207.879-.42,1.328-.608.283-.119.584-.143.715.216.116.318-.117.466-.362.588-.515.254-1.023.525-1.545.763s-.695.547-.366,1.078a7.361,7.361,0,0,1,.531,1.082c.122.3-.072.511-.3.641-.332.188-.353-.164-.474-.326a1.667,1.667,0,0,1-.116-.23c-.645-1.194-.914-1.282-2.162-.706-.131.06-.258.126-.387.19-1.33.657-1.332.658-.735,2.052.1.241.278.493-.117.608-.255.074-.573.373-.728-.179a3.8,3.8,0,0,0-.474-.812c-.182-.309-.415-.333-.73-.19-.6.27-1.218.5-1.819.768-.846.38-.974.85-.5,1.67.133.228.427.5-.02.694-.345.152-.584.155-.761-.333-.343-.951-.757-1.062-1.66-.591-.406.212-.791.462-1.2.673-.3.158-.635.2-.82-.165-.195-.378.058-.577.373-.727.337-.161.674-.323,1-.5,1.066-.576,1.19-.929.739-2.06-.01-.027-.025-.052-.036-.078-.548-1.3-.544-1.289-1.82-.667-.541.264-1.1.49-1.647.738-.309.141-.641.227-.834-.125-.221-.4.132-.551.416-.695.667-.336,1.32-.708,2.009-.991.749-.307.794-.754.482-1.416-.482-1.021-.685-1.128-1.712-.8-.323.1-.764.434-.951-.109-.165-.478.178-.671.642-.782s.995-.267.87-.947c-.053-.284.114-.347.32-.4.224-.063.455-.157.586.142.218.5.579.357.935.209.688-.284,1.374-.573,2.059-.863.5-.21.262-.54.136-.851l5.678-.695" transform="translate(-4.763 -5.05)" fill="#2d271f"/>
        <path id="Path_20775" data-name="Path 20775" d="M119.058,102.517c.439,1.06-.182,1.761-.863,2.4a5.985,5.985,0,0,1-3.839,1.565c-5.1.27-9.654-1.087-13.348-4.789-.122-.121-.245-.244-.356-.375a2.1,2.1,0,0,1-.445-2.385,2.068,2.068,0,0,1,2.141-.974,7.071,7.071,0,0,1,2.405.616c2.079.826,4.146,1.687,6.253,2.436a18.263,18.263,0,0,0,6.882.848c.325-.012.691-.164.972.152-.385.344.206.309.2.507" transform="translate(-4.44 -4.349)" fill="#8a2b18"/>
        <path id="Path_20776" data-name="Path 20776" d="M68.749,87.616c.2,1.362.415,2.86.637,4.358.044.3.267.708-.136.813-.484.127-.506-.4-.563-.695a19.758,19.758,0,0,1-.6-5.016,3.122,3.122,0,0,0-1.558-3.028c-.6-.393-1.173-.824-1.763-1.23-.238-.163-.406-.374-.257-.646.188-.345.463-.132.658,0,.8.554,1.6,1.11,2.373,1.707.454.352.693.273.835-.259a5.9,5.9,0,0,1,.192-.656.386.386,0,0,1,.55-.254.346.346,0,0,1,.125.521c-.813,1.525.049,2.594,1.024,3.569a25.329,25.329,0,0,1,2.991,4.4c.155.236.168.442-.112.561-.316.133-.465-.095-.6-.333a30.516,30.516,0,0,0-2.723-4.07,1.509,1.509,0,0,0-.146-.212c-.245-.211-.393-.706-.763-.549-.3.125-.072.575-.171,1.02" transform="translate(-2.862 -3.64)" fill="#b65e3d"/>
        <path id="Path_20777" data-name="Path 20777" d="M117.243,95.309c-.534-.071-1.075-.128-1.61-.218-.26-.044-.526-.158-.476-.494a.568.568,0,0,1,.515-.506,4.9,4.9,0,0,1,2.272.36.381.381,0,0,1,.249.487c-.153.528-.6.3-.951.37" transform="translate(-5.113 -4.176)" fill="#b75f3e"/>
        <path id="Path_20778" data-name="Path 20778" d="M119.916,102.705c-.219-.087-.54-.1-.576-.365-.029-.212.245-.1.379-.142.2.117.186.317.2.507" transform="translate(-5.299 -4.538)" fill="#62271a"/>
        <path id="Path_20779" data-name="Path 20779" d="M79.414,115.934a2.853,2.853,0,0,1,1.053-2.333,1.026,1.026,0,0,0,.166-1.628,24.123,24.123,0,0,1-1.958-2.926c-.357-.591-.639-.678-1.032-.032-1.159,1.91-2.342,3.807-3.515,5.711a.767.767,0,0,0,.262,1.175c1.1.746,1.885,1.834,2.926,2.657a1.766,1.766,0,0,1,.3,2.08,1.117,1.117,0,0,1-1.056.861c-1.007.044-1.683-.8-1.156-1.71.683-1.182.17-1.867-.655-2.572-.7-.6-1.371-1.219-2.081-1.8a2.905,2.905,0,0,1-1.022-3.3,36.583,36.583,0,0,1,3.451-6.912c.534-.944,1.377-.878,2.045.069.407.577.648,1.284,1.595,1.182.358-.038.313.352.181.589a1.113,1.113,0,0,0,.186,1.266c.73,1.13,1.431,2.273,2.223,3.367a4,4,0,0,1-.066,4.745c-.276.376-.558.9-1.157.687a1.023,1.023,0,0,1-.688-1.181" transform="translate(-3.174 -4.642)" fill="#f9a94b"/>
        <path id="Path_20780" data-name="Path 20780" d="M101.87,62.28a.722.722,0,0,1-.377.718,28.72,28.72,0,0,0-5.352,4.847,7.882,7.882,0,0,1-.743.72.661.661,0,0,1-1.113-.386,1.25,1.25,0,0,1,.117-.834,12.43,12.43,0,0,1,4.538-5.509,2.653,2.653,0,0,1,2.222-.382c.4.1.765.3.709.828" transform="translate(-4.185 -2.724)" fill="#3b1e18"/>
        <path id="Path_20781" data-name="Path 20781" d="M99.5,76.721c0-2.093,1.616-3.372,3.116-2.705.527.235.765.5.214.988a1.144,1.144,0,0,0-.283,1.481.986.986,0,0,0,1.339.427c.638-.207.445.2.4.481-.252,1.4-1.044,2.236-2.1,2.258a2.527,2.527,0,0,1-2.537-2.145c-.083-.332-.121-.674-.14-.785" transform="translate(-4.418 -3.279)" fill="#3b1e18"/>
        <path id="Path_20782" data-name="Path 20782" d="M127.579,80.144c-1.627.405-2.724-.419-2.7-2.017,0-.269-.01-.467.365-.332a1.192,1.192,0,0,0,1.625-.528c.394-.692-.082-1.129-.442-1.606-.067-.089-.133-.18-.2-.275,1.549-.715,2.768-.049,3.1,1.647a2.916,2.916,0,0,1-.2,1.917c-.42.521-1.193.585-1.542,1.194" transform="translate(-5.545 -3.335)" fill="#3c1e18"/>
        <path id="Path_20783" data-name="Path 20783" d="M129.766,66.85a5.561,5.561,0,0,1,3.8,2.562c.355.524.541,1.147-.061,1.625s-1.128.16-1.591-.3a13.758,13.758,0,0,0-3.289-2.48c-.174-.092-.378-.157-.4-.4.409-.492,1.044-.638,1.538-1" transform="translate(-5.693 -2.968)" fill="#3c1e18"/>
        <path id="Path_20784" data-name="Path 20784" d="M127.69,80.323c-.193-.053-.473-.278-.238-.338.665-.17,1.087-.792,1.78-.856a1.771,1.771,0,0,1-1.542,1.195" transform="translate(-5.655 -3.513)" fill="#241a19"/>
        <path id="Path_20785" data-name="Path 20785" d="M129.766,66.85a2.72,2.72,0,0,1-1.538,1c.043-1.054.911-.843,1.538-1" transform="translate(-5.693 -2.968)" fill="#2c211e"/>
        <path id="Path_20786" data-name="Path 20786" d="M113.761,123.87a.682.682,0,0,1-.649-.354,18.463,18.463,0,0,0-.912-1.832c-.15-.2.055-.349.228-.472a25.978,25.978,0,0,1,2.57-1.361c.3-.164.409.023.517.241q.248.5.5,1c.688,1.374.695,1.388-.691,2.124a4.123,4.123,0,0,1-1.561.656" transform="translate(-4.98 -5.319)" fill="#453c2f"/>
        <path id="Path_20787" data-name="Path 20787" d="M120.623,120.084a.681.681,0,0,1-.677.741c-.824.11-1.407,1.3-2.312.691a1.684,1.684,0,0,1,.2-3.042c.508-.256,1.177-.844,1.642-.441a6.861,6.861,0,0,1,1.141,1.952c.012.023,0,.057,0,.1" transform="translate(-5.185 -5.235)" fill="#453c2f"/>
        <path id="Path_20788" data-name="Path 20788" d="M114.839,118.42a.855.855,0,0,1-.065.246,7.482,7.482,0,0,1-2.9,1.336c-.712-.238-.842-.9-.97-1.5-.11-.519.392-.528.723-.658.556-.218,1.1-.472,1.667-.662a1.178,1.178,0,0,1,1.541,1.243" transform="translate(-4.924 -5.2)" fill="#453c2f"/>
        <path id="Path_20789" data-name="Path 20789" d="M117.67,115.488a1.2,1.2,0,0,1,1.131.779c.2.554-.226.751-.636.93a15.448,15.448,0,0,1-1.65.716c-.994.3-.875-.7-1.165-1.15s.271-.527.545-.646c.495-.217,1.016-.377,1.527-.559.081-.029.165-.047.248-.07" transform="translate(-5.118 -5.128)" fill="#453c2f"/>
        <path id="Path_20790" data-name="Path 20790" d="M115.27,105.839a16.128,16.128,0,0,1-10.722-2.155,5.758,5.758,0,0,1,4.7.8,7.176,7.176,0,0,1,.633.444c.331.242.6.335.751-.194a.637.637,0,0,1,.748-.436,5.726,5.726,0,0,1,3.887,1.538" transform="translate(-4.642 -4.594)" fill="#f1966c"/>
        <path id="Path_20791" data-name="Path 20791" d="M102.968,98.719c4.7,1.637,9.035,4.239,14.251,4.012-2.33,1.411-12.991-1.679-14.251-4.012" transform="translate(-4.572 -4.383)" fill="#f1956b"/>
        <path id="Path_20792" data-name="Path 20792" d="M72.247,113.187a12.256,12.256,0,0,1,1.516-3.968c.592-1.109,1.247-2.185,1.855-3.285.333-.6.657-.509,1.046-.061a2.169,2.169,0,0,1,.2,3.022c-1.072,1.558-1.961,3.224-2.932,4.841-.237.394-.4,1.068-.95.889a1.275,1.275,0,0,1-.737-1.437" transform="translate(-3.207 -4.685)" fill="#bf501b"/>
        <path id="Path_20793" data-name="Path 20793" d="M81.506,114.773c.2.7-.261,1.164-.487,1.7a.215.215,0,0,1-.264.152.281.281,0,0,1-.184-.343,1.805,1.805,0,0,1,.935-1.5" transform="translate(-3.577 -5.096)" fill="#ca6223"/>
        <path id="Path_20794" data-name="Path 20794" d="M77.045,120.819c-.025.274-.124.542-.421.531-.217-.009-.262-.269-.236-.475s.023-.5.312-.525c.311-.028.329.237.345.468" transform="translate(-3.391 -5.344)" fill="#bf4f1b"/>
    </g>
</svg>
