<svg id="Group_27218" data-name="Group 27218" xmlns="http://www.w3.org/2000/svg" xmlns:xlink="http://www.w3.org/1999/xlink" width="465.478" height="528.842" viewBox="0 0 465.478 528.842">
    <defs>
        <clipPath id="clip-path">
            <rect id="Rectangle_10014" data-name="Rectangle 10014" width="465.478" height="528.842" fill="none"/>
        </clipPath>
        <clipPath id="clip-path-2">
            <rect id="Rectangle_10013" data-name="Rectangle 10013" width="465.072" height="528.436" fill="none"/>
        </clipPath>
    </defs>
    <g id="Group_27217" data-name="Group 27217" clip-path="url(#clip-path)">
        <g id="Group_27216" data-name="Group 27216" transform="translate(0 0.406)">
            <g id="Group_27215" data-name="Group 27215" clip-path="url(#clip-path-2)">
                <g id="Group_27214" data-name="Group 27214">
                    <g id="Group_27213" data-name="Group 27213" clip-path="url(#clip-path-2)">
                        <path id="Path_20797" data-name="Path 20797" d="M301.833.747a32.765,32.765,0,0,0-8.547,2.431C284,7.608,278.682,14.9,277.455,25.139c-.462,3.852-.358,3.084-3.25,2.236a22.32,22.32,0,0,0-13.186-.16,15.972,15.972,0,0,0-8.271,5.6c-7.443,9.907-8.548,20.577-3.614,31.906.35.8.783,1.571,1.161,2.362a3.768,3.768,0,0,1-.888,4.774,32.173,32.173,0,0,0-5.057,6.063,13.427,13.427,0,0,0-2.232,8.867,7.866,7.866,0,0,0,.4,1.977c.849,2.127.462,3.736-1.584,5a9.233,9.233,0,0,0-3.061,3.473,10.912,10.912,0,0,0,.289,11.9c.4.629.832,1.232,1.248,1.847a.6.6,0,0,1,.211.348l.008.011c.824.508,1.6.08,2.317-.218,4.089-1.693,7.8-.86,11.314,1.564a6.992,6.992,0,0,0,3.266,1.542c1.3-.061,2.7.779,3.9-.365a8.8,8.8,0,0,1,1.69-1.727c3.135-2.368,4.015-5.126,2.884-8.9-.039-.129-.082-.257-.125-.386-1.054-3.263-1.059-3.272,1.813-5.29,2.473-1.737,2.518-4.273,2.337-6.9a7.17,7.17,0,0,1-.264-2.169,23.95,23.95,0,0,0,16.424,3.61,20.779,20.779,0,0,1,7.653-2.5,6.779,6.779,0,0,0,2.7-.815c8.2-5.291,12.214-13.124,13.545-22.524a33.807,33.807,0,0,0-.041-9.7,5.383,5.383,0,0,1,1.555-4.8,9.521,9.521,0,0,1,9.892-2.368,9.128,9.128,0,0,1,5.983,8.385c.045,2.095-.045,4.193.029,6.286.189,5.4,3.611,7.986,8.788,6.671a17.731,17.731,0,0,1,1.787-.367c2.7-.4,4.193.554,5,3.2,1.267,4.152,1.267,4.152,5.044,2.32,3.855-1.869,7.192.111,7.372,4.4.164,3.909-.3,7.841.414,11.733a4.632,4.632,0,0,0,.647,2.1,3.013,3.013,0,0,0,1.361.851,31.415,31.415,0,0,1,10.7,6.423.813.813,0,0,0,.767.144,17.967,17.967,0,0,0,3.859-4.9,5.006,5.006,0,0,1,3.273-2.483,18.618,18.618,0,0,0,8.276-4.9c4.915-5.1,6.355-12.4,2.432-18.8a14.9,14.9,0,0,1-2.085-10.448,49.66,49.66,0,0,0,.16-15.36c-1.188-7.194-4.287-13.355-9.987-18.021-4.939-4.044-10.708-5.257-16.943-4.528-2.679.314-5.352.713-8.01,1.174a8.11,8.11,0,0,1-5.771-1.367,15.467,15.467,0,0,1-3.49-3.069c-2.461-2.785-4.948-5.551-7.667-8.092a38.723,38.723,0,0,0-20.017-10,1.26,1.26,0,0,0-.841-.163c-.388,0-.776,0-1.164,0-.551-.081-1.147.191-1.657-.209h-3.656c-.49.4-1.068.129-1.6.209h-.844a1.255,1.255,0,0,0-.816.153" transform="translate(-172.68 -0.384)" fill="#3b1d17"/>
                        <path id="Path_20799" data-name="Path 20799" d="M94.123,503.007a100.588,100.588,0,0,0,11.713.758c7.028.207,14,1.027,21,1.534,1.009.073,2.018.154,3.026.231,1.464.461,3.017-.185,4.474.363h1.625a3.445,3.445,0,0,0,.987-2.376c.423-5.524.616-11.061.863-16.595.422-9.45.4-18.919.907-28.362.564-10.523,1.053-21.046,1.3-31.579a36.71,36.71,0,0,1,.165-5.357c.051-.457.029-.915.034-1.373v-1.664c.1-.952-.236-1.937.209-2.865v-6.093c-.31-.8-.408-1.674-.785-2.455-.355-1.09-.577-2.456-1.9-2.634-1.4-.19-2.081,1.081-2.7,2.117a43.038,43.038,0,0,0-3.137,7.454c-3.04,8.3-6,16.63-8.993,24.948a1.971,1.971,0,0,1-.647,1.079c-.893-.255-1.241-1.129-1.8-1.762-.937-1.065-1.832-2.168-2.777-3.223a.884.884,0,0,0-1.26-.25c-.55.422-.192.877.112,1.214,1.043,1.154,1.87,2.479,2.975,3.59,1.883,1.891,2.069,3.27,1.027,5.683-.669,1.548-1.278,3.122-1.934,4.676-.574,1.359-.816,1.4-1.7.3-.843-1.057-1.658-2.137-2.49-3.2a10.582,10.582,0,0,0-.774-.935.667.667,0,0,0-1.055-.071.775.775,0,0,0-.13,1.088c.273.382.62.71.929,1.067a17.428,17.428,0,0,1,2.491,3.443,2.887,2.887,0,0,1-2.063-.09c-15.121-4.314-30.32-8.368-45.166-13.589-.768-.27-2.009-.139-2.084-1.233-.058-.863,1.07-1.092,1.658-1.611.456-.4,1-.7,1.468-1.083s1.443-.725.853-1.515c-.648-.865-1.313-.072-1.868.365a17.242,17.242,0,0,0-2.472,2.1c-1.219,1.406-2.513,1.441-4.159.836-3.037-1.117-6.139-2.061-9.218-3.066-.443-.144-.944-.161-1.234-.937a73.037,73.037,0,0,1,6.117-4.085,6.059,6.059,0,0,0,1.834-1.246c.223-.267.412-.589.2-.914a.679.679,0,0,0-.9-.215,11.994,11.994,0,0,0-1.22.712,74.089,74.089,0,0,0-6.69,4.58,2.709,2.709,0,0,1-2.988.452c-2.517-.97-5.092-1.793-7.63-2.713-1.362-.494-1.38-.6-.522-1.812a7.651,7.651,0,0,1,2.761-2.618c1.265-.639,1.2-1.008-.156-1.779a1.6,1.6,0,0,1-.293-.324,48.618,48.618,0,0,0,2.677-12.615,24.417,24.417,0,0,0-.225-4.853c-.058-.411-.083-.846-.58-.944a1.048,1.048,0,0,0-1.16.631,9.485,9.485,0,0,0-.579,1.291,74.318,74.318,0,0,0-3.385,12.7,3.87,3.87,0,0,1-.608,1.932c-.483-1.79-.942-3.549-1.434-5.3a7.928,7.928,0,0,0-1.983-3.488,1.544,1.544,0,0,0-2.792.912,15.246,15.246,0,0,0,.493,6.424,40.837,40.837,0,0,0,2.779,7.45c-.821.467-1.452-.027-2.107-.233-.55-.173-1.076-.67-1.662-.088-.484.807.018,1.344.614,1.664,1.761.944.911,1.74-.088,2.522-2.61,2.042-5.244,4.054-7.837,6.12a5.741,5.741,0,0,0-1.66,1.754,1.147,1.147,0,0,0,.019,1.335c.371.445.855.284,1.3.086a5.532,5.532,0,0,0,1.35-.892c3.083-2.65,6.486-4.883,9.643-7.431a4.294,4.294,0,0,1,4.337-.785c2.007.623,3.927,1.473,5.927,2.105,1.338.424,1.2,1.035.22,1.781-2.528,1.927-5.149,3.735-7.587,5.777-.718.6-2.1,1.2-1.287,2.359.931,1.333,1.936.1,2.738-.479q4.272-3.095,8.444-6.329a4.4,4.4,0,0,1,4.538-.776c2.547.912,5.137,1.7,7.69,2.6,1.555.546,1.618.906.335,1.992-1.754,1.486-3.533,2.943-5.293,4.424a6.754,6.754,0,0,0-1.051.952c-.339.435-.685.91-.266,1.456a1.238,1.238,0,0,0,1.646.294,6.958,6.958,0,0,0,1.673-1.14c1.883-1.649,3.961-3.068,5.767-4.8a3.786,3.786,0,0,1,4.074-.93c6.432,1.875,12.7,4.25,19.123,6.157,8.689,2.582,17.382,5.145,26.12,7.558a4.816,4.816,0,0,1,.975.272c.877.462,2.546.1,2.44,1.581a3.775,3.775,0,0,1-2.206,3.412c-1.314.521-2.331-.165-3.158-1.208-.715-.9-1.291-1.907-2.045-2.777-.614-.709-1.436-1.287-2.294-.679-1.011.718-.218,1.561.2,2.292a11.674,11.674,0,0,1,1.078,1.7c-.631.633-1.183.142-1.692-.042a56.747,56.747,0,0,0-6.268-1.685,4.563,4.563,0,0,0-4.55.956,2.157,2.157,0,0,1-1.658.639c-4.584-.266-9.175-.429-13.751-.822-2.692-.231-5.392-.4-8.084-.535-6.413-.332-12.8-.919-19.185-1.531-4.568-.437-9.158-.672-13.74-.958-4.852-.3-9.693-.757-14.544-1.058-4.786-.3-9.567-.669-14.353-.939a46.509,46.509,0,0,0-5.656-.442c-.336.022-.677-.015-1.014.018-.853.084-2.055-.071-2.143,1.026-.08.991,1.176.836,1.851,1.183,2.9.813,5.915.651,8.869.866,9.368.687,18.73,1.516,28.108,2.016,9.927.531,19.824,1.415,29.727,2.207,8.155.651,16.326.958,24.481,1.545a38.958,38.958,0,0,1,9.088,2.225,13.329,13.329,0,0,0-4.32,2.063c-1.184.961-1.721,2.077-.85,3.53,1.7,1.349,3.545.582,5.218.1A22.619,22.619,0,0,0,110,464.721c-4.84,4.738-10.757,4.143-16.718,3.337-2.4-.1-4.81-.47-7.184.242a1.466,1.466,0,0,0-.561.934c-.032.831-.257,1.729.737,2.219a3.4,3.4,0,0,1,2.921-.87c4.921.142,9.839.834,14.772.094a12.736,12.736,0,0,0,7.3-3.662c1.67-1.657,2.026-1.6,3.464.276,1.234,1.612,2.46,3.231,3.635,4.889a4.476,4.476,0,0,0,1.383,1.462,1.181,1.181,0,0,0,1.333.09,1.136,1.136,0,0,0,.378-1.444,9.838,9.838,0,0,0-1.586-2.584c-1.356-1.86-2.793-3.658-4.24-5.447-.584-.722-1.061-1.5-.384-2.374a20.725,20.725,0,0,0,2.168-4.345c.662-1.461,1.08-1.51,2.157-.368a2.215,2.215,0,0,1,.624.794c.952,3.4,4,5.45,5.479,8.511a3.745,3.745,0,0,0,.59.824c.589.666,1.26,1.52,2.2.886,1-.677.334-1.607-.138-2.313-1.768-2.644-3.234-5.5-5.222-7.98-1.38-1.717-1.361-4.119-3.074-5.61a.893.893,0,0,1-.137-.968c.843-1.838,1.838-3.6,2.693-5.437.384-.823.909-.038,1.2.335,1.131,1.435,2.225,2.9,3.246,4.418a11.115,11.115,0,0,0,.986,1.29c.546.6,1.131,1.376,2.027.692.839-.64.417-1.474.007-2.193a55.673,55.673,0,0,0-4.792-6.549,3.768,3.768,0,0,1-.628-3.974c3.684-9.678,7.04-19.477,10.813-29.121a9.778,9.778,0,0,1,.669-1.479c.355-.591.333-1.765,1.228-1.582.75.152.647,1.253.738,1.96a40.344,40.344,0,0,1,.108,7.5c-.424,7.284-.909,14.564-1.206,21.857-.464,11.346-.993,22.686-1.268,34.042-.221,9.113-.755,18.228-1.145,27.341-.114,2.645-.758,3.089-3.383,3.026-8.1-.2-16.106-1.7-24.268-1.5a99.262,99.262,0,0,1-14.346-.992,12.641,12.641,0,0,0-3.644.035c-.634.107-1.2.382-1.1,1.18.094.782.728.639,1.252.67,1.679.1,3.372-.211,5.042.167" transform="translate(324.643 22.544)" fill="#0c2127"/>
                        <path id="Path_20800" data-name="Path 20800" d="M4.086,425.643c-.312,6.956-.551,13.917-.954,20.868-.467,8.033-.882,16.07-1.04,24.114-.171,8.722-.6,17.434-.972,26.147a57.3,57.3,0,0,1-.736,8.071H4.852v-82.86c-1.006.078-.5.861-.587,1.334-.133.764.146,1.568-.18,2.326" transform="translate(460.22 23.593)" fill="#fefefe"/>
                        <path id="Path_20801" data-name="Path 20801" d="M439.379,347.675l.172.025.172,0c1.023-1.847,1.023-9.975,0-11.821a1.025,1.025,0,0,0-.344.021Z" transform="translate(-439.38 18.696)" fill="#c6d1ce"/>
                        <path id="Path_20802" data-name="Path 20802" d="M.429,425.738c.529-.528.3-1.212.378-1.833s-.163-1.307.388-1.826v-1.625a.249.249,0,0,0-.441-.01,18.952,18.952,0,0,0-.326,5.3" transform="translate(463.877 23.498)" fill="#c6cacb"/>
                        <path id="Path_20803" data-name="Path 20803" d="M10.623,500.411c-1.432-.85-2.974-.341-4.474-.363,0,.12.005.242.005.363Z" transform="translate(448.357 28.025)" fill="#dadbdc"/>
                        <path id="Path_20804" data-name="Path 20804" d="M.391,406.977a3.825,3.825,0,0,0,.785,2.456v-1.625l-.785-.831" transform="translate(463.896 22.74)" fill="#7f878c"/>
                        <path id="Path_20805" data-name="Path 20805" d="M.832,415.065c-.666.879-.394,1.885-.387,2.857.135.167.264.17.387-.014Z" transform="translate(464.24 23.2)" fill="#4e5d62"/>
                        <path id="Path_20806" data-name="Path 20806" d="M310.007.384c.465.54,1.072.425,1.667.359.1-.093.129-.176.082-.253s-.085-.107-.125-.107Z" transform="translate(-173.938 -0.384)" fill="#684c45"/>
                        <path id="Path_20807" data-name="Path 20807" d="M315.257.734c.59.063,1.189.168,1.656-.35h-1.625c-.123.068-.167.142-.136.223s.068.127.106.127" transform="translate(-184.5 -0.384)" fill="#785c56"/>
                        <path id="Path_20808" data-name="Path 20808" d="M.771,417.755c-.129.01-.258.014-.387.014q0,.809,0,1.619c.132.181.261.169.386-.008Z" transform="translate(464.301 23.353)" fill="#798187"/>
                        <path id="Path_20809" data-name="Path 20809" d="M308.855.384a.946.946,0,0,0,.042.359l1.2.006q.179-.132.111-.25c-.044-.077-.088-.115-.13-.115Z" transform="translate(-171.161 -0.384)" fill="#a18b84"/>
                        <path id="Path_20810" data-name="Path 20810" d="M.9,419.293a2.453,2.453,0,0,1-.386.009,2.046,2.046,0,0,0-.055,1.2l.441.011Z" transform="translate(464.177 23.44)" fill="#a0a5a9"/>
                        <path id="Path_20811" data-name="Path 20811" d="M317.608.734a1.682,1.682,0,0,0,.031-.35h-.812c-.127.072-.171.148-.135.229s.075.125.115.125l.8,0" transform="translate(-186.851 -0.384)" fill="#a38d86"/>
                        <path id="Path_20812" data-name="Path 20812" d="M318.25.739a2.1,2.1,0,0,0,.02-.355h-.813a3.469,3.469,0,0,1-.011.364l.8-.008" transform="translate(-188.294 -0.384)" fill="#cabebb"/>
                        <path id="Path_20813" data-name="Path 20813" d="M308.222.384a1.417,1.417,0,0,0,.019.366l.8.006a3.668,3.668,0,0,1-.006-.372Z" transform="translate(-169.31 -0.384)" fill="#d3cbc8"/>
                        <path id="Path_20814" data-name="Path 20814" d="M346.775,415.694a5.812,5.812,0,0,0-.925-2.651,13.161,13.161,0,0,1-1.432-6.669,22.286,22.286,0,0,0-3.306-12.965c-3.917-6.453-6.453-13.523-9.174-20.508-8.358-21.465-17.187-42.741-25.939-64.046-7.752-18.869-15.39-37.782-22.26-57a3.913,3.913,0,0,0-1.539-2.3c-.71-.58-1.424-.272-2.082.063-1.624.828-3.364,1.414-4.961,2.282a22.612,22.612,0,0,1-11.007,2.964c-2.7,1.336-4.67,3.628-7.044,5.4-2.341,1.743-4.586,3.5-7.629,3.964a9.093,9.093,0,0,1-4.171-.416c-6.358-2.005-12.972-2.478-19.5-3.471-8.077-1.228-16.187-.607-24.285-.747-2.315-.041-4.6-.133-6.616-1.463-.9-.592-1.935-1.154-1.843-2.445.1-1.43,1.178-2.077,2.372-2.477,3.094-1.038,6.282-.776,9.434-.435a31.979,31.979,0,0,0,6.675.1c2.952-.3,3.935-2.16,2.794-4.906a2.336,2.336,0,0,0-2.062-1.389,17.209,17.209,0,0,1-6.376-1.839,6.109,6.109,0,0,1-3.148-3.519c-.408-1.424-1.3-2-2.766-1.461a53.088,53.088,0,0,0-7.523,8.178c-12.039,14.974-23.74,30.205-34.3,46.27-10.665,16.218-21.254,32.486-31.62,48.9-5.344,8.46-10.709,16.906-16.251,25.238a1.715,1.715,0,0,1-.738.657,28.945,28.945,0,0,0-.91,6.969,21.262,21.262,0,0,1-.161,3.636c-.43,1.763.372,2.846,1.778,3.677,14.478,8.548,29.024,16.978,44.241,24.171,5.187,2.451,10.5,4.62,15.708,7.034a2.908,2.908,0,0,0,3.249-.121c5.039-7.848,10.123-15.667,14.806-23.746,7.974-13.754,15.889-27.544,23.6-41.446,7.061-12.733,14.743-25.076,22.5-37.383,1.118-1.775,2.337-3.484,3.56-5.186,2.122-2.957,2.161-3.149.26-6.321a60.671,60.671,0,0,1-7.581-18.284,6.286,6.286,0,0,1-.277-2.247c1.578,9.924,6.356,18.093,11.473,26.1,5.722,8.961,12.18,17.406,18.322,26.072,6.966,9.83,13.532,19.927,20.027,30.07,6.748,10.542,13.582,21.031,20.032,31.762a35.448,35.448,0,0,1,4.164,10.3,92.114,92.114,0,0,0,7.633,21.567,14.072,14.072,0,0,0,.665,1.255c2.854,4.4,5.257,8.985,5.9,14.3a.766.766,0,0,0,.5.281c5.386-.206,8.7-4.046,12.416-7.14,3.573-2.975,6.986-6.137,10.542-9.133.826-.7,1.584-1.466,2.41-2.155,2.353-1.965,3.442-4.3,2.377-7.35" transform="translate(3.774 13.219)" fill="#222626"/>
                        <path id="Path_20815" data-name="Path 20815" d="M345.167,217.963a27.877,27.877,0,0,0-3.918-11.814,53.135,53.135,0,0,0-14.4-16.591c-8.479-6.349-17.419-11.911-27.538-15.317a84.3,84.3,0,0,0-17.792-3.857,99.465,99.465,0,0,0-14.376-.667,117.9,117.9,0,0,0-24.883,3.242,36.6,36.6,0,0,1-13.489.573,55.425,55.425,0,0,0-14.555-.191,19.254,19.254,0,0,1-8.01-.754c-1.624-.455-3.223-1.015-4.815-1.578a84.028,84.028,0,0,0-12.838-3.7c-.726.144-1.322.368-.785,1.285a55.8,55.8,0,0,0,5.869,1.537c1.56.381,2.14,1.2,1.768,2.781-.777,3.306-1.617,6.579-4.01,9.164a2.979,2.979,0,0,0-.712,2.79,17.165,17.165,0,0,1-4.936,15.888c-5.9,5.993-13.076,7.607-21.1,7.007-2.591-.195-5.123-.412-7.293-2.031-1.326-.115-1.426,1.074-1.81,1.831-3.431,6.755-6.806,13.536-10.2,20.31a200.674,200.674,0,0,1-10.716,19.977,10.347,10.347,0,0,0-1.571,4.143q-.022,31.809-.016,63.6c.265,10.476.618,20.956.461,31.444-.015.983-.376,2.41.634,2.787,1.192.445,1.756-.98,2.391-1.8,11.1-14.343,22.007-28.827,32.986-43.26,8.521-11.2,17.267-22.229,25.6-33.571,1.3-1.767,2.171-3.478,1.677-5.792a25.877,25.877,0,0,1-.1-4.864,2.739,2.739,0,0,0-1.954-2.764c-8.976-3.383-14.437-9.82-16.952-19.047a57.364,57.364,0,0,1-1.791-13.419,7.771,7.771,0,0,1,.049-1.419c.082-.536.161-1.21.831-1.216.779-.007.627.762.69,1.244.757,5.772,2.225,11.3,5.638,16.13,3.644,5.161,8.875,8.009,14.712,9.932.541.179,1.226.495,1.649-.2s.016-1.341-.35-1.889a50.224,50.224,0,0,1-4.961-10.2,70.506,70.506,0,0,1-4.624-22.344c-.114-2.757-.232-5.509-.157-8.272a96.88,96.88,0,0,0,1.206,17.507,69.641,69.641,0,0,0,9.18,24.344,6.329,6.329,0,0,0,4.077,2.764,20.348,20.348,0,0,0,12.372-.372,26.317,26.317,0,0,0,6.785-7.429c-.512-.927-1.493-1.106-2.359-1.445a14.11,14.11,0,0,1-3.885-2.151c-.8-.66-1.644-1.543-1.2-2.565.715-1.629-.083-2.553-1.1-3.527a8.766,8.766,0,0,1-2.951-4.5,2.746,2.746,0,0,1,.79-2.937c1-.834,2.041-.468,3.03.048a8.266,8.266,0,0,1,1.79,1.321,25.829,25.829,0,0,0,11.494,6.151c1.393.351,2.626,1.049,3.976,1.474a2.54,2.54,0,0,0,.853,0,2.654,2.654,0,0,0,.536-.164,6.473,6.473,0,0,0,.979-.526c.692-.75,1.853-.938,2.344-1.934-.107-1.187-1.168-1.166-1.927-1.486-9.172-3.877-17.279-9.193-23.273-17.321-4.455-6.039-5.84-12.663-3.5-19.913-.261,1.307-.652,2.585-.852,3.9a16.566,16.566,0,0,0-.213,4.231c.647,6.207,3.586,11.3,7.819,15.659A58.778,58.778,0,0,0,236.375,231.8a6.614,6.614,0,0,0,3.591.366,61.02,61.02,0,0,1,18.694-6.117,59.1,59.1,0,0,1,9.637-.653,22.33,22.33,0,0,0,5.63-.206c.786-.338.916-1.059,1.134-1.79,1.534-5.154,3.608-10.009,7.36-14.03,2.961-3.173,6.715-4.755,10.789-5.657a47.953,47.953,0,0,1,13.126-.623,2.131,2.131,0,0,1,1.568.623,3.19,3.19,0,0,1-2.2.235c-6.343-.769-11.849,1.279-16.86,4.983a11.414,11.414,0,0,0-3.767,5.187c-.224.569-.492,1.247.081,1.685s1.161.015,1.635-.377a22.992,22.992,0,0,1,11.8-4.975,26.425,26.425,0,0,1,15.465,2.462c-8.3-3.569-16.093-3.7-23.764.26a19.884,19.884,0,0,0-9.725,10.987c-2.045,5.443-3.128,11.2-5.258,16.625-.474,1.207.314,1.758,1.276,2.115a27.264,27.264,0,0,1,4.925,2.375c4.14,2.572,6.735,6.371,8.624,10.743,1.182,2.736,1.785,3.063,4.448,1.984a258.559,258.559,0,0,0,23.7-11.526,93.943,93.943,0,0,0,18.071-12.3,51.8,51.8,0,0,0,4.034-4,15.965,15.965,0,0,0,4.148-9.073,8.173,8.173,0,0,1,.627-3.146" transform="translate(-20.294 9.109)" fill="#557d76"/>
                        <path id="Path_20816" data-name="Path 20816" d="M51.054,406.216c.178.935-.573,1.859.161,2.875.314.436-.319,1.27-.758,1.761a43.443,43.443,0,0,1-3.625,3.791c-3.53,3.1-7.221,6.023-10.691,9.188a65.252,65.252,0,0,1-8.739,6.795c-.623.4-1.111,1.111-2.114.372-.561-.413-1.342.283-1.869.818a29.537,29.537,0,0,0-.127,7.614c.25,3.841.351,7.7.832,11.523a6.432,6.432,0,0,0,.338,1.585,1.656,1.656,0,0,0,2.613.358c-.271-.556-1.073-.144-1.432-.934a15.1,15.1,0,0,1,5.617-.087c.87.117,1.735.173,2.6.26,3.075.305,6.183.22,9.24.751a3.239,3.239,0,0,0,.808.04c3.182-.261,6.325.341,9.486.492,3.89.185,7.778.561,11.672.8,3.688.229,7.375.532,11.064.783,3.277.224,6.535.724,9.8,1.1a3.188,3.188,0,0,0,.6.059c3.18-.239,6.333.3,9.483.517,2.941.2,5.932-.006,8.84.675a1.36,1.36,0,0,0,.4.031c3.45-.252,6.853.629,10.3.427a2.78,2.78,0,0,1,1.009.018,3.314,3.314,0,0,0,4.1-1.139c.768-.96,2.079-.664,3.065-.4,2.4.647,4.906.953,7.179,2.044a3.1,3.1,0,0,0,2.484.06,14.828,14.828,0,0,0-1.9-2.813c-.358-.5-1.189-1.123-.428-1.685.711-.524,1.379.147,1.836.781.748,1.039,1.444,2.117,2.225,3.129a2.909,2.909,0,0,0,5.077-.445c.411-.777.828-1.556,1.162-2.367.393-.954.2-1.338-.817-1.631-2.393-.691-4.8-1.337-7.194-2.021-4.727-1.35-9.44-2.749-14.177-4.062-8.323-2.306-16.487-5.111-24.689-7.8-.959-.315-1.975-.475-2.9-.86a3.137,3.137,0,0,0-3.688.8c-2.234,2.155-4.759,3.961-7.147,5.933-.1.085-.2.186-.3.274-.459.392-1,.6-1.422.064s.183-.861.5-1.127c1.911-1.595,3.854-3.149,5.783-4.724a8.482,8.482,0,0,0,2.251-2.4,20.258,20.258,0,0,0-3.832-1.427c-2.289-.812-4.623-1.5-6.914-2.306a3.7,3.7,0,0,0-3.778.646c-3.254,2.506-6.555,4.95-9.836,7.42-.108.081-.2.178-.308.265a.647.647,0,0,1-1.044-.115c-.3-.42-.064-.751.291-1.024,1.819-1.39,3.63-2.789,5.456-4.169,1.342-1.016,2.735-1.967,4.043-3.024,1.108-.9,1.057-1.41-.205-1.79-2.777-.835-5.393-2.132-8.238-2.776a2.747,2.747,0,0,0-2.6.56c-3.528,2.808-7.327,5.265-10.72,8.257-.5.441-1.4,1.361-1.8.866-.786-.955.467-1.532,1.054-2.01,2.609-2.124,5.3-4.148,7.961-6.208.319-.247.654-.477.952-.747,1.823-1.658,1.828-1.678-.354-2.841a1.573,1.573,0,0,1-1.006-1.388,8.666,8.666,0,0,0-1.516-.555c-1.8-.309-2.346-1.5-2.416-3.143-.151-3.571-.677-7.124-.585-10.707.045-1.778-.7-3.354-1.119-5.014" transform="translate(299.494 22.696)" fill="#16313c"/>
                        <path id="Path_20817" data-name="Path 20817" d="M206.924,216.08c-1.134.436-1.017,1.563-1.065,2.381-.261,4.38-2.335,7.777-5.316,10.83a78.817,78.817,0,0,1-16.278,12.316,276.959,276.959,0,0,1-25.652,13.051,30.6,30.6,0,0,1-3.6,1.363c-1.305.416-1.647.231-2.219-1-.542-1.162-1.01-2.362-1.587-3.506a21.432,21.432,0,0,0-12.305-10.84c-.317-.114-.648-.2-.959-.328-.587-.246-.8-.573-.48-1.258,1.911-4.125,2.852-8.57,4.089-12.909a24.467,24.467,0,0,1,6.059-11.054,22.453,22.453,0,0,1,12.375-5.98c5.4-.965,10.457.12,15.375,2.268.31.135.611.294.929.407a.405.405,0,0,0,.527-.156.534.534,0,0,0-.125-.719,2.429,2.429,0,0,0-.509-.324,25.8,25.8,0,0,0-9.48-2.7,29.635,29.635,0,0,0-11.591,1.368,20.823,20.823,0,0,0-6.664,3.767,2.66,2.66,0,0,1-1.567.765,10.9,10.9,0,0,1,4.055-6.388,24.124,24.124,0,0,1,12.031-4.906c2.069-.235,4.02.2,6.026.153.627-.014,1.556.321,1.726-.573.2-1.026-.824-1.044-1.5-1.267a12.576,12.576,0,0,0-4.41-.4c-3.621.134-7.279.1-10.843,1.021-6.446,1.668-11.291,5.31-14.212,11.36-1.028,2.13-1.957,4.308-3.028,6.415-.608,1.194-.1,2.585-.818,3.723,1.246,1.231,2.907.829,4.382,1.119.118,0,.26-.075.369-.046.324.089.1.249.008.359a2.937,2.937,0,0,0-.537.8c-.987,3.841-2.136,7.635-3.245,11.441a6.715,6.715,0,0,1-1.974,2.994c-2.376,2.241-2.474,3.1-.744,6.071.643.256.933-.163,1.2-.625a2.349,2.349,0,0,0,0-1.369c-.138-.6-.684-1.32.189-1.748a1.744,1.744,0,0,1,2.188.371c.179.193.307.432.5.622a1.342,1.342,0,0,0,.812.24,2.757,2.757,0,0,1,2.133.111,22.464,22.464,0,0,1,9.123,9.917,3.352,3.352,0,0,1,.168,2.157c.084.734-.706,1.344-.308,2.123a19.08,19.08,0,0,0,10.081-2.423c2.044-1.031,4.149-1.94,6.216-2.927a3.224,3.224,0,0,1,1.554-.368c.3-.817,1.11-.931,1.753-1.253,5.8-2.909,11.61-5.8,17.123-9.249a101.651,101.651,0,0,0,12.936-9.786,27.385,27.385,0,0,0,2.447-2.431,16.968,16.968,0,0,0,4.639-12.991" transform="translate(117.949 10.992)" fill="#264741"/>
                        <path id="Path_20818" data-name="Path 20818" d="M286.484,83.814c-2.168.708-4.485.693-6.657,1.47a10.028,10.028,0,0,0-3.345,1.728c-7.553,4.93-11.783,11.836-12.3,20.891-.148,2.607-.125,2.683-2.635,2.308-2.865-.429-5.76-.659-8.6-1.248a2.3,2.3,0,0,0-1.581.1c-1.078.574-2.23-.229-3.317.178-.3.649.084.983.576,1.271,1.436.21,2.806.763,4.271.84,3.252.1,6.427.816,9.639,1.228,1.3.167,1.73,1.126,1.95,2.269a29.045,29.045,0,0,0,2.434,7.076c5.533,11.536,23.521,17.759,35.989,6.3a25.043,25.043,0,0,0,7.544-13.154c1.014-4.351,5.01-5.764,8.778-3.147a13.751,13.751,0,0,1,1.339,1.239c.9.646,1.617.544,2.095-.518a33.61,33.61,0,0,1,3.445-10.748c3.933-6.944,11.071-12.286,20.233-10.865a2.858,2.858,0,0,1,2.1.466c2.252,1.094,4.816,1.5,6.693,3.437.931.959,1.522,2.2,2.622,2.991,2.752,1.49,3.975,4.235,5.244,6.8a26.733,26.733,0,0,1,1.418,20.73c-2.475,7.607-7.888,11.9-15.8,13.019a2.158,2.158,0,0,1-.778-.261,1.763,1.763,0,0,0-.519-.227,1.408,1.408,0,0,0-.852.151,3.965,3.965,0,0,1-3.07.593,26.64,26.64,0,0,1-12.676-5.025,3.263,3.263,0,0,0-1.58-.863c-.654.281-.627.805-.49,1.37,2,2.519,4.831,3.785,7.69,4.959a22.665,22.665,0,0,0,9.668,1.65,3.142,3.142,0,0,0,1.921-.566c1.06-.193,2.136-.322,3.176-.592,8.544-2.219,13.678-7.727,15.531-16.3a28.454,28.454,0,0,0-6.029-25.219c-.34-.415-.625-.876-.935-1.316-.6-.533-1.224-1.048-1.809-1.6a17.251,17.251,0,0,0-7-4.274c-1.3-.374-2.267-1.466-3.676-1.5-3.033-1.41-6.1-.911-9.09.029a22.673,22.673,0,0,0-14.91,13.84A45.111,45.111,0,0,0,321.4,108.7c-.268,1.032-.711,1.574-1.857.949a8.276,8.276,0,0,0-7.218-.667c-.976.374-.912-.237-.946-.931-.418-8.5-3.818-15.528-10.588-20.744-3.6-2.773-7.932-3.631-12.368-4a3.787,3.787,0,0,0-1.938.506" transform="translate(-163.975 4.332)" fill="#bf4f1b"/>
                        <path id="Path_20819" data-name="Path 20819" d="M326.33,137.189l-2.022.071c-.987,5.034-1.614,10.146-3.454,14.989-2.438,6.42-6.138,11.935-11.912,15.752a26.838,26.838,0,0,1-14.181,4.365,111.752,111.752,0,0,1-24.423-1.633,3.305,3.305,0,0,0-1.406-.1c-.964.236-1.021.819-.428,1.469a3.551,3.551,0,0,0,2.036.83c3.513.747,7.093.98,10.651,1.373,1.258.139,1.925.484,1.319,1.919-3.76,8.911-6.523,18.2-10.377,27.08-1.221,2.811-2.447,5.616-5.551,6.915a1.03,1.03,0,0,0,.214,1.466c3.014.224,4.433-1.955,5.767-4.039a38.215,38.215,0,0,0,2.707-6.339,10.322,10.322,0,0,1,.76-1.675q3.862-10.246,7.626-20.527c.3-.827.614-1.648.993-2.442a3.114,3.114,0,0,1,3.042-1.958c1.015.012,2.036-.076,3.043.014,5.693.513,10.968-1.049,16.118-3.215a16.072,16.072,0,0,1,2.3-.771.813.813,0,0,0,.541-.738l.932-.974a3.935,3.935,0,0,1,1.248-1.309c6.085-4.812,9.548-11.266,11.633-18.58a73.1,73.1,0,0,0,1.988-9.923,3.824,3.824,0,0,1,.833-2.019" transform="translate(-142.371 7.396)" fill="#b65e3d"/>
                        <path id="Path_20820" data-name="Path 20820" d="M253.932,344.507v11.821a121.906,121.906,0,0,0,1.289,17.577c1.288,8.477,2.557,16.968,5.647,25.044A85.371,85.371,0,0,0,271.4,418.082c.51.712,1.111,1.382.894,2.366a3.778,3.778,0,0,0,.925,1.063c2.716,2.629,5.269,5.44,8.379,7.628,6.935,4.877,14.4,8.486,22.9,9.731,6.286.921,12.531,2.119,18.863,2.745a52.436,52.436,0,0,0,5.852.449c4.688-.074,9.3.673,13.936,1.041,5.561.442,11.077-.1,16.606-.171,7.9-.1,15.784-.622,23.685-.84,11.82-.327,23.639-.958,35.459-.634,7.148.2,14.314.293,21.444,1.046a66.858,66.858,0,0,0,8.312.066,1.818,1.818,0,0,0,2.043-1.985,4.472,4.472,0,0,0-.781-2.468,77.285,77.285,0,0,0-12.285-14.694c-.737-.6-1.211-1.479-2.03-2a9.541,9.541,0,0,1-2.934-2.327c-.423-.487-.828-1.1-1.648-.729-.634.586-1.241.241-1.871-.032a406.98,406.98,0,0,1-38.666-18.687c-12.056-6.807-23.883-14.017-36.13-20.482-11.793-6.225-23.843-11.875-36.86-15.109-3.588-.891-7.179-1.919-10.943-1.859-1.944-.4-3.936-.488-5.867-.96-.56-.081-1.13-.022-1.688-.12-5.251.12-10.513-.367-15.053.1a19.28,19.28,0,0,1,4.5-.262,44.5,44.5,0,0,0,5.257.182c2.962-.549,5.87-.045,8.778.442,1.418-.044,2.746.564,4.155.592,2.546-.3,4.922.643,7.377,1.01.832.124,1.9.749,2.46-.075.547-.8-.3-1.657-.771-2.361a21.943,21.943,0,0,0-9.841-7.841,40.24,40.24,0,0,0-9.526-2.75c-.742-.12-2.2-.061-1.885-1.219.256-.949,1.542-.474,2.361-.254a101.543,101.543,0,0,1,16.69,5.653,2.93,2.93,0,0,0,2.113.513.7.7,0,0,0,.353-.521,7.049,7.049,0,0,0-2.941-3.987,71.8,71.8,0,0,0-8.121-5.727c-.672-.393-1.64-.726-1.072-1.8.537-1.018,1.418-.848,2.284-.426a47.1,47.1,0,0,1,13.246,9.247c.283.29.526.619.819.9.389.375.789.81,1.4.609.647-.211.632-.815.641-1.352.068-3.514.425-7.011.58-10.519a151.634,151.634,0,0,1,2.049-20.342c-1.587,8.75-1.789,17.622-2.407,26.46-.249,3.558.054,7.167-.875,10.675a2.316,2.316,0,0,0,1.116,2.444,22.932,22.932,0,0,1,4.678,5.3,6.834,6.834,0,0,0,3.423,2.431c11.047,4.158,21.461,9.614,31.739,15.355,2.563,1.431,3.226,1.014,3.34-2.011.151-3.984-.373-7.966.056-11.953,1.576-14.64.457-29.328.7-43.992.057-3.438-.05-6.894-.115-10.342a40.031,40.031,0,0,1-.256-6.07q-.006-27.7.007-55.39c0-1.819.037-3.515-2.129-4.31-.9-.331-.933-1.451-1.072-2.292-.515-3.141-1.32-6.217-2.063-9.3a69.279,69.279,0,0,0-10.5-24.031,60.52,60.52,0,0,0-19.023-17.093,59.292,59.292,0,0,0-15.7-6.23c.3-.812,1.026-.922,1.575-1.177A49.594,49.594,0,0,1,326.7,186.1a3.6,3.6,0,0,0,2.04-.8c.214-.766-.279-1.015-.874-1.188-2.83.9-5.724,1.584-8.5,2.667a53.887,53.887,0,0,0-16.243,10.551c-7.638,6.839-13.508,15.074-18.883,23.731a146.452,146.452,0,0,0-11.14,22.957c-2.065,5.141-4.342,10.208-6.156,15.436A177.393,177.393,0,0,0,260.5,283.5c-1.7,8.693-2.712,17.482-3.744,26.272-.867,7.383-1.639,14.775-2.242,22.183-.339,4.176-.6,8.361-.579,12.557" transform="translate(-253.589 10.064)" fill="#557d76"/>
                        <path id="Path_20821" data-name="Path 20821" d="M376.7,108.921l-.393-.846a7.738,7.738,0,0,1-2.513-1.251,18.881,18.881,0,0,0-3.861-2.2,10.173,10.173,0,0,0-7.5-.254q-1.628.544-3.257,1.084a12.469,12.469,0,0,1-1.034,1.491,14.87,14.87,0,0,0-4.021,10.124c-.153,7.232,1.494,13.938,6.027,19.74.83,1.061,1.788,2.024,2.7,3.017a5.172,5.172,0,0,1,1.357,1.742,1.6,1.6,0,0,0,.892,1.126c2.553,1.2,4.984,2.717,7.853,3.138a4.564,4.564,0,0,1,2.256.119c1.11.3,2.178-.2,3.275-.153,1.72-.619,3.53-1.12,4.268-3.088.208-.554.587-1.188-.1-1.634-.548-.354-1.057.038-1.451.4-4.373,3.975-8.942,2.61-13.312.22a20.989,20.989,0,0,1-8.865-9.494,30.1,30.1,0,0,1-3.3-15.875,13.956,13.956,0,0,1,2.312-6.637A9.472,9.472,0,0,1,371.1,106.9a16,16,0,0,1,4.75,4.649,44.281,44.281,0,0,1,4.969,8.815c.27.688.684,1.408,1.541,1.448.721.033,1.079-.46,1.095-1.178-2.258-3.9-4.121-8.033-6.759-11.718" transform="translate(-292.23 5.496)" fill="#b65f3e"/>
                        <path id="Path_20822" data-name="Path 20822" d="M357.111,140.237q-.391-.349-.782-.7c-4.925,6.956-4.807,14.451-2.358,22.187a6.079,6.079,0,0,1,.654,2.1,3.727,3.727,0,0,0,.5,1.8,4.742,4.742,0,0,0,.592,1.049,8.5,8.5,0,0,1,1.8,8.56,8.514,8.514,0,0,0,.593,6.663c.422.75,1.007,1.944,1.966.358a1.3,1.3,0,0,0,.028-.99c-1.639-3.307-.617-6.462.534-9.6a27.206,27.206,0,0,1,9.267-12.037,7.486,7.486,0,0,1,5.456-1.748c.748.068,1.672.21,2.109-.765-4.115-2.955-5.164-7.613-6.659-12.021-.314-.465-.39-1.342-1.2-1.076-.783.258-.753,1.035-.632,1.729a25.951,25.951,0,0,0,3.032,8.336c.706,1.248.844,1.865-.772,2.5-4.325,1.7-7.171,5.165-9.737,8.857-2.115,3.042-2.239,3.144-4.033-.119-4.149-7.549-5.015-15.3-.917-23.219.3-.575.85-1.095.56-1.856" transform="translate(-284.35 7.53)" fill="#2e2820"/>
                        <path id="Path_20823" data-name="Path 20823" d="M375.606,163.839a2.138,2.138,0,0,0-.73-1.321c-.644.356-1.276.733-1.931,1.066-6.4,3.246-7.365,10.767-1.9,15.483,2.238,1.93,4.678,3.623,7.023,5.427.309.238.72.384.806.838l.83.843a1.152,1.152,0,0,0,1.707.467,1.284,1.284,0,0,0,.227-1.214c-1.6-1.958-3.918-3-5.845-4.544-1.885-1.51-3.941-2.8-5.228-4.965-2.636-4.429-1.438-8.657,3.168-10.964.65-.326,1.443-.417,1.871-1.116" transform="translate(-304.6 8.837)" fill="#722f15"/>
                        <path id="Path_20824" data-name="Path 20824" d="M385.921,163.881c-.39-.077-.874-.234-.958.354-.1.707.464.674.926.708,3.637.263,7.276.506,10.911.794,1.951.153,3.9.384,5.845.575.447.044,1.051.307,1.187-.35.142-.692-.519-.664-.954-.716-1.943-.239-3.885-.51-5.836-.656-3.7-.277-7.413-.477-11.121-.708" transform="translate(-345.216 8.91)" fill="#252323"/>
                        <path id="Path_20825" data-name="Path 20825" d="M387.932,175.4c3.8-.542,7.215-1.317,10.624-2.1,1.376-.316,2.738-.689,4.1-1.049a2.688,2.688,0,0,0,.728-.31.521.521,0,0,0,.2-.7.649.649,0,0,0-.48-.261,2.232,2.232,0,0,0-.791.124,85.485,85.485,0,0,1-12.982,2.89c-.4.066-.791.166-1.186.248s-.9.071-.826.634a.575.575,0,0,0,.61.523" transform="translate(-347.514 9.318)" fill="#232020"/>
                        <path id="Path_20826" data-name="Path 20826" d="M384.145,152.829c-.2.126-.419.19-.519.334a.488.488,0,0,0,.144.7,8.046,8.046,0,0,0,1.056.57c3.511,1.69,7.178,3.048,10.6,4.942.234.129.5.195.747.3.334.148.7.211.884-.147.247-.47-.087-.731-.482-.922-.182-.087-.352-.2-.535-.284q-5.485-2.549-10.972-5.094c-.3-.14-.607-.269-.917-.406" transform="translate(-337.003 8.286)" fill="#262323"/>
                        <path id="Path_20827" data-name="Path 20827" d="M377.309,105.377c.065-.2.006-.323-.212-.35-.067.2-.011.327.212.35" transform="translate(-310.371 5.567)" fill="#b65f3e"/>
                        <path id="Path_20828" data-name="Path 20828" d="M267.076,85.952a32.35,32.35,0,0,1,7.807.981c6.825,1.911,11.169,6.564,14.02,12.807a27.283,27.283,0,0,1,2.489,8.095,8.312,8.312,0,0,1-.108,3c-.266,1.115.178,1.528,1.121,1.059,2.857-1.418,5.485-.86,8.066.7,1.247.755,1.333.722,1.744-.7a56.473,56.473,0,0,1,2.238-6.714,22.265,22.265,0,0,1,14.144-13,13.409,13.409,0,0,1,7.369-.645,8.479,8.479,0,0,0,1.814.05,32.77,32.77,0,0,1-.9-8.643c.064-1.823.168-3.655.072-5.474-.248-4.725-4.17-6.85-8.346-4.573-.652.355-1.246.821-1.91,1.148-.946.465-1.334.294-1.627-.726-.242-.84-.328-1.724-.567-2.565-.822-2.9-2.448-3.924-5.4-3.574a15.337,15.337,0,0,0-2.549.622c-3.611,1.064-6.311-.45-7.278-4.07a23.837,23.837,0,0,1-.319-7.263,10.467,10.467,0,0,0-2.462-7.5c-4.261-5.088-12.647-4-15.883,1.714a4.726,4.726,0,0,0-.242,3.154,36.822,36.822,0,0,1-1.158,15.447c-1.97,6.454-5.312,11.957-11.143,15.683a2.534,2.534,0,0,0-1,.987" transform="translate(-144.566 2.194)" fill="#f2966c"/>
                        <path id="Path_20829" data-name="Path 20829" d="M333.976,109.1a18.1,18.1,0,0,0,5.132,1.034c2.064.311,4.143.537,6.206.886,1.693.286,1.921.087,1.919-1.577-.009-8.829,3.891-15.682,10.629-21.108.467-.376,1.048-.638,1.229-1.285a23.989,23.989,0,0,1-17.173-4.474c-.482.687-.05,1.154.072,1.638A15.385,15.385,0,0,1,342.57,88a5.139,5.139,0,0,1-2.81,4.8c-.412.228-.846.416-1.268.625-1.639.81-1.722,1.046-1.04,2.824.337.88.7,1.754.969,2.656,1.068,3.562.27,5.921-2.693,8.145-.734.551-1.709.91-1.751,2.056" transform="translate(-246.583 4.291)" fill="#f2966c"/>
                        <path id="Path_20830" data-name="Path 20830" d="M10.1,502.85c-1.332-.739-2.779-.194-4.157-.386-.634-.089-1.776.473-1.736-.668.031-.885,1.1-.533,1.706-.507a87.768,87.768,0,0,1,9.651.741,4.609,4.609,0,0,0,.607.041c5.061.111,10.111.643,15.182.411a25.966,25.966,0,0,1,6.807.734,21.41,21.41,0,0,0,5.016.52,17.615,17.615,0,0,1,4.641.222,6.335,6.335,0,0,0,2.364-.335.65.65,0,0,0,.5-.57,7.467,7.467,0,0,0,.408-1.97c-.194-3.455.494-6.868.431-10.309-.09-4.934.31-9.857.547-14.77.206-4.256-.011-8.513.315-12.748.28-3.64.109-7.3.464-10.911.3-3.045-.066-6.105.378-9.088.559-3.759-.1-7.563.7-11.285a1.563,1.563,0,0,0,.026-.4c-.216-3.653.386-7.272.507-10.914.1-3.027.243-6.059.339-9.091a28.011,28.011,0,0,0-.491-4c-.057-.517-.236-1.137-.869-1.241-.775-.127-1.026.534-1.265,1.086-1.875,4.336-3.5,8.77-5.114,13.208-2.19,6.023-4.383,12.046-6.685,18.027-.836,2.174-1.04,3.967.748,5.879a31.622,31.622,0,0,1,4.226,5.66c.135.232.331.432.453.67.241.471.642,1.017-.021,1.415-.68.408-.908-.227-1.223-.662-1.466-2.017-2.955-4.016-4.424-6.031a3.19,3.19,0,0,0-1.425-1.354c-.712.3-.6,1.033-.853,1.556a17.455,17.455,0,0,1-2.367,4.44c-.893,1-.573,2.18.625,3.118.656.514,1.376.9.889,1.945-.228.49.137.883.457,1.255,2.65,3.09,4.4,6.786,6.791,10.054.3.406.559.886.032,1.228-.477.308-.945-.032-1.22-.427-1.2-1.715-2.308-3.492-3.55-5.173-.628-.85-.726-2.291-2.272-2.259-.223.005-.253-.285-.16-.463.616-1.192-.154-1.888-.894-2.62a12.966,12.966,0,0,1-.9-1.087c-.721-.889-1.2-.9-1.821.077a17.78,17.78,0,0,0-.715,1.666c-.718,1.432-1.04,3.05-2.336,4.21-.886.793-.126,1.641.394,2.318,1.148,1.5,2.385,2.922,3.542,4.411.867,1.118,1.692,2.271,2.479,3.447.276.412.742,1.01.064,1.4-.538.314-1.056-.134-1.383-.555-.745-.955-1.42-1.966-2.131-2.949-.908-1.256-1.808-2.517-2.734-3.759-1.228-1.648-1.75-1.721-3.151-.241-1.7,1.8-3.554,3.426-6.065,3.808-3.242.494-6.505,1.191-9.812.524a25.361,25.361,0,0,0-3.436-.155,18,18,0,0,1-4.028-.266c-1.381-.4-1.579-.153-1.782,1.49a1.4,1.4,0,0,0-.23,1.148,106.546,106.546,0,0,1-.185,22.358c-.264,2.71.448,5.492.368,8.261a1.689,1.689,0,0,0,.3.642.447.447,0,0,0,.633.028,1.253,1.253,0,0,1,1.3-.686c1.847-.008,3.694-.073,5.54-.116" transform="translate(408.667 22.701)" fill="#16313c"/>
                        <path id="Path_20831" data-name="Path 20831" d="M447.95,503.57l-.451.038a5.709,5.709,0,0,0-3.484-.909c-5.689,0-11.344-.58-17.009-.938-7.76-.491-15.533-.608-23.3-1.022-3.225-.172-6.479-.075-9.719-.144-9.336-.2-18.619-1.169-27.917-1.921-3.367-.273-6.751-.261-10.128-.479-9.51-.614-19.027-1.125-28.544-1.6-6.684-.336-13.371-.634-20.055-.935-7.427-.334-14.856-.6-22.28-1.038-5.667-.337-11.336-.683-17.007-.96q-11.14-.544-22.26-1.44-8.188-.674-16.378-1.3-12.343-.932-24.655-2.174c-8.547-.87-17.112-1.594-25.626-2.76-16.629-2.277-33.233-4.736-49.853-7.087-10.923-1.546-21.866-2.957-32.712-5a115.191,115.191,0,0,1-23.786-6.754A29.277,29.277,0,0,1,56.8,451.471c-3.743-8.614-5.792-17.634-5.1-27.081a40.179,40.179,0,0,1,3.34-13.541c.371-.829,1.058-1.641.46-2.655a.8.8,0,0,0-.78-.464c-3.449,6.105-4.731,12.753-4.8,19.671a60.413,60.413,0,0,0,5.4,24.979A30.96,30.96,0,0,0,69.5,467.474c5.1,2.751,10.629,4.256,16.2,5.691a273.955,273.955,0,0,0,31.484,5.76c11.789,1.606,23.552,3.407,35.338,5.042,11.987,1.662,23.97,3.346,35.994,4.731,11.223,1.292,22.449,2.538,33.706,3.463,13.89,1.142,27.785,2.224,41.7,2.985,13.107.718,26.209,1.543,39.325,2.1,8.653.368,17.308.67,25.958,1.106,8.583.431,17.159.984,25.737,1.5,4.592.278,9.187.534,13.772.9,7.42.6,14.842,1.154,22.28,1.44,4.531.176,9.068.158,13.6.335q12.476.487,24.946,1.109c6.008.3,12.011.694,18.016,1.045.442.026,1.029.29,1.171-.382.106-.5-.345-.661-.772-.732" transform="translate(-36.021 22.782)" fill="#0d0e0e"/>
                        <path id="Path_20832" data-name="Path 20832" d="M55.577,408.169a8.878,8.878,0,0,1-.378,1.143,41.845,41.845,0,0,0-4.1,18.568,58.641,58.641,0,0,0,6.163,25.728,28.189,28.189,0,0,0,11.4,12.04c5.167,3.048,10.877,4.692,16.6,6.262a195.562,195.562,0,0,0,20.551,4.144c4.509.729,9.027,1.369,13.551,1.989,5.32.728,10.625,1.575,15.94,2.342,4.055.585,8.12,1.106,12.174,1.694,4.318.628,8.624,1.34,12.946,1.943,3.526.491,7.071.848,10.6,1.315,2.131.28,4.243.685,6.372.979,2.72.375,5.443.767,8.176,1.012,2.142.193,4.278.393,6.4.736,1.394.225,2.822.317,4.211.412,3.425.236,6.837.635,10.242.987,3.47.359,6.966.51,10.421,1.085a45.377,45.377,0,0,0,4.824.347c2.354.134,4.7.425,7.045.6a46.034,46.034,0,0,1,7.223.646,5.442,5.442,0,0,0,1.211.077c4.585.028,9.129.674,13.7.908,4.162.211,8.322.557,12.49.784,4.84.263,9.685.5,14.52.813,5.179.336,10.357.564,15.535.844,3.167.171,6.358.017,9.491.387,3.042.359,6.087.052,9.089.393,3.1.353,6.213.117,9.293.4,5.107.462,10.217.624,15.334.833,4.637.189,9.274.532,13.911.811,4.976.3,9.955.529,14.926.837a101.219,101.219,0,0,1,11.636,1.075,8.634,8.634,0,0,0,1.011.049c5.983.342,11.964.892,17.948.918,2.1.008,4.253.761,6.361-.061a2.1,2.1,0,0,1,1.207-.011c2.467.641,4.98.237,7.467.381,4.043.235,8.09.3,12.132.472,4.231.18,8.467.5,12.69.829,2.563.2,5.114.263,7.673.312,1.351.026,2.638.631,4.01.4-.011-.138-.022-.276-.034-.414a19.386,19.386,0,0,1-.937-7.521,128.712,128.712,0,0,0,.894-19.571,11.935,11.935,0,0,0-.951-4.537,2.1,2.1,0,0,1,.19-2.456q.011-.452.023-.906a9.413,9.413,0,0,0-9.863-4.821c-4.023.533-7.994,1.4-12.027,1.892-5.795.711-11.605.419-17.413.4-1.759,0-3.52.068-5.276-.027a14.742,14.742,0,0,1-6.756-1.967,12.515,12.515,0,0,0-6.735-2.006c-8.813.348-17.363-1.424-25.944-2.973-8.055-1.454-16.1-2.969-24.038-5a131.778,131.778,0,0,1-16.005-5.207,51.753,51.753,0,0,0-20.619-3.847c-13.964.41-27.075-2.877-39.917-7.886-3.272-1.276-6.732-2.023-10.029-3.267a33.7,33.7,0,0,1-4.836-2.08,11.688,11.688,0,0,0-1.592-.517c-3.644-.459-6.779-2.483-10.288-3.354-.881-.219-1.714-.853-2.693-.354a4.719,4.719,0,0,0-.005.811c.16.987-.284,1.356-1.234,1.336-2.909-.06-5.825.031-8.724-.169-4.516-.311-9.033-.55-13.555-.756-8.318-.378-16.64-.523-24.955-.255-10.273.331-20.542.7-30.822.661-1.364-.006-2.658.413-4.015.509-4.906.347-9.82.274-14.728.46a41.234,41.234,0,0,1-5.615.173c-2.821-.286-5.675-.013-8.475-.634a19.781,19.781,0,0,0-3.827-.373,172.827,172.827,0,0,1-27.153-3.037c-2.187-.4-4.409-.62-6.578-1.095a28.413,28.413,0,0,1-6.165-1.923c-2.93-1.393-5.855-2.813-8.728-4.3a35.1,35.1,0,0,1-5.828-4.354,27.631,27.631,0,0,1-4.651-4.513,4.265,4.265,0,0,0-2.093-1.537" transform="translate(-36.094 22.807)" fill="#222626"/>
                        <path id="Path_20834" data-name="Path 20834" d="M51.805,465.806c-.983.346-1.316.83-.9,1.971,1.694,4.666,1.61,9.484.973,14.327a3.633,3.633,0,0,0-.053.6c.159,4.18-.708,8.289-.856,12.448-.019.524-.248,1.016.175,1.522a3.171,3.171,0,0,1,.671,2.274c-.03.544.189.915.8.938a31.59,31.59,0,0,0-.29-7.206c-.392-1.89.224-3.884.416-5.813a51.984,51.984,0,0,0,.29-5.639c-.022-2.354-.223-4.743-.126-7.053a26.491,26.491,0,0,0-.7-6.349c-.658-.572-.308-1.341-.4-2.024" transform="translate(358.835 26.085)" fill="#0d0e0e"/>
                        <path id="Path_20835" data-name="Path 20835" d="M98.131,412.1c-1.2,2.655,1.258,11.57,3.716,13.475.3-3.729-1.969-11.971-3.716-13.475" transform="translate(260.224 23.031)" fill="#f1f2f2"/>
                        <path id="Path_20836" data-name="Path 20836" d="M32.386,464.846c-.5.653-1.212.385-1.848.422-.794.046-1.591.059-2.386.086a9.87,9.87,0,0,0,3.6.3c2.418-.078,4.857.176,7.254-.314a10.4,10.4,0,0,0,6.446-4.206c.16-.217.322-.463.108-.714a.423.423,0,0,0-.69-.005c-1.744,1.945-4.217,2.569-6.488,3.53-1.105.467-2.349.6-3.478,1.023a3.351,3.351,0,0,1-2.52-.126" transform="translate(390.06 25.769)" fill="#e0e0e1"/>
                        <path id="Path_20837" data-name="Path 20837" d="M95.416,408.389c-1.615,2.308-3.367,9.9-3.035,13.367,2.208-4.348,2.773-8.75,3.035-13.367" transform="translate(272.47 22.82)" fill="#e6e6e7"/>
                        <path id="Path_20838" data-name="Path 20838" d="M39.547,461.2a8.134,8.134,0,0,0-5.488,1.205c-.327.191-.821.374-.663.867.18.555.648.264,1.006.182a16.087,16.087,0,0,0,5.145-2.253" transform="translate(390.669 25.818)" fill="#e3e4e4"/>
                        <path id="Path_20839" data-name="Path 20839" d="M38.793,454.9c1.415.98,1.42.963,2.854.593-.962-.531-1.678-1.044-2.854-.593" transform="translate(382.832 25.455)" fill="#122a33"/>
                        <path id="Path_20840" data-name="Path 20840" d="M392.616,417.248c-.122-.437.333-.675.364-1.06a.57.57,0,0,0-.853-.07,2.959,2.959,0,0,1-2.895.01c-10.181-4.554-20.363-9.109-30.223-14.331q-8.142-4.314-16.089-8.993c-4.472-2.649-8.989-5.22-13.5-7.809-1.73-.995-1.856-1.349-1.587-3.388.157-1.2.043-2.433.111-3.647a51.208,51.208,0,0,1,.775-6.93c6.242-9.549,12.362-19.175,18.47-28.809,10.277-16.209,20.539-32.43,31.3-48.322,6.516-9.622,13.086-19.218,20.339-28.316,3.913-4.909,7.574-10.016,11.639-14.8.472-.556,1.036-1.112.742-1.971a28.648,28.648,0,0,0-4.537.914c-2.228.44-4.289-.037-6.414-.305-.4-.051-.793-.16-1.191-.224a6.03,6.03,0,0,1-4.471-3.14,75.983,75.983,0,0,1-5.3-11.165,73.413,73.413,0,0,1-4.059-16.472,112.354,112.354,0,0,1-.5-12.959c-.011-.685.552-1.957-.6-1.963-.881-.005-.5,1.224-.505,1.9-.027,7.645.414,15.249,2.389,22.681a60.807,60.807,0,0,0,7.449,17.884,6.7,6.7,0,0,1,.565,1.075,2.628,2.628,0,0,1,.012.765,33.159,33.159,0,0,1-10.272-4.74c-6.14-4.26-8.888-10.5-10.342-17.509a16.782,16.782,0,0,1-.587-4.379c.044-.765-.054-1.475-.882-1.522a1.672,1.672,0,0,0-1.716,1.184,4.97,4.97,0,0,0-.09,1.408,46.987,46.987,0,0,0,2.156,15.748c1.643,4.833,3.672,9.482,7.8,12.793,2.787,2.232,5.638,4.384,9.153,5.412,1.335.391,1.541.75,1.623,2.193.131,2.285-.288,4.593.341,6.862a2.233,2.233,0,0,1-.638,1.861c-2.868,4.008-5.739,8.008-8.866,11.827-2.777,3.393-5.323,6.974-8.012,10.441-2.812,3.626-5.637,7.249-8.375,10.925-3.668,4.924-7.5,9.722-11.153,14.652-3.94,5.31-8.044,10.5-12.045,15.762-2.613,3.436-5.16,6.921-7.757,10.368-1.464,1.94-2.965,3.853-4.472,5.76a1.331,1.331,0,0,1-1.161.707c.029-11.13-.039-22.251-.428-33.367a.568.568,0,0,0-.831,0q0,23.547.005,47.092a13.032,13.032,0,0,1-.3,3.419,28.192,28.192,0,0,0-.711,7.765c.044,2.4.03,4.843.224,7.259a14.639,14.639,0,0,1,0,1.623c-.056,1.84-.28,1.987-1.834,1.151-1.369-.736-2.726-1.493-4.077-2.262a209.748,209.748,0,0,0-27.58-13.223,8.759,8.759,0,0,1-4.695-3.609,16.38,16.38,0,0,0-4.094-4.447c-1.288-.988-1.243-1.082-.535-2.595a3.356,3.356,0,0,0,.2-1.586c-.155-6.424.57-12.811.9-19.212a100.54,100.54,0,0,1,1.846-15.849,8.473,8.473,0,0,0,.056-1.617.472.472,0,0,0-.294-.468c-1.039,1.516-2.339,10.729-2.57,16.9-.215,5.757-.642,11.5-.975,17.229a.876.876,0,0,1-.853-.365c-4.186-5.084-9.707-8.312-15.513-11.14-.684-.333-1.805.343-2.327,1.318a1.4,1.4,0,0,0,.713,2.035c3.381,1.48,6.089,3.945,9.032,6.061a8.964,8.964,0,0,1,3.046,3.922l.006-.007c-2.3-.946-4.584-1.917-6.894-2.83-4.2-1.663-8.6-2.723-12.932-3.966a2.4,2.4,0,0,0-1.2-.062,1.761,1.761,0,0,0-1.417,1.3c-.1.709.6.941,1.206,1.1.974.261,1.934.6,2.923.775a31.038,31.038,0,0,1,13.838,5.7,17.3,17.3,0,0,1,5.11,6.421c-2.406-.478-4.655-.95-6.916-1.359-.9-.163-1.845-.523-2.7.184-.123.113-.156.217-.1.31s.1.134.15.134c3.828.778,7.685,1.4,11.472,2.394a133.136,133.136,0,0,1,20.207,7.191,304.6,304.6,0,0,1,28.6,14.854c8.135,4.694,16.224,9.469,24.446,14a268,268,0,0,0,24.319,12.1c4.661,1.986,9.245,4.146,13.865,6.228.124.056.244.117.368.171,1.208.53,1.219.519,1.106-.979" transform="translate(-215.018 11.167)" fill="#264740"/>
                        <path id="Path_20841" data-name="Path 20841" d="M135.277,411.96l.854.07c4.4-6.485,8.556-13.122,12.54-19.868,10.959-18.559,21.52-37.345,32.119-56.11,5.452-9.654,11.476-18.964,17.492-28.272,1.131-1.751,2.439-3.387,3.7-5.126a19.843,19.843,0,0,1,2.818,3.884c5.922,8.815,12.269,17.327,18.452,25.956,6.819,9.514,12.783,19.584,19.222,29.343,6.106,9.253,12.043,18.611,17.941,28a49.271,49.271,0,0,1,6.022,15.177A79.8,79.8,0,0,0,276.97,430.1c1.611,2.506,2.055,5.393,2.947,8.137q.155.478.309.957a.285.285,0,0,0,.451-.006,18.175,18.175,0,0,0-2.654-9.4,89.005,89.005,0,0,1-8.5-17.88,95.225,95.225,0,0,1-2.614-9.542,40.978,40.978,0,0,0-5.348-12.6c-5.764-9.36-11.68-18.622-17.643-27.856-3-4.646-6.051-9.26-9-13.939-3.272-5.2-6.785-10.228-10.256-15.287-3.81-5.552-7.947-10.878-11.8-16.4-4.363-6.245-8.758-12.473-12.557-19.094a75.449,75.449,0,0,1-5.981-12.825,54.1,54.1,0,0,1-1.377-5.685,6.944,6.944,0,0,0-.259-1.173c-.168-.394-.243-1.08-.877-.881-.65.2-.277.751-.193,1.2a57.333,57.333,0,0,0,4.011,12.887,80.3,80.3,0,0,0,4.772,8.907,2.7,2.7,0,0,1-.128,3.475c-3.043,4.042-5.756,8.309-8.395,12.622-4.505,7.36-9.23,14.589-13.466,22.113-3.408,6.055-6.766,12.137-10.25,18.15-4.26,7.355-8.316,14.828-12.578,22.181-3.821,6.592-7.542,13.242-11.581,19.708q-3.161,5.06-6.459,10.024a29.115,29.115,0,0,0-2.268,4.064" transform="translate(41.831 15.325)" fill="#0d0e0e"/>
                        <path id="Path_20842" data-name="Path 20842" d="M248.486,243.529l-.823.964c-1.812.712-2.934,2.316-4.417,3.454-1.817,1.393-2.223,1.537-4.054.107a14.575,14.575,0,0,0-6.393-2.9,9.9,9.9,0,0,1-4.066-2.188c-2.624-1.975-5.335-3.709-8.82-3.589a2.913,2.913,0,0,1-2.176-.936,21.241,21.241,0,0,0-8.174-5.419,2.271,2.271,0,0,0-.366-.393c-.294-.2-.69-.086-.981-.309-3.127-1.74-6.816-1.984-9.939-3.76a25.511,25.511,0,0,1-5.784-4.022,9.094,9.094,0,0,0-2.5-1.676c-1.808-.9-4.224.211-3.948,3.128a6.826,6.826,0,0,0,2.06,4.291q1.081,1.064,2.19,2.1a1.031,1.031,0,0,1,.244,1.413,2.652,2.652,0,0,0,.888,3.638,13.324,13.324,0,0,0,3.468,2.041,14.946,14.946,0,0,1,3.148,1.353.858.858,0,0,0,.885.283c1.9-.191,1.895-.19,2.526,1.586a5.361,5.361,0,0,0,2.039,2.7,15.23,15.23,0,0,0,7.567,2.623c.657.059,1.565-.1,1.742.692.23,1.037.88,2,.67,3.118-.094.5-.547.762-.981.962a6.054,6.054,0,0,1-2.733.666c-1.957-.062-3.908-.089-5.865-.311a26.014,26.014,0,0,0-8.677.23,5.7,5.7,0,0,0-2.7,1.328,2.467,2.467,0,0,0-.09,3.893,8.767,8.767,0,0,0,6.058,2.427c3.65.172,7.3.162,10.954.026a93.931,93.931,0,0,1,17.567,1.14c4,.607,8.054.816,12,1.764,1.706.41,3.408.849,5.085,1.365a10.751,10.751,0,0,0,9.64-1.554,70.213,70.213,0,0,0,7.762-6.189,4.516,4.516,0,0,1,2-1.326c.362-.642.958-1.207.677-2.061a2.129,2.129,0,0,0-1.826.7c-2.392,2.1-4.995,3.934-7.4,6.012-3.292,2.846-6.873,4.028-11.246,2.667-7.736-2.409-15.816-2.864-23.8-3.819a63.7,63.7,0,0,0-14.365-.057,29.8,29.8,0,0,1-9.269-.779,4.8,4.8,0,0,1-1.16-.363c-.857-.427-1.818-.858-1.711-2.01.1-1.084,1.113-1.221,1.945-1.493,3.265-1.068,6.563-.7,9.845-.169a13.142,13.142,0,0,0,8.5-1,2.224,2.224,0,0,1,2.31.072c3.385,1.971,6.979,1.972,10.606.931a3.983,3.983,0,0,1,4.135.674,5.341,5.341,0,0,0,4.391,1.14c.528-.076,1.148-.151,1.2-.853.042-.6-.486-.8-.936-.891a8.372,8.372,0,0,1-5.067-2.711c-.706-.842-1.776-.452-2.649-.035a13.724,13.724,0,0,1-7.156.987,6.609,6.609,0,0,1-5.408-3.136c-.8-1.287-.3-2.277,1.165-2.069,4.843.684,9.554-.086,14.314-.817,2.395-.369,4.628.666,6.638,2.058,3.559,2.466,7.129,4.918,10.848,7.142a18.916,18.916,0,0,0,3.455,1.7c.645.225,1.438.38,1.8-.376.386-.813-.348-1.191-.929-1.54-.348-.209-.73-.353-1.1-.527a46.436,46.436,0,0,1-6.3-3.7c-1.64-1.125-1.6-1.37-.187-2.693,2.029-1.9,4.417-3.365,6.351-5.366.592-.611,1.4-1.128,1.294-2.17l-.8-.255c-1.616-.158-2.263,1.165-3.178,2.077" transform="translate(4.628 12.251)" fill="#b55e3d"/>
                        <path id="Path_20843" data-name="Path 20843" d="M337.684,240.127a.958.958,0,0,0-.884-.283l-6.477,6.9a65.982,65.982,0,0,1-4.429,5.761c-1.708,2.257-3.653,4.339-5.293,6.642-3.858,5.422-8.22,10.459-11.979,15.955-2.55,3.731-5.162,7.421-7.764,11.117-6.219,8.832-12.047,17.926-17.935,26.977-7.359,11.314-14.494,22.772-21.757,34.148-4.175,6.54-8.408,13.042-12.621,19.556a3.331,3.331,0,0,0-.714,2.064c1.335-.6,1.821-1.958,2.539-3.044,3.683-5.569,7.285-11.192,10.875-16.822,5.439-8.528,10.81-17.1,16.279-25.61,3.9-6.072,7.931-12.062,11.885-18.1,2.845-4.346,5.6-8.753,8.5-13.058,6.143-9.106,12.491-18.069,19.179-26.784,4.18-5.448,8.573-10.731,12.755-16.177,2.467-3.212,5.412-6,7.84-9.237" transform="translate(-134.127 13.234)" fill="#0d0e0e"/>
                        <path id="Path_20844" data-name="Path 20844" d="M134.1,430.44l-.451.005a140.181,140.181,0,0,0,.9,19.495c.212.422.212.981.762,1.186l.407.024a14.92,14.92,0,0,0-.115-4.358,29.511,29.511,0,0,1-.294-3.785c-.15-3.47-.563-6.927-.432-10.411a10.272,10.272,0,0,0-.373-2.158c-.134,0-.269,0-.4,0" transform="translate(188.409 24.074)" fill="#10232a"/>
                        <path id="Path_20845" data-name="Path 20845" d="M385.021,315.238h.831q-.008-13.575-.014-27.149,0-18.944.005-37.888c-.328-.786-1.137-.764-1.76-1.055-.637-.76-.174-1.565-.011-2.293,2.348-10.445,1.022-20.587-2.541-30.522-2.879-8.027-8.459-13.886-15.309-18.682a12.408,12.408,0,0,0-3.659-1.112,15.875,15.875,0,0,1-11.642-9.111c-.387-.832-.626-1.819-1.636-2.208a3.5,3.5,0,0,1-1.641-.315,10.283,10.283,0,0,1-2.889.764,50.977,50.977,0,0,0-10.721,4.2,1.418,1.418,0,0,0-.82.751,6.754,6.754,0,0,0,2.388.734,56,56,0,0,1,22.686,11.609,68.04,68.04,0,0,1,9.943,10.052,43.414,43.414,0,0,1,3.987,6.325,82.769,82.769,0,0,1,5.57,13.012,112.087,112.087,0,0,1,3.586,14.9c.27,1.443.55,2.8,2.319,3.158a1.225,1.225,0,0,1,.965,1.37c-.019.54,0,1.082,0,1.623q.011,29.312.017,58.626a10.983,10.983,0,0,0,.346,3.21" transform="translate(-272.538 10.11)" fill="#264740"/>
                        <path id="Path_20846" data-name="Path 20846" d="M304.627,168.229l-.446.406a1.824,1.824,0,0,0-.464,1.235,19.353,19.353,0,0,1-2.165,9.966,3.69,3.69,0,0,0-.114,3.127c3.814,10.529-2.558,17.563-10.7,20.761a17.8,17.8,0,0,1-13.8.165,2.567,2.567,0,0,0-1.784-.115c-.743.389-1.346.861-1.074,1.842a1.684,1.684,0,0,0,1.113,1.324,11.421,11.421,0,0,0,5.281,1.182,20.91,20.91,0,0,1,3.405.447,25.676,25.676,0,0,0,7.4-.956c3.078-.707,6.174-1.534,8.667-3.628,3.732-3.136,7.229-6.383,8.105-11.628.463-2.771,1.018-5.436.034-8.163a1.153,1.153,0,0,1,.317-1.444c2.669-2.3,3.4-5.583,4.35-8.741a13.312,13.312,0,0,0,.415-2.181c.124-.967-.1-1.675-1.237-1.952a55.779,55.779,0,0,0-7.3-1.647" transform="translate(-137.303 9.162)" fill="#264741"/>
                        <path id="Path_20847" data-name="Path 20847" d="M329.849,203.962c.056-.677.632-1.054.924-1.595-.889-1.936-2.777-3.016-4.007-4.666a.822.822,0,0,0-1.242-.158c-.807,2-1.536,4.037-2.441,5.992a8.1,8.1,0,0,1-5.333,4.622,2.088,2.088,0,0,0-.516,1.688c-.055,8.388-2.56,16.2-5.577,23.9a19.13,19.13,0,0,0-1.512,4.594.894.894,0,0,0,.523.749c1.193-.191,1.506-1.235,1.944-2.1,1.507-2.984,3.02-5.963,4.6-8.911a4.493,4.493,0,0,1,1.31-1.731q4.126-8.231,8.256-16.46c1-1.986,2.048-3.947,3.073-5.919" transform="translate(-193.079 10.816)" fill="#bf4e1b"/>
                        <path id="Path_20848" data-name="Path 20848" d="M327.891,239.131c1.453-3.988,2.977-7.951,4.342-11.968a51.506,51.506,0,0,0,2.96-18.444,1.384,1.384,0,0,1-.316-1.312c.738-1.87-.066-3.628-.63-5.285a33.825,33.825,0,0,0-10.055-14.7c-.823.124-1.092.622-.948,1.4a18.72,18.72,0,0,0,2.482,3.19c7.014,7.6,9.01,16.508,7.1,26.507-1.665,8.706-5.179,16.759-8.64,24.832-.584,1.363-1.176,2.727-1.882,4.039a2.5,2.5,0,0,0-.413,2.3,3,3,0,0,1,1.936.361c1.361-3.685,3.835-6.755,5.648-10.195,2.253-4.276,4.574-8.513,6.489-12.957-.936-.075-1.238.609-1.585,1.283q-2.256,4.384-4.55,8.747c-.469.889-1.01,1.74-1.518,2.607a.8.8,0,0,0-.462.517,1,1,0,0,1,.043-.928" transform="translate(-210.52 10.253)" fill="#702c14"/>
                        <path id="Path_20849" data-name="Path 20849" d="M265.415,230.415a8.832,8.832,0,0,1-3.928-.778,62.033,62.033,0,0,1-16.746-10.127,30.471,30.471,0,0,1-9.874-13.843,17.927,17.927,0,0,1-.024-11.688,18.028,18.028,0,0,0,.5-1.745.524.524,0,0,0-.327-.652.551.551,0,0,0-.669.327,5.505,5.505,0,0,0-.574,1.286,22.6,22.6,0,0,0,3.783,20.129,50.473,50.473,0,0,0,14.28,12.7,39.731,39.731,0,0,0,10.51,5.146.673.673,0,0,1,.544.725,2.2,2.2,0,0,0,2.523-1.484" transform="translate(-46.068 10.488)" fill="#274842"/>
                        <path id="Path_20850" data-name="Path 20850" d="M201.326,228.7l-2.523,1.485A5.87,5.87,0,0,0,196.4,231.8c-.142.368-.552.293-.8.483l0-.007a.3.3,0,0,0-.114.322c.038.107.075.161.113.161l-.011-.01c.974.648,1.82.087,2.659-.315,2.256-1.08,4.307-2.53,6.588-3.579a52.634,52.634,0,0,1,21.083-5.275c4.18-.078,8.382-.356,12.554.3a2.642,2.642,0,0,0,1.773-.274c.489-.181.9-.394.39-.973-1.53-.661-3.22-.45-4.793-.878-2.3,0-4.6-.024-6.9,0a56.274,56.274,0,0,0-27.047,6.743,3.809,3.809,0,0,1-.571.206" transform="translate(18.02 12.205)" fill="#0e1010"/>
                        <path id="Path_20851" data-name="Path 20851" d="M239.08,232.193c0-.161,0-.321,0-.483l-.776.093a.9.9,0,0,0,.775.39" transform="translate(-25.46 12.772)" fill="#222626"/>
                        <path id="Path_20852" data-name="Path 20852" d="M237.55,231.743c.384.033.7-.051.8-.483a1.064,1.064,0,0,0-.8.483" transform="translate(-23.932 12.746)" fill="#222626"/>
                        <path id="Path_20853" data-name="Path 20853" d="M245.74,240.716a25.685,25.685,0,0,1-4.093,3.9c-1.671,1.254-3.264,2.618-4.845,3.989-1.118.97-1.089,1.269.169,2.12a47.72,47.72,0,0,0,8.4,4.873,5.464,5.464,0,0,1,.88.463c.083.054.113.234.116.358.007.245-.179.346-.383.393a2.524,2.524,0,0,1-1.711-.5,86.013,86.013,0,0,1-12.833-8.119,12.266,12.266,0,0,0-10.683-2.151,26.185,26.185,0,0,1-10.846.347,3.749,3.749,0,0,0-1.411.006,1.5,1.5,0,0,0-1.059,2.332,7.4,7.4,0,0,0,6.171,4.045c2.775.2,5.55.167,8.084-1.3.61-.352,1.333-.59,1.759.228,1.054,2.021,2.973,2.379,4.934,2.681a1.242,1.242,0,0,1,1.019.447,4.173,4.173,0,0,1-3.6.132,4.324,4.324,0,0,1-2.073-1.23,2.493,2.493,0,0,0-3.091-.64,14.8,14.8,0,0,1-8.366.558,9.47,9.47,0,0,1-3.268-1.535,1.4,1.4,0,0,0-1.829-.047c-2.491,1.741-5.3,1.748-8.175,1.352a35.6,35.6,0,0,0-6.436-.6,23.435,23.435,0,0,0-5.153.968,2.076,2.076,0,0,0-1.609,1.667,2.041,2.041,0,0,0,1.15,1.994,5.9,5.9,0,0,0,2.007.941,40.25,40.25,0,0,0,11.858.653,43.606,43.606,0,0,1,10.721.127c2.8.4,5.62.666,8.437.93a79.1,79.1,0,0,1,17.078,3.066c4.3,1.393,7.82.141,11.109-2.471,3.115-2.472,6.184-5,9.274-7.506a2.19,2.19,0,0,0,.093-2.1c-2.143-4.781-5.73-8.193-10.115-10.9-.891-.548-1.184.164-1.686.517" transform="translate(11.354 13.243)" fill="#f2966c"/>
                        <path id="Path_20854" data-name="Path 20854" d="M240.545,223.3a117.476,117.476,0,0,0-13.734-.4c-6.211-.019-12.093,1.564-17.893,3.621a71.383,71.383,0,0,0-10.613,5.319,4.716,4.716,0,0,1-2.46.84c.115.514.1,1.12.821,1.222,3.246.456,5.293,2.8,7.5,4.846a3.113,3.113,0,0,0,2.433,1.075c3.3-.159,5.978,1.414,8.459,3.337a12.6,12.6,0,0,0,5.741,2.767,12.139,12.139,0,0,1,5.314,2.785c1.853,1.422,2.273,1.417,3.987-.146,1.484-1.354,3.26-2.4,4.426-4.1a5.027,5.027,0,0,0-.555-1.914c-.642-1.573-.456-2.161.875-3.242a8.182,8.182,0,0,0,2.984-4.623c.66-2.794,1.6-5.523,2.422-8.278a4.883,4.883,0,0,0,.368-2.73c.114-.111.141-.205.08-.282a.215.215,0,0,0-.155-.1" transform="translate(17.764 12.27)" fill="#222626"/>
                        <path id="Path_20855" data-name="Path 20855" d="M198.714,242.593c1.389-.187,1.945-1.65,3.178-2.076.133-.932-.294-1.446-1.21-1.469-.934-.023-1.934-.15-2.643.677-.235.275-.108.638.023.962a5.574,5.574,0,0,1,.652,1.906" transform="translate(54.4 13.188)" fill="#537a73"/>
                        <path id="Path_20856" data-name="Path 20856" d="M194.87,223.351a2.985,2.985,0,0,0,.075.386c.676.011.831-.538,1.047-1,.108-.231.172-.606-.084-.684-.374-.112-.515.3-.691.561a.928.928,0,0,1-.347.737" transform="translate(63.439 12.222)" fill="#395953"/>
                        <path id="Path_20857" data-name="Path 20857" d="M318.8,192.36a25.454,25.454,0,0,0,2.914,3.358,30.964,30.964,0,0,1,7,12.414c.335,1.3.521,2.646.774,3.971a2.327,2.327,0,0,0,2.182-.75c1.892-1.6,2.8-3.8,3.724-5.968,2.9-6.767,5.287-13.732,7.816-20.642.859-2.346,1.748-4.679,2.78-6.956.682-1.506.46-1.965-1.126-2.143-2.81-.317-5.632-.536-8.438-.884-1.535-.19-3.048-.547-4.566-.858-.324-.066-.7-.266-.642-.657.092-.61.57-.4.949-.322a103.075,103.075,0,0,0,12.415,1.562,129.27,129.27,0,0,0,13.568.252,28.807,28.807,0,0,0,9.6-2.262c6.51-2.436,10.742-7.325,14.05-13.137A44.027,44.027,0,0,0,386.708,144c.173-1.13.354-2.263.622-3.372a1.744,1.744,0,0,0-.265-1.525,25.211,25.211,0,0,1-17.029-6.186.792.792,0,0,0-.94.588c-1.061,3.4-3.663,4.616-6.652,4.854,1.579-.324,3.442-.61,4.844-2.111a5.109,5.109,0,0,0,1.169-5.941,7.188,7.188,0,0,0-1.426-2.435c-3.449-3.4-4.1-7.736-4.2-12.284-.027-1.306.388-2.74-.821-3.806-1.229-2.912-6.753-3.665-9.147-2.05a3.831,3.831,0,0,0-1.548,2.722,23.468,23.468,0,0,1-4.231,10.407c-5.072,6.559-11.63,10.434-20.078,9.6-10.572-1.048-18.276-7.3-20.715-18.347-.693-3.144-.624-3.124-3.8-3.5-2.407-.283-4.8-.668-7.2-1.025-.4-.06-.792-.215-1.12.16-.185.954.491,1.65.751,2.47.632,2,1.269,3.992.779,6.135a2.686,2.686,0,0,0,.349,1.948.927.927,0,0,1-.6,1.146c-.589.175-.825-.34-1-.782a41.955,41.955,0,0,0-5.67-10.024c-1.936-2.56-4.209-4.727-7.536-5.471a9.823,9.823,0,0,0-11.563,5.56,17.638,17.638,0,0,0-1.648,9.009,30.154,30.154,0,0,0,5.646,16.215c3.107,4.157,7.011,7.281,12.337,8.2a12.925,12.925,0,0,0,5.806-.353,4.685,4.685,0,0,0,1.987-1.359,4.876,4.876,0,0,1,1.513-1.34,3.166,3.166,0,0,1-2.345,3.491,3.05,3.05,0,0,0-1.7.95,1.541,1.541,0,0,0-.054,1.624,35.971,35.971,0,0,0,3.578,9.234c.613,1.127,1.235,2.065,2.635,2.191.243.022.467.251.7.385.465.924,1.388,1.186,2.24,1.551a21.773,21.773,0,0,1,14.265,7.307,20.466,20.466,0,0,1,5.264,12.026A20.037,20.037,0,0,1,318.561,190c-.359.806-.724,1.666.238,2.363" transform="translate(-205.126 5.558)" fill="#f2966c"/>
                        <path id="Path_20858" data-name="Path 20858" d="M346.678,108.73a23.334,23.334,0,0,0-4.966-15.716c-6.478-8.331-16.856-10.57-26.316-5.389-7.187,3.937-10.816,10.32-12.23,18.172a23.392,23.392,0,0,0,3.669,17.4,20.085,20.085,0,0,0,13.122,8.8c14.493,3.2,24.3-7.776,26.31-17.832a31.318,31.318,0,0,0,.412-5.442" transform="translate(-201.214 4.42)" fill="#f2966c"/>
                        <path id="Path_20859" data-name="Path 20859" d="M288.644,90.3c-7.211-1.417-13.024,1.174-17.806,6.4a26.023,26.023,0,0,0-6.64,15.574c-1.439,5.655-.687,10.915,2.953,15.589.792,1.017,1.494,2.082,2.216,3.139a3.934,3.934,0,0,0,1.76,1.619,24.433,24.433,0,0,0,12.809,6.046c.8.135,1.6.239,2.4.348a1.961,1.961,0,0,0,2.339-1.141c1.169-2.006,1.021-4.3,1.252-6.47.506-4.742.932-9.5,1.418-14.242.575-5.616.933-11.246,1.461-16.863a8.919,8.919,0,0,0,0-1.816,30.7,30.7,0,0,1-2.618-7.239c-.424-.465-.793-1.024-1.549-.945" transform="translate(-105.876 4.708)" fill="#f2966c"/>
                        <path id="Path_20861" data-name="Path 20861" d="M260.787,98.1a14.55,14.55,0,0,0,6.179-1,10.842,10.842,0,0,0-7.414-5.69,9.712,9.712,0,0,1-1.846-.78c-.5-.079-.657.15-.567.613.19.906.413,1.806.563,2.718a8.568,8.568,0,0,0,1.963,4.05.856.856,0,0,0,1.122.085" transform="translate(-73.225 4.748)" fill="#3c1e18"/>
                        <path id="Path_20862" data-name="Path 20862" d="M267.722,97.7l-1.122-.085c-.465,4.827-.5,9.684-1.146,14.5-.464,3.468-.529,6.987-.927,10.466-.488,4.278-.759,8.583-1.487,12.834a14.939,14.939,0,0,0-.079,2.022l.8-.018a11.56,11.56,0,0,0,.693-3.956q1.314-12.348,2.469-24.712c.269-2.881.331-5.781.487-8.673a6.219,6.219,0,0,1,.315-2.382" transform="translate(-80.16 5.146)" fill="#b7603f"/>
                        <path id="Path_20863" data-name="Path 20863" d="M293.959,131.42c-1.547-2.11-2.749-4.476-4.708-6.279a3.259,3.259,0,0,1-.884-1.573,39.783,39.783,0,0,1-1.659-9.5c-.023-1.031.5-1.968.322-2.992-.336.7-.886.539-1.44.353a6.593,6.593,0,0,1,.277,2.605,32.556,32.556,0,0,0,.485,6.453,12.019,12.019,0,0,0,3.232,6.64,11.384,11.384,0,0,1,1.843,2.647c1.853,3.6-.741,6.445-3.241,7.244a15.84,15.84,0,0,1-2.176.45,4.3,4.3,0,0,0-1.938.668c.082.509.394.547.637.526a14.085,14.085,0,0,0,5.462-1.327,5.08,5.08,0,0,0,2.558-3.006c.211-.634.281-1.334.888-1.767.016-.409-.1-.858.342-1.139" transform="translate(-128.709 5.911)" fill="#b75f3e"/>
                        <path id="Path_20864" data-name="Path 20864" d="M360.854,120.079c.137-1.861.547-3.7.148-5.6a11.693,11.693,0,0,0-2.027-4.958c-1.538-.214-2.978-.93-4.567-.883a.541.541,0,0,0-.152.857,58.447,58.447,0,0,1,5.413,9.268c.281.543.534,1.1,1.185,1.31" transform="translate(-269.939 5.773)" fill="#3d1e18"/>
                        <path id="Path_20865" data-name="Path 20865" d="M267.023,91.274c.189-.2.377-.407.567-.612-.521-.351-.99-.948-1.712-.368q.572.49,1.146.98" transform="translate(-83.109 4.716)" fill="#552c20"/>
                        <path id="Path_20866" data-name="Path 20866" d="M266.69,136.054l-.362-.448a.386.386,0,0,0,.362.448" transform="translate(-82.685 7.306)" fill="#b7603f"/>
                        <path id="Path_20867" data-name="Path 20867" d="M316.183,169.955l-.045-1.334c-.786-.39-1.43.043-2.1.358a39.112,39.112,0,0,1-12.4,3.431c-2.444.279-4.818-.168-7.231-.1a3.394,3.394,0,0,0-3.386,2.332c-1.648,4.271-3.211,8.575-4.807,12.865-1.033,2.777-2.075,5.553-3.093,8.337-.255.693-.43,1.416-.642,2.125,2.453,3.668,5.51,6.485,10.142,6.934a20.947,20.947,0,0,0,17.01-5.5c5.982-5.509,6.154-12.543,2.45-19.2a20.183,20.183,0,0,0-6-6.779,17.089,17.089,0,0,1,4.958,5.089c.384.6.72,1.434,1.635,1.316.945-.123,1.249-.967,1.525-1.729a17.419,17.419,0,0,0,1.308-5.914c0-.794-.1-1.655.667-2.236" transform="translate(-149.26 9.175)" fill="#443b2e"/>
                        <path id="Path_20868" data-name="Path 20868" d="M316.928,169.876c-1.052-.1-1.265.518-1.2,1.385a14.824,14.824,0,0,1-1.162,6.311c-.07.189-.087.4-.172.581-.227.482-.336,1.14-.912,1.267-.682.151-.863-.589-1.112-.993a17.217,17.217,0,0,0-3.476-4.188c-.951-.807-1.865-1.818-3.512-1.407,1.02,1.011,2.181,1.68,3.146,2.59a20.02,20.02,0,0,1,6.263,11.945,12.08,12.08,0,0,1-2.751,9.456,19.523,19.523,0,0,1-10.457,6.921,22.653,22.653,0,0,1-9.8.33,10.019,10.019,0,0,1-4.88-2.706,39.338,39.338,0,0,0-3.671-3.474,2.4,2.4,0,0,0-.783,1.211c.779.031,1.132.624,1.565,1.144a25.6,25.6,0,0,0,3.684,3.682,4.657,4.657,0,0,1,1.592.254,17.167,17.167,0,0,0,10.077,1.1,21.768,21.768,0,0,0,11.9-6c4.424-4.261,5.451-9.429,3.822-15.234a11.045,11.045,0,0,0-.583-1.727,2.371,2.371,0,0,1,.191-2.294,18.672,18.672,0,0,0,2.228-10.149" transform="translate(-150.005 9.255)" fill="#2e2820"/>
                        <path id="Path_20869" data-name="Path 20869" d="M255,427.072q5.4,1.918,10.8,3.837a3.244,3.244,0,0,0,2.147.3,1.238,1.238,0,0,0,.026-1.166c-2.051-4.912-4.1-9.82-8.111-13.573-4.442-4.155-9.839-5.941-15.746-6.469-.754-.068-1.8-.375-2.149.836a78.56,78.56,0,0,1,12.021,14.287A6.047,6.047,0,0,1,255,427.072" transform="translate(-58.367 22.907)" fill="#f2966c"/>
                        <path id="Path_20870" data-name="Path 20870" d="M386.08,246.794c-.325-5.319-.463-9.888-1.455-14.4a36,36,0,0,0-8.619-17.176c-2.358-2.533-4.811-5.154-7.993-6.794-.72-.371-1.8-1.432-2.275-.561-.644,1.173.939,1.087,1.6,1.453a31.593,31.593,0,0,1,8.427,7.226c4.988,5.748,7.4,12.615,8.431,20.059a58.7,58.7,0,0,1,.725,11.094c-.225,4.374-.528,8.745-1.076,13.1-.387,3.075-.6,6.173-.926,9.256s-.732,6.154-1.071,9.234c-.332,3.015-.665,6.031-.924,9.052-.276,3.224-.633,6.436-1.114,9.635a8.17,8.17,0,0,0-.066,2.422.414.414,0,0,0,.387.4.46.46,0,0,0,.484-.271,2.753,2.753,0,0,0,.237-.762c.3-2.882.559-5.769.879-8.649.342-3.08.76-6.15,1.1-9.23.328-2.948.594-5.9.9-8.852.371-3.551.831-7.095,1.119-10.652.3-3.7.9-7.368.945-11.085a27.008,27.008,0,0,1,.278-4.492" transform="translate(-306.979 11.397)" fill="#274841"/>
                        <path id="Path_20871" data-name="Path 20871" d="M242.51,410.888c.979-.736,2.116-.428,3.121-.277,4.3.645,8.439,1.724,12.068,4.334a26.346,26.346,0,0,1,8.462,10.921c.812,1.782,1.555,3.594,2.329,5.393a2.118,2.118,0,0,0,1.244.35c-1.1-2.824-2.342-5.587-3.679-8.3a23.23,23.23,0,0,0-16.168-12.926c-2.356-.559-4.758-.931-7.142-1.362a3.469,3.469,0,0,0-1.8.094q.783.89,1.565,1.778" transform="translate(-58.905 22.851)" fill="#b86040"/>
                        <path id="Path_20872" data-name="Path 20872" d="M410.258,351.311c-1.276-.056-2.542-.176-3.813-.318a19.721,19.721,0,0,0-9.05,1.032c1.923,1.044,3.848-.088,5.776.045,2.081.144,4.182,0,6.273-.006,2.025,0,4.049.011,6.073.016-.128-.988-.922-.747-1.513-.768-1.247-.043-2.5-.033-3.746,0" transform="translate(-370.035 19.548)" fill="#2e504a"/>
                        <path id="Path_20873" data-name="Path 20873" d="M393.955,351.311c.791.714,1.754.246,2.629.386s1.839-.324,2.632.383l1.592.06c.725.083,1.543.627,2.043-.411a29.4,29.4,0,0,0-7.212-.866c-.593.025-1.239-.141-1.683.448" transform="translate(-353.732 19.548)" fill="#294a44"/>
                        <path id="Path_20874" data-name="Path 20874" d="M392.119,351.682c-.575.662-1.368.24-2.042.41a25.158,25.158,0,0,0,6.14.763l-.048-.444-4.051-.729" transform="translate(-343.001 19.595)" fill="#355952"/>
                        <path id="Path_20875" data-name="Path 20875" d="M372.825,145.153q.027-.812.055-1.623a1.024,1.024,0,0,0-1.268-.205,4.9,4.9,0,0,1-1.949.249c-.7.094-1.371-.386-2.079-.1a26.251,26.251,0,0,1-6.577-2.8,3.166,3.166,0,0,0-1.506-.476,21.49,21.49,0,0,0-3.379,15.779,26.687,26.687,0,0,0,4.87,12.032c.943,1.294,1.084,1.295,1.877-.058a31.681,31.681,0,0,1,8.28-9.564,13.951,13.951,0,0,1,5-2.111c-2.042-3.757-3.975-7.444-4.394-11.664-.013-.129.232-.284.378-.452l.69.99" transform="translate(-286.739 7.568)" fill="#443b2e"/>
                        <path id="Path_20876" data-name="Path 20876" d="M361.97,143.316c.686.177,1.354.713,2.079.1a1.465,1.465,0,0,0-2.079-.1" transform="translate(-281.127 7.723)" fill="#cd7752"/>
                        <path id="Path_20877" data-name="Path 20877" d="M374.594,163.768a8.767,8.767,0,0,0-4.578,2.379,7.211,7.211,0,0,0-1.632,8.652,14.652,14.652,0,0,0,5.363,5.874,59.282,59.282,0,0,0,6.63,4.554c.605-1.589-.716-2.758-.9-4.176a.992.992,0,0,0-.4-.422c-.281.159-.256,1.182-.887.346a5.518,5.518,0,0,1-1.1-3.19,12.574,12.574,0,0,1,.665-5.735,4.432,4.432,0,0,0-.482-4.25c-.874-1.355-1.779-2.69-2.669-4.033" transform="translate(-303.588 8.908)" fill="#be4e1b"/>
                        <path id="Path_20878" data-name="Path 20878" d="M371.289,157.268a5.651,5.651,0,0,0-2.243-1.208,1.954,1.954,0,0,1-1.911.355c-2.736-.4-4.9.883-6.782,2.512a29.48,29.48,0,0,0-7.589,9.381,32.107,32.107,0,0,0-2.3,6.894,6.908,6.908,0,0,0,.433,4.174,4.353,4.353,0,0,1,.631,1.692.788.788,0,0,1,.017.277c1.448-.324,1.269-1.54,1.377-2.568.553-5.273,2.012-10.222,5.4-14.409a17.575,17.575,0,0,1,11.272-6.567c.594-.092,1.231-.029,1.694-.532" transform="translate(-276.049 8.47)" fill="#453c2e"/>
                        <path id="Path_20879" data-name="Path 20879" d="M350.877,157.2c-7.215.132-12.083,4.015-15.531,9.947a28.423,28.423,0,0,0-3.391,11.745c-.082.864.015,1.781-.818,2.384-.051,1.583,1.158,2.791,1.288,4.32a2.045,2.045,0,0,1-.04,1.192c.411.852.836,1.7,1.23,2.556a15.877,15.877,0,0,0,11.822,9.223c1.19.253,2.368.528,3.541.843,5.35,1.188,10.075-.421,14.444-3.356a14.8,14.8,0,0,0,5.074-5.611c.05-.524.225-.952.814-1.064a2.4,2.4,0,0,1,.12-1.923c2.877-7.382,2.171-14.473-2.334-20.949-3.287-4.724-7.686-8.1-13.635-8.947a8.262,8.262,0,0,0-2.584-.36" transform="translate(-255.636 8.533)" fill="#f8a74a"/>
                        <path id="Path_20880" data-name="Path 20880" d="M134.935,450.076c-.25-.4-.353-.891-.763-1.186,0,.561-.309,1.317.763,1.186" transform="translate(188.786 25.123)" fill="#16313c"/>
                        <path id="Path_20881" data-name="Path 20881" d="M381.469,345.5c.058.059.115.118.173.177-.008-.039-.005-.1-.029-.113a.49.49,0,0,0-.151-.056l.007-.007" transform="translate(-319.321 19.243)" fill="#557d76"/>
                        <path id="Path_20882" data-name="Path 20882" d="M245.9,244.487c-3.733-3.424-7.656-5.277-12.542-4.487a30.012,30.012,0,0,1-10.839-.038,10.38,10.38,0,0,0-1.611-.152c-.69-.031-1.416-.021-1.707.767a1.818,1.818,0,0,0,.463,2.048,12.9,12.9,0,0,0,5.944,3.306,11.072,11.072,0,0,0,4.989-.164,12.312,12.312,0,0,1,4.213-.012,24.442,24.442,0,0,0,11.091-1.268" transform="translate(-11.945 13.232)" fill="#f2966c"/>
                        <path id="Path_20883" data-name="Path 20883" d="M256.556,239.281c-2.659-3.042-5.372-5.07-9.4-5.279-4.17-.218-8.365-.058-12.518-.657a15.436,15.436,0,0,0-2.027-.042c-.627-.006-1.257.036-1.529.726a1.482,1.482,0,0,0,.614,1.78,12.669,12.669,0,0,0,1.971,1.412,14.759,14.759,0,0,0,7.718,2.118c3.394-.2,6.73.412,10.1.453,1.616.02,3.16-.374,5.066-.51" transform="translate(-35.194 12.862)" fill="#f2966c"/>
                        <path id="Path_20884" data-name="Path 20884" d="M260.1,233.112a7.762,7.762,0,0,0-3.084-1.366,32.84,32.84,0,0,1-10.309-5.061,20.33,20.33,0,0,1-1.994-1.711,4.547,4.547,0,0,0-1.843-1.218,1.8,1.8,0,0,0-2.5,1.765,2.689,2.689,0,0,0,.146,1.193c1.32,2.873,4.257,6.556,8.347,6.317,3.169-.185,6.319.593,9.5.372a2.732,2.732,0,0,0,1.743-.292" transform="translate(-48.658 12.313)" fill="#f2966c"/>
                        <path id="Path_20885" data-name="Path 20885" d="M343.03,188.659c-.906.194-1.2,1.054-1.677,1.655a18.818,18.818,0,0,1-12.916,7.042c-1.656.211-3.3-.046-4.924.269,1.792,1.534,3.567,3.09,5.382,4.6,5.383,4.468,8.68,10.256,10.7,16.85a57.613,57.613,0,0,1,2.751,18.326,68.372,68.372,0,0,1-1.422,10.409c-.131.728-.413,1.49.615,1.819,2.689-5.811,5.262-11.669,7.555-17.65a66.352,66.352,0,0,0,4.469-17.16c.782-7.9-1.007-15.151-6.273-21.328-1.393-1.634-2.538-3.484-4.259-4.829" transform="translate(-230.171 10.323)" fill="#bf4e1b"/>
                        <path id="Path_20886" data-name="Path 20886" d="M333.845,306.193V248.779h-.2v57.495l.2-.081" transform="translate(-220.984 13.743)" fill="#264740"/>
                        <path id="Path_20887" data-name="Path 20887" d="M329.763,236.349c-.54.468-.524,1.121-.784,1.844.861-.3.912-.954,1.2-1.433l-.418-.411" transform="translate(-212.392 13.036)" fill="#9c3f19"/>
                        <path id="Path_20888" data-name="Path 20888" d="M295.9,138.824a9.838,9.838,0,0,0-4.7-2.208c-2.753-.6-4.466,1.349-3.6,4.05a14.24,14.24,0,0,0,4.952,6.776c5.107,4.078,10.658,7.4,17.052,9.027a26,26,0,0,0,11.621.667,9.147,9.147,0,0,0,5.026-2.414,3.591,3.591,0,0,0,.925-3.367,2.01,2.01,0,0,0-2.212-1.92,66.4,66.4,0,0,1-9.863-.87c-.508-.136-1.028-.353-1.432.21.016.683.523.924,1.053,1.041a23.187,23.187,0,0,0,5.745.947c-3.484.977-7,.185-10.5-1.12q-6.454-2.407-12.71-5.273a8.358,8.358,0,0,1-4.98-5.245c1.177-.37,1.942.54,2.884.469.418-.093.884-.139.741-.769" transform="translate(-165.493 7.358)" fill="#8a2a18"/>
                        <path id="Path_20889" data-name="Path 20889" d="M365.624,123.893a56.727,56.727,0,0,1,4.059,5.462c1.13,1.6,2.172,3.257,3.254,4.888a4.807,4.807,0,0,0,.584.815.6.6,0,0,0,.552.064.553.553,0,0,0,.23-.481,3.585,3.585,0,0,0-.433-.909,82.061,82.061,0,0,0-6.983-9.924,2.481,2.481,0,0,1-.347-3.292,10.915,10.915,0,0,1,1.43-2.2c.248-.243.429-.588.035-.843a.648.648,0,0,0-.9.2c-.472.655-.907,1.339-1.339,2.022-.7,1.1-1.172,1.213-1.93.141-1.219-1.725-2.971-2.959-4.14-4.714-.192-.289-.446-.559-.809-.216-.311.3-.2.622.037.9,1.106,1.274,2.169,2.59,3.347,3.794,1.554,1.588,2.451,3.182,1.727,5.59-1.057,3.512-.423,7.083.322,10.6.082.39.158.887.71.736.485-.133.494-.609.364-1.012a22.555,22.555,0,0,1-.672-7.623,9.484,9.484,0,0,1,.9-4" transform="translate(-287.931 6.12)" fill="#b75f3e"/>
                        <path id="Path_20890" data-name="Path 20890" d="M317.581,148.885c.333-.5.877-.358,1.347-.447-1.785-.6-3.59-1.143-5.353-1.8a47.2,47.2,0,0,1-10.991-6.027,15.127,15.127,0,0,0-2.851-1.912.832.832,0,0,1-.815.442c-.2.7.386.948.78,1.264a45.832,45.832,0,0,0,15.4,8.4c.8.242,1.634.8,2.484.08" transform="translate(-169.326 7.482)" fill="#90301a"/>
                        <path id="Path_20891" data-name="Path 20891" d="M299.815,136.526c.505-.124,1.534.389,1.654-.4.158-1.042-1.037-.7-1.64-.969a6.024,6.024,0,0,0-2.387-.282c-.419-.006-.865.064-.907.577s.412.6.792.755a6.5,6.5,0,0,0,2.489.32" transform="translate(-149.401 7.265)" fill="#b8603f"/>
                        <path id="Path_20892" data-name="Path 20892" d="M310.515,108.336c.349.52.646.889.862,1.3a2.125,2.125,0,0,1-2.068,3.272c-1.623-.061-1.766.118-1.357,1.715a5.13,5.13,0,0,0,5.451,3.9,4.919,4.919,0,0,0,4.5-4.69,8.02,8.02,0,0,0-.384-3.6c-1.023-2.671-2.927-3.581-5.641-2.661a3.533,3.533,0,0,0-1.362.761" transform="translate(-177.729 5.692)" fill="#3b1d18"/>
                        <path id="Path_20893" data-name="Path 20893" d="M328.989,89.857a8.471,8.471,0,0,0-.942.164c-3.125.819-6.255,1.621-9.365,2.488a13.1,13.1,0,0,0-4.02,1.852c-.647.452-1.235.967-.874,1.815.325.761,1.133.646,1.783.611a12.339,12.339,0,0,0,1.985-.348,89.981,89.981,0,0,0,10.112-2.792A6.624,6.624,0,0,0,330.3,92.2a1.325,1.325,0,0,0,.271-1.661c-.285-.566-.746-.734-1.583-.684" transform="translate(-196.788 4.704)" fill="#3c1e18"/>
                        <path id="Path_20894" data-name="Path 20894" d="M274.36,111.149c.719,1.192,2.058,2.1,1.157,3.534-.829,1.323-2.079.937-3.231.452-1.393,3.155,2.3,6.385,5.328,6.019a3.532,3.532,0,0,0,1.981-.947,6.008,6.008,0,0,0,.957-6.6,5.03,5.03,0,0,0-5.512-2.842,2.972,2.972,0,0,0-.679.384" transform="translate(-103.095 5.889)" fill="#3b1d18"/>
                        <path id="Path_20895" data-name="Path 20895" d="M265.877,98.824a1.09,1.09,0,0,0,.564,1.086c3.551,2.4,6.5,5.494,9.677,8.324a4.639,4.639,0,0,0,1.732,1.023,1.671,1.671,0,0,0,1.861-.442,1.456,1.456,0,0,0,.1-1.877,24.8,24.8,0,0,0-1.8-2.443c-2.282-2.666-5.245-4.441-8.249-6.139a3.493,3.493,0,0,0-3.12-.3,1.085,1.085,0,0,0-.76.771" transform="translate(-95.617 5.157)" fill="#3c1e18"/>
                        <path id="Path_20896" data-name="Path 20896" d="M301.106,173.031c1.745,2.934,1.87,2.341-.942,4.314-.22.155-.458.285-.684.432-1.5.977-1.5.973-2.5-.45-.621-.88-1.251-1.755-1.9-2.616-.2-.268-.538-.565-.852-.343-.411.292-.237.721.03,1.064.62.8,1.279,1.569,1.87,2.39.89,1.235.819,1.574-.367,2.448-.652.479-1.28.992-1.951,1.443-1.219.819-1.622.721-2.43-.5-.179-.272-.255-.629-.645-.761-.564.169-.468.621-.25.94.823,1.2.409,2.142-.5,3.039-.227.225-.509.471-.267.87.444.305.838-.029,1.082-.253.9-.821,1.47-.54,2.025.386.625,1.041,1.376,2.008,1.967,3.066.7,1.244.5,1.746-.728,2.458-3.161,1.829-3.338,1.793-5.488-1.122-.119-.161-.219-.351-.571-.295-.415.725.087,1.334.421,1.943.811,1.48.823,1.473-.447,2.542a2.209,2.209,0,0,0-.312.25.516.516,0,0,0-.017.724c.152.178.342.126.544.059,2.245-.733,2.252-.736,3.573,1.044,1.043,1.407,2.069,2.826,3.1,4.242.206.283.482.617.811.413.432-.269.266-.709.008-1.055-1.048-1.4-1.85-2.978-3.03-4.3s-1.019-1.948.541-2.8c.534-.291,1.08-.559,1.609-.859,1.339-.762,1.841-.691,2.7.526s1.668,2.457,2.467,3.708a3.1,3.1,0,0,0,.907,1.07.6.6,0,0,0,.54.013.568.568,0,0,0,.162-.522c-.358-.645-.75-1.273-1.168-1.881-.687-1-1.431-1.962-2.1-2.974-.9-1.367-.844-1.563.55-2.307.776-.414,1.566-.8,2.358-1.185,1.448-.7,1.726-.665,2.664.657.741,1.044,1.383,2.157,2.079,3.234a13.011,13.011,0,0,0,.808,1.153.556.556,0,0,0,.719.191c.246-.149.257-.451.245-.728a1.875,1.875,0,0,0-.557-1.051c-.909-1.171-1.795-2.36-2.7-3.532a1.011,1.011,0,0,1,.294-1.691c.344-.212.733-.353,1.08-.56,2.219-1.319,2.219-1.323,3.674.864.449.674.877,1.361,1.335,2.03a.513.513,0,0,0,.7.209.571.571,0,0,0,.156-.732,17.174,17.174,0,0,0-1.7-2.748c-.757-1.194-.723-1.259.623-2.04.285-.166.675-.3.46-.734a.609.609,0,0,0-.872-.241c-1.388.644-2.106-.153-2.772-1.211-1.509-2.4-3.055-4.772-4.593-7.152-.394-.609-.785-1.251-1.752-1.081" transform="translate(-150.163 9.433)" fill="#2d271f"/>
                        <path id="Path_20897" data-name="Path 20897" d="M369.371,179.153a18.471,18.471,0,0,0-8.217-16.574c-2.146-1.538-4.255-3.21-6.876-3.8-7.2-1.636-12.412.524-16.479,5.871a26.272,26.272,0,0,0-4.763,10.218c-.815,3.619-1.051,7.324.229,10.785.9,2.433,1.189,5.227,3.418,7.128,2.712,2.313,5.521,4.429,9.108,5.036,7.027,1.188,13.541.08,18.7-5.223a17.489,17.489,0,0,0,4.876-13.437" transform="translate(-255.183 8.594)" fill="#bf4e1b"/>
                        <path id="Path_20898" data-name="Path 20898" d="M314.777,148.93a36.693,36.693,0,0,1-11.053-4.387,57.23,57.23,0,0,1-7.61-5.358c-.863-.375-1.724-.761-2.594-1.121-.3-.125-.653-.274-.932.031s-.125.632-.015.947a8.829,8.829,0,0,0,4.686,5.335,141.9,141.9,0,0,0,15.917,6.492,13.825,13.825,0,0,0,9.756-.184c-2.877-.883-5.641-.774-8.156-1.754" transform="translate(-166.522 7.438)" fill="#f1956b"/>
                        <path id="Path_20899" data-name="Path 20899" d="M316.392,154.474a5.961,5.961,0,0,0-1.1-.486c-1.915-.419-3.833-.807-4.858-2.774a17.429,17.429,0,0,0-8.314-2.708c4.062,3.041,8.405,5.466,13.474,6.379.4.124.866.371.8-.411" transform="translate(-170.216 8.04)" fill="#ec9067"/>
                        <path id="Path_20900" data-name="Path 20900" d="M302.359,154.153c-.164.341-.511.322-.8.411a2.613,2.613,0,0,0,.69.322c.232.034.677-.032.7-.124.084-.4-.251-.531-.583-.61" transform="translate(-156.183 8.361)" fill="#c26442"/>
                        <path id="Path_20901" data-name="Path 20901" d="M296.3,185.322a9.676,9.676,0,0,0,3.291-1.459c.391-.228.4-.629.225-1.068-.822-2.012-2.248-3.668-3.263-5.566a.855.855,0,0,0-1.074-.344,8.357,8.357,0,0,0-1.1.508c-3.151,1.629-3.162,1.692-1.25,4.622.477.731.886,1.507,1.348,2.248a1.869,1.869,0,0,0,1.823,1.059" transform="translate(-142.876 9.65)" fill="#443b2e"/>
                        <path id="Path_20902" data-name="Path 20902" d="M301.038,180.27a30.489,30.489,0,0,0-2.733,1.692c-1.359,1.031-1.4,1.373-.506,2.818.7,1.139,1.5,2.219,2.243,3.338.282.426.586.775,1.137.514,1.088-.512,2.194-1,3.233-1.6,1.077-.621,1.174-1.079.52-2.121-.819-1.3-1.692-2.577-2.568-3.845a1.638,1.638,0,0,0-1.325-.8" transform="translate(-153.96 9.846)" fill="#443b2e"/>
                        <path id="Path_20903" data-name="Path 20903" d="M350.04,165.215a7.714,7.714,0,0,0-5.321,2.4c-1.477,1.285-2.777,2.77-4.18,4.143-2.153,2.11-1.731,4.729-.541,6.685a25.443,25.443,0,0,0,4.958,5.331q2.4,2.186,4.909,4.24a3.38,3.38,0,0,1,1.464,3.324,4.675,4.675,0,0,0,.089,1.611c.128.615.429,1.134,1.191,1.176a1.342,1.342,0,0,0,1.428-1.176,3.161,3.161,0,0,0-.795-3.2c-.848-.871-1.765-1.675-2.674-2.484-1.666-1.483-3.381-2.911-5.01-4.433-1.008-.943-.991-1.209-.109-2.189,2.625-2.912,5.244-5.831,7.929-8.687,1.719-1.832,1.768-1.785,3.606.064.812.816,1.582,1.678,2.446,2.435a4.024,4.024,0,0,1,1.565,3.551,4.124,4.124,0,0,0,.2,1.594,1.5,1.5,0,0,0,1.314,1.116,1.589,1.589,0,0,0,1.525-.818c.869-1.3.824-2.323-.354-3.182a45.252,45.252,0,0,1-7.91-7.532,25.037,25.037,0,0,0-2.735-2.716c-.927-.81-1.961-1.486-3-1.255" transform="translate(-257.45 8.988)" fill="#f8a749"/>
                        <path id="Path_20904" data-name="Path 20904" d="M358.839,166.373a4.653,4.653,0,0,0-3.228,1.035,33.515,33.515,0,0,0-5.9,5.821,2.881,2.881,0,0,0-.443,3.047,11.326,11.326,0,0,0,2.429,3.693c.671.723,1.2.675,1.835-.044q2.007-2.285,4.088-4.5c1.53-1.624,3.132-3.182,4.651-4.817,1.065-1.145,1.048-1.677-.046-2.752a4.015,4.015,0,0,0-3.39-1.48" transform="translate(-266.466 9.054)" fill="#bf4e1b"/>
                        <path id="Path_20905" data-name="Path 20905" d="M340.73,176.556a1.276,1.276,0,0,0-.413,1.558c.145.414.344,1.026.938.769a.9.9,0,0,0,.375-1.222c-.183-.422-.3-.907-.9-1.106" transform="translate(-235.806 9.635)" fill="#c95f20"/>
                    </g>
                </g>
            </g>
        </g>
    </g>
</svg>
