<svg id="Component_17_1" data-name="Component 17 – 1" xmlns="http://www.w3.org/2000/svg" xmlns:xlink="http://www.w3.org/1999/xlink" width="392.181" height="355.782" viewBox="0 0 392.181 355.782">
    <defs>
        <clipPath id="clip-path">
            <rect id="Rectangle_10079" data-name="Rectangle 10079" width="392.181" height="355.783" fill="none"/>
        </clipPath>
    </defs>
    <g id="Group_27353" data-name="Group 27353" clip-path="url(#clip-path)">
        <path id="Path_21505" data-name="Path 21505" d="M237.372.247c7.6,8.817,11.706,20.645,15.6,31.27,4.913,13.4,8.747,27.188,14.08,40.451-.86.537-1.516.152-2.122-.464a87.375,87.375,0,0,1-6.381-15.979c-4.766-15.259-9.588-30.5-16.939-44.781a41.476,41.476,0,0,0-3.752-6.2c6.408,12.257,10.209,25.193,15.361,37.581a154.236,154.236,0,0,1,7.192,21.826c.436,1.74,1.184,3.432-.155,5.1-2.115.766-4.057-.127-5.933-.8-24.385-8.734-51,11.167-53.189,33.694-.258,2.664-.576,5.316-.667,7.995-.086,2.566-1.293,3.551-3.725,2.334a16.422,16.422,0,0,0-14.394-.408c-2.5,1.055-3.737-.08-3.721-2.546a51.88,51.88,0,0,0-1.214-11.01c-2.985-14.224-11.747-23.38-25.009-28.741-2.144-.867-5.356-.455-6.053-3.784,4.361-2.4,9.187-2.881,14.009-3.355,3.866-.381,4.522-1.18,2.953-4.492-4.651-9.819-8.8-19.9-14.8-29.033a22.525,22.525,0,0,0-1.276-1.915c-2.77-3.4-5.53-3.064-7.1,1.083-2.817,7.427-4.616,15.164-6.616,22.839-1.318,5.056-1.923,10.318-4.255,15.092-3.657,2.719-8.243,3.32-12.231,5.327-1.6.806-2.886-.1-2.085-2.127,7.834-19.806,12.445-40.825,22.52-59.784,1.064-2,1.821-4.27,4.08-5.379,2.963,1,4.679,3.477,6.411,5.783,3.675,4.892,7.461,9.717,10.315,15.182,4.194,8.028,10.043,15.146,13.331,23.653,1.5,3.89,4,7.406,4.525,11.651a.926.926,0,0,1-.145.323c-.28.273-.228.542-.037.436,6.267-3.474,13-4.138,19.982-3.375,1.1.119,2.366.5,2.868-1.07,4-11.106,10.054-21.143,16.2-31.13,3.739-6.078,7.718-12,11.694-17.923C228.711,4.542,231.051,1,234.832.247a3.493,3.493,0,0,1,2.541,0" transform="translate(3.284 0)" fill="#b4958f"/>
        <path id="Path_21506" data-name="Path 21506" d="M143.289.579c4.26,2.355,8.1,6.627,10.714,10.63,7.685,11.749,15.13,23.638,21.662,36.073,1.717,3.267,3.139,6.688,4.7,10.039-.852,2.7-3.17,2.756-5.391,2.983a229.656,229.656,0,0,0-15.185-29.655c-5.726-9.272-11.393-18.477-18.691-26.6-.5-.157-1.147.068-1.452-.575.243-1.3,2.878-2.9,3.646-2.9" transform="translate(3.998 0.017)" fill="#907871"/>
        <path id="Path_21507" data-name="Path 21507" d="M0,124.418a.6.6,0,0,1,.7-.029c2.356-.154,4.806-1.278,6.958.674L0,125.186Z" transform="translate(0 3.548)" fill="#372a2d"/>
        <path id="Path_21508" data-name="Path 21508" d="M118.093,330.04c-12.914-8.956-16.695-22.392-17.562-36.948-1.071-17.969,5.015-34.1,13.7-49.482,5.522-9.773,11.235-19.458,14.078-30.513,2.153-8.376,1.246-16.723.531-25.111.968-.47,1.522.126,2.048.792a20.562,20.562,0,0,1,1.288,7.857c-.089,2.4,1.025,3.478,3.291,3.761,6.625.829,12.635-.492,17.749-4.948-.352-1.447-1.607-1.027-2.52-1.206q-36.679-7.167-57.249-38.359a18.762,18.762,0,0,1-1.13-2c-1.639-3.3-1.412-4.056,1.742-5.757.673-.363,1.357-.709,2.239-1.117a1.97,1.97,0,0,0-.868.366c-5.157,2.613-5.155,2.615-6.769-3.091-1.68-5.938-1.244-6.573,4.812-7.054,1.473-.117,3.006.25,4.077-.293-2.271.466-4.978.211-7.6.7-1.724.319-2.6-.512-2.958-2.179a33.473,33.473,0,0,1-.257-8.409c.063-1.586,1.292-2.129,2.661-2.232a54.329,54.329,0,0,1,8.435.007c2.629.213,3.473,2.463,4.51,4.294,6.519,11.511,16.847,17.605,29.352,20.24,15.77,3.323,31.689-3.868,40.278-17.569a51.778,51.778,0,0,0,6.5-15.48c2.022-8.343,9.29-11.723,17.248-8.288a11.745,11.745,0,0,1,7.278,8.6c5.143,20.042,20.4,30.97,39.064,33.349,3.223.411,6.365-.277,9.521-.759a32.975,32.975,0,0,0,21.637-12.353c3.4-4.345,7.323-5.868,12.478-5.311,3.553.454,7.305-1.086,10.676,1.089l-2.268,9.863c-1.661,1.535-3.584.848-5.4.542-3.619-.609-7.3-.6-9.8-1.153,3.522.513,8.189.868,12.806,1.61a1.938,1.938,0,0,1,1.607,1.452c-.036,3.319-1.86,6.041-3.011,8.987-3.308.453-5.937-1.646-8.9-2.478-2.027-.571-4.017-1.474-6.029-2.214,4,1.493,8,2.966,11.982,4.493.9.346,2.476.238,2.083,2.016-6.533,9.237-13.787,17.794-23.028,24.482-3.741,1.027-6.8,3.419-10.185,5.156a97.568,97.568,0,0,1-24.879,8.574,8.347,8.347,0,0,1-2.086.226,82.171,82.171,0,0,0,22.231-6.445c1.072-.46,2.106-1.719,3.444-.483-4.146,18.574,1.674,34.633,11.273,50.384,6.861,11.258,12.715,23.352,15.226,36.57,3.626,19.09,1.583,37.086-11.064,52.811-1.589-1.355-.8-3-.6-4.605.534-4.379-.525-8.083-4.612-10.428-8.5-2.645-13.852-.859-19.292,6.31a39.333,39.333,0,0,0-7.423,16.2c-.318,1.581-.321,3.374-2.031,4.333-5.958,0-8.116-3.3-6.059-9.044a301.969,301.969,0,0,1,12.062-28.5c3.99-8.343,10.866-12.915,19.833-14.558a14.23,14.23,0,0,0,4.014-1.029c-2.8-2.547-6.129-2.294-9.489-1.994-1.355.121-2.954,1.436-3.947-.67.066-1.948,1.624-3.089,2.359-4.676-6.444,11.535-13.362,22.814-18.411,35.095-2.232,5.429-4.533,10.829-6.452,16.378-1,2.887-2.572,3.714-5.553,2.588a21.537,21.537,0,0,0-9.7-1.6c4.4-.337,8.439,1.229,12.511,2.49,2.179.674,3.15,2.582,3.389,4.719.347,3.088-3.789,9.993-6.661,11.461-1.685.861-3.307,1.251-5.056.118-2-1.3-.889-2.888-.551-4.433.149-.68.008-1.408.173-1.625-.477,2.455-.654,5.553-3.621,7.336a5.038,5.038,0,0,1-5.756.126c-2-1.285-.872-3-.5-4.478a12.624,12.624,0,0,0,.429-5.04c.216,8.474-2.719,11.743-9.047,10.2-2.311-1.978-2.883-4.613-3.164-7.5-.536-5.494.087-10.945.6-16.363.971-10.243,1.475-20.545,3.3-30.7,2.023-11.269,3.894-22.563,5.849-33.844a7.813,7.813,0,0,0,.194-2.243c-1.886-.332-1.606,1.312-1.852,2.192-3.967,14.249-7.831,28.47-9.669,43.257-1.2,9.629-2,19.253-2.714,28.906a6.362,6.362,0,0,1-.659,2.954c-4.215,1.7-6.3.834-6.476-3.02a370.872,370.872,0,0,0-3.824-38.343c1.068,5.493,1.845,14.077,2.652,22.657.714,7.591,1.393,15.186,1.854,22.8a12.884,12.884,0,0,1-1.705,6.984c-1.055,1.929-2.734,3.18-5.031,2.738-2.2-.423-4.059-1.47-4.723-3.911a24.463,24.463,0,0,1-.914-6.3c.432,1.048-.165,2.918.459,4.655.6,1.675.7,3.388-1.134,4.365a4.882,4.882,0,0,1-5.07-.285c-2.7-1.589-3.156-4.337-3.717-7.2.02,2.091,1.964,4.191-.3,5.657-2.243,1.453-4.548.729-6.655-1.043a16.2,16.2,0,0,1-4.933-8.476c-.892-3.191.708-5.65,3.944-6.812,4-1.436,8.056-2.563,12.352-2.336a29.011,29.011,0,0,0-10.9,1.818c-2.374.929-3.771.444-4.664-2.116a277.855,277.855,0,0,0-12.362-29.273c-3.873-8.016-8.728-15.514-13.064-23.289a22.346,22.346,0,0,1,2.794,5.077c-.168,2.211-1.961,2.061-3.4,2.179-3.879.319-6.951,2.225-9.778,4.68-.542.471-1.344.893-.6,1.794,5.136-1.465,10.132-1.805,15.382-.072,4.446,1.469,6.416,4.773,8.124,8.5,4.561,9.953,8.949,19.976,12.924,30.188,1.3,3.346-.575,5.567-1.355,8.225-.229.78-1.216.826-2.007.588a2.225,2.225,0,0,1-1.763-2.569,15.346,15.346,0,0,0-1-6.353,14.162,14.162,0,0,1,.318,9.487,2.162,2.162,0,0,1-2.622.924,3.288,3.288,0,0,1-1-2.753c-.074-8.716-8.749-14.266-16.4-7.236a2.633,2.633,0,0,1-2.751-.44,7.562,7.562,0,0,1-1.47-1.71c-1.853-2.143-2.3-4.736-2.4-7.451-.02-.5.012.214-.283-.193-.1-.139-.455.088-.594.364-1.578,2.876-.147,6.414-2.087,9.185" transform="translate(2.479 3.054)" fill="#b4958f"/>
        <path id="Path_21509" data-name="Path 21509" d="M188.924,334.2a240.051,240.051,0,0,1,2.8-31.879c1.21-7.106,1.943-14.354,3.481-21.4,1.729-7.926,4.179-15.7,6.538-23.475.467-1.538.971-4.6,3.99-2.187-2.546,5.259-2.575,11.091-3.525,16.67-1.814,10.644-4.075,21.231-5.117,32-.746,7.7-1.656,15.382-2.085,23.118-.163,2.948-.138,6.05-1.55,8.832a1.127,1.127,0,0,1-.713-.178c-1-1.2-2.88-.138-3.814-1.5" transform="translate(5.409 7.282)" fill="#8b736c"/>
        <path id="Path_21510" data-name="Path 21510" d="M357.273,191.545c-11.9-7.657-23.457-15.847-36.039-22.408-11.739-6.12-23.906-11.282-36.119-16.348l-17.25-6.251c.664,1.92,2.164,2.159,3.48,2.734,4.268,1.863,7.252,3.3,12.908,5.335a61.613,61.613,0,0,0,6.928,3.189c23.518,9.156,42.247,20.064,63.854,33.846a29.041,29.041,0,0,0,6.142,3.226c-1.535-1.266-3.294-2.93-3.9-3.322" transform="translate(7.669 4.195)" fill="#3b2d30"/>
        <path id="Path_21511" data-name="Path 21511" d="M81.866,123.78c1.479,1.493,3.973-.557,5.287,1.514-11.867-.039-23.735-.035-35.6-.141-3.813-.034-7.653.192-11.431-.6,1.985-1.239,4.295.1,6.323-.793l35.422.018" transform="translate(1.149 3.543)" fill="#36292c"/>
        <path id="Path_21512" data-name="Path 21512" d="M251.056,185.275c-6.387,2.009-12.352,5.258-19.032,6.41-3.077.531-6.132,1.189-9.818,1.911,1.215-2.179,2.9-1.98,4.155-2.194a93.457,93.457,0,0,0,33.583-12.967c.455-.28,5.6-2.487,5.6-2.487-2.793,2.743-10.66,6.984-14.485,9.327" transform="translate(6.362 5.037)" fill="#453638"/>
        <path id="Path_21513" data-name="Path 21513" d="M47.573,123.769c-1.976,1.315-4.269.106-6.323.794l-33.613.512c-2.215-1.313-4.664-.193-6.959-.674,9.107-1.241,18.276-.693,27.416-.881,6.489-.133,12.985.15,19.478.248" transform="translate(0.019 3.535)" fill="#36292c"/>
        <path id="Path_21514" data-name="Path 21514" d="M366.829,160.739c-13.563-4.449-72.465-18.42-77.918-19.2-6.862-.817-13.561-1.956-21.011-1.334,1.767,1.81,3.386,1.226,4.823,1.445,5.133.782,9.326.926,15.4,2.34,6.135,2.166,59.5,12.113,85.411,19.641-1.113-.981-5.418-2.468-6.706-2.89" transform="translate(7.67 4.009)" fill="#3b2d30"/>
        <path id="Path_21515" data-name="Path 21515" d="M279.166,80.809c-.5-.26-5.75-7.315-10.506-9.717-1.557-1.3-3.053-2.73-5.343-2.385-2.331-.639-4.685-1.2-6.99-1.929-22.774-7.151-45.916,9.319-51.42,27.62a55.47,55.47,0,0,0-2.244,18.263c-6.624-4.364-13.065-4.51-19.993-.822,0-1.709.016-2.939,0-4.169-.288-19.15-8.283-32.971-26.187-39.73a41.013,41.013,0,0,0-6.83-2.022,41.831,41.831,0,0,0-17.663-.4c-4.523,1.789-9.145,3.315-14.286,6.32,6.764-16.5,10.625-32.638,16.906-47.926,2.844-6.925,5.409-14.053,10.311-19.94l-1.452-.575c-3.525,4.3-5.493,9.447-7.726,14.432-6.511,14.535-10.709,29.9-15.986,44.877-2.11,5.991-4.909,11.3-10.03,15.433-5.277,4.257-8.417,10.176-10.4,16.624a40.993,40.993,0,0,1-4.408,9.689,39.345,39.345,0,0,0-5.957,16.762c-.6,5.724-.527,5.732-6.122,6.017-.013,1.467,1.128.86,1.833,1.007,1.14.239,2.422-.488,3.454.506.077,2.8-.2,5.667.329,8.378.539,2.77-.258,3.436-2.894,3.868a467.239,467.239,0,0,0-56.5,12.4,94.707,94.707,0,0,0-22.916,9.346c7.87-3.131,15.957-5.63,23.858-8.628,16.681-4.2,33.388-8.282,50.4-11,8.388-1.34,8.329-1.4,10.7,6.67.57,1.934.233,3.076-1.645,3.966-23.517,11.151-44.623,26.173-65.8,41.079-.717.505-1.819.751-1.948,1.978,1.665.424,2.448-.842,3.424-1.514,7.467-5.137,14.815-10.448,22.345-15.489,13.567-9.085,27.385-17.762,42.148-24.822,1.235-.59,2.416-1.793,3.686.477,8.37,14.969,19.711,26.889,35.611,34.013a15.628,15.628,0,0,1,2.222,1.477l1.6.652c4.61,3.972,10.485,4.782,16.066,6.113,2.71.646,5.539,1.924,8.492.833-.228-1.752-.311-1.755-2.916-2.2-21.074-3.6-38.827-13.021-52.326-29.889a62.679,62.679,0,0,1-7.282-10.787c-.946-1.873-.612-3.043,1.425-3.869s4.21-1.617,5.571-3.559a5.4,5.4,0,0,0-2.606.611c-6.512,3.052-6.27,2.992-8.165-4.1-.859-3.211.532-3.529,2.861-3.678,3.192-.2,6.406-.284,9.4-1.756a41.62,41.62,0,0,0-9.29.594c-3.29.657-4.287-.437-4.336-3.675-.114-7.769-.238-7.734,7.452-7.725,2.477,0,4.7-.127,6.026,2.778,3.6,7.909,10.05,13.051,17.4,17.275,17.2,9.881,38.6,6.316,51.136-8.655a47.024,47.024,0,0,0,10.318-21.537c.426-2.2.618-4.5,2.923-5.963a12.725,12.725,0,0,1,19.367,7.386c5.978,22.993,26.637,36.806,49.793,33.3.033-1.129-.856-1.259-1.639-1.5-6.549-.011-13.061-.334-19.251-2.761-16.3-6.393-25.5-18.65-27.737-35.676-1.827-13.9,2.616-26.08,13.494-35.371,13.441-11.483,28.4-13.018,44.473-6.272,3.407.863,6.759,1.78,9.226,4.574.372-.068,4.826,5.815,5.063,5.521-1.126-1.221,2.6.433,1.477-.788m-164.9-4.251A75.59,75.59,0,0,1,108.71,85.6c-2.172,2.968-3.9,5.184-6.248,8.012-.6.716-1.552,1.436-1.265.689a22.024,22.024,0,0,1,1.265-3.142c2.07-5.749,6.144-10.692,10.733-14.6.649-.554,1.5-.787,1.073,0" transform="translate(0.176 0.097)" fill="#36292c"/>
        <path id="Path_21516" data-name="Path 21516" d="M264.768,306.537c-.984,1.545.178,2.682.823,3.84,3.327,5.968,2.838,11.82-.8,17.358A33.6,33.6,0,0,1,247.9,340.947a14.819,14.819,0,0,1-4.127.731c-3.306.244-5.314-1.149-6.171-4.4-.318-1.207-.011-2.984-2.011-3.2-5.257.216-7.343-2.694-5.575-7.857,3.139-9.168,7.127-17.979,11.151-26.784,4.7-10.279,12.743-15.521,23.841-16.462,1.008-.085,2.4.668,2.88-1.008-6.523-2.627-12.064.841-17.954,3.1.632-2.343,2.16-4.065,2.458-6.263l4.98-8.365c-2.3.368-2.629,1.93-3.325,3-10.384,15.9-18.192,33.063-24.708,50.835-1.18,3.216-2.407,4.475-6.014,3.036a24.283,24.283,0,0,0-13.3-1.217,8.551,8.551,0,0,0,5.2,1.137,33.118,33.118,0,0,1,10.781,2.374,4.8,4.8,0,0,1,3.047,2.71c1.555,3.925-3.407,12.525-7.654,13.023-2.392.28-4-.414-3.1-3.508.5-1.719,1.32-3.63.057-6.28-.526,2.354-.855,3.943-1.238,5.518a8.252,8.252,0,0,1-2.757,4.912,4.445,4.445,0,0,1-5.027.475c-1.951-.98-.7-2.459-.511-3.685.421-2.663,1.022-5.3.379-8.633-1.739,2.722-1.026,5.271-1.567,7.568-1.148,4.865-2.4,5.9-7.358,5.641-3.313-.564-3.158-4.826-3.115-7.892.166-12.027,1.516-23.969,2.826-35.9,1.783-16.231,5.36-32.19,7.857-48.317-2.976,1.334-2,4.227-2.424,6.473-4.511,24.046-8.176,48.209-9.753,72.647-1.119-.372-3.278-.1-4.627-.179-2.192-.106-5.058,1.424-5.355-2.746-.684-9.553-1.421-19.106-2.411-28.631a72.777,72.777,0,0,0-2.7-15.091,1.935,1.935,0,0,0-.584,2.169c2.45,14.887,3.564,29.919,4.775,44.938.248,3.07.346,6.164-.8,9.1-.788,2.023-2.13,3.481-4.588,3.351a4.486,4.486,0,0,1-4.461-3.512,41.223,41.223,0,0,1-.769-4.122c-.3-1.759-.58-3.523-.868-5.285l-1.109.165c.291,2.59.553,5.184.887,7.769.173,1.341,1.113,2.9-.536,3.795a4.441,4.441,0,0,1-5.046-.437c-1.5-1.155-2.019-2.829-2.644-4.537-.618-1.689-.041-3.824-1.755-5.282-.328,2.184-.328,2.184.389,5.389.26,1.161,1.146,2.587-.428,3.438a4.031,4.031,0,0,1-4.051-.125,13.431,13.431,0,0,1-6.015-8.121c-1.189-4.01-.2-5.985,3.756-7.438a40.53,40.53,0,0,1,7.039-1.752c2.36-.412,4.9-.066,7.081-1.44-4.577-.229-9.158-.323-13.416,1.593-2.565,1.154-3.478.3-4.384-2.148a287.324,287.324,0,0,0-19.508-42.81,64.327,64.327,0,0,0-8.346-12.237c.672,3.356,3.242,5.657,4.511,8.66-.049,2.78,2.215,4.648,3.165,7.518a18.722,18.722,0,0,0-14.773-.829c-1.307.455-3.124.523-3.134,2.621,1.333,1.444,2.31-.129,3.347-.485,8.519-2.933,16.732.311,20.77,8.3a293.786,293.786,0,0,1,12.708,29.467c.8,2.133,1.362,4.133-.333,6.071-.7.8.371,3.014-1.9,2.531-1.758-.373-1.367-1.911-1.374-3.131-.017-3.121-.6-6.045-2.762-8.553.747,4.212,2.355,8.315.962,12.628-.509,1.3-1.971,2.15-1.819,3.772.012.049.027.1.041.144-2.98.944-5.228,3.194-7.976,4.551a.943.943,0,0,0-.193-.365,8.507,8.507,0,0,0-3.012-1.593c-8.589-3.544-15.551-12.645-13.15-23.6a4.866,4.866,0,0,0,.093-2.637c-.269-.759-.915-.694-1.444-.1-1.975,3.329-1.468,7.041-1.647,10.647.468,1.307.939,2.614,1.4,3.922,2.836,8.013,10.571,14.273,17.821,14.42,4.056.487,7.045-1.161,9.155-4.572.416-.635.841-1.261,1.243-1.9.6-.97.369-2.689,2.338-2.4,1.622.232,2.271,1.231,2.844,2.661,1.535,3.831,4.985,8.769,9.291,7.857,4.726-1,5.233,2.232,7.291,2.232a19.5,19.5,0,0,0,4.3-.54,3.9,3.9,0,0,1,3.26.222c4.844,2.059,8.3.038,9.593-5.107.551-2.2-.909-5.294,1.168-6.4,1.9-1.017,4.7-.357,7.1-.439.167-.005.91.058,1.477.1l0,.024a37.3,37.3,0,0,0,.2,5.275c.509,2.918.723,6.15,4.431,7.134a77.234,77.234,0,0,0,13.171-.641c2.551-.26,5.227-1.115,8.061-1.287,5.112-.309,6.981-4.589,8.515-8.708.623-1.678,1.44-2.558,3.22-2.627,1.978-.076,1.727,1.574,2.068,2.658,1.751,5.576,5.065,7.666,10.737,6.085,11.223-3.128,19.352-9.9,23.586-20.969-.386-1.554.219-3.006.408-4.51.616-4.9-.7-9.044-5.2-11.722" transform="translate(3.292 7.307)" fill="#36292c"/>
        <path id="Path_21517" data-name="Path 21517" d="M274.917,131.846c1.4,1.807,3.821-.111,5.293,1.442-4.528-.509-7.661,1.116-10.624,4.878a33.894,33.894,0,0,1-22.379,12.78l-1.674-.713c.671-2.058,2.646-1.68,4.123-2.133A39.67,39.67,0,0,0,269.3,134.982c-2.322.191-4.209.429-6.033-.218a1.812,1.812,0,0,1-1.417-1.633c.026-.918.908-1.113,1.651-1.3a5.408,5.408,0,0,1,1.9-.178c5.344.6,8.176-2.157,10.04-6.883,3.013-7.633,4.932-15.326,3.13-23.558-.157-3.75-.078-5.988-1.518-10-1.472-6.221-5.432-9.968-7.284-12.757.123-.607,1.273-.507,2.017-.332,5.271,5.331,7.408,12.182,9.286,19.157,1.052,2.4,1.066,5.009,1.583,7.517.313,9.841-1.606,19.048-7.742,27.045" transform="translate(7.03 2.233)" fill="#3b2d30"/>
        <path id="Path_21518" data-name="Path 21518" d="M280.86,104.48a36.207,36.207,0,0,0-.773-7.733,48.182,48.182,0,0,1,8.538,15.724c1.411,4.529,1.507,9.54,1.418,14.408-.028,1.5-.328,3.1.827,4.4l-3.2-.084c-1.571-2.756-1.365-5.887-1.714-8.861a64.748,64.748,0,0,0-5.1-17.856" transform="translate(8.019 2.77)" fill="#8e766f"/>
        <path id="Path_21519" data-name="Path 21519" d="M360.085,132.091s-71-1.865-72.237-1.83c-4.423.116-9.067-1.7-13.424-.27-.832.848-.365,1.322.516,1.487,1.466.276,3-.218,4.453.336l11.611.161c5.122-.048,87.3,2.156,93.331,3.039,0-.512-10.744-1.253-10.744-1.765l-13.507-1.158m0,0a1.505,1.505,0,0,1-.755.227l.755-.227" transform="translate(7.844 3.706)" fill="#372a2d"/>
        <path id="Path_21520" data-name="Path 21520" d="M146.148,65.365c-7.162-.6-12.088-1.738-17.663-.4,3.008-11.844,5.533-23.82,9.379-35.433.9-2.729,1.077-6.537,5.088-6.822,3.8-.27,4.83,3.157,6.46,5.683,6.043,9.374,10.143,19.722,15,29.693,1.437,2.95.538,4.472-2.482,4.5-5.441.042-10.522,1.865-15.78,2.785" transform="translate(3.679 0.65)" fill="#c5531c"/>
        <path id="Path_21521" data-name="Path 21521" d="M243.864,60.192c-10.4-.582-20.8-1.208-31.207-1.721-3.024-.149-3.422-1.327-2.131-3.841,4.888-9.521,10.793-18.436,16.331-27.568.764-1.261,1.731-2.584,3.52-2.636,3.383.554,5.35,3.043,6.813,5.683a118.245,118.245,0,0,1,10.618,24.475c1.482,5.148,1.171,5.495-3.943,5.608" transform="translate(6.007 0.699)" fill="#c5531c"/>
        <path id="Path_21522" data-name="Path 21522" d="M262.2,71.109l-5.342-2.385a110.1,110.1,0,0,0-5.825-20.848c-4.5-11.61-8.92-23.251-13.412-34.863A36.112,36.112,0,0,0,231.812,3c2.378-.77,3.4.552,4.371,2.1,4.568,7.277,7.688,15.22,10.871,23.155,5.646,14.077,8.859,29.008,15.146,42.854" transform="translate(6.637 0.079)" fill="#8d756e"/>
        <path id="Path_21523" data-name="Path 21523" d="M243.292,60.2c4.5-.522,4.134-3.117,3.027-6.45a152.344,152.344,0,0,0-9.5-22.016,18.562,18.562,0,0,0-7.013-7.3c2.247-.851,3.779.4,4.919,1.987A85.482,85.482,0,0,1,248.54,57.7c.856,3.78.055,4.052-5.248,2.5" transform="translate(6.579 0.692)" fill="#42302f"/>
        <path id="Path_21524" data-name="Path 21524" d="M173.358,58.743c1.3-1.555,3.585-2.08,6.1-2.984,6.114-.968,12.244-.562,18.372-.2.165,1.69.141,1.865-1.87,1.585a56.438,56.438,0,0,0-16.5.125,17.324,17.324,0,0,0-8.344,4.678c.467-1.894,1.309-2.242,2.241-3.2" transform="translate(4.899 1.579)" fill="#3b2d30"/>
        <path id="Path_21525" data-name="Path 21525" d="M169.086,69.465a26.454,26.454,0,0,1,17.989-10.26,58.106,58.106,0,0,0-17.989,10.26" transform="translate(4.841 1.695)" fill="#3b2d30"/>
        <path id="Path_21526" data-name="Path 21526" d="M180.621,51.7c5.224-2.416,10.321-1.521,15.309,1.032-5.056-.713-10.052-2.512-15.309-1.032" transform="translate(5.171 1.44)" fill="#3b2d30"/>
        <path id="Path_21527" data-name="Path 21527" d="M261.411,305.152c3.123,3.322,3.6,5.727,3.921,9.343a19.229,19.229,0,0,1-5.538,15.639c-5.155,5.448-10.8,10.187-18.582,11.13-5.276.639-7.191-.982-8.143-6.167-.157-.855.069-1.819-.832-2.408,1.737-6.082,2.9-12.316,6.6-17.745,3.555-5.225,7.573-9.388,14.025-10.971,3.21-.788,5.141-.177,8.553,1.179" transform="translate(6.649 8.693)" fill="#8a736c"/>
        <path id="Path_21528" data-name="Path 21528" d="M126.076,323.83c2.606-4.106,6.543-4.448,10.7-3.47,3.638.857,6.888,5.306,7.188,9.377a40.555,40.555,0,0,1-.1,4.164c-.791,4.137-3.29,6.276-7.285,6.234-5.4-.057-11.045-4.54-12.374-9.789-.645-2.552-.357-4.807,1.875-6.516" transform="translate(3.547 9.159)" fill="#36292c"/>
        <path id="Path_21529" data-name="Path 21529" d="M129.222,186.355a127.986,127.986,0,0,0,24.559,6.947c-6.277,5.277-13.343,7.331-21.472,5.467-1.4-.322-2.511-.546-2.322-2.238.385-3.446-.8-6.762-.765-10.176" transform="translate(3.7 5.335)" fill="#8a736c"/>
        <path id="Path_21530" data-name="Path 21530" d="M164.158,216.432c3.7-.039,3.8,3.364,4.285,5.405,2.87,12.177,6.764,24.052,10.156,36.074a5.982,5.982,0,0,1-1.44,5.63c-1.11,1.35-2.731,2.116-3.526-.534,1.4-2.424-.109-4.691-.581-6.909-2.662-12.511-5.6-24.963-8.622-37.394a11.345,11.345,0,0,1-.272-2.272" transform="translate(4.7 6.196)" fill="#8b746d"/>
        <path id="Path_21531" data-name="Path 21531" d="M126.224,324.012c-3.917,6.722,2.049,14.756,10.559,15.294,3.756.238,5.668-2.3,7.225-5.222l2.272-.794c.078,1.5-.946,2.566-1.485,3.824-2.448,2.221-4.824,4.176-8.463,4.277-11.017,0-18.128-11.472-17.577-22.051a20.582,20.582,0,0,1,.935-4.469c.262-.924,1.764-1.391.574-1.305-.312.382,1.542-.085,1.059,1.772-.719,2.771.793,4.486,2.038,6.445-.361.456-1.159.976-.969,1.372.4.836,1.23.174,1.883.119l1.948.737" transform="translate(3.399 8.977)" fill="#8b746d"/>
        <path id="Path_21532" data-name="Path 21532" d="M129.729,278.167a52.379,52.379,0,0,1,5.27,9.406c-7.091-3.44-13.607-4.306-20.012-.1-1.512-1.606-.132-2.544.9-3.389,3.555-2.913,7.278-5.465,12.231-5.127.516.035,1.073-.515,1.611-.794" transform="translate(3.273 7.964)" fill="#8b736c"/>
        <path id="Path_21533" data-name="Path 21533" d="M264.182,281.322a30.7,30.7,0,0,0-19.639,5.171,21.281,21.281,0,0,1,4.143-8.331c3.531.07,7-1.22,10.623.008,1.985.674,3.821,1.2,4.873,3.152" transform="translate(7.001 7.949)" fill="#8b746d"/>
        <path id="Path_21534" data-name="Path 21534" d="M164.176,216.432c2.552,6.378,3.487,13.175,5.1,19.794,1.974,8.117,3.787,16.274,5.555,24.439.165.756,1.575,2.788-1.178,2.342-2.345-13.5-6.031-26.71-8.9-40.1-.444-2.079-2.119-4.178-.579-6.477" transform="translate(4.682 6.196)" fill="#36292c"/>
        <path id="Path_21535" data-name="Path 21535" d="M184.79,122.221a4.837,4.837,0,0,0,.733-.669c1.361-1.826,2.837-4.527,5.335-2.769,2.184,1.535.865,4.349-.289,6.245a36.538,36.538,0,0,1-4.833,5.835c-.952,1.008-1.917.782-2.78-.491a21.842,21.842,0,0,1-3.564-8.342c-.238-1.3-.654-2.992,1.182-3.561,1.584-.49,2.147.861,2.8,1.985.354.615.388,1.529,1.42,1.766" transform="translate(5.13 3.384)" fill="#36292c"/>
        <path id="Path_21536" data-name="Path 21536" d="M204.684,246.669c-4.109,5.028-6.921,10.748-9.568,17.6-.4-5.267,4.651-14.417,9.568-17.6" transform="translate(5.586 7.062)" fill="#36292c"/>
        <path id="Path_21537" data-name="Path 21537" d="M127.878,316.7c-.108,1.828-.984,2.714-2.639,2.772s-2.709-.7-2.7-2.427a2.478,2.478,0,0,1,2.52-2.75,2.818,2.818,0,0,1,2.823,2.4" transform="translate(3.508 8.998)" fill="#3d2f31"/>
        <path id="Path_21538" data-name="Path 21538" d="M196.148,251.6c.259-3.849,4.614-9.421,8.895-11.285-3,3.734-6.431,7.132-8.895,11.285" transform="translate(5.616 6.88)" fill="#36292c"/>
        <path id="Path_21539" data-name="Path 21539" d="M133.781,314.46c-.183,1.129-.573,2.1-1.879,1.936a1.979,1.979,0,0,1-1.9-2.356,1.9,1.9,0,0,1,3.775.42" transform="translate(3.721 8.943)" fill="#3d2f31"/>
        <path id="Path_21540" data-name="Path 21540" d="M124.225,323.046c-.287,1.649-1.319,1.965-2.737,1.482a1.33,1.33,0,0,1-1-1.405c.208-1.772,1.567-1.613,2.827-1.569l.915,1.492" transform="translate(3.449 9.205)" fill="#3c2e30"/>
        <path id="Path_21541" data-name="Path 21541" d="M280.775,101.522c.962,9.386-1.865,20.393-6.872,29.434-.726,1.312-2.04,1.352-3.261,1.45-2.472.2-4.953.288-8.132.461,2.974,2.305,5.989.427,8.795,1.733-6.174,8.656-14.672,13.231-24.716,15.385-14.041.968-26.364-3.194-35.772-13.68-10.952-12.207-14.544-26.737-9.373-42.463,5.294-16.1,16.1-24.978,32.417-27.706,7.816-1.306,17.53-.6,24.728,3.046,2.518,2.306,3.021,6.691,3.871,9.722a64.415,64.415,0,0,0,12.266,17.16c2.24,2.164,4.694,2.516,6.048,5.458" transform="translate(5.701 1.876)" fill="#b4958f"/>
        <path id="Path_21542" data-name="Path 21542" d="M94.391,101.813c.33,7.4.739,14.122,3.432,20.436.657,1.541-.033,1.9-1.532,2.05-8.715.865-9.631-.091-7.926-8.586a34.768,34.768,0,0,1,6.026-13.9" transform="translate(2.51 2.915)" fill="#b2948e"/>
        <path id="Path_21543" data-name="Path 21543" d="M177.938,98.087c-2.708-17.262-18.262-31.687-35.722-32.4a27.853,27.853,0,0,0-9.871,2.664c-2.082,1-3.641,1.478-3.529-1.756.013-.365-.363-.635-.75-.753-2.5.969-5,1.92-7.486,2.912a15.223,15.223,0,0,0-9.119,9.069,36.029,36.029,0,0,1-9.711,14.12c-5.506,4.746-6.513,10.751-5.943,17.339.273,3.159,1.13,6.267,1.707,9.4.775,4.212,2.431,7.49,7.5,7.309.459-.016,1.026.157.834,1.02-1.467.963-3.187-.843-4.837.338,4.982,10.757,13.7,17.4,24.532,21.136,14.938,5.145,28.649,2.462,39.947-8.817,11.519-11.5,14.957-25.589,12.447-41.588" transform="translate(2.739 1.881)" fill="#b4958f"/>
        <path id="Path_21544" data-name="Path 21544" d="M141.353,65.72c-3.67,1.368-7.333,2.758-11.017,4.088-.9.324-2.98,1.718-3.955.929-1.019-.825-.682-1.384.35-3.413.2-.4-.175.348,1.43-1.716,4.7-1.757,8.465-.865,13.192.112" transform="translate(3.601 1.85)" fill="#b95221"/>
        <path id="Path_21545" data-name="Path 21545" d="M281.031,104.265c2.755,2.079,3.515,5.388,4.278,8.322a64.7,64.7,0,0,1,2.537,18.395l-13.748.112c2.736-6.355,6-12.536,6.443-19.644.15-2.4.326-4.79.49-7.185" transform="translate(7.847 2.985)" fill="#b4958f"/>
        <path id="Path_21546" data-name="Path 21546" d="M276.729,91.472c-.6-.57,0,0-.854-.84-4.483-4.412-9.845-12.019-12.09-17.958a18.039,18.039,0,0,0-6.852-3.594,59.818,59.818,0,0,0,22.185,32.34c-.854-5.093-1.459-6.13-2.39-9.948" transform="translate(7.356 1.978)" fill="#8f7770"/>
        <path id="Path_21547" data-name="Path 21547" d="M235.884,329.038c.134-2.939,2.184-6.876,6.259-9.621,2.717-1.829,5.673-2.421,8.56-.364,2.984,2.126,3.461,5.282,2.792,8.563-.945,4.627-6.587,9.247-11.3,9.546-4.934.312-6.476-1.181-6.308-8.124" transform="translate(6.753 9.097)" fill="#36292c"/>
        <path id="Path_21548" data-name="Path 21548" d="M260.055,314.162a4.459,4.459,0,0,1-4.172,3.879c-1.223.122-2.642-.248-2.365-1.668.449-2.3,1.759-4.242,4.387-4.541,1.333-.151,2.084.692,2.15,2.331" transform="translate(7.257 8.927)" fill="#36292c"/>
        <path id="Path_21549" data-name="Path 21549" d="M250.336,308.339a2.485,2.485,0,0,1,2.142,2.815c-.2,1.933-1.2,3.512-3.218,3.734-1.667.183-2.13-1.212-1.944-2.619a4.239,4.239,0,0,1,3.02-3.93" transform="translate(7.08 8.828)" fill="#36292c"/>
        <path id="Path_21550" data-name="Path 21550" d="M260.5,321.5a3.369,3.369,0,0,1-2.62,2.83c-.97.191-1.625-.55-1.712-1.575a2.255,2.255,0,0,1,2.051-2.663c1.075-.184,2.011.066,2.281,1.408" transform="translate(7.334 9.163)" fill="#36292c"/>
        <path id="Path_21551" data-name="Path 21551" d="M180.922,120.021a8.9,8.9,0,0,1,1,.81c1.077,1.343.677,4.082,2.652,4.234,1.844.143,1.606-2.585,2.77-3.694.617-.587,1.1-1.724,2.106-1.3,1.295.545.646,1.8.413,2.673-.649,2.436-2.422,4.132-4.174,5.814-1.014.974-1.893.67-2.448-.429-1.243-2.462-2.868-4.835-2.316-8.108" transform="translate(5.177 3.435)" fill="#b1938d"/>
        <path id="Path_21552" data-name="Path 21552" d="M178.64,334.282c-.182-1.141-1.274-1.192-2.011-1.646-3.421-2.106-3.721-5.073-.4-7.1,1.928-1.174,4.412-3.247,6.534-1.627,2.4,1.829,1.138,8.858-1.354,10.373Z" transform="translate(4.979 9.256)" fill="#3c2f32"/>
        <path id="Path_21553" data-name="Path 21553" d="M142.319,275.6c3.377.618,7.08.978,8,5.326s-1.877,6.4-5.36,7.874a27.185,27.185,0,0,0-3.753,1.674c-2.287,1.413-3.695.585-4.759-1.545-.34-.683-.689-1.362-1.057-2.031-1.514-2.753-5-6.017-2.992-8.47,1.848-2.258,6.247-2.59,9.92-2.829" transform="translate(3.773 7.89)" fill="#372a2d"/>
        <path id="Path_21554" data-name="Path 21554" d="M208.031,291.6c-9.625-.581-11.086-3.35-7.178-11.505.781-1.629,1.786-1.392,2.933-1.278a30.886,30.886,0,0,1,10.195,2.629c1.916.9,4.016,1.865,3.6,4.667a6.173,6.173,0,0,1-4.9,5.41,17.621,17.621,0,0,1-4.645.078" transform="translate(5.693 7.98)" fill="#372b2d"/>
        <path id="Path_21555" data-name="Path 21555" d="M207.6,313.6c-2.294-.2-3.968-.334-5.639-.5-6.432-.633-7.972-3.315-5.276-9.081.36-.772.852-1.355,1.646-1.389,4.81-.206,9.542.113,13.478,3.326a3.525,3.525,0,0,1,.969,4.579c-1.2,2.26-3.586,2.616-5.178,3.063" transform="translate(5.595 8.663)" fill="#382b2e"/>
        <path id="Path_21556" data-name="Path 21556" d="M184.773,56.322c2.3.5,4.189-1.905,6.573-.846,2.265,4.094.5,8.194.018,12.292-.725,2.187-1.161,4.769-4.3,4.852-3.355.091-3.789-2.858-5.045-4.891-2.131-3.031-1.4-6.338-.882-9.561.3-1.861,1.566-2.741,3.64-1.846" transform="translate(5.17 1.58)" fill="#3a2d30"/>
        <path id="Path_21557" data-name="Path 21557" d="M178.626,67.051c-.9,1.464-2.051,2.645-3.81,1.907-2.768-1.159-2.991-3.988-3.356-6.556-.225-1.588.218-3.052,2.11-3.265,1.678-.188,2.7-3.423,4.9-1.16a11.824,11.824,0,0,1,.157,9.075" transform="translate(4.907 1.637)" fill="#3a2d2f"/>
        <path id="Path_21558" data-name="Path 21558" d="M194.2,57.124c2.181-1.709,4.508-2.395,5.977.642,1.777,3.67.547,9.129-1.871,10.13-1.549.641-2.722.324-3.268-1.474-.348-1.146-.588-2.329-.877-3.5-.576-1.939-1.161-3.878.039-5.8" transform="translate(5.54 1.594)" fill="#3b2e31"/>
        <path id="Path_21559" data-name="Path 21559" d="M155.373,303.007c-2.178.75-3.76,1.312-5.353,1.842-6.132,2.041-8.63.219-8.518-6.144a1.988,1.988,0,0,1,.937-1.939c4.31-2.148,8.761-3.784,13.664-2.453a3.524,3.524,0,0,1,2.751,3.787c-.177,2.553-2.209,3.849-3.481,4.907" transform="translate(4.051 8.412)" fill="#382b2e"/>
        <path id="Path_21560" data-name="Path 21560" d="M127.4,110.144c4.6,2.214,10.43.244,14.527,4.322.942.938,2.109.242,2.911-.587a14.169,14.169,0,0,1,14.247-4.176c.512,8.22-3.137,14.2-10.6,17.267a4.594,4.594,0,0,0-2.814,2.124c-1.782,3.725-4.95,5.823-8.551,7.59-7.081,3.474-9.2,7.867-7.935,15.706,1.056,6.538-.373,9.546-6.188,13.019-4.991,2.981-5.414,4.011-4.014,9.831.375,1.558-.5,5.124-1.3,6.636-6.625-4.018-11.723-9.137-16.972-14.321a3.474,3.474,0,0,1-.854-4.235c1.422-3.825,4.342-5.644,8.016-6.763,7.823-2.383,7.89-2.536,7.515-10.734-.039-.853-.061-1.706-.094-2.559-.3-7.74,2.471-11.838,9.712-14.347,6.241-2.162,6.952-3.689,4.522-9.612a23.632,23.632,0,0,1-2.132-9.161" transform="translate(2.849 3.128)" fill="#1165af"/>
        <path id="Path_21561" data-name="Path 21561" d="M217.344,114.544c4.11-2.391,7.744-1.343,10.839,1.806,2.236,2.276,4.274,2.463,6.6.312.8-.736,1.687-1.838,2.776-1.509,4.3,1.3,7.626-1.146,11.211-2.64.5,3.635-.509,7-1.844,10.3-2.646,6.544-2.259,7.5,4.263,9.961,4.815,1.814,8.613,4.6,9.744,9.964a18.555,18.555,0,0,1-.049,6.9c-1.092,6.618.622,9.182,7.141,10.78.707.174,1.46.19,2.148.411,5.851,1.881,5.445,7.041,4.047,8.726-3.963,4.772-11.14,11.347-17.177,14.084a40.228,40.228,0,0,1,.7-4.738c.666-5.069-.2-7.262-4.587-9.638-5.061-2.742-6.67-6.6-6.043-12.371,1-9.208-.979-13.51-9.13-16.894a11.644,11.644,0,0,1-6.75-6.348c-.6-1.477-1.812-1.818-3.057-2.323-7.376-2.993-11.195-8.943-10.821-16.792" transform="translate(6.222 3.221)" fill="#1265af"/>
        <path id="Path_21562" data-name="Path 21562" d="M221.732,144.424a8.96,8.96,0,0,0-12.388-4.978c-5.995,2.689-11.576,2.919-17.476.488h0a1.516,1.516,0,0,0-.381-.041c-5.409-.514-6.187-4.056-5.45-8.715.121-.764.6-2.367-.829-2.287-1.488.083-.612,1.514-.53,2.326.729,7.233.747,7.235-5.9,9.932-1.008.409-2.039.761-3.058,1.141-4.693,1.062-8.769-1.539-13.171-2.211-1.566-.006-5.914.263-5.914.263-5.279.415-6.077,2.42-6.473,6.978-.221,7.378,3.72,10.728,10.681,8.807a12.578,12.578,0,0,1,11.384,1.941c4.361,3.115,9.247,3.94,14.165,1.642a26.743,26.743,0,0,1,20.215-1.147c3.471,1.1,6.759.35,9.872-1.235,5.818-2.964,7.545-7.309,5.249-12.905M215.84,155a14.817,14.817,0,0,1-10.692,1,27.057,27.057,0,0,0-17.925,1.161c-4.84,2.132-9.4,1.978-13.9-1.046a15.027,15.027,0,0,0-12.212-2.246c-5.625,1.254-6.792.429-8.88-4.792-.18-.3.947-7.374,6.44-6.563a53.943,53.943,0,0,1,13.214,2.442c1.037.31,6.633-1.685,6.734-1.666,4.547-1.042,5.22-1.741,9.887-2.222.013.1,12.453,3.472,17.8,1.813,1.737-.538,3.336-1.519,5.182-1.754,3.538-.447,7.244,1.664,8.277,4.7,1.292,3.8-.186,7.248-3.933,9.167" transform="translate(4.299 3.69)" fill="#3a2d2f"/>
        <path id="Path_21563" data-name="Path 21563" d="M157.242,104.641c-.534-.832-2.52.887-3.941,1.119-1.514.248-3.069.166-3.749-1.464-.72-1.726.794-2.243,1.929-2.932,4.98-3.021,5.023-3.42.671-7.6-.958-.92-2.069-1.678-3.11-2.511h-1.465c-.649.507-1.278,1.044-1.95,1.516-2.572,1.805-5.748,2.923-5.937,6.971-.079,1.7-1.877,2.306-3.649,2.188a8.827,8.827,0,0,0-9.419,8.733,8.489,8.489,0,0,0,6.613,2.467,8.293,8.293,0,0,1,6.169,1.738c1.983,1.543,3.688,1.313,5.564-.258,3.163-2.65,6.624-4.593,11.028-3.683a2.1,2.1,0,0,0,2.31-.7c-.293-1.9-.115-4.1-1.064-5.578m-17.149,4.783a1.745,1.745,0,0,1-1.954-1.646c-.177-1.087.823-1.265,1.63-1.483a1.573,1.573,0,1,1,.324,3.129" transform="translate(3.625 2.612)" fill="#36292c"/>
        <path id="Path_21564" data-name="Path 21564" d="M239.961,105.832c-2.537.5-4.056-.642-4.241-2.653-.255-2.773-1.947-3.869-3.9-5.155-1.251-.825-5.034-2.822-5.767-2.822-.852.785-1.714,1.559-2.552,2.358-4.311,4.1-4.265,4.726.748,7.809,1.073.659,2.274,1.254,1.789,2.721-.559,1.691-2.111,1.926-3.589,1.615a32.957,32.957,0,0,1-4.174-1.46,13.755,13.755,0,0,0-.932,6.794c4.416-.667,8.273.231,11.627,3.46,1.687,1.624,3.864,1.153,5.695-.22a7.291,7.291,0,0,1,5.466-1.557c3.65.486,6.29-1.234,8.633-3.713-.474-3.664-5.352-7.855-8.805-7.177m-2.754,6.035a1.709,1.709,0,0,1-1.683,1.508c-.958-.276-1.51-.853-1.37-1.838.153-1.08.988-1.286,1.878-1.136.751.125,1.347.529,1.175,1.466" transform="translate(6.22 2.726)" fill="#36292c"/>
    </g>
</svg>
