<svg id="Component_12_1" data-name="Component 12 – 1" xmlns="http://www.w3.org/2000/svg" xmlns:xlink="http://www.w3.org/1999/xlink" width="286.898" height="584.646" viewBox="0 0 286.898 584.646">
    <defs>
        <clipPath id="clip-path">
            <rect id="Rectangle_10015" data-name="Rectangle 10015" width="286.898" height="584.646" fill="none"/>
        </clipPath>
    </defs>
    <g id="Group_27219" data-name="Group 27219" clip-path="url(#clip-path)">
        <path id="Path_20906" data-name="Path 20906" d="M158.617,455.149a20.4,20.4,0,0,0,.233,4.02c.16,2.514.221,5.026.254,7.544.037,2.883,1.17,5.481,2.18,8.109.121.314.233.632.336.953.486,1.52.922,2.926,2.91,3.308,1.3.25,1.836,1.622,2.184,2.882.06,1.262-.76,1.673-1.8,1.861-3.157.571-6.316,1.127-9.5,1.545a84.941,84.941,0,0,1-8.552.9,31.512,31.512,0,0,1-8.643-.921c-.625-.156-1.251-.366-1.231-1.206a31.894,31.894,0,0,0-.432-3.608c-.175-4.138-.8-8.24-1.283-12.354-.379-3.229-.57-6.476-.94-9.706-.461-4.03-.612-8.088-1.006-12.123-.346-3.537-.414-7.1-.839-10.618-.588-4.865-.922-9.753-1.562-14.612q-.912-6.913-1.953-13.808c-.912-6.089-1.788-12.183-2.681-18.275q-1.5-10.224-3.224-20.409c-1.161-6.831-2.4-13.652-3.572-20.479-1-5.789-1.924-11.594-2.99-17.37-1.312-7.1-2.08-14.276-3.19-21.4a21.656,21.656,0,0,1-.6-4.373c.02-.419-.262-.692-.467-1.01-1.47-2.273-3.343-4.255-4.75-6.571a11.931,11.931,0,0,1-2.151-6.65c.088-2.951.306-5.9.232-8.854-.085-3.37-.261-6.739-.593-10.094a25.009,25.009,0,0,0-.632-4.494,100.824,100.824,0,0,1,.918,21.023,14.549,14.549,0,0,0,1.479,8.091,31.739,31.739,0,0,0,2.822,4.05c.179.236.383.453.54.7.2.312.511.674.117,1.007-.354.3-.742.058-1.027-.188-.514-.443-1.077-.821-1.576-1.279-1.089-1-2.345-1.79-3.417-2.808,1.685,1.413,3.348,2.851,5.046,4.249,1.851,1.524,3.545,3.135,3.8,5.746.448,4.536,1.2,9.033,1.864,13.538.709,4.8,1.425,9.6,2.351,14.364.942,4.85,1.638,9.753,2.513,14.617,1.071,5.947,2.025,11.915,3.081,17.865,1.019,5.743,1.892,11.512,2.771,17.279.661,4.344,1.388,8.678,2,13.029q1.008,7.2,2.072,14.4c.9,5.983,1.505,11.995,2.172,18,.508,4.572.792,9.171,1.163,13.758.348,4.289.744,8.579,1.142,12.866.433,4.667.923,9.329,1.358,14,.307,3.284.731,6.555.945,9.85.058.9.057,1.723-1.033,2.014a21.293,21.293,0,0,1-5.03-.2,94.006,94.006,0,0,1-11.636-1.651,8.9,8.9,0,0,1-4.133-1.453c-.247-.2-.58-.075-.852-.193a11.381,11.381,0,0,1,.309-6.641c.408-1.374.855-2.738,1.226-4.121a4.525,4.525,0,0,0-.367-2.472c-.838-2.815-2.182-5.458-2.778-8.358a20.2,20.2,0,0,1-.289-4.63c-.713-2.648-.437-5.383-.653-8.072-.344-4.3-.705-8.6-1.123-12.887-.569-5.85-1.171-11.7-1.9-17.529-.921-7.343-1.633-14.709-2.859-22.017-.7-4.164-1-8.389-1.33-12.608-.38-4.8-.783-9.609-1.3-14.4-.679-6.308-1.3-12.624-2.225-18.9-1.152-7.827-2.1-15.684-3.352-23.5-1.517-9.435-3.306-18.832-4.332-28.342a39.114,39.114,0,0,1,.356-11,69.2,69.2,0,0,0,1.011-8.291,40.563,40.563,0,0,0,.741-5.23,60.927,60.927,0,0,0,.606-10.455c-.063-2.06.456-4.219-.56-6.207.123-.415.466-.488.827-.534a31.721,31.721,0,0,0,8.084,1.975,38.828,38.828,0,0,0,6.667.723,2.954,2.954,0,0,1,1.015.007c3.623.469,7.228.013,10.835-.226,5.481-.362,10.808-1.7,16.211-2.55.974.074.808.61.5,1.222-.751,1.509-1.873,2.777-2.733,4.216-.9,1.511-2.286,2.687-3.035,4.313a2.233,2.233,0,0,0-.355,1.317,5.987,5.987,0,0,1-.618,3.29,12.8,12.8,0,0,0,.308,4.517,99.92,99.92,0,0,0,3.423,15.705c.9,2.778,2.246,5.377,3.339,8.077a27.134,27.134,0,0,1,1.072,2.841,7.443,7.443,0,0,0,.84,1.59c1.143,1.932,1.939,4.033,2.939,6.035,1.065,2.132.861,4.546,1.026,6.847.374,5.224.768,10.442,1.3,15.656.66,6.475,1.46,12.933,2.072,19.414.473,5,1.177,9.989,1.69,14.99.56,5.464,1.2,10.921,1.706,16.392.373,4.037.955,8.056,1.348,12.093q.816,8.39,1.7,16.772c.592,5.591.93,11.2,1.381,16.8.3,3.783.485,7.586.748,11.376.389,5.6.919,11.2,1.432,16.791a3.026,3.026,0,0,1-.1,1.156" transform="translate(16.973 46.505)" fill="#070807"/>
        <path id="Path_20907" data-name="Path 20907" d="M144.887,140.877a48.156,48.156,0,0,1,5.466,3.161,41.251,41.251,0,0,1,5.542,5.128c.4.4.541,1.085,1.325.962.09-.014.334.246.312.328-.33,1.261.729,1.887,1.265,2.718,2.566,3.965,4.78,8.124,7.03,12.272a87.852,87.852,0,0,1,5.416,12.873c1.91,5.431,4.043,10.789,5.684,16.318a85.187,85.187,0,0,1,3.324,16.146c.629,6.615,1.178,13.236,1.9,19.842.37,3.393.343,6.838.856,10.2.6,3.975.561,7.982,1.007,11.964.764,6.817,1.335,13.657,1.556,20.524.066,2.059.5,4.1.683,6.164.2,2.341.247,4.7.46,7.034.5,5.456,1.241,10.882,2.015,16.306,1.112,7.805,2.63,15.527,4.336,23.217,1.2,5.418,2.67,10.766,4.3,16.069,1.4,4.544,2.491,9.207,4.25,13.605,4.093,10.233,7.769,20.652,12.795,30.491,2.929,5.733,5.48,11.694,9.04,17.057,2.638,3.972,4.634,8.283,7.231,12.261,3.419,5.239,6.677,10.582,10.385,15.633,3.557,4.846,7.058,9.732,10.835,14.409,1.575,1.95,3.35,3.739,4.943,5.675,1.2,1.461,2.31,3.005,3.364,4.578a1.994,1.994,0,0,1-1.109,3.028c-2.168.843-4.494.573-6.713,1.039-5.449,1.146-11.053,1.238-16.491,2.5a53.063,53.063,0,0,0-12.249,3.926c-3.347,1.7-6.846,3.01-10.29,4.464-.323.136-.669.418-1.078.2-1.916-.314-2.014-.322-2.256-2.246-.4-3.214-1.686-6.185-2.439-9.3-1.16-4.806-2.6-9.541-3.8-14.341-1.386-5.541-2.658-11.105-3.881-16.68-2.184-9.955-4.52-19.874-6.888-29.785-1.326-5.548-2.493-11.133-3.808-16.682-1.62-6.837-2.816-13.754-4.139-20.645-1.569-8.175-2.856-16.407-4.333-24.6q-1.688-9.356-3.694-18.664c-1.16-5.331-2.04-10.719-3.285-16.03-1.274-5.434-2.345-10.911-3.59-16.353a162.039,162.039,0,0,1-3.713-21.859c-.156-1.765-.6-3.5-.777-5.267.006-1.347.859-2.367,1.393-3.5a27.607,27.607,0,0,0,2.533-15.036c-.476-4.323-.728-8.664-1.193-12.986-.469-4.368-1.047-8.724-1.412-13.1-.239-2.86-.406-5.729-.628-8.593-.272-3.494-.613-6.983-.895-10.476-.231-2.862-.574-5.712-.825-8.57-.373-4.247-.923-8.47-1.609-12.679a9.609,9.609,0,0,0-2.512-5.17c-3.984-4.222-6.74-9.272-9.738-14.17a55.525,55.525,0,0,0-5.055-7.576c-.62-.718-.989-1.652-1.894-2.125a.787.787,0,0,1-.129-.415c.114-1.008,0-2.023.1-3.031.033-.34.109-.705.513-.78s.375.378.573.562" transform="translate(26.338 25.715)" fill="#060707"/>
        <path id="Path_20908" data-name="Path 20908" d="M75.116,440.356a9.462,9.462,0,0,0-3.249-5.571,34.577,34.577,0,0,0-7.049-4.18,75.239,75.239,0,0,0-17.747-5.262c-.908-.164-1.809-.363-2.7-.589-1.48-.375-1.8-.843-1.463-2.279.788-3.315,1.626-6.62,2.439-9.93,1.065-4.335,2.307-8.635,3.137-13.015.954-5.04,2.6-9.9,3.59-14.92,1.7-8.631,3.83-17.17,5.441-25.823.91-4.886,2.2-9.7,3.14-14.582.3-1.542.066-3.113.5-4.642a74.072,74.072,0,0,0,2.3-10.6c.337-2.591.77-5.173,1.227-7.747.243-1.367.738-2.692.93-4.063.8-5.758,2.107-11.436,2.6-17.249a79.8,79.8,0,0,1,1.439-8.352c1.436-7.444,2.933-14.877,4.36-22.324q2.226-11.61,4.351-23.241c.249-1.361.227-2.769.412-4.145.419-3.124.889-6.242,1.337-9.362,1.08-.361,1.976.263,2.871.634,3.9,1.621,7.761,3.343,11.756,4.738.581.2,1.248.344,1.529,1.022.2.49.473.124.721.066a1.5,1.5,0,0,1,1.853.684c.219,1.74-.311,3.432-.327,5.158-.019,2.159-.741,4.235-.806,6.392q-.942,8.706-1.971,17.4c-.58,4.955-1.115,9.913-1.337,14.9-.278,6.248-.4,12.507-.814,18.745-.492,7.465-.906,14.941-1.746,22.382-.431,3.811-.938,7.612-1.441,11.415a64.349,64.349,0,0,1-.783,6.779c-.015.146-.028.29-.036.435-.056.792-.295,1.554-.383,2.34-.464,3.648-.835,7.305-1.325,10.95-.625,4.65-1.348,9.285-1.97,13.935-1.2,8.966-2.86,17.862-4.088,26.823-1.218,8.881-2.322,17.781-3.8,26.62-.711,4.263-.987,8.56-1.641,12.816a10.88,10.88,0,0,1-1.254,3.637" transform="translate(7.841 42.589)" fill="#060707"/>
        <path id="Path_20909" data-name="Path 20909" d="M84.138,340.177c.652-5.508,1.264-11.021,1.967-16.523.706-5.52,1.138-11.068,1.483-16.614q.364-5.864.651-11.745c.3-6.361.334-12.739.953-19.084.418-4.275.845-8.548,1.317-12.816.559-5.059,1.171-10.111,1.762-15.167.06-.728.314-1.028.986-.459a3.344,3.344,0,0,1,.874,1.362,25.086,25.086,0,0,1,1.193,6.06c.68,4.5,1.124,9.02,1.973,13.5a82.276,82.276,0,0,1,1.212,8.738c-.1,4.069-1.087,8.033-1.464,12.063-.409,4.378.251,8.731.871,13.059.651,4.544,1.439,9.068,2.164,13.6.905,5.655,1.9,11.3,2.677,16.972.515,3.763,1.078,7.518,1.58,11.283.678,5.092,1.4,10.18,1.951,15.287.631,5.865,1.233,11.736,1.72,17.618.393,4.737.655,9.49,1.361,14.2,1.3,8.7,2.377,17.436,3.383,26.178.757,6.577,1.434,13.162,2.083,19.75.525,5.337.831,10.684,1.189,16.03a2.615,2.615,0,0,1-.1,1.469c-.575-.1-.891,1.012-1.589.338-.011-.567-.456-.636-.86-.749-3.137-.865-6.28-1.711-9.44-2.485-5.668-1.388-11.287-2.959-16.92-4.481a71.634,71.634,0,0,1-8.324-2.682,20.17,20.17,0,0,1-5.654-3.346,8.036,8.036,0,0,1-1.852-2.23,3.623,3.623,0,0,1-.3-3.259,20.861,20.861,0,0,0,.755-4.748c.575-4.448,1.287-8.872,2.025-13.294a2.879,2.879,0,0,1,.616-1.631,1.236,1.236,0,0,0,.342-1.181c-.736-2,.079-3.94.278-5.875.444-4.327,1.063-8.64,1.681-12.948,1.077-7.487,2.226-14.964,3.287-22.451,1.335-9.42,2.962-18.793,4.327-28.207q1.557-10.733,3.1-21.467a1.063,1.063,0,0,0-.015-.562,1.6,1.6,0,0,0-.329,1.041c-.479,4.628-1.371,9.2-1.87,13.824A3.364,3.364,0,0,1,84.768,340c-.148.24-.351.359-.63.181" transform="translate(12.963 45.357)" fill="#df313b"/>
        <path id="Path_20910" data-name="Path 20910" d="M70.238,196.715c.354,2.317.682,4.638,1.073,6.949.187,1.1-.34,1.484-1.3,1.446a2.523,2.523,0,0,0-1.851.572c-.525-.018-.8-.588-1.338-.592a2.728,2.728,0,0,0-.377-.071c-1.873-.026-3.742-.038-5.611.014-5.984-.059-11.968.05-17.953-.054a43.819,43.819,0,0,0-5.928.216c-1.891.225-3.779-.2-5.671-.222-.807-.234-1.16-.733-.381-1.293.434-.314.305-.361.176-.744a8.429,8.429,0,0,0-1.383-2.687c-1.156-1.429-2.084-1.615-3.782-.919-3.007,1.233-5.815,2.912-8.9,3.952-.659.221-1.286.7-2.053.394-.911-.105-1.815.3-2.739,0-.437-.143-.643-.335-.576-.8a202.21,202.21,0,0,0,1.851-20.351c.26-6.412.377-12.83.555-19.245a2.669,2.669,0,0,0-.038-.374,2.6,2.6,0,0,1,2.706-1.809c2.952-.1,5.9-.3,8.856-.373,2.914-.076,5.829-.161,8.731-.387,3.622-.282,7.252-.146,10.878-.465a85.044,85.044,0,0,1,9.373-.053c2.241.051,4.481-.069,6.721.028,1.887-.061,3.776.063,5.661-.1a.986.986,0,0,1,.717.167c.039,3.886.342,7.762.381,11.651.04,4.088.321,8.173.5,12.259a1.211,1.211,0,0,0,.226.837,1.206,1.206,0,0,1,.44,1.08,38.752,38.752,0,0,0,.574,6.019,23.138,23.138,0,0,1,.375,2.368c.256.854-.181,1.731.089,2.585" transform="translate(2.131 29.272)" fill="#070707"/>
        <path id="Path_20911" data-name="Path 20911" d="M140.818,449.1c.2,1.414,1.478,1.033,2.279,1.227a30.692,30.692,0,0,0,11.18.321c3.31-.422,6.629-.75,9.9-1.463,1.218-.265,2.485-.377,3.731-.541a2.683,2.683,0,0,0,2.406-1.616c.961,1.648.968,1.676-.992,2.156a20.753,20.753,0,0,1-3.35.612c-.879.067-.906.441-.609,1.034,1.3,2.606,2.306,5.334,3.4,8.027.95,2.335,1.987,4.635,3.022,6.934a122.344,122.344,0,0,0,8.472,16.46,112.856,112.856,0,0,0,7.145,10.126,31.983,31.983,0,0,0,3.284,3.342,14.069,14.069,0,0,1,2.332,2.8,2.532,2.532,0,0,1-1.121,3.8c-2.79,1.338-5.651.979-8.393.035A42.7,42.7,0,0,1,164.641,489.9a83,83,0,0,1-9.212-13.537,1.926,1.926,0,0,0-1.412-1.031c-2.562-.607-4.362-1.995-4.836-4.805-1-5.926-2.439-11.775-3.171-17.749a2.272,2.272,0,0,0-2.531-1.389c-.44.193-.151.52-.143.76a38.154,38.154,0,0,1-.413,7.809,6.284,6.284,0,0,1-6.269,5.628,23,23,0,0,1-5.3-.145,1.844,1.844,0,0,1-1.756-1.937c-.06-1.294-.567-1.478-1.758-.9-4.807,2.343-9.47,5-14.616,6.593a108.778,108.778,0,0,1-14.153,3.272q-6.423,1.081-12.894,1.754c-3.836.4-7.733.754-11.536-.438-.791-.247-1.542-.577-1.651-1.533-.1-.911.452-1.44,1.14-1.954a22.891,22.891,0,0,1,6.919-3.28,70.486,70.486,0,0,0,10.673-4.9c3.715-1.9,7.451-3.765,11.124-5.745a80.4,80.4,0,0,0,9.638-6.277c1.49-1.1,3.037-2.129,4.6-3.127.872-.556,1.086-1.117.333-1.905.379-.128.676-1.524,1.193-.017.138.4.91.641,1.5.775a88.437,88.437,0,0,0,12.529,2.015q3.2.255,6.406.5c.244-.208.562-.136.841-.211.835-.222,1.244.046.935.968" transform="translate(13.374 81.442)" fill="#383434"/>
        <path id="Path_20912" data-name="Path 20912" d="M102.989,25.455c-1.525-3.435-1.855-6.872.045-10.283a8,8,0,0,1,4.74-3.956A4.639,4.639,0,0,0,110.5,8.825a18.763,18.763,0,0,1,4.9-5.742c5.466-3.931,11.162-4.036,16.9-.7,5.081,2.956,9.515,6.8,14.307,10.149a76.786,76.786,0,0,0,8.884,5.548,38.794,38.794,0,0,0,6.525,2.671c2.374.716,3.594,3.426,2.9,6.392-2.316,9.844-2.123,19.828-1.816,29.826.033,1.086-.123,2.178-.192,3.268-.179.53-.677.6-1.105.741a17.565,17.565,0,0,0-9.305,7.043,25.688,25.688,0,0,0-3.8,7.514,1.974,1.974,0,0,1-.6,1.095c-.29.227-.45.014-.571-.235a3.747,3.747,0,0,1,.011-1.76,44.35,44.35,0,0,0,.459-9.1c-.052-1.946-.116-3.893-.072-5.839a86.716,86.716,0,0,0-1.057-13.267c-.4-3.065.48-5.731,1.718-8.425,1.326-2.888,3.053-5.561,4.353-8.46.618-1.38.59-1.549-.661-2.358a41.593,41.593,0,0,0-13.248-5.619c-4.77-1.109-9.133.089-13.3,2.354-1.968,1.071-3.815,2.361-5.871,3.275a8.578,8.578,0,0,1-11.387-3.874c-.4-.738-.68-.73-1.183-.191-.634.682-1.273,1.358-1.907,2.04a2.429,2.429,0,0,1-1.2.9c-.521.039-.806-.379-1.186-.614" transform="translate(18.644 0)" fill="#050606"/>
        <path id="Path_20913" data-name="Path 20913" d="M167.029,240.188c.408,2.784.89,5.56,1.207,8.355.5,4.417,1.241,8.788,2.175,13.132,1.414,6.567,2.7,13.166,4.241,19.7,1.261,5.329,2.17,10.724,3.33,16.071,1.208,5.58,2.2,11.21,3.336,16.806,1.014,4.992,1.779,10.026,2.781,15.019.71,3.536,1.188,7.127,1.867,10.677.581,3.042,1.122,6.092,1.7,9.134.822,4.29,1.574,8.6,2.532,12.859.8,3.562,1.542,7.135,2.348,10.693,1.342,5.921,2.959,11.778,4.337,17.691,1.632,7,3.081,14.044,4.7,21.047,1.179,5.085,2.345,10.173,3.581,15.245,1.555,6.381,3.413,12.678,5.131,19.011.514,1.893.962,3.784,1.314,5.7.129.7.284,1.135,1.107.806.5-.2.548.2.633.532-.406.422-1.25.279-1.363,1.11-.043.311-.443.329-.617.158a1.225,1.225,0,0,0-1.621-.089c-2.312,1.446-4.92,1.214-7.462,1.51-7.5.871-15.041.937-22.571,1.216-5.17.192-10.344.283-15.514.474-4.125.154-8.245.394-12.368.587-.5.023-1.008,0-1.512-.007-.121-.249-.321-.484-.116-.78.925-.691,2.049-.507,3.052-.508,8.036-.013,15.9-1.43,23.766-2.818,4.578-.808,9.176-1.573,13.669-2.806,3.222-.884,6.45-1.746,9.655-2.688.879-.258,1.146-.66.95-1.552-.927-4.209-1.522-8.48-2.435-12.7-.738-3.411-1.183-6.91-1.7-10.382-.935-6.319-2.247-12.574-3.468-18.844-.815-4.189-1.789-8.346-2.5-12.559a54.342,54.342,0,0,0-1.47-6.682,14.857,14.857,0,0,1-.55-3.238,81.472,81.472,0,0,0-1.587-8.856c-.608-3.366-.938-6.781-1.758-10.109-.93-3.775-1.247-7.672-2.355-11.418-.672-2.273-.682-4.7-1.216-6.992-1.8-7.712-2.757-15.584-4.573-23.286-1.212-5.139-2.11-10.349-3.578-15.429-1.62-5.608-3.17-11.241-4.384-16.947-.65-3.058-1.39-6.109-2.178-9.111-1.071-4.074-1.67-8.29-3.319-12.22a34.547,34.547,0,0,1-1.59-6.265,38.081,38.081,0,0,1-1.066-4.5c-.988,1.067-1.732,1.918-2.454,2.781q-3.016,3.6-6.294,6.963a20.813,20.813,0,0,0-2.8,3.757,3.384,3.384,0,0,1-3.277,1.755,7,7,0,0,0-5,1.823c-1.128.955-2.369,1.765-3.447,2.775-.909-.5-.279-1.089,0-1.526a13.246,13.246,0,0,1,5.489-5.117,14.368,14.368,0,0,0,5.143-4.382c2.989-3.77,6.08-7.458,8.778-11.453,1.958-2.9,3.758-5.908,5.776-8.771,1.025-1.455,1.738-3.088,2.69-4.584.207-.325.269-.848.851-.776" transform="translate(25.262 44.02)" fill="#950e19"/>
        <path id="Path_20914" data-name="Path 20914" d="M16.381,146.062a37.856,37.856,0,0,1-.361-5.019c-.092-5.31-.788-4.4-4.5-4.4-2.564,0-5.1-.427-7.674-.355a14.422,14.422,0,0,1-3.194-.706c-.491-.105-.528-.467-.624-.838a.686.686,0,0,1,.491-.886,7.8,7.8,0,0,1,3.292-.815c2.531.114,5.08-.136,7.588.089,6.471.577,12.927-.182,19.394.009,6.987.206,13.983.337,20.971.227,5.441-.086,10.884.383,16.3.09,4.078-.221,8.105.342,12.156.136.829-.041,1.208.24,1.087,1.075a12.038,12.038,0,0,1-.509,2.977c-.5,1.168-1.78.47-2.686.684a11.917,11.917,0,0,1-4.043.032c-2.206-.246-2.777.258-2.923,2.436-.179,2.677-.4,5.351-.606,8.026-1.128.74-2.406.477-3.566.32-2.82-.385-5.653-.163-8.475-.4-4.5-.373-9.021-.462-13.531-.73-2.694-.161-5.4-.154-8.1-.324-6.194-.389-12.4-.423-18.6-.779a2.286,2.286,0,0,1-1.891-.854" transform="translate(0 24.383)" fill="#060707"/>
        <path id="Path_20915" data-name="Path 20915" d="M170.077,260.165c-2.036,3.591-4.332,7.019-6.565,10.49a119.7,119.7,0,0,1-9.447,12.951c-1.254,1.472-2.309,3.1-3.693,4.479a15.047,15.047,0,0,1-3.547,2.364,12.4,12.4,0,0,0-5.787,6.275,17.739,17.739,0,0,1-1.852,3.911c-.612.779-1.262.6-1.929.081-1.806-2.1-3.408-4.362-5.164-6.5a47.766,47.766,0,0,0-3.707-4.175c-.5-.165-.686,1.531-1.436.309a7.011,7.011,0,0,0,.505-3.029c-.168-1.383.749-2.465,1.564-3.442a63.525,63.525,0,0,0,4.767-6.885c.346-.547-.062-.527-.372-.621-.491-.279-.456-.772-.487-1.229-.424-6.256.136-12.5.367-18.741.137-3.7.557-7.418.766-11.118a193.378,193.378,0,0,1,2.368-22.172,92.447,92.447,0,0,1,3.277-13.154c1.058-3.215,2.04-6.454,3.155-9.65.516-1.478,1.261-2.86,1.777-4.339a1.323,1.323,0,0,1,1.309-1.021c.729.023.987.6,1.17,1.17a3.815,3.815,0,0,1,.014,2.954c-.955,2.051-.387,4.171-.03,6.235a108.265,108.265,0,0,1,1.5,12.961c.193,3.753.721,7.483.8,11.252.057,2.552.2,5.086-1.066,7.429-1.04,1.922-.659,3.963-.5,5.971a36.979,36.979,0,0,0,.7,4.937c1.209-1.74,2.251-3.424,3.267-5.1,2.159-3.553,4.8-6.75,7.158-10.155.385-.556.766-1.116,1.151-1.671.285-.412.646-.73,1.162-.38.48.325.256.738.047,1.118a39.43,39.43,0,0,1-2.893,4.166,121.144,121.144,0,0,0-8.451,12.649c-.637,1.151-1.035,2.4-1.705,3.821,1.229-.857,2.28-1.55,3.255-2.357a10.906,10.906,0,0,1,2.215-1.472c.359-.173.753-.232,1.022.164.246.36-.011.638-.219.9a2.3,2.3,0,0,1-.568.5c-1.776,1.154-3.4,2.506-5.1,3.763a4.835,4.835,0,0,0-1.666,2.148c-1.609,3.862-2.862,7.879-4.88,11.565-1.935,3.535-4.041,6.941-7.218,9.556-1.18.972-.943,1.927.445,2.55,4.279,1.92,7.885,4.605,9.969,8.961.385.8.824.74,1.512.4a14.015,14.015,0,0,0,4.557-4.153,119.637,119.637,0,0,0,8.267-10.925c2.874-4.537,6.278-8.775,8.536-13.653,1.653-3.569,3.835-6.958,4.372-11.026a29.854,29.854,0,0,0,.2-6.319c-.373-4.633-.794-9.262-1.182-13.892-.173-2.066-.663-4.078-.822-6.148-.176-2.272-.36-4.547-.571-6.819-.521-5.6-.96-11.2-1.362-16.8-.388-5.4-1.015-10.771-1.557-16.152a47.385,47.385,0,0,0-1.59-8.853c-.109-.364-.2-.735-.331-1.092-.25-.68-.6-.851-1.221-.342a46.644,46.644,0,0,0-9.667,10.846,69.195,69.195,0,0,0-4.869,8.168c-.2.444-.535.857-1.077.654-.674-.251-.446-.839-.279-1.3a23.144,23.144,0,0,1,1.915-3.574,59.8,59.8,0,0,1,9.949-13.254c.943-.918,1.964-1.736,2.944-2.608.878-.782.975-1.2.166-1.98-2.813-2.709-4.655-6.107-6.755-9.323a3.743,3.743,0,0,0-.813-.962,2.6,2.6,0,0,1-.639-.951c-.473-1.8-1.722-3.188-2.576-4.785-.5-.928-1.112-1.795-1.589-2.755a45.175,45.175,0,0,0-2.335,6.243,27.6,27.6,0,0,1-3.415,5.745,40.153,40.153,0,0,0-2.847,4.017c-.251.491-.6,1.03-1.266.794-.626-.222-.606-.853-.593-1.41a7.376,7.376,0,0,1,.318-1.615,4.016,4.016,0,0,0-.129-2.492c-.677-1.749-1.3-2.113-3.155-1.883a20.065,20.065,0,0,0-7.627,2.936,30.078,30.078,0,0,0-5.97,4.663,6.408,6.408,0,0,1-1.419.394,1.132,1.132,0,0,1-1.4-.909,1.178,1.178,0,0,1,.434-.935c.432-.376.987-.613,1.282-1.143,1.481-2.017,3.364-3.67,5.016-5.534A68.512,68.512,0,0,0,136.2,147.9a59.334,59.334,0,0,0,5.361-12.818c.269-.937.278-1.926.637-2.84a2.184,2.184,0,0,1,1.015-1.055c.027.89.62,1.35,1.214,1.944a13.523,13.523,0,0,1,4.382,8.437,8.384,8.384,0,0,0,.2.983c-.411-.36-.7-.6-.755.269-.063,1.025.27,2.087-.244,3.075-.577-.6-.363-1.364-.343-2.051a12.435,12.435,0,0,0-3.065-8.762c-.272-.317-.495-.831-.92-.8-.535.035-.421.651-.535,1.02a72.124,72.124,0,0,1-12.687,23.922c2.256-1.36,4.482-2.155,6.933-1.557a6.482,6.482,0,0,1,5.049,4.829,14.568,14.568,0,0,0,1.879-3.563,43.526,43.526,0,0,0,3.151-11.462,1.653,1.653,0,0,1,.566-1.356,2.029,2.029,0,0,1,1.771,1.5c.311.951,1.245,1.583,1.8,2.459,1.758,2.764,3.514,5.521,5.134,8.375,1.4,2.469,3.175,4.726,4.678,7.142a30.252,30.252,0,0,0,3.618,4.363c1.9,2.067,2.386,4.636,2.773,7.295.91,6.236,1.466,12.507,2.059,18.778.471,4.986.825,9.98,1.229,14.971.429,5.282.955,10.557,1.534,15.825.409,3.717.627,7.45,1.015,11.162.269,2.572.548,5.152.612,7.723a28.846,28.846,0,0,1-1.119,6.779c-.6,2.751-2.3,5.023-3.07,7.678" transform="translate(22.214 24.044)" fill="#353e4f"/>
        <path id="Path_20916" data-name="Path 20916" d="M96.535,256.037c-.669-.319-1.274-1.021-1.989.08-.267.412-.832.019-.737-.509.085-.476-.08-.559-.456-.682-5.225-1.731-10.125-4.3-15.363-6-.218-.882-1.126-.809-1.7-1.137C70.058,244.2,63.852,240.56,57.4,237.373a7.789,7.789,0,0,0-3.061-1.128c.487-1.167,1.615-1.745,2.448-2.581a11.88,11.88,0,0,0,3.265-6.041c.279-1.3-.4-2.423-.929-3.49-.714-1.434-.8-1.7.271-2.955a4.636,4.636,0,0,1,.325-.389c1.294-.13,2.385.574,3.467,1.044,2.616,1.132,5.128,2.505,7.8,3.84-.335-.9.256-.893.763-.9a57.371,57.371,0,0,1,10.46.485c.711.124,1.1-.076,1.308-.724a8.451,8.451,0,0,0,4.046,1.661c1.33.274,2.536.932,3.843,1.286.864.233,1.467.122,1.7-.908,1.018-4.538,2.2-9.032,3.435-13.517,1.416-5.138,2.223-10.409,3.146-15.65,1-5.7,1.649-11.449,2.123-17.226.318-3.875.44-7.755.717-11.629a5.44,5.44,0,0,1,2.065-3.938c6.209-5.031,12.187-10.331,18.231-15.555.931-.8,1.739-1.726,2.611-2.588a2.587,2.587,0,0,0,.517-2.706l1.773-1c.362-.254.619-.077.852.2.211.5-.1.885-.315,1.274a26.313,26.313,0,0,1-1.813,3.672c-.509.722-1.644.509-2.054,1.38a10.057,10.057,0,0,1-2.663,2.672c-2.583,2.17-5.069,4.447-7.567,6.713a5.179,5.179,0,0,1-.911.708c-2.23,1.545-4.065,3.57-6.249,5.171a1.459,1.459,0,0,0-.406,2.123,27.323,27.323,0,0,1,3,9.505,35.852,35.852,0,0,1,.134,8.607c-.2,2.949-.387,5.9-.665,8.846-.573,6.055-1.134,12.111-1.634,18.173-.587,7.122-.975,14.257-1.487,21.383-.372,5.185-.463,10.384-.967,15.566a72.609,72.609,0,0,1-2.439,12.022,17.2,17.2,0,0,0-.231,9.879c.363,1.161.919,2.367.5,3.665l-.692.215c-.926-.561-.826-1.587-1.095-2.439-1.386-4.407-.912-8.769.338-13.111.082-.284.133-.577.212-.863.241-.867-.043-1.241-.98-1.261a9.569,9.569,0,0,1-4.056-.831" transform="translate(9.959 26.143)" fill="#343e4f"/>
        <path id="Path_20917" data-name="Path 20917" d="M66.524,59.6a12.351,12.351,0,0,1-1.638,3.76A101.4,101.4,0,0,1,57.718,72.5c-3.963,4.922-7.382,10.168-9.147,16.308a28.008,28.008,0,0,0-.03,15.6c1.048,3.732,3.008,7.015,4.735,10.434,1.917,3.791,4.257,7.348,5.9,11.3,1.962,4.725.338,10.453-3.223,13.952a19.032,19.032,0,0,1-6.83,4.406c-.2.073-.4.227-.587.217-.6-.031-1.513.161-1.609-.56-.1-.781.768-.309,1.188-.437a4.318,4.318,0,0,0,2.626-2.228,11.808,11.808,0,0,0,.175-10.618,51.265,51.265,0,0,0-6.267-10.038A33.483,33.483,0,0,1,37.767,97.2a50.828,50.828,0,0,1,7.585-22.762,46.909,46.909,0,0,1,8-9.728,35.032,35.032,0,0,1,8.337-6.262,8.348,8.348,0,0,1,3.027-.824c1.091-.09,1.835.683,1.81,1.967" transform="translate(6.898 10.561)" fill="#faa530"/>
        <path id="Path_20918" data-name="Path 20918" d="M60.788,162.716c-5.125-.02-10.264-.3-15.367.018-4.236.26-8.479.294-12.712.608-3.968.295-7.954.336-11.932.492-1.767.069-3.533.151-5.3.218-.967.036-1.181,1.013-1.836,1.432q.091-9.272.179-18.534c0-.378.025-.754.037-1.131,1.345-.454,2.575.224,3.814.488,3.926.835,7.879,1.492,11.834,2.163,8.122,1.377,16.353,1.861,24.5,3.036,1.8.259,3.576.638,5.389.8,1.569.144,2.226.818,2.234,2.365.011,2.239.067,4.479.014,6.717-.013.6-.038,1.222-.85,1.323" transform="translate(2.5 26.698)" fill="#df313b"/>
        <path id="Path_20919" data-name="Path 20919" d="M121.428,143.594a2.079,2.079,0,0,1-.336,3.137c-2.215,2.046-4.439,4.085-6.725,6.051q-6.534,5.619-13.155,11.139a7.176,7.176,0,0,0-2.727,3.523,19.8,19.8,0,0,0-.331,4.392c-.246,6.011-.8,11.984-1.561,17.951-.515,4.035-1.3,8.017-1.934,12.026a174.066,174.066,0,0,1-4.319,18.524c-.561,2.063-.967,4.168-1.422,6.258-.218,1-.687,1.5-1.783,1.133-2.232-.748-4.457-1.513-6.755-2.048A1.781,1.781,0,0,1,79,224.363c.684-2.414,1.286-4.856,2.067-7.238,2.368-7.211,4.974-14.34,6.9-21.7,1.089-4.15,2.281-8.279,3.66-12.359a63.528,63.528,0,0,0,2.582-9.6c.38-2.225,1.866-3.932,2.663-5.96.583-1.486,1.415-2.878,1.969-4.373.573-1.549,1.913-2.44,2.865-3.654,1.471-1.878,2.94-3.757,4.6-5.5A45.085,45.085,0,0,1,121,143.84a3.194,3.194,0,0,0,.424-.246" transform="translate(14.478 26.318)" fill="#070707"/>
        <path id="Path_20920" data-name="Path 20920" d="M33.455,95.989a21.066,21.066,0,0,0,1.436,8.869,37.724,37.724,0,0,0,8.81,12.933,20.342,20.342,0,0,1,5.535,7.3,8.606,8.606,0,0,1,.48,5.06c-.221,1-.792,1.228-1.334.446-2.216-3.2-5.677-4.52-9-5.97A21.1,21.1,0,0,1,27,110.827c-1.031-3.373-1.828-6.747-1.4-10.283.451-3.724,1.453-7.256,4.1-10.1a2.29,2.29,0,0,1,2.2-.974c.882.228.992,1.125,1.175,1.928a22.734,22.734,0,0,1,.381,4.6" transform="translate(4.67 16.388)" fill="#faa530"/>
        <path id="Path_20921" data-name="Path 20921" d="M60.8,163.013a1.028,1.028,0,0,0,.531-.912c-.043-2.488-.047-4.977-.043-7.465,0-1.136-.68-1.541-1.663-1.664-5.592-.7-11.194-1.334-16.775-2.119-3.25-.458-6.561-.428-9.764-1.044-3.631-.7-7.306-1.128-10.919-1.934-2.758-.615-5.555-1.065-8.3-1.761.065-.689-.705-1.389.026-2.071,3.127.967,6.37.614,9.561.8,5.29.308,10.587.514,15.883.725,6.261.251,12.517.637,18.775.9,3.306.141,6.622.519,9.944.336.437.957-.153,1.848-.233,2.764-.311,3.568-.508,7.139-.672,10.713-.038.835.38,1.651.143,2.5-2.149.547-4.326.257-6.5.225" transform="translate(2.488 26.4)" fill="#950e19"/>
        <path id="Path_20922" data-name="Path 20922" d="M148.4,85.334c3.33-.026,6.641.457,9.986.23,3.9-.264,7.607-1.05,10.84-3.344,2.3-1.627,4.154-3.613,4.117-6.682a3.622,3.622,0,0,0-1.808-3.514,2.275,2.275,0,0,0-2.29,3.93c.277.185.873.2.582.735-.308.564-.733.276-1.179.05-1.351-.685-2.195-3.623-1.319-4.741a4.3,4.3,0,0,1,5.4-.715c2.64,1.848,2.932,5.1,1.518,8.082-2.165,4.57-5.863,7.244-10.839,8.415a37.543,37.543,0,0,1-14.557.263c-.783-.122-1.57-.226-2.356-.338a1.513,1.513,0,0,1-1.087.2,83.429,83.429,0,0,0-23.766.183,45.726,45.726,0,0,0-6.407,1.563c-1.758.561-2.136.321-2.228-1.47-.094-1.819.019-2.094,1.808-2.619a40.519,40.519,0,0,1,6.729-1.257,98.49,98.49,0,0,1,10.252-.585,120.622,120.622,0,0,1,13.28.866,25.317,25.317,0,0,1,3.321.744" transform="translate(20.709 12.946)" fill="#090909"/>
        <path id="Path_20923" data-name="Path 20923" d="M67.029,211.64a.628.628,0,0,1-.174.794c-.742.689-.956,1.146-.194,2.226a4.978,4.978,0,0,1,1.031,3.908,11.819,11.819,0,0,1-3.52,6.279c-.837.752-1.612,1.575-2.522,2.247-2.514,1.085-4.7.2-6.748-1.2-2.565-1.762-4.977-3.734-7.574-5.463a29.95,29.95,0,0,0-15-5.432,17.325,17.325,0,0,1-2.6-.458,4.139,4.139,0,0,1-3.32-4.291c.034-.344.2-.732-.317-.967-2.326-1.062-3.043-2.993-2.784-5.487-.966.019-1.781.476-2.7.5-3.946.115-6.384-2.375-6.032-6.293.009-.111-.085-.233-.13-.349,3.831-1.136,7.335-3.045,10.944-4.694,1.724-.789,2.83-.334,3.985,1.016a5.2,5.2,0,0,1,1.363,2.654c.03.219-.018.425.282.451.237.02.561-.054.47.367-.082.375-.34.385-.679.365-.747-.045-.738.335-.4.842-.053.86-.793,1.238-1.313,1.9,2.5-.573,4.87-1.454,7.444-1.245a5.171,5.171,0,0,1,4.386,3.487,1.966,1.966,0,0,1,.017,1.37c-.505,1.045.032,1.311.94,1.458a5.209,5.209,0,0,1,2.484,1.206c.346.285.618.661.338,1.1-.295.463-.738.277-1.132.094a7.942,7.942,0,0,0-1.472-.676,7.287,7.287,0,0,1,.777,2.144,3.085,3.085,0,0,1-1.754,3.564,13.148,13.148,0,0,1-4.1,1.424,28.588,28.588,0,0,1,3.613,1,53.991,53.991,0,0,1,12.427,7.523,37.538,37.538,0,0,0,3.536,2.462c2.372,1.4,4.312.9,6.383-.84a11.746,11.746,0,0,0,3.223-5.232,5.561,5.561,0,0,0-.111-3.126c-.084-.408-.406-.6-.744-.808-.989-.6-1.228-1.182-.725-2.207a19.06,19.06,0,0,0,1.853-9.975c-.049-.677-.148-1.343-.228-2.014a3.232,3.232,0,0,1,.2-2.335c.71-.254.811.485,1.207.742a3.679,3.679,0,0,0-.118,2,22.057,22.057,0,0,1-.562,9.373,1.65,1.65,0,0,0,.062.609" transform="translate(2.647 35.294)" fill="#722b2a"/>
        <path id="Path_20924" data-name="Path 20924" d="M84.252,328.516c1.044-1.014.709-2.408.918-3.622.563-3.269.969-6.565,1.429-9.851.146-1.039.269-2.08.4-3.121.046-.381.054-.882.559-.823.582.069.471.625.413,1.023-.547,3.788-1.122,7.572-1.667,11.36-.629,4.366-1.168,8.747-1.873,13.1-.666,4.108-1.229,8.232-2,12.326-.628,3.338-1.009,6.723-1.509,10.087-.622,4.2-1.3,8.393-1.868,12.6-.464,3.406-1,6.8-1.407,10.215-.318,2.65-.766,5.3-1.173,7.949-.46,2.989-.781,6-1.16,9-.095.751-.179,1.5-.272,2.254-.085.684-.551,1.361.219,2.021.246.211.045.849-.183,1.2-1.273,1.923-1.1,4.194-1.493,6.309-.8,4.256-1.336,8.559-1.831,12.862a2.676,2.676,0,0,1-.214.981c-1.078,1.938.106,3.287,1.255,4.545a16.513,16.513,0,0,0,6.366,3.991c5.528,2.18,11.318,3.487,17.038,5.015,4.752,1.268,9.537,2.419,14.3,3.647,1.342.347,2.659.79,3.989,1.181.291.085.647.16.625.51s-.6-.1-.665.341c-1.923-.431-3.828-.995-5.774-1.263a86.479,86.479,0,0,1-9.217-2.307c-4.313-1.085-8.547-2.479-12.826-3.7a66.572,66.572,0,0,1-9.886-3.411,11.746,11.746,0,0,1-6.635-7c.263-2.192,1.236-4.24,1.27-6.488a30.594,30.594,0,0,1,.311-4.028c.548-3.691,1.207-7.365,1.75-11.057.661-4.492,1.238-9,1.875-13.493s1.291-9,1.965-13.49c.854-5.7,1.743-11.392,2.607-17.089.68-4.489,1.421-8.972,2-13.475.653-5.092,1.422-10.17,1.847-15.29a1.455,1.455,0,0,1,.2-.439.842.842,0,0,1,.116.792c-.238-.957.551-1.978.183-3.1,0-.085.011-.169.015-.255" transform="translate(12.849 57.017)" fill="#9f101b"/>
        <path id="Path_20925" data-name="Path 20925" d="M107.134,87.416c-5.1.82-10,2.664-15.166,3.156-4.77.453-9.148-.4-12.591-4.052-1.439-1.525-1.67-5.01-.614-6.791,1.995-3.366,7.073-2.232,8.447.212a2.865,2.865,0,0,1-1.652,4.081c-.316.063-.74.187-.891-.222-.142-.387.155-.6.516-.7a1.628,1.628,0,0,0,1.3-2.112A2.507,2.507,0,0,0,84.3,79.03a3.062,3.062,0,0,0-3.254,1.339,3.392,3.392,0,0,0,.212,3.892,8.193,8.193,0,0,0,5.869,3.31,25.99,25.99,0,0,0,10-.526c2.666-.612,5.347-1.157,8.022-1.733,1.182.027,2.178-.731,3.34-.793a17.032,17.032,0,0,1,8.981.8,1.817,1.817,0,0,1,.93,2.553c-.367,1.032-1.124.967-1.972.74a28.941,28.941,0,0,0-8.286-.93,1.785,1.785,0,0,1-1.007-.262" transform="translate(14.315 14.228)" fill="#090a09"/>
        <path id="Path_20926" data-name="Path 20926" d="M104.2,91.054c-1.1.052-2.105.7-3.241.467.362-.1.719-.212,1.085-.286.528-.108.724-.317.705-.941-.159-5.467-.221-10.936-.393-16.4-.1-3.1-.041-6.212-.4-9.305a1.488,1.488,0,0,0-.51-1.182c.451-.4.833-.937,1.562-.785a7.76,7.76,0,0,1,.815,2.636,5.731,5.731,0,0,0,3.784,4.072,3.45,3.45,0,0,0,4.676-3.427,2.915,2.915,0,0,1-.053-.751,4.07,4.07,0,0,0,.267-3.043c.036-.48.321-.915.252-1.414a15.462,15.462,0,0,0-.172-2.338A22.551,22.551,0,0,0,111.291,50a9.382,9.382,0,0,0-3.036-4.435,3.114,3.114,0,0,1-.558-.515c-.244-.308-.47-.637-.2-1.028s.669-.284,1.032-.14a4.853,4.853,0,0,1,1.68,1.321,13.636,13.636,0,0,1,3.387,7.129,41.881,41.881,0,0,1-1.3,20.653,18.266,18.266,0,0,1-4.856,7.782c-2.057,1.925-2.246,4.223-1.678,6.757a1.674,1.674,0,0,0,1.814,1.419,6.756,6.756,0,0,0,2.92-.744c.482-.211,1.183-.671,1.5-.136.4.677-.349,1.109-.863,1.461a6.173,6.173,0,0,1-4.477.981,2.828,2.828,0,0,1-2.325-2.1c-.951-2.774-.544-6.474,1.85-8.691a18.082,18.082,0,0,0,4.571-7.08,4.025,4.025,0,0,0,.373-1.951,6.657,6.657,0,0,1-7.6-2.247c.038,2.161-.051,4.212.122,6.277.238,2.823.078,5.663.122,8.495.041,2.62.169,5.235.427,7.843" transform="translate(18.504 8.019)" fill="#732b2b"/>
        <path id="Path_20927" data-name="Path 20927" d="M102.638,85.9l1.041-.015c.8.964.63,2.188.721,3.28.406,4.846,1.1,9.659,1.575,14.5a37.315,37.315,0,0,0,1.928,8.779,11.99,11.99,0,0,0,3.926,5.5,46.545,46.545,0,0,0,3.937,2.783,15.789,15.789,0,0,0,10.248,2.661,12.633,12.633,0,0,0,7.209-3.452,5.043,5.043,0,0,1,1.068-.887.849.849,0,0,1,1.063.07c.332.36.069.722-.175,1.016a13.94,13.94,0,0,1-3.834,3.086c-.146.085.037-.021-.114.056-2.111,1.077-2.066,1.076-1.943,3.453.16,3.084.054,6.174.129,9.261a37.416,37.416,0,0,1,.063,5.315,1.811,1.811,0,0,1-.359,1.186c-.781.1-1.118-.273-1.108-1.025a113,113,0,0,0-.008-11.726,28.666,28.666,0,0,0-.267-4.666c-.107-.492-.2-.607-.711-.528-5.784.9-10.463-1.569-14.993-4.765-4.585-3.235-6.056-7.956-6.858-13.1-.94-6.031-1.447-12.112-2.126-18.173-.1-.872-.272-1.736-.411-2.6" transform="translate(18.811 15.741)" fill="#732c2c"/>
        <path id="Path_20928" data-name="Path 20928" d="M143.415,88.949a14.985,14.985,0,0,1-3.208-.46,5.942,5.942,0,0,0,1.957-1.73,5.3,5.3,0,0,1,3.875-1.9,15.037,15.037,0,0,0,9.076-4.34,14.625,14.625,0,0,0,3.313-5.635,40.07,40.07,0,0,0,2.062-14.341c-.038-2.413-.4-4.8-2.352-6.61a4.1,4.1,0,0,0-4.1-1,11.072,11.072,0,0,0-5.74,3.983,32.587,32.587,0,0,0-5.776,9.916,2.808,2.808,0,0,1-.741,1.31.863.863,0,0,1-1.257-.03c-.311-.316-.521-.712.111-.963.966-.9,1.052-2.208,1.556-3.322a7.712,7.712,0,0,1,.35-1.066c1.925-2.938,3.488-6.141,6.385-8.355a22.423,22.423,0,0,1,6.919-3.492c-.038.6.4.618.818.725a5.756,5.756,0,0,1,3.795,3.278,16.4,16.4,0,0,1,1.31,8.142,38.1,38.1,0,0,1-2.348,12.742C157.1,81.6,152.98,85.229,146.59,85.982a5.077,5.077,0,0,0-3.648,1.738c-.674.845-.4,1.093.473,1.229" transform="translate(25.697 9.33)" fill="#712a2a"/>
        <path id="Path_20929" data-name="Path 20929" d="M126.413,132.859a2.388,2.388,0,0,0,1.019,1.02,2.715,2.715,0,0,1,.312,2.188,130.308,130.308,0,0,1-2.848,18.5c-.375,1.558-.673,3.136-1.112,4.681a1.887,1.887,0,0,0-.058,1c.441,1.673.559,3.419,1.132,5.061-.2.657-.823.786-1.333,1.053-.522-.316-.428-.879-.544-1.357-.474-1.958-.491-4.055-1.769-5.77-.2-.271-.375-.562-.589-.826-1.025-1.266-1.5-1.345-2.868-.386a14.21,14.21,0,0,0-2.878,2.279c-.711.844-1.885.775-2.613,1.6-.316.357-.75-.127-.84-.6a4.636,4.636,0,0,1,.143-1.884,64.732,64.732,0,0,1,1.912-7.236,2.348,2.348,0,0,0,.264-1.22c.212-1.1,1.461-.654,1.963-1.324.447.52.008.953-.157,1.394a47.6,47.6,0,0,0-2.4,8.766,21.311,21.311,0,0,1,4.272-3.338c1.678-1.1,2.781-.9,4.117.591.236.263.4.769.851.6.331-.122.286-.578.374-.9a127.625,127.625,0,0,0,2.71-14.054,48.881,48.881,0,0,0,.665-7.8,29.944,29.944,0,0,0-5.23,6.18,20.992,20.992,0,0,0-2,3.08c-.144.324-.361.691-.837.661l-.8-.264a41.291,41.291,0,0,1,9.147-11.7" transform="translate(20.413 24.35)" fill="#494c5a"/>
        <path id="Path_20930" data-name="Path 20930" d="M140.874,85.009l1.04.059a52.958,52.958,0,0,0-1.338,9.362c-.359,5.514-.586,11.036-.912,16.553-.308,5.211-.467,10.433-.254,15.668.176,4.338.464,8.665.725,13a1.59,1.59,0,0,1-.8.993,3.568,3.568,0,0,1-.6-2.28c-.13-2.617-.408-5.228-.509-7.842-.175-4.518-.283-9.035-.109-13.565q.248-6.466.6-12.925c.318-5.777.4-11.579,1.5-17.29.118-.612.109-1.28.663-1.729" transform="translate(25.296 15.58)" fill="#742c2c"/>
        <path id="Path_20931" data-name="Path 20931" d="M112.6,60.081a2.715,2.715,0,0,1-.253,3.17c-.471-.344-.544-1.009-1.061-1.317-.3-.233-.288-.589-.37-.91a.9.9,0,0,0-1.234-.722.816.816,0,0,0-.644,1.057.915.915,0,0,0,1.18.661c.357-.058.7-.33,1.083-.071.347.738.693,1.642.124,2.239a2.287,2.287,0,0,1-2.621.219,4.914,4.914,0,0,1-2.945-3.99,1.041,1.041,0,0,1,.976-1.343c.439-.077.941-.056,1.246-.6-.43-.486-1.2-.137-1.587-.58-.521-.6.121-1.034.33-1.544a6.751,6.751,0,0,0-2.988,3.01,3.288,3.288,0,0,1-.971,1.3c-.467.295-.788.869-1.463.77-.637-.775.448-1.144.42-1.777-.088-.705.592-.914.884-1.374.316-.4.614-.806.9-1.222a5.5,5.5,0,0,1,7.113-2.036,4.347,4.347,0,0,1,2.078,1.377,6.092,6.092,0,0,1,.214,2.491c-.4.3-1.076.51-.414,1.184" transform="translate(18.548 9.983)" fill="#0a0a0a"/>
        <path id="Path_20932" data-name="Path 20932" d="M24.372,79.877a34.651,34.651,0,0,0,3.52,2.885c.3.233,1.044.4.627.968-.4.553-.813,0-1.162-.262-1.38-1.04-2.751-2.091-4.128-3.132a.933.933,0,0,0-.889-.279c.114,1.022.207,2.06.354,3.091.056.387.222.841-.3.9-.5.059-.515-.483-.577-.826-.147-.812-.237-1.633-.4-2.784-.913,1.252-1.627,2.216-2.325,3.192-.27.375-.495.783-.762,1.161-.2.282-.469.6-.826.35s-.129-.6.071-.885c.7-1,1.4-1.988,2.093-2.991.278-.4.521-.834.844-1.356-1.968,0-3.771,0-5.574,0-.4,0-1,.137-1.033-.43-.034-.674.589-.4.957-.4,1.956-.013,3.911-.006,5.867-.006l.085-.443Q19,77.22,17.177,75.81a4.1,4.1,0,0,1-.577-.478c-.23-.258-.433-.557-.078-.877.316-.284.529-.027.756.159.879.719,1.763,1.434,2.64,2.156.257.212.483.482.912.381a26.118,26.118,0,0,0-.366-4.38c-.054-.465-.336-1.085.244-1.179.758-.123.551.652.615,1.1.226,1.6.431,3.209.7,5.211,1.014-1.476,1.79-2.646,2.614-3.783.341-.47.67-1.444,1.318-.99s-.262.982-.542,1.423c-.767,1.209-1.59,2.383-2.422,3.55-.451.631-.2.808.439.82,1.093.02,2.188.024,3.28.082.295.015.757,0,.724.506-.036.529-.467.361-.777.364-.67.008-1.338,0-2.28,0" transform="translate(2.548 13.119)" fill="#fbad44"/>
        <path id="Path_20933" data-name="Path 20933" d="M59.686,97.851A12.121,12.121,0,0,0,61.9,95.536c.262-.384.493-.947,1.039-.5.465.383.007.71-.254,1.046a10.908,10.908,0,0,0-1.724,2.239c1.473-.077,2.848-.153,4.224-.219.373-.018.883-.1.934.392.057.533-.527.48-.85.528-1.241.182-2.53-.086-3.891.354,1.17,1.555,3.17,2.109,4.007,3.861-2.195-.635-3.594-2.512-5.718-3.568.114,1.588.217,3.069.329,4.55.032.421.092.84.134,1.26.033.346.058.8-.335.85s-.525-.431-.561-.732c-.159-1.342-.259-2.691-.375-4.037-.028-.334-.035-.67-.058-1.142-1.136.476-1.542,1.593-2.368,2.249-.308.245-.567.652-.911.343-.367-.329.014-.674.266-.956.729-.812,1.457-1.626,2.38-2.658-1.923.092-3.614.158-5.3.264-.406.026-.942.323-1.051-.269-.141-.762.622-.585.984-.619,1.3-.124,2.614-.142,3.923-.2a2.163,2.163,0,0,0,1.272-.217,9.979,9.979,0,0,0-2.248-1.635c-.351-.226-.9-.467-.6-.93.29-.444.757-.028,1.115.156.793.412,1.418,1.137,2.358,1.277-.043-1.122-.021-2.252-.163-3.361-.052-.4-.348-.776-.015-1.155a.5.5,0,0,1,.463-.072c.45.214.465.664.5,1.086.095,1.3.182,2.6.289,4.131" transform="translate(9.493 16.973)" fill="#fbad43"/>
        <path id="Path_20934" data-name="Path 20934" d="M103.681,21.52c.561-.212.777.277,1.105.541.215.418-.05.727-.246,1.041a34.764,34.764,0,0,0-5.146,21.592,3.541,3.541,0,0,1,0,1.006,3.741,3.741,0,0,1-1.031,1.655,40.435,40.435,0,0,1-.406-6.859,41.154,41.154,0,0,1,2.455-12.158,24.548,24.548,0,0,1,2.945-5.809c.213-.318.505-.579.319-1.009" transform="translate(17.952 3.935)" fill="#742f2e"/>
        <path id="Path_20935" data-name="Path 20935" d="M98.3,43.778a2.513,2.513,0,0,1,.792-1.5A6,6,0,0,1,102.7,41a1.383,1.383,0,0,1,1.576.99,1.458,1.458,0,0,1-.7,1.623,18.953,18.953,0,0,1-2.58,1.568,2.618,2.618,0,0,0-1.108.8c-.674.884-1.012.44-1.266-.324-.454-.568-.244-1.247-.314-1.879" transform="translate(18.017 7.513)" fill="#100e0d"/>
        <path id="Path_20936" data-name="Path 20936" d="M98.575,44.935c.434-.082.263,1.19.994.445.62.037.546.568.621.938.776,3.81,1.884,7.536,2.851,11.3.233.91.1,1.849.308,2.756-.263.43-.854.529-1.038,1.038a58.9,58.9,0,0,0-1.458-7.106c-.95-2.959-1.423-6.035-2.313-9a1.013,1.013,0,0,1,.036-.366" transform="translate(18.058 8.235)" fill="#75312f"/>
        <path id="Path_20937" data-name="Path 20937" d="M61.389,192.85c-.495-.78-.114-1.707-.425-2.518a18.745,18.745,0,0,1,1.271-3.281c.743-1.924.535-2.783-.984-4.147-.4-.357-.961-.569-1.092-1.177-.083-.309-.164-.619-.247-.929,2.768.981,4.38,3.039,3.979,5.111a22.33,22.33,0,0,1-1.48,3.892c-.394,1-1.227,1.852-1.021,3.05" transform="translate(10.98 33.136)" fill="#77312f"/>
        <path id="Path_20938" data-name="Path 20938" d="M136.823,278a18.845,18.845,0,0,1,1.957-3.736c2.072-1.82,3.986-3.866,6.752-4.686.323-.1.682-.309.971-.244,2.591.589,3.841-1.009,4.927-2.929,1.206-2.128,3.137-3.64,4.731-5.431,2.072-2.33,4.142-4.659,6.244-7.269.466,1.724.95,3.3,1.312,4.9a47.769,47.769,0,0,0,2.514,8.843,25.278,25.278,0,0,1,1.037,4.271c1.2,4.976,2.39,9.955,3.619,14.923,1.249,5.057,2.466,10.125,3.844,15.148.7,2.55,1.517,5.064,2.051,7.663,1.565,7.617,3.492,15.156,4.576,22.876.454,3.24,1.387,6.41,2.007,9.631.452,2.349.586,4.759,1.238,7.07,1.3,4.617,1.842,9.388,2.894,14.057.718,3.19,1.143,6.45,1.6,9.693.272,1.921.963,3.744,1.141,5.683.374,4.094,1.578,8.032,2.342,12.054,1.16,6.106,2.325,12.212,3.57,18.3.986,4.821,1.9,9.658,2.551,14.529.342,2.544.829,5.068,1.215,7.6.344,2.255.975,4.5,1.377,6.777.409,2.319.872,4.628,1.289,6.945.095.53.017.866-.7,1.054-3.9,1.024-7.761,2.24-11.679,3.206-3.1.764-6.28,1.182-9.392,1.9-3.943.905-7.96,1.343-11.93,2.078a72.646,72.646,0,0,1-7.633.9c-3.411.263-6.833.385-10.252.567a43.156,43.156,0,0,1-.652-6.116c-.56-6.294-1.036-12.6-1.513-18.9-.4-5.214-.678-10.437-1.13-15.644-.489-5.629-1.1-11.247-1.689-16.868-.465-4.48-.971-8.955-1.45-13.434-.96-8.971-1.9-17.943-2.872-26.913-.917-8.463-1.923-16.916-2.783-25.385-.6-5.853-1.189-11.705-1.45-17.588-.142-3.184-.357-6.375-2.272-9.178a22.717,22.717,0,0,1-1.672-3.663c.392-2.377.735-4.76.956-7.159.354-3.83.613-7.668.973-11.5.136-1.455.089-2.969,1.375-4.03" transform="translate(24.471 46.5)" fill="#df313b"/>
        <path id="Path_20939" data-name="Path 20939" d="M158.211,154.945c.7-.226.735.431.944.767a75.962,75.962,0,0,0,5.811,8.433c.48.577,1.032,1.094,1.541,1.648a.859.859,0,0,1-.15,1.467,40.168,40.168,0,0,0-7.1,6.977,84.19,84.19,0,0,0-8.059,12.356,3.406,3.406,0,0,0-.214.725c-.078.259-.122.511.2.622.357.122.522-.077.667-.385a59.626,59.626,0,0,1,12.333-17.4c.814-.793,1.775-1.435,2.59-2.227.718-.7,1.09-.406,1.323.346.362,1.164.71,2.338.98,3.527a115.414,115.414,0,0,1,1.8,14.006c.666,6.568,1.212,13.15,1.763,19.73.394,4.712.544,9.451,1.122,14.139.4,3.247.863,6.487,1.116,9.749.355,4.578,1.111,9.15.735,13.747a16.918,16.918,0,0,1-2.693,8.69c-1.1,1.556-1.413,3.569-2.383,5.279-1.8,3.162-3.926,6.1-5.843,9.179-1.222,1.964-2.49,3.893-3.831,5.777-2.694,3.778-5.628,7.367-8.62,10.907a12.259,12.259,0,0,1-3.427,2.35c-.522.305-.736.15-.943-.347-1.987-4.746-5.829-7.5-10.31-9.549-.484-.221-1.467-.344-1.348-.686.261-.745.106-1.674.883-2.26,3.787-2.859,6.036-6.883,8.055-11.016a58.89,58.89,0,0,0,3.559-8.728,9.114,9.114,0,0,1,3.836-4.779c1.35-.993,2.738-1.936,4.091-2.925.219-.161.7-.305.367-.74-.3-.388-.638-.106-.891.076-1.565,1.131-3.114,2.285-4.67,3.429-.369.272-.741.539-1.264.917a12.669,12.669,0,0,1,1.664-4.355,84.771,84.771,0,0,1,6.429-9.942c1.794-2.374,3.46-4.844,5.183-7.271.2-.284.437-.575,0-.847-.4-.244-.49.118-.653.345-2.141,2.993-4.3,5.972-6.419,8.979-1.954,2.772-3.775,5.632-5.617,8.827a55.479,55.479,0,0,1-1.09-8.255,8.1,8.1,0,0,1,.872-4.157c1.1-2.067,1-4.292.886-6.5-.253-4.759-.473-9.524-.9-14.269q-.586-6.48-1.806-12.891a6.366,6.366,0,0,1,.482-3.821,3.8,3.8,0,0,0-.044-2.765c-.128-.46-.295-1.058-.96-1.008-.529.039-.743.491-.918.94-.737,1.881-1.574,3.73-2.2,5.645a175.647,175.647,0,0,0-5.2,17.443c-.642,2.956-1.105,5.951-1.545,8.948-.446,3.043-.9,6.084-1.061,9.153-.138,2.641-.336,5.28-.521,7.912-.25,3.577-.457,7.159-.722,10.735-.2,2.733-.234,5.48-.305,8.221-.067,2.606-.323,5.2-.219,7.814a36.109,36.109,0,0,0,.271,4.393c-2.241.476-4.476.983-6.725,1.418a106.474,106.474,0,0,1-17.466,1.778,4.958,4.958,0,0,1-2.913-.34,2.552,2.552,0,0,1-.337-1.7c-.112-5.965.043-11.927.28-17.885.276-6.927.893-13.831,1.667-20.723.638-5.674,1.523-11.307,2.445-16.939.929-5.677,2.184-11.291,3.2-16.949.857-4.789,1.88-9.542,2.848-14.307a151.554,151.554,0,0,1,4.195-15.144,2.842,2.842,0,0,1,.4-.789,2.328,2.328,0,0,1,1.505-.705,1.443,1.443,0,0,1,.793.095,25.544,25.544,0,0,0,5.141,4.268,7.891,7.891,0,0,0,7.018.852c1.464-.561,2.674-2.393,1.944-3.85-.149-.3-.2-.643-.326-.957-.535-1.316-.531-1.317.821-1.956a52.248,52.248,0,0,0,11.475-7.533,58.887,58.887,0,0,0,5.5-5.216c.247-.276.518-.574.964-.49" transform="translate(19.849 28.39)" fill="#d0d9e8"/>
        <path id="Path_20940" data-name="Path 20940" d="M95.537,271.785c-.412-1.716-.842-3.427-1.231-5.148-.712-3.155-.027-6.211.828-9.211a64.079,64.079,0,0,0,2.479-14.093c.4-7.347.788-14.7,1.263-22.039.4-6.225.775-12.459,1.432-18.659.566-5.338,1.009-10.686,1.5-16.03.373-4.061.864-8.188.331-12.22a24.669,24.669,0,0,0-2.864-9.588c-.044-.072-.091-.143-.131-.217-.914-1.677-.851-1.835.65-3.06,1.728-1.411,3.415-2.872,5.111-4.321a2.811,2.811,0,0,1,1.023-.695,2.738,2.738,0,0,1,1,1.271,22.574,22.574,0,0,0,7.6,7.919c1.038.931,1.063,1.26.108,2.249a24.622,24.622,0,0,0-2.324,2.322,2.392,2.392,0,0,0,.589,3.712,5.263,5.263,0,0,0,4.723.672,15.282,15.282,0,0,0,5.7-3.443c.476-.446.9-1.055,1.718-.769.348.431.182.886.052,1.33a196,196,0,0,0-5.18,20.527c-1.623,8.947-3.608,17.825-5.009,26.814-.729,4.681-1.509,9.355-2.061,14.06-.5,4.241-.9,8.49-1.176,12.753-.372,5.693-.536,11.394-.827,17.088-.169,3.3.1,6.59-.119,9.879a2.464,2.464,0,0,1-.426,1.678c-1.2.44-2.4-.008-3.556-.169-2.948-.408-5.9-.843-8.8-1.53-.9-.214-1.534-.872-2.395-1.083" transform="translate(17.23 28.684)" fill="#d0d9e8"/>
        <path id="Path_20941" data-name="Path 20941" d="M135.568,482.105c-.059-1.5-1.168-.544-1.776-.757.711-.271.833-.827.761-1.506-.505-4.8-1.113-9.587-1.464-14.4-.23-3.146-.719-6.261-.865-9.419-.153-3.31-.656-6.6-.944-9.907-.227-2.591-.3-5.2-.553-7.786-.391-4-.682-8.011-1.2-12-.538-4.121-.727-8.292-1.382-12.391-.476-2.977-.725-5.981-1.277-8.949-.6-3.214-.971-6.468-1.454-9.7-.364-2.449-.745-4.9-1.122-7.346-.641-4.19-1.254-8.383-1.935-12.567-.768-4.719-1.6-9.428-2.4-14.142-.813-4.8-1.612-9.6-2.434-14.4-.619-3.6-1.28-7.191-1.9-10.79-.849-4.962-1.812-9.9-2.423-14.9-.349-2.855-.9-5.687-1.316-8.535-.33-2.232-.7-4.463-.873-6.709-.2-2.64-2.081-4.036-3.813-5.549-1.67-1.46-3.423-2.823-5.12-4.253-.213-.18-.695-.414-.331-.788a.628.628,0,0,1,.909.143,38.955,38.955,0,0,0,3.633,3.138c.67.587,1.382,1.124,2.343,1.9a4.839,4.839,0,0,0-1.386-2.209,16.452,16.452,0,0,1-4.029-8.221,32.927,32.927,0,0,1,.095-4.725c.037-3.526.214-7.049-.028-10.583-.212-3.1-.65-6.166-.971-9.25a4.352,4.352,0,0,1-.007-.634c.008-.252,0-.55.335-.586s.38.237.422.5c.157.995.411,1.984.473,2.984.189,3.01.386,6.024.614,9.027.185,2.422.086,4.834.1,7.24.01,1.8-.133,3.616-.18,5.428a10.022,10.022,0,0,0,2.1,5.862c1.638,2.435,3.485,4.728,5.238,7.084.1.133.244.3.23.434-.289,2.691.657,5.248.863,7.889.207,2.671.667,5.325,1.083,7.976.5,3.2.959,6.4,1.561,9.582.8,4.2,1.428,8.44,2.149,12.66.678,3.973,1.389,7.941,2.068,11.913s1.324,7.947,2,11.917c.433,2.522,1.014,5.024,1.332,7.56.465,3.707,1.315,7.347,1.737,11.063.4,3.5,1.008,6.974,1.581,10.451.537,3.268.9,6.553,1.261,9.844.146,1.324.525,2.673.731,4.024.542,3.567,1.145,7.122,1.487,10.719.222,2.338.663,4.654.929,6.988.2,1.782.261,3.581.424,5.369.252,2.8.582,5.587.73,8.4.161,3.037.574,6.061.785,9.1.226,3.263.48,6.521.878,9.77.244,2,.36,4.017.56,6.025.254,2.55.414,5.119.841,7.642.381,2.25.334,4.523.653,6.771.14.983-.133,2.02.492,2.937a.519.519,0,0,1-.217.668" transform="translate(18.624 48.437)" fill="#2f2d2c"/>
        <path id="Path_20942" data-name="Path 20942" d="M126.113,265.817c.446.548.715.247.872-.219.286-.847.593-.651,1.078-.128,3.061,3.3,5.719,6.93,8.436,10.509a4.305,4.305,0,0,1,.294,2.834c-.433,5.585-.915,11.164-1.518,16.732a5.684,5.684,0,0,1-.368,1.726c-.172.387-.425.538-.659.018-3.09-6.88-5.924-13.847-7.112-21.358q-.7-4.416-1.319-8.845c-.06-.426-.16-.93.3-1.268" transform="translate(23.05 48.573)" fill="#f2ab8c"/>
        <path id="Path_20943" data-name="Path 20943" d="M90.194,238.473c1.642.063,3.232.59,4.89.535.837-.029.678.623.593,1.087a28.779,28.779,0,0,1-.767,3.449c-1.278,4.057-.811,8.04.421,12,.149.478.083,1.026.441,1.438.826.864.775,1.909.789,3.022a99.669,99.669,0,0,1-.6,13.81,22.956,22.956,0,0,1-.794,5.269,16.287,16.287,0,0,1-1.137-5.532c-.234-3.034-1.081-5.94-1.467-8.93-.456-3.529-.714-7.088-1.282-10.6a7.92,7.92,0,0,0-1.58-4.374c-.659-.728-.542.1-.771.232.237-1.982.487-3.962.708-5.945.2-1.819.37-3.641.554-5.461" transform="translate(16.3 43.707)" fill="#950e19"/>
        <path id="Path_20944" data-name="Path 20944" d="M107.768,272.5c.022-2.772.013-5.545.076-8.316.111-4.88.315-9.756.574-14.631.258-4.844.6-9.677,1.114-14.5q.745-6.974,1.794-13.9c.813-5.369,1.774-10.71,2.808-16.038,1.018-5.244,2.156-10.466,3.1-15.722a171.65,171.65,0,0,1,5.141-20.149,1.262,1.262,0,0,0,.015-.983c.317-.614.434-.626,1.373-.149a110.266,110.266,0,0,0-3.338,10.974c-1.913,7.234-3.1,14.628-4.564,21.959-2.045,10.239-3.9,20.506-5.077,30.89-.948,8.368-1.492,16.756-1.832,25.168-.211,5.144-.1,10.281-.179,15.421l-1.006-.017" transform="translate(19.752 30.749)" fill="#454f61"/>
        <path id="Path_20945" data-name="Path 20945" d="M132.937,295.6c.462.28.447-.054.477-.36.47-4.848,1-9.69,1.39-14.544a40.3,40.3,0,0,0,.386-6.406,1.281,1.281,0,0,0,1.744-.046c-.934,1.294-.843,2.824-1.012,4.3-.493,4.337-.544,8.714-1.221,13.034-.2,1.285-.289,2.588-.42,3.882a2.336,2.336,0,0,1-.651,1.464c-.321-.4-.846-.685-.694-1.329" transform="translate(24.36 50.263)" fill="#77292a"/>
        <path id="Path_20946" data-name="Path 20946" d="M146.716,145.744a44,44,0,0,1-5.733,17.356,6.454,6.454,0,0,0-5.2-5.611c-2.712-.615-5.009.81-7.354,1.957,1.128-1.634,2.251-3.189,3.36-4.754a68.27,68.27,0,0,0,7.309-13.328,55.886,55.886,0,0,0,2.595-7.49c.252-.973.556-.755,1.042-.254a12.55,12.55,0,0,1,3.915,9c0,.968.021,1.936.033,2.9a.192.192,0,0,0,.027.218" transform="translate(23.539 24.412)" fill="#d0d9e8"/>
        <path id="Path_20947" data-name="Path 20947" d="M82.094,326.032c.583.556.169,1.171.1,1.762-.059.5-.148.988-.228,1.505-.295-.277-.043-.661-.169-.961q.149-1.152.3-2.306" transform="translate(14.991 59.755)" fill="#df313b"/>
        <path id="Path_20948" data-name="Path 20948" d="M64.309,197.989c-.007,2.757.618,5.481.335,8.259a17.187,17.187,0,0,1-1.832,5.986c-.524,1.05-.4,1.564.7,1.982.573.218.672.669.825,1.163.643,2.079-.045,3.933-1.038,5.676-1.322,2.323-3.054,4.236-5.906,4.6-1.987.255-3.524-.924-4.9-2.038a83.53,83.53,0,0,0-11.879-7.859,16.178,16.178,0,0,0-4.137-1.528c-.734-.176-1.463-.369-2.432-.615,1.516-.641,2.91-.877,4.2-1.445,2.933-1.3,2.738-3.511,1.328-5.657-.11-.167-.259-.309-.547-.645a4.222,4.222,0,0,1,2.506.974c.291.211.619.441.879.088.271-.369-.1-.61-.366-.808a6.671,6.671,0,0,0-3.985-1.414c1.063-3.624-.887-6.073-4.659-6.061a17,17,0,0,0-3.607.574c-1.192.263-2.362.614-3.721.974.8-.908,1.5-1.69,2.2-2.472,2.935.015,5.868.17,8.806.048,7.065-.295,14.134-.035,21.2-.046,1.57.24,3.149.028,4.721.111.441.024.915-.161,1.323.156Z" transform="translate(4.779 36.222)" fill="#f2ab8c"/>
        <path id="Path_20949" data-name="Path 20949" d="M60.167,181.583c3.241,2.225,3.629,3.035,1.552,7.194-.237.473-.248,1.076-.747,1.412-.337-2.448-.692-4.894-.994-7.347-.05-.4-.322-.911.188-1.259" transform="translate(10.972 33.28)" fill="#efa88a"/>
        <path id="Path_20950" data-name="Path 20950" d="M59.334,197.983c-2.012-.177-4.046.159-6.044-.269q2.769-.005,5.537-.011a.472.472,0,0,1,.508.279" transform="translate(9.767 36.235)" fill="#722b2a"/>
        <path id="Path_20951" data-name="Path 20951" d="M58.923,182.048a2.657,2.657,0,0,1,.373,1.89,1.811,1.811,0,0,1-.373-1.89" transform="translate(10.781 33.366)" fill="#876050"/>
        <path id="Path_20952" data-name="Path 20952" d="M103.309,65.39c-.212-.06-.388-.159-.4-.412-.185-3.376-1.491-6.494-2.244-9.74-.374-1.615-.755-3.228-1.132-4.842-.011-.424-.063-.85.53-.968a11.364,11.364,0,0,0,2.995-1.556c.614-.329,1.129-.806.876-1.6-.275-.857-1.031-.71-1.695-.671-1.149.066-2.1.792-3.223.967-.892-6.585.44-12.852,2.8-18.949a33.451,33.451,0,0,1,2.829-4.847c1.454-1.253,2.462-2.971,4.145-4.028a8.671,8.671,0,0,0,6.193,5.593c2.417.612,4.558-.2,6.629-1.334,3.086-1.692,6.021-3.622,9.459-4.691a17.42,17.42,0,0,1,10.7.173,42.874,42.874,0,0,1,11.748,5.476c.769.537.953.96.563,1.849-1.388,3.172-3.2,6.121-4.726,9.224a13.994,13.994,0,0,0-1.582,8.523,127.619,127.619,0,0,1,1.083,16.009,87.89,87.89,0,0,1-.609,13.681c-.385.541-.14.876.391,1.047.592.192.722-.309.858-.691a36.514,36.514,0,0,1,5.206-9.6,13.634,13.634,0,0,1,6.625-5.245,4.937,4.937,0,0,1,6.017,2.817c1.258,2.848,1.2,5.8,1.011,8.768a41.38,41.38,0,0,1-1.76,10.04,15.229,15.229,0,0,1-9.521,10.242,20.442,20.442,0,0,1-3.456.638c-1.749.318-3.388.878-4.227,2.608-.372.767-.967.676-1.577.727-4.759-.276-9.5-.844-14.282-.753a76.485,76.485,0,0,0-15.155,1.515,7.838,7.838,0,0,0-.851.243,2.554,2.554,0,0,0-1.613,3.344c.221.556.723.531,1.19.369,9.85-3.428,19.964-3.179,30.133-2.171a5.249,5.249,0,0,1,.844.224,124.252,124.252,0,0,0-1.661,16.968c-.387,7.172-.845,14.341-.844,21.52,0,5.724.407,11.441.962,17.142a32.758,32.758,0,0,1-3,9.99,70.007,70.007,0,0,1-15,21.946c-.477.473-.9,1-1.35,1.5-.618.183-.593-.341-.663-.659-.321-1.476-.574-2.966-.918-4.436-.123-.528.181-.88.288-1.315a135.526,135.526,0,0,0,3.886-24.134c.018-.293-.012-.59-.019-.886a44.987,44.987,0,0,0,.037-8.025c-.084-3.242.172-6.5-.411-9.725-.092-.51.164-.742.634-.917a14.524,14.524,0,0,0,5.5-3.676c.226-.237.775-.492.382-.906s-.764-.015-1.064.283a14.145,14.145,0,0,1-6.294,3.808,13.472,13.472,0,0,1-8.645-.532,27.152,27.152,0,0,1-8.294-5.243c-2.761-2.48-3.783-5.8-4.446-9.284-1.313-6.9-1.706-13.923-2.566-20.883-.062-.5-.129-1-.193-1.5a23.458,23.458,0,0,1,8.311.863c.519.141,1.317.866,1.541-.322.162-.86.71-1.917-.708-2.332-2.926-.856-5.874-1.448-8.931-.764-.57-.213-.516-.715-.525-1.173-.1-4.666-.221-9.333-.292-14-.043-2.731-.008-5.464-.008-8.238,2.111,2.872,4.812,4.061,8.42,2.274a16.813,16.813,0,0,1-2.126,5.869,17.983,17.983,0,0,1-3.536,4.421c-1.988,1.784-2.614,6.286-1.294,8.619a2.769,2.769,0,0,0,2.221,1.47c1.709.206,3.109-.583,4.514-1.355a.651.651,0,0,0,.274-.793,2.673,2.673,0,0,0-1.413.386,9.564,9.564,0,0,1-1.169.48c-3.339.9-3.917-.162-4.165-3.01a6.636,6.636,0,0,1,2.226-5.644c3.43-3.227,5.012-7.49,5.9-12.021a39.536,39.536,0,0,0,.814-8.64c-.115-4.173-.375-8.427-2.541-12.224a9.363,9.363,0,0,0-3.053-3.314c-.271-.175-.624-.432-.89-.05s.088.621.362.809c3.7,2.529,4.324,6.5,4.857,10.48a6.3,6.3,0,0,1,.065,2.97c-.742-.367-1.466-.779-2.229-1.092a5.225,5.225,0,0,0-6.8,1.971c-.32.435-.609.892-.914,1.339" transform="translate(18.096 3.218)" fill="#f2ab8c"/>
        <path id="Path_20953" data-name="Path 20953" d="M136.667,223.055c1-5.243,1.937-10.5,3.033-15.724.942-4.489,2.061-8.942,3.121-13.407a12.379,12.379,0,0,1,.582-1.5,126.215,126.215,0,0,1,1.93,16.433c.3,3.995.686,7.986.722,12A7.694,7.694,0,0,1,145.1,225c-1.087,1.823-.9,3.835-.76,5.8a31.237,31.237,0,0,0,.685,5c.607,2.531-.2,4.926-.9,7.284a65.228,65.228,0,0,1-8.238,17.975,36.719,36.719,0,0,1-2.422,2.884c-.594-2.37-.34-4.581-.367-6.771a22.681,22.681,0,0,1,2.187-3.982,29.783,29.783,0,0,0,3.5-10.769,12.512,12.512,0,0,0-.762-5.218,9.37,9.37,0,0,1,.032-5.719,5.345,5.345,0,0,0,.1-2.355c-.193-2.11-1.215-4-1.484-6.075" transform="translate(24.388 35.268)" fill="#950e19"/>
        <path id="Path_20954" data-name="Path 20954" d="M123.331,164.99c2.573-2.995,5.927-4.911,9.386-6.624a17.441,17.441,0,0,1,5.7-1.5,1.144,1.144,0,0,1,1,.408,4.573,4.573,0,0,1,1.4,4.6c-.164.7-.262,1.409-.379,2.116a.538.538,0,0,0,.379.692.53.53,0,0,0,.639-.286c2.52-3.953,6.013-7.354,7.238-12.041.448-1.719,1.477-3.181,1.722-5.164,1.632,2.687,3.127,5.164,4.641,7.629.209.341-.039.549-.123.812-.03.421-.341.666-.6.938a56.726,56.726,0,0,1-13.244,10.721c-1.211.682-2.485,1.254-3.64,2.034-.757.307-1.509,1.04-2.348.4a6.68,6.68,0,0,1-2.69-3.1,1.37,1.37,0,0,1,.38-1.286c.346-.427.686-.859,1-1.309.915-1.3.5-2.417-1.053-2.852a3.655,3.655,0,0,0-1.994.123c-2.359.64-4.16,2.2-6.058,3.608-.387.288-.847,1.033-1.358.09" transform="translate(22.604 26.977)" fill="#cfd9e8"/>
        <path id="Path_20955" data-name="Path 20955" d="M126.023,163.04c.357.589.568.128.857-.095,1.956-1.51,3.843-3.157,6.276-3.866,1.3-.379,2.632-.543,3.747.58a1.46,1.46,0,0,1,.18,2.131A8.036,8.036,0,0,1,136,163.173c-.992.844-.821,1.635-.044,2.467a10.132,10.132,0,0,1,.966.992,1.964,1.964,0,0,0,3.085.526c.418.085.614.282.355.706-.938.3-1.234.6-.657,1.709,1.292,2.485.231,4.482-2.434,5.346a7.723,7.723,0,0,1-5.953-.678,15.532,15.532,0,0,1-5.75-4.767c.6-.583.852-.642,1.44.066,1.6,1.922,3.771,2.951,5.912,4.06a5.511,5.511,0,0,0,4.783-.015,2.3,2.3,0,0,0,.725-3.718,20.845,20.845,0,0,0-3-2.981,2.027,2.027,0,0,0,.847.905c.549.361,1.317.621.835,1.535a1.727,1.727,0,0,1-2.324.618,4.205,4.205,0,0,1-2.074-2.606,4.5,4.5,0,0,1,.612-3.756c.479-.751,1.115-1.384,1.576-2.144.212-.35.534-.757.218-1.162-.3-.381-.773-.277-1.183-.156a15.412,15.412,0,0,0-4.563,2.442c-.548.392-1.076.821-1.594,1.255-.292.245-.426.551-.155.882.254.311.541.109.794-.032a5.469,5.469,0,0,1,1.341-.708.772.772,0,0,1,.9.283c.243.367-.008.634-.238.889a2.683,2.683,0,0,1-.392.321c-1.439,1.083-1.429,1.3-.162,2.56,1.29,1.285,3,1.68,4.606,2.312.452.179,1.136.22.934.934-.182.639-.8.506-1.3.425a10.687,10.687,0,0,1-6.006-3.3c-.582-.6-1.016-1.027-1.587,0-.326.59-1.033.685-1.6.956-.293.519-.931.272-1.313.593-.437.247-.962-.308-1.374.149-1.815,1.4-3.46,3.023-5.57,4.027a6.71,6.71,0,0,1-6.289.141,2.783,2.783,0,0,1-.76-4.694,20.348,20.348,0,0,1,2.165-2.11c.939-.741.821-1.271-.134-1.807-.058-.414.194-.576.537-.666,1.092-.064,1.17-.163.683-1.026a12.223,12.223,0,0,1-1.283-2.325c-.755-2.44.755-4.2,3.259-3.706a13.71,13.71,0,0,1,6.008,3.392c.827.691,1.6,1.373,2.774,1.183.46.728,1,1.13,1.823.47.193-.154.4-.014.58.083" transform="translate(19.912 28.927)" fill="#99111a"/>
        <path id="Path_20956" data-name="Path 20956" d="M124.341,164.261c-.893.892-1.607.272-2.253-.325a22.217,22.217,0,0,0-5.416-3.63,3.978,3.978,0,0,0-2.071-.4c-2.73.213-2.586,2.622-1.531,4.464.248.434.566.828.838,1.25.3.457.7.945.2,1.468-.447.469-.815-.2-1.244-.2a17.943,17.943,0,0,1-5.857-5.1c-.663-.867-1.22-1.821-1.814-2.744a1.852,1.852,0,0,1-.448-1.524,80.176,80.176,0,0,1,6.18-5.662,46.109,46.109,0,0,0,4.034-3.7c.734.612.066,1.207-.1,1.734a68.279,68.279,0,0,0-1.931,7.839,4.866,4.866,0,0,0-.079.879c0,.215.083.445.347.439a.563.563,0,0,0,.419-.2c.653-1.185,2.161-1.136,2.991-2.175a9.208,9.208,0,0,1,3.255-2.348,1.439,1.439,0,0,1,1.871.536c1.936,2.223,2.458,4.931,2.842,7.707.046.331.11.661.164.993l-.4.7" transform="translate(19.19 27.154)" fill="#cfd9e8"/>
        <path id="Path_20957" data-name="Path 20957" d="M136.663,218.311a22.482,22.482,0,0,1,1.954,6.552,3.015,3.015,0,0,1-.154,1.732,7.023,7.023,0,0,0-.283,4.933c.476,1.491.567,3.046.94,4.553.329,1.329-.153,2.655-.411,3.976a30.786,30.786,0,0,1-5.053,11.7c-.165.238-.374.445-.563.667a130.565,130.565,0,0,1,.945-15.243c.416-4.151.967-8.282,1.547-12.41.3-2.162.716-4.31,1.078-6.463" transform="translate(24.392 40.012)" fill="#df313b"/>
        <path id="Path_20958" data-name="Path 20958" d="M135.5,168.507l-.355-.706a71.949,71.949,0,0,0,10.581-6.88c2.482-2.061,4.737-4.354,7.042-6.6a.77.77,0,0,1,.523.728,65.351,65.351,0,0,1-9.634,8.618,44.788,44.788,0,0,1-8.156,4.838" transform="translate(24.769 28.284)" fill="#18191a"/>
        <path id="Path_20959" data-name="Path 20959" d="M72.343,212.792a41.9,41.9,0,0,1,14.377,2.274,31.226,31.226,0,0,1,8.954,4.7,19.968,19.968,0,0,1,1.831,1.905.827.827,0,0,1,.19.8c-.53,4.394-1.038,8.79-1.845,13.145-.409,2.208-.392,2.153-2.708,1.995a50.768,50.768,0,0,1-16.885-4.435c-1.657-.723-3.307-1.462-4.977-2.153a30.852,30.852,0,0,1-3.441-2.107c-.5-.287-.372-.555-.124-.9a18.238,18.238,0,0,0,3.3-8.5,9.515,9.515,0,0,0-.925-5.625c-.464-.925-.394-1.287.734-1.115a10.1,10.1,0,0,0,1.516.013" transform="translate(12.371 38.991)" fill="#d0d9e8"/>
        <path id="Path_20960" data-name="Path 20960" d="M94.127,229.349a27.534,27.534,0,0,0-6.377-4.66,10.7,10.7,0,0,1,4.156.99c.357.129.79.627,1.053,0,.217-.518-.38-.555-.68-.693a8.523,8.523,0,0,0-3.119-.952c-1.121-.055-1.368-.538-1.072-1.6q1.546-5.568,2.977-11.168c1.629-6.371,2.768-12.84,3.878-19.317a168.645,168.645,0,0,0,2.348-22.136c.052-1.366.13-2.73.214-4.469a11.927,11.927,0,0,1,1.51,4.3,70.381,70.381,0,0,1,.684,13.243c-.1,6.281-1.105,12.461-1.8,18.676-.635,5.689-1.415,11.364-2.18,17.039-.471,3.5-1.031,6.99-1.592,10.753" transform="translate(16.083 30.304)" fill="#d0d9e8"/>
        <path id="Path_20961" data-name="Path 20961" d="M117.859,144.616a49.194,49.194,0,0,1,7.05-9.478c.382-.37.79-.717,1.293-1.171a10.068,10.068,0,0,1-.082,3.37,124.335,124.335,0,0,1-3.3,19.415c-.093.369-.159.748-.283,1.105-.147.42-.379.554-.7.119-.227-.3-.483-.587-.722-.883-1.2-1.479-2.013-1.61-3.694-.629a28.661,28.661,0,0,0-4.9,3.917,44.959,44.959,0,0,1,2.968-10.95q1.184-2.4,2.365-4.815" transform="translate(20.624 24.553)" fill="#d0d9e8"/>
        <path id="Path_20962" data-name="Path 20962" d="M104.864,156.07a21.928,21.928,0,0,0,6.8,8.219,4.536,4.536,0,0,1,1.317,1.154l-.5.515a22.017,22.017,0,0,1-8.4-9.373l.782-.515" transform="translate(19.076 28.604)" fill="#1b1b1d"/>
        <path id="Path_20963" data-name="Path 20963" d="M35.172,205.2c-3.046,1.1-5.981,2.219-9.206,2.154-2.432-.05-3.77-2.559-3.067-4.888a1.364,1.364,0,0,1,1.058-1c2.807-.373,5.421-1.524,8.2-1.993,1.588-.267,3.166-.516,4.631.5,1.635,1.129,1.891,2.81.561,3.924a3.445,3.445,0,0,0-3.55-3.214c-.7.08-1.126.275-1.077,1.187.125,2.267.066,2.271,2.448,3.336" transform="translate(4.163 36.516)" fill="#f2ab8c"/>
        <path id="Path_20964" data-name="Path 20964" d="M20.432,203.256c-2.819.051-5.009-1.873-5.191-3.921a1.357,1.357,0,0,1,1.029-1.627,53.389,53.389,0,0,0,8.739-3.906,2.579,2.579,0,0,1,3.458.417c1.433,1.722,1.7,3.119.488,4.408a15.134,15.134,0,0,1-8.522,4.63" transform="translate(2.791 35.435)" fill="#f2ab8c"/>
        <path id="Path_20965" data-name="Path 20965" d="M29.99,211.613a4.59,4.59,0,0,1-4.083-1.557,2.883,2.883,0,0,1-.56-2.017c.021-.434.15-.743.652-.745,3.274-.018,6.223-1.35,9.269-2.295,2-.62,3.3-.129,4.152,1.54a2.268,2.268,0,0,1-1.2,3.414,19.548,19.548,0,0,1-8.226,1.661" transform="translate(4.645 37.525)" fill="#f2ab8b"/>
        <path id="Path_20966" data-name="Path 20966" d="M34.671,202.742a1.126,1.126,0,0,1-1.167.957c-.757-.05-1.577-.29-1.562-1.3.007-.473.05-1.058.793-1.079.593-.018,1.924.937,1.936,1.421" transform="translate(5.854 36.898)" fill="#eda587"/>
        <path id="Path_20967" data-name="Path 20967" d="M111,61.68c1.1-.137.9.757,1.085,1.354a3.1,3.1,0,0,1-.349,3.156,3.931,3.931,0,0,1-4.069,1.435,5.73,5.73,0,0,1-4.282-3.874,15.661,15.661,0,0,1-.782-3.3c1.1-2.426,2.712-4.766,4.744-4.8a6.07,6.07,0,0,0-1.182,1.97c.593.035,1.124.058,1.652.1a.619.619,0,0,1,.606.375c.124.379-.192.511-.435.669a1.894,1.894,0,0,1-1.211.3c-1.025-.085-1.064.445-.906,1.253a4.364,4.364,0,0,0,4.173,3.8c.708-.03,1.414.011.974-1.106a3.715,3.715,0,0,1,.023-1.373Z" transform="translate(18.806 10.199)" fill="#fdfcfc"/>
        <path id="Path_20968" data-name="Path 20968" d="M110.957,59.4c-.576,0-.9-.331-.754-.85.168-.6.744-.323,1.169-.335a.873.873,0,0,1-.415,1.184" transform="translate(20.192 10.661)" fill="#edeaea"/>
        <path id="Path_20969" data-name="Path 20969" d="M110.159,61.027c-.251.143-.495.3-.754.428a1.3,1.3,0,0,1-1.614-.213,1.358,1.358,0,1,1,2.394-.916c0,.247-.043.5-.065.742l.039-.041" transform="translate(19.69 10.812)" fill="#f5f4f4"/>
        <path id="Path_20970" data-name="Path 20970" d="M159.3,285.312a.4.4,0,0,1,.376-.451c.432-.04.561.3.611.66.257,1.872.53,3.743.759,5.618q.918,7.511,1.973,15.005,1.084,7.812,2.352,15.592c.891,5.471,1.913,10.922,2.736,16.4,1.212,8.068,2.985,16.021,4.7,23.988,1.263,5.882,2.662,11.736,4.112,17.574,1.176,4.735,2.078,9.539,3.539,14.2.1.317.318.675-.194.816-.414.115-.561-.125-.689-.516-1.032-3.157-1.7-6.409-2.487-9.628q-2-8.2-3.863-16.432c-.964-4.223-1.879-8.458-2.772-12.7-.865-4.1-1.726-8.211-2.492-12.335-.721-3.881-1.3-7.787-1.964-11.679-.6-3.516-1.335-7.012-1.793-10.544-.583-4.5-1.415-8.968-1.912-13.485-.414-3.756-1.091-7.483-1.6-11.229-.483-3.539-.9-7.087-1.382-10.866" transform="translate(29.196 52.209)" fill="#a2101b"/>
        <path id="Path_20971" data-name="Path 20971" d="M122.4,169.054a4.966,4.966,0,0,0,2.151-2.5,13.789,13.789,0,0,0,5.127,4.008c.716.293,1.464.387,2.184.619.287.092.75.169.845-.284.11-.532-.38-.392-.673-.495-2.019-.712-4.082-1.326-5.546-3.075-.793-.947-.736-1.356.3-2.067.457-.312,1.535-.521,1.119-1.189-.4-.638-1.068.179-1.6.444-.435.218-.769.753-1.354.538-.479-.175-.217-.67-.354-1s.082-.433.285-.6a19.759,19.759,0,0,1,6.071-3.814c.745-.261,1.748-.461,2.126.076s-.183,1.4-.673,2.008a7.6,7.6,0,0,0-2.054,3.556,4.267,4.267,0,0,0,2.245,4.253,1.375,1.375,0,0,0,1.814-.737c.356-.691-.4-.815-.808-1.012a2.456,2.456,0,0,1-1.32-2.253c1.525,1.516,2.976,2.755,4.173,4.2,1.119,1.354.169,3.4-1.487,4.048-2.563,1.007-4.687-.011-6.779-1.219a10.934,10.934,0,0,1-3.908-3.118c-.271-.4-.692-.84-1.238-.249l-.648-.137" transform="translate(22.433 29.21)" fill="#df303b"/>
        <path id="Path_20972" data-name="Path 20972" d="M120.272,195.409a3.017,3.017,0,0,1-2.755,3.072,2.16,2.16,0,0,1-1.77-2.393,2.885,2.885,0,0,1,2.871-3.153c.943.047,1.678,1.148,1.654,2.474" transform="translate(21.214 35.36)" fill="#faa632"/>
        <path id="Path_20973" data-name="Path 20973" d="M112.8,218.9a2.294,2.294,0,0,1,2.517-2.439,2.26,2.26,0,0,1,1.97,2.388c-.021,1.758-1.061,3.023-2.448,2.974-1.351-.048-2.08-1.092-2.039-2.923" transform="translate(20.673 39.672)" fill="#f9a632"/>
        <path id="Path_20974" data-name="Path 20974" d="M110.6,242.337a1.971,1.971,0,0,1,2.079-2.167c1.362-.029,2.18.921,2.168,2.518a2.657,2.657,0,0,1-2.352,2.8c-1.033-.009-1.884-1.421-1.895-3.147" transform="translate(20.271 44.018)" fill="#faa633"/>
        <path id="Path_20975" data-name="Path 20975" d="M53.405,213.518a7.3,7.3,0,0,0-5.145-6.631,6.592,6.592,0,0,0-2.088-.463c-.325.022-.736-.073-.693-.529.044-.477.537-.431.8-.4a8.825,8.825,0,0,1,6.806,4.062,6.12,6.12,0,0,1,1.177,4.408c-.073.394.062,1.013-.524.967s-.312-.657-.349-1.038a2.943,2.943,0,0,1,.014-.381" transform="translate(8.335 37.66)" fill="#772d2c"/>
        <path id="Path_20976" data-name="Path 20976" d="M119.132,56.518c2.622-3.008,5.332-3.659,9-2.307a45.11,45.11,0,0,1,7.571,3.827c-.054.63-.531.656-1,.7-.346,0-.587-.336-.971-.3-.2.527.024,1.076-.084,1.614-.178.889-.827.381-1.478.382.8.8,1.378,1.574.556,2.408-.916.929-1.289-.538-2.01-.585a.154.154,0,0,0-.044.215c.993,1.525.727,2.087-1.147,2.406-2.771.471-6.159-2.255-6.342-5.1-.091-1.423.134-1.683,1.561-1.812.277-.025.6.064.79-.247-1.651-1.31-1.651-1.31-.594-2.9a4.848,4.848,0,0,0-3.712,1.356A10.843,10.843,0,0,1,120,57.438c-.975.341-1.032-.186-.87-.919" transform="translate(21.822 9.813)" fill="#080808"/>
        <path id="Path_20977" data-name="Path 20977" d="M136.265,47.573c-.1.331-.256.686-.686.473-4.972-2.472-10.49-2.885-15.766-4.209a1.787,1.787,0,0,1-.674-.311,1.19,1.19,0,0,1,.2-2.061,3.947,3.947,0,0,1,2.943-.343,35.066,35.066,0,0,1,13.353,5.7c.509.372.627.5.627.755" transform="translate(21.743 7.512)" fill="#0b0b0a"/>
        <path id="Path_20978" data-name="Path 20978" d="M146.987,63.774c.832.435,1.716.334,2.478.755a6.261,6.261,0,0,1,2.445,7.737,10.125,10.125,0,0,1-4.81,5.158c-.34.2-.86.5-1.111-.02-.274-.567.366-.589.688-.78,2.291-1.358,4.085-3.1,4.687-5.834a4.719,4.719,0,0,0-3.885-5.864,1.371,1.371,0,0,0-1.6.853,17.363,17.363,0,0,0-1.257,3.553c-.107.471-.356.748-.73.69-.624-.1-.247-.628-.177-.887,1.085-4.026,2.921-7.616,6.306-10.208a6.109,6.109,0,0,1,4.154-1.578c.306.021.729.077.686.5-.031.318-.368.427-.69.432-2.46.032-4.1,1.537-5.6,3.208a21.153,21.153,0,0,0-1.583,2.281" transform="translate(26.308 10.509)" fill="#752b2b"/>
        <path id="Path_20979" data-name="Path 20979" d="M119.195,56.057c.044.467-.048,1.063.761.809a.656.656,0,0,1,.156.7c-.635,3.03.29,5.728,1.75,8.317,1.842,3.268,7.349,4.079,10.073,1.492a9.34,9.34,0,0,0,2.843-8.389c-.035-.29-.156-.575.013-.859a1.748,1.748,0,0,0,.974-.551c1.225,4.016-.4,9.11-3.69,11.351-3.207,2.183-9.1,1.435-11.436-2.582a14.309,14.309,0,0,1-1.664-10c.019-.106.143-.2.219-.292" transform="translate(21.759 10.274)" fill="#752d2d"/>
        <path id="Path_20980" data-name="Path 20980" d="M112.929,92a8.791,8.791,0,0,1-2.265-.012c-.432,0-.8-.16-.706-.653.079-.415.45-.373.816-.337a27.387,27.387,0,0,0,13.777-2.451,33.87,33.87,0,0,0,5.02-3.156c.274-.183.6-.62.931-.066.256.424-.1.567-.372.781A27.415,27.415,0,0,1,112.929,92" transform="translate(20.15 15.589)" fill="#752c2b"/>
        <path id="Path_20981" data-name="Path 20981" d="M119.544,79.28a4.648,4.648,0,0,1-.658,2.565c-.157.314-.38.776-.821.593-.523-.218-.168-.651-.052-.976.154-.433.408-.834.537-1.273.463-1.581-.252-3.168-1.894-4.3-.349-.24-1.039-.365-.65-.967.347-.538.749.02,1.064.2a4.445,4.445,0,0,1,2.474,4.15" transform="translate(21.24 13.69)" fill="#792f2e"/>
        <path id="Path_20982" data-name="Path 20982" d="M114.484,79.315c.283-.118.454.022.589.279a.437.437,0,0,1-.1.567,6.64,6.64,0,0,1-3.074,1.6.51.51,0,0,1-.594-.37.684.684,0,0,1,.2-.554,5.224,5.224,0,0,1,2.984-1.521" transform="translate(20.398 14.529)" fill="#722a2a"/>
        <path id="Path_20983" data-name="Path 20983" d="M112.606,173.852c-.169,0-.339,0-.508,0-.642-.014-1.431-.024-1.636-.677-.178-.561.412-1.061.858-1.45,1.014-.885,1.984-1.816,3.086-2.607a3.431,3.431,0,0,0-.028-5.039,5.731,5.731,0,0,1-1.971-3.276,1.451,1.451,0,0,1,.441-1.821,1.83,1.83,0,0,1,2.008-.008,29.942,29.942,0,0,1,5.628,3.581,1.519,1.519,0,0,1,.146,2.651c-.264.225-.467.082-.684-.026-.261-.13-.512-.407-.766-.406-.537,0-1.294-.769-1.556.032-.238.731.736.512,1.143.764.6.37,1.524.58,1.623,1.28.111.787-.82,1.076-1.39,1.471a17.012,17.012,0,0,1-3.178,1.555c-.329.138-.8.276-.558.8s.611.245.968.112a25.193,25.193,0,0,0,3.991-2.143c.237-.138.444-.484.745-.136.234.271.37.588.033.892-2.428,2.182-4.756,4.553-8.394,4.45" transform="translate(20.24 29.082)" fill="#df313b"/>
        <path id="Path_20984" data-name="Path 20984" d="M119.77,165.649c0-1.419.415-2.012,1.287-1.823a1.788,1.788,0,0,1,.895,2.17.515.515,0,0,1-.14.209c-.453.367-.34,1.42-1.2,1.218s-.847-1.041-.847-1.774" transform="translate(21.951 30.02)" fill="#dd2f3a"/>
        <path id="Path_20985" data-name="Path 20985" d="M22.118,196.562a1.961,1.961,0,0,1,2.207-2.122,2.682,2.682,0,0,1,2.608,2.839,2.492,2.492,0,0,1-2.428,2.274c-1.45-.033-2.394-1.216-2.387-2.991" transform="translate(4.054 35.637)" fill="#752c2b"/>
        <path id="Path_20986" data-name="Path 20986" d="M34.752,209.656a1.716,1.716,0,0,1-1.607-1.984c.022-.344-.807-.612-.237-1.131a2.211,2.211,0,0,1,1.706-.66,2.282,2.282,0,0,1,1.961,2.254,1.6,1.6,0,0,1-1.823,1.522" transform="translate(5.995 37.732)" fill="#79302e"/>
        <path id="Path_20987" data-name="Path 20987" d="M134.652,58.437c1.569,3.68-1.034,9.63-4.873,10.868a7.768,7.768,0,0,1-8.444-3.143,12.3,12.3,0,0,1-1.758-7.9c.046-.366.159-.723.239-1.083,1.467-2.268,3.363-3.172,5.871-2.678-.531.692-1.344,1.121-1.484,2,.36.322.847.266,1.285.381.4.1.711.349.641.8-.063.409-.406.492-.771.477-.084,0-.169-.014-.253-.014-1.81,0-1.942.162-1.58,1.956.6,2.982,4.2,5.157,6.828,4.13.716-.28,1.1-.611.336-1.273-.125-.108-.194-.28-.316-.393-.343-.317-.611-.709-.181-1.066.387-.323.679.086.937.361.057.062.1.138.149.2.264.321.509.839.919.769s.451-.664.613-1.041c.225-.522-.3-.6-.564-.828-.062-.054-.151-.076-.219-.125-.286-.215-.53-.477-.309-.85.3-.5.624-.231.94.012a5.8,5.8,0,0,0,.536.316,5.169,5.169,0,0,0-.13-2.664c.757-.045,1.092.534,1.588.785" transform="translate(21.898 9.964)" fill="#fefefe"/>
        <path id="Path_20988" data-name="Path 20988" d="M126.244,61.517c-1.031-.031-1.5-.482-1.424-1.268s.5-1.571,1.362-1.525a1.4,1.4,0,0,1,1.3,1.573,1.218,1.218,0,0,1-1.241,1.221" transform="translate(22.876 10.762)" fill="#f1f0ef"/>
        <path id="Path_20989" data-name="Path 20989" d="M128.378,58.11c.349.057.654.17.66.6.007.523-.376.593-.763.6a.526.526,0,0,1-.581-.634c.026-.421.322-.54.684-.566" transform="translate(23.403 10.65)" fill="#eae9e8"/>
        <path id="Path_20990" data-name="Path 20990" d="M127.14,57.669c-.053.284-.206.453-.512.422a.382.382,0,0,1-.375-.415.423.423,0,0,1,.5-.427c.243.017.349.194.385.42" transform="translate(23.139 10.492)" fill="#878585"/>
        <path id="Path_20991" data-name="Path 20991" d="M24.592,198.452a1.657,1.657,0,0,1-1.731-1.626c.067-.825.328-1.689,1.374-1.613a1.57,1.57,0,0,1,1.6,1.622,1.429,1.429,0,0,1-1.242,1.616" transform="translate(4.189 35.778)" fill="#eda688"/>
        <path id="Path_20992" data-name="Path 20992" d="M35.522,207.816c-.06.491-.251.766-.731.729a1.737,1.737,0,0,1-1.381-1.192c-.142-.322.473-.722,1-.653a1.24,1.24,0,0,1,1.11,1.116" transform="translate(6.12 37.883)" fill="#f2ab8b"/>
    </g>
</svg>
