<svg id="Group_27248" data-name="Group 27248" xmlns="http://www.w3.org/2000/svg" xmlns:xlink="http://www.w3.org/1999/xlink" width="458.579" height="416.018" viewBox="0 0 458.579 416.018">
    <defs>
        <clipPath id="clip-path">
            <rect id="Rectangle_10016" data-name="Rectangle 10016" width="458.579" height="416.018" fill="none"/>
        </clipPath>
    </defs>
    <g id="Group_27221" data-name="Group 27221" clip-path="url(#clip-path)">
        <path id="Path_20993" data-name="Path 20993" d="M258.142.289c8.881,10.31,13.688,24.14,18.241,36.565,5.745,15.672,10.228,31.791,16.464,47.3-1.006.628-1.773.178-2.481-.542A102.161,102.161,0,0,1,282.9,64.926c-5.573-17.842-11.211-35.662-19.807-52.363a48.5,48.5,0,0,0-4.388-7.255c7.493,14.332,11.938,29.459,17.961,43.944a180.347,180.347,0,0,1,8.41,25.522c.51,2.035,1.384,4.012-.182,5.959-2.473.9-4.744-.148-6.938-.935-28.513-10.213-59.64,13.057-62.195,39.4-.3,3.115-.674,6.216-.779,9.348-.1,3-1.512,4.152-4.355,2.729A19.2,19.2,0,0,0,193.8,130.8c-2.922,1.234-4.37-.094-4.35-2.977a60.66,60.66,0,0,0-1.419-12.875c-3.491-16.632-13.736-27.338-29.243-33.607-2.507-1.014-6.263-.532-7.078-4.425,5.1-2.8,10.742-3.369,16.381-3.923,4.52-.445,5.288-1.38,3.453-5.253-5.439-11.482-10.295-23.269-17.311-33.949a26.319,26.319,0,0,0-1.491-2.24c-3.239-3.97-6.466-3.583-8.3,1.267-3.294,8.684-5.4,17.731-7.736,26.705-1.541,5.912-2.248,12.065-4.976,17.647-4.276,3.179-9.639,3.883-14.3,6.229-1.874.943-3.375-.119-2.438-2.487,9.16-23.16,14.552-47.737,26.333-69.906,1.244-2.341,2.129-4.993,4.77-6.289,3.465,1.174,5.471,4.065,7.5,6.762,4.3,5.72,8.724,11.363,12.061,17.752,4.9,9.388,11.743,17.71,15.588,27.658,1.757,4.549,4.678,8.66,5.291,13.624a1.084,1.084,0,0,1-.17.378c-.327.319-.267.634-.043.51,7.329-4.062,15.2-4.839,23.365-3.946,1.287.14,2.766.587,3.353-1.251,4.682-12.986,11.756-24.723,18.939-36.4,4.372-7.107,9.024-14.032,13.674-20.957,2.369-3.53,5.106-7.667,9.526-8.553a4.084,4.084,0,0,1,2.971,0" transform="translate(23.259 0)" fill="#b4958f"/>
        <path id="Path_20994" data-name="Path 20994" d="M143.907.579c4.981,2.753,9.467,7.75,12.528,12.43,8.986,13.738,17.692,27.64,25.329,42.18,2.007,3.82,3.671,7.82,5.492,11.739-1,3.16-3.707,3.222-6.3,3.488A268.548,268.548,0,0,0,163.2,35.74c-6.7-10.842-13.322-21.606-21.856-31.1-.581-.184-1.341.079-1.7-.672.284-1.518,3.365-3.386,4.264-3.386" transform="translate(28.317 0.117)" fill="#907871"/>
        <path id="Path_20995" data-name="Path 20995" d="M0,124.5a.705.705,0,0,1,.818-.034c2.754-.18,5.619-1.494,8.136.788L0,125.4Z" transform="translate(0 25.13)" fill="#372a2d"/>
        <path id="Path_20996" data-name="Path 20996" d="M123.425,367.855c-15.1-10.473-19.521-26.183-20.535-43.2-1.252-21.011,5.864-39.876,16.022-57.86,6.457-11.428,13.137-22.752,16.461-35.679,2.517-9.794,1.457-19.555.621-29.362,1.132-.55,1.78.147,2.395.926a24.042,24.042,0,0,1,1.506,9.187c-.1,2.809,1.2,4.067,3.848,4.4,7.747.969,14.774-.575,20.754-5.785-.411-1.692-1.879-1.2-2.947-1.41q-42.889-8.38-66.942-44.853a21.926,21.926,0,0,1-1.322-2.342c-1.916-3.863-1.651-4.743,2.038-6.732.787-.425,1.586-.829,2.618-1.306a2.3,2.3,0,0,0-1.015.428c-6.03,3.055-6.028,3.057-7.916-3.614-1.964-6.944-1.454-7.686,5.627-8.249,1.722-.137,3.515.292,4.768-.343-2.656.545-5.82.247-8.886.814-2.016.373-3.044-.6-3.459-2.548-.7-3.268-.431-6.555-.3-9.833.073-1.855,1.511-2.49,3.112-2.61a63.534,63.534,0,0,1,9.863.008c3.074.249,4.061,2.88,5.273,5.02,7.623,13.46,19.7,20.586,34.321,23.667,18.44,3.886,37.054-4.522,47.1-20.544a60.546,60.546,0,0,0,7.6-18.1c2.365-9.756,10.862-13.708,20.168-9.691a13.734,13.734,0,0,1,8.51,10.054c6.014,23.435,23.858,36.213,45.678,39,3.768.481,7.443-.324,11.133-.888,10.283-1.583,18.965-6.341,25.3-14.444,3.972-5.081,8.563-6.862,14.591-6.21,4.154.53,8.542-1.27,12.484,1.274l-2.652,11.533c-1.943,1.795-4.191.991-6.316.634-4.231-.712-8.539-.7-11.459-1.348,4.118.6,9.575,1.015,14.975,1.882a2.266,2.266,0,0,1,1.879,1.7c-.042,3.881-2.175,7.064-3.521,10.509-3.868.529-6.942-1.924-10.4-2.9-2.371-.668-4.7-1.724-7.049-2.588,4.673,1.745,9.355,3.468,14.011,5.254,1.051.4,2.9.278,2.436,2.357-7.639,10.8-16.121,20.807-26.927,28.627-4.374,1.2-7.956,4-11.91,6.03a114.092,114.092,0,0,1-29.092,10.025,9.763,9.763,0,0,1-2.439.265c8.555-1.018,17.389-3.846,25.995-7.537,1.253-.538,2.462-2.01,4.027-.565-4.848,21.719,1.957,40.5,13.181,58.915,8.023,13.165,14.868,27.306,17.8,42.761,4.24,22.322,1.851,43.365-12.937,61.752-1.858-1.584-.937-3.51-.707-5.385.624-5.12-.613-9.451-5.393-12.194-9.939-3.092-16.2-1-22.558,7.378a45.994,45.994,0,0,0-8.679,18.939c-.372,1.849-.375,3.945-2.374,5.066-6.966,0-9.49-3.856-7.084-10.575a353.12,353.12,0,0,1,14.1-33.327c4.666-9.756,12.706-15.1,23.191-17.023a16.637,16.637,0,0,0,4.693-1.2c-3.27-2.978-7.166-2.682-11.1-2.331-1.584.142-3.454,1.679-4.615-.783.077-2.278,1.9-3.612,2.758-5.468C276.19,320.91,268.1,334.1,262.2,348.459c-2.61,6.348-5.3,12.663-7.544,19.151-1.167,3.376-3.007,4.343-6.493,3.026a25.184,25.184,0,0,0-11.339-1.872c5.146-.395,9.868,1.437,14.629,2.912,2.548.788,3.683,3.019,3.963,5.518.405,3.611-4.431,11.685-7.789,13.4-1.97,1.007-3.867,1.463-5.912.138-2.342-1.516-1.039-3.377-.645-5.184.174-.8.01-1.647.2-1.9-.558,2.871-.765,6.493-4.234,8.578-2.246,1.35-4.448,1.614-6.731.147-2.338-1.5-1.02-3.5-.58-5.236a14.762,14.762,0,0,0,.5-5.894c.253,9.909-3.179,13.731-10.578,11.927-2.7-2.313-3.371-5.395-3.7-8.771-.627-6.424.1-12.8.7-19.134,1.135-11.977,1.725-24.023,3.857-35.9,2.366-13.177,4.554-26.383,6.839-39.574a9.14,9.14,0,0,0,.227-2.623c-2.206-.388-1.878,1.534-2.165,2.563-4.639,16.661-9.157,33.291-11.306,50.581-1.4,11.259-2.338,22.512-3.173,33.8a7.44,7.44,0,0,1-.771,3.454c-4.929,1.993-7.369.976-7.573-3.531a433.683,433.683,0,0,0-4.472-44.835c1.248,6.423,2.158,16.46,3.1,26.492.835,8.877,1.629,17.757,2.167,26.656a15.065,15.065,0,0,1-1.994,8.167c-1.234,2.255-3.2,3.718-5.883,3.2-2.568-.494-4.746-1.719-5.523-4.573a28.606,28.606,0,0,1-1.069-7.365c.505,1.226-.192,3.412.536,5.443.7,1.958.814,3.962-1.325,5.1A5.709,5.709,0,0,1,182.2,392c-3.156-1.858-3.69-5.071-4.347-8.413.023,2.445,2.3,4.9-.354,6.615-2.623,1.7-5.317.853-7.782-1.22-3.157-2.656-4.725-6.176-5.769-9.911s.828-6.607,4.611-7.965c4.678-1.679,9.42-3,14.443-2.731a33.926,33.926,0,0,0-12.74,2.125c-2.776,1.086-4.409.52-5.453-2.474A324.9,324.9,0,0,0,150.352,333.8c-4.528-9.373-10.206-18.14-15.275-27.232a26.133,26.133,0,0,1,3.267,5.937c-.2,2.585-2.292,2.41-3.973,2.548-4.536.373-8.128,2.6-11.434,5.473-.634.551-1.572,1.044-.7,2.1,6.005-1.713,11.847-2.111,17.986-.084,5.2,1.718,7.5,5.581,9.5,9.942,5.333,11.638,10.464,23.358,15.112,35.3,1.523,3.913-.672,6.509-1.584,9.617-.268.912-1.422.966-2.347.688a2.6,2.6,0,0,1-2.062-3,17.943,17.943,0,0,0-1.168-7.428,16.56,16.56,0,0,1,.372,11.093,2.529,2.529,0,0,1-3.066,1.08,3.844,3.844,0,0,1-1.169-3.219c-.087-10.191-10.23-16.681-19.177-8.462a3.079,3.079,0,0,1-3.216-.515,8.839,8.839,0,0,1-1.719-2c-2.166-2.505-2.686-5.538-2.811-8.713-.023-.58.014.25-.331-.226-.118-.162-.532.1-.694.426-1.845,3.363-.172,7.5-2.44,10.74" transform="translate(17.561 21.634)" fill="#b4958f"/>
        <path id="Path_20997" data-name="Path 20997" d="M188.924,347.716c.446-12.48,1.159-24.883,3.269-37.277,1.415-8.309,2.272-16.784,4.07-25.023,2.022-9.267,4.887-18.361,7.645-27.45.546-1.8,1.135-5.374,4.666-2.557-2.977,6.15-3.011,12.968-4.122,19.492-2.121,12.446-4.765,24.825-5.984,37.413-.872,9-1.936,17.986-2.438,27.033-.19,3.447-.161,7.075-1.813,10.327a1.317,1.317,0,0,1-.834-.208c-1.164-1.4-3.368-.161-4.46-1.75" transform="translate(38.31 51.581)" fill="#8b736c"/>
        <path id="Path_20998" data-name="Path 20998" d="M372.41,199.165c-13.909-8.953-27.428-18.53-42.141-26.2-13.726-7.157-27.954-13.192-42.234-19.116l-20.171-7.309c.777,2.246,2.531,2.525,4.069,3.2,4.99,2.178,8.48,3.861,15.094,6.238a72.02,72.02,0,0,0,8.1,3.729c27.5,10.706,49.4,23.462,74.665,39.576a33.956,33.956,0,0,0,7.182,3.772c-1.794-1.481-3.851-3.426-4.565-3.885" transform="translate(54.318 29.715)" fill="#3b2d30"/>
        <path id="Path_20999" data-name="Path 20999" d="M88.934,123.783c1.73,1.745,4.645-.651,6.182,1.77-13.876-.046-27.753-.041-41.628-.165-4.459-.04-8.949.225-13.367-.7,2.321-1.449,5.022.115,7.393-.927l41.419.022" transform="translate(8.136 25.097)" fill="#36292c"/>
        <path id="Path_21000" data-name="Path 21000" d="M255.94,186.854c-7.468,2.349-14.443,6.149-22.254,7.5-3.6.621-7.17,1.39-11.481,2.235,1.421-2.547,3.392-2.315,4.858-2.566a109.277,109.277,0,0,0,39.269-15.162c.531-.327,6.545-2.908,6.545-2.908-3.265,3.208-12.464,8.167-16.938,10.906" transform="translate(45.06 35.679)" fill="#453638"/>
        <path id="Path_21001" data-name="Path 21001" d="M55.513,123.817c-2.311,1.537-4.992.124-7.393.928l-39.3.6c-2.59-1.535-5.453-.226-8.137-.788,10.649-1.451,21.37-.811,32.058-1.03,7.587-.155,15.184.176,22.776.29" transform="translate(0.138 25.041)" fill="#36292c"/>
        <path id="Path_21002" data-name="Path 21002" d="M383.578,164.245c-15.86-5.2-84.734-21.538-91.11-22.452-8.024-.955-15.857-2.288-24.568-1.56,2.066,2.117,3.96,1.434,5.64,1.69,6,.914,10.9,1.082,18.007,2.736,7.173,2.533,69.576,14.164,99.872,22.966-1.3-1.147-6.335-2.885-7.841-3.38" transform="translate(54.326 28.395)" fill="#3b2d30"/>
        <path id="Path_21003" data-name="Path 21003" d="M325.39,93.915c-.585-.3-6.724-8.553-12.285-11.363-1.821-1.514-3.57-3.192-6.247-2.789-2.726-.747-5.479-1.408-8.173-2.255-26.63-8.362-53.69,10.9-60.126,32.3a64.862,64.862,0,0,0-2.624,21.355c-7.746-5.1-15.277-5.273-23.378-.961,0-2,.019-3.436,0-4.875-.337-22.392-9.685-38.553-30.62-46.456a47.958,47.958,0,0,0-7.986-2.365,48.913,48.913,0,0,0-20.653-.47c-5.289,2.092-10.693,3.877-16.7,7.39,7.91-19.288,12.424-38.164,19.768-56.04,3.326-8.1,6.324-16.432,12.057-23.316l-1.7-.672c-4.122,5.03-6.423,11.046-9.034,16.875-7.614,17-12.522,34.962-18.692,52.475-2.467,7.005-5.74,13.211-11.728,18.045-6.17,4.978-9.842,11.9-12.159,19.438a47.933,47.933,0,0,1-5.154,11.329,46.007,46.007,0,0,0-6.965,19.6c-.7,6.693-.616,6.7-7.159,7.036-.016,1.715,1.319,1.006,2.143,1.178,1.333.279,2.833-.57,4.039.592.09,3.274-.232,6.626.385,9.8.63,3.239-.3,4.017-3.383,4.522-22.276,3.656-44.387,8.116-66.069,14.5-9.342,2.65-18.418,5.938-26.8,10.928,9.2-3.661,18.659-6.583,27.9-10.089,19.506-4.916,39.041-9.684,58.928-12.863,9.809-1.567,9.739-1.641,12.516,7.8.666,2.261.273,3.6-1.923,4.638-27.5,13.039-52.178,30.6-76.94,48.034-.838.591-2.127.878-2.278,2.313,1.947.5,2.863-.985,4-1.77,8.731-6.007,17.324-12.217,26.128-18.112,15.864-10.623,32.022-20.77,49.284-29.024,1.445-.69,2.825-2.1,4.31.558,9.787,17.5,23.048,31.442,41.64,39.771a18.27,18.27,0,0,1,2.6,1.727l1.873.763c5.391,4.644,12.26,5.592,18.786,7.148,3.169.755,6.477,2.249,9.93.974-.267-2.048-.363-2.052-3.41-2.572-24.641-4.209-45.4-15.226-61.186-34.949a73.293,73.293,0,0,1-8.514-12.614c-1.107-2.19-.716-3.558,1.666-4.524,2.4-.972,4.923-1.891,6.514-4.162a6.312,6.312,0,0,0-3.047.714c-7.615,3.569-7.331,3.5-9.548-4.8-1-3.755.622-4.127,3.345-4.3,3.732-.239,7.491-.332,11-2.053a48.667,48.667,0,0,0-10.862.694c-3.846.769-5.013-.511-5.07-4.3-.134-9.085-.278-9.044,8.714-9.033,2.9,0,5.5-.148,7.046,3.249,4.211,9.248,11.751,15.261,20.345,20.2,20.107,11.554,45.131,7.385,59.794-10.12a54.984,54.984,0,0,0,12.065-25.184c.5-2.573.723-5.266,3.418-6.973a14.88,14.88,0,0,1,22.646,8.636c6.991,26.886,31.147,43.038,58.223,38.933.039-1.321-1-1.472-1.916-1.755-7.658-.013-15.272-.391-22.51-3.228-19.065-7.475-29.817-21.808-32.433-41.716-2.136-16.256,3.059-30.5,15.778-41.36,15.717-13.427,33.205-15.222,52-7.333,3.984,1.009,7.9,2.081,10.788,5.349.435-.079,5.643,6.8,5.92,6.455-1.317-1.428,3.045.506,1.727-.921M132.573,88.944a88.378,88.378,0,0,1-6.5,10.577c-2.54,3.47-4.56,6.062-7.306,9.368-.7.837-1.815,1.679-1.479.806a25.752,25.752,0,0,1,1.479-3.674c2.42-6.722,7.184-12.5,12.55-17.077.759-.648,1.755-.92,1.254,0" transform="translate(1.246 0.688)" fill="#36292c"/>
        <path id="Path_21004" data-name="Path 21004" d="M290.13,315.223c-1.151,1.807.208,3.136.962,4.49,3.89,6.979,3.318,13.821-.931,20.3a39.293,39.293,0,0,1-19.752,15.449,17.331,17.331,0,0,1-4.826.855c-3.866.285-6.214-1.344-7.216-5.144-.372-1.411-.013-3.489-2.351-3.747-6.147.252-8.587-3.15-6.519-9.187,3.671-10.72,8.334-21.023,13.039-31.319,5.494-12.019,14.9-18.149,27.877-19.249,1.179-.1,2.8.781,3.368-1.179-7.627-3.072-14.106.984-20.993,3.629.738-2.74,2.526-4.753,2.875-7.324,1.847-3.1,3.7-6.21,5.823-9.781-2.689.431-3.074,2.256-3.887,3.5-12.142,18.588-21.272,38.661-28.891,59.441-1.38,3.76-2.814,5.232-7.033,3.549a28.394,28.394,0,0,0-15.554-1.423c2.564,1.564,4.39,1.286,6.081,1.329a38.722,38.722,0,0,1,12.606,2.776,5.613,5.613,0,0,1,3.563,3.169c1.819,4.59-3.984,14.645-8.95,15.227-2.8.327-4.68-.483-3.625-4.1.585-2.01,1.543-4.245.066-7.343-.615,2.753-1,4.61-1.448,6.452a9.649,9.649,0,0,1-3.223,5.743,5.2,5.2,0,0,1-5.878.556c-2.282-1.146-.824-2.876-.6-4.308.492-3.114,1.2-6.194.443-10.1-2.034,3.183-1.2,6.163-1.832,8.849-1.342,5.689-2.81,6.9-8.6,6.6-3.874-.659-3.693-5.644-3.642-9.228.194-14.063,1.773-28.027,3.3-41.974,2.084-18.979,6.268-37.64,9.187-56.5-3.48,1.56-2.342,4.942-2.835,7.569-5.274,28.117-9.56,56.371-11.4,84.947-1.309-.435-3.833-.114-5.41-.209-2.563-.124-5.914,1.665-6.262-3.211-.8-11.17-1.661-22.34-2.819-33.478-.606-5.818-1.242-11.705-3.152-17.646a2.263,2.263,0,0,0-.683,2.537c2.865,17.408,4.168,34.984,5.583,52.546.29,3.589.4,7.207-.931,10.635-.921,2.366-2.491,4.07-5.364,3.919a5.245,5.245,0,0,1-5.216-4.106,48.182,48.182,0,0,1-.9-4.819c-.351-2.057-.678-4.12-1.015-6.18l-1.3.192c.34,3.029.647,6.062,1.037,9.085.2,1.569,1.3,3.4-.627,4.437a5.193,5.193,0,0,1-5.9-.511c-1.752-1.351-2.361-3.308-3.091-5.306-.723-1.975-.048-4.472-2.052-6.176-.384,2.553-.384,2.553.455,6.3.3,1.358,1.34,3.025-.5,4.02a4.714,4.714,0,0,1-4.737-.147,15.7,15.7,0,0,1-7.034-9.5c-1.39-4.688-.229-7,4.391-8.7a47.4,47.4,0,0,1,8.231-2.048c2.759-.482,5.734-.077,8.28-1.684-5.352-.268-10.708-.378-15.688,1.863-3,1.35-4.067.353-5.126-2.511A335.964,335.964,0,0,0,136.691,287c-2.865-5.026-5.788-10.026-9.759-14.308.785,3.925,3.791,6.615,5.274,10.126-.058,3.251,2.59,5.435,3.7,8.791a21.893,21.893,0,0,0-17.274-.969c-1.529.532-3.653.611-3.665,3.065,1.559,1.689,2.7-.15,3.914-.568,9.961-3.429,19.564.363,24.287,9.7A343.538,343.538,0,0,1,158.028,337.3c.936,2.495,1.592,4.833-.39,7.1-.822.938.434,3.524-2.22,2.96-2.056-.437-1.6-2.235-1.607-3.661-.02-3.649-.7-7.069-3.229-10,.873,4.925,2.753,9.722,1.125,14.765-.6,1.525-2.3,2.514-2.126,4.41.014.058.031.113.048.169-3.484,1.1-6.113,3.735-9.326,5.321a1.1,1.1,0,0,0-.226-.427,9.944,9.944,0,0,0-3.522-1.863c-10.043-4.145-18.184-14.786-15.376-27.592a5.69,5.69,0,0,0,.108-3.083c-.315-.888-1.071-.812-1.689-.112-2.309,3.892-1.716,8.233-1.926,12.45.547,1.529,1.1,3.056,1.639,4.586,3.316,9.37,12.361,16.69,20.838,16.862,4.743.569,8.238-1.358,10.7-5.346.486-.742.984-1.475,1.453-2.226.706-1.134.432-3.144,2.734-2.812,1.9.272,2.656,1.44,3.326,3.112,1.795,4.479,5.829,10.254,10.864,9.187,5.526-1.17,6.119,2.61,8.525,2.61a22.8,22.8,0,0,0,5.034-.631,4.562,4.562,0,0,1,3.812.26c5.664,2.408,9.705.045,11.217-5.972.645-2.567-1.063-6.191,1.365-7.489,2.225-1.189,5.5-.417,8.308-.514.195-.006,1.064.068,1.727.113l0,.027a43.619,43.619,0,0,0,.237,6.168c.6,3.412.846,7.191,5.182,8.341a90.312,90.312,0,0,0,15.4-.749c2.983-.3,6.111-1.3,9.426-1.5,5.978-.361,8.163-5.366,9.957-10.183.729-1.962,1.684-2.991,3.765-3.072,2.313-.089,2.02,1.84,2.418,3.108,2.047,6.52,5.922,8.964,12.555,7.116,13.123-3.658,22.628-11.574,27.58-24.519-.451-1.817.256-3.515.478-5.274.72-5.735-.818-10.575-6.08-13.707" transform="translate(23.314 51.757)" fill="#36292c"/>
        <path id="Path_21005" data-name="Path 21005" d="M279.891,140.964c1.641,2.113,4.468-.13,6.189,1.686-5.295-.6-8.958,1.305-12.422,5.7A39.632,39.632,0,0,1,247.491,163.3l-1.957-.833c.784-2.407,3.094-1.964,4.821-2.495a46.386,46.386,0,0,0,22.97-15.338c-2.715.224-4.922.5-7.054-.255a2.119,2.119,0,0,1-1.658-1.91c.03-1.073,1.062-1.3,1.931-1.519a6.323,6.323,0,0,1,2.225-.208c6.248.7,9.56-2.522,11.74-8.048,3.523-8.926,5.767-17.92,3.66-27.546-.184-4.385-.091-7-1.775-11.69-1.721-7.274-6.352-11.656-8.517-14.917.144-.71,1.489-.593,2.359-.389,6.163,6.234,8.662,14.245,10.859,22.4,1.23,2.8,1.246,5.858,1.851,8.79.366,11.507-1.878,22.273-9.053,31.624" transform="translate(49.79 15.816)" fill="#3b2d30"/>
        <path id="Path_21006" data-name="Path 21006" d="M280.99,105.79a42.343,42.343,0,0,0-.9-9.043,56.34,56.34,0,0,1,9.983,18.386c1.65,5.3,1.762,11.155,1.659,16.847-.032,1.758-.384,3.628.967,5.148l-3.738-.1c-1.837-3.222-1.6-6.884-2-10.361a75.721,75.721,0,0,0-5.963-20.879" transform="translate(56.797 19.619)" fill="#8e766f"/>
        <path id="Path_21007" data-name="Path 21007" d="M374.662,132.539s-83.022-2.181-84.466-2.14c-5.172.136-10.6-1.986-15.7-.315-.973.991-.427,1.546.6,1.739,1.714.322,3.507-.255,5.207.393l13.577.188c5.989-.056,102.079,2.521,109.132,3.553,0-.6-12.563-1.465-12.563-2.064l-15.794-1.354m0,0a1.761,1.761,0,0,1-.883.266l.883-.266" transform="translate(55.56 26.248)" fill="#372a2d"/>
        <path id="Path_21008" data-name="Path 21008" d="M149.138,72.589c-8.375-.7-14.135-2.033-20.653-.469,3.517-13.849,6.47-27.853,10.967-41.432,1.056-3.191,1.259-7.644,5.949-7.977,4.442-.315,5.648,3.691,7.553,6.645,7.066,10.961,11.861,23.061,17.538,34.721,1.68,3.45.629,5.23-2.9,5.256-6.363.049-12.3,2.181-18.452,3.256" transform="translate(26.055 4.602)" fill="#c5531c"/>
        <path id="Path_21009" data-name="Path 21009" d="M249.626,66.248c-12.162-.681-24.323-1.412-36.49-2.012-3.536-.174-4-1.552-2.492-4.491,5.716-11.133,12.621-21.557,19.1-32.236.894-1.475,2.024-3.021,4.116-3.083,3.956.648,6.256,3.558,7.966,6.645A138.271,138.271,0,0,1,254.236,59.69c1.733,6.02,1.369,6.425-4.61,6.558" transform="translate(42.55 4.953)" fill="#c5531c"/>
        <path id="Path_21010" data-name="Path 21010" d="M267.343,82.678,261.1,79.889a128.73,128.73,0,0,0-6.811-24.378c-5.26-13.576-10.43-27.188-15.683-40.766a42.227,42.227,0,0,0-6.791-11.7c2.781-.9,3.975.646,5.111,2.452,5.342,8.508,8.99,17.8,12.711,27.076,6.6,16.46,10.358,33.92,17.71,50.109" transform="translate(47.007 0.563)" fill="#8d756e"/>
        <path id="Path_21011" data-name="Path 21011" d="M245.576,66.3c5.259-.61,4.834-3.644,3.54-7.541a178.13,178.13,0,0,0-11.109-25.743,21.7,21.7,0,0,0-8.2-8.539c2.627-.995,4.419.465,5.752,2.324a99.957,99.957,0,0,1,16.155,36.58c1,4.42.064,4.738-6.137,2.919" transform="translate(46.601 4.899)" fill="#42302f"/>
        <path id="Path_21012" data-name="Path 21012" d="M173.738,59.35c1.518-1.819,4.192-2.432,7.136-3.489,7.149-1.132,14.317-.657,21.483-.235.192,1.976.165,2.181-2.187,1.854a65.994,65.994,0,0,0-19.3.147,20.256,20.256,0,0,0-9.757,5.47c.546-2.214,1.531-2.622,2.621-3.747" transform="translate(34.7 11.185)" fill="#3b2d30"/>
        <path id="Path_21013" data-name="Path 21013" d="M169.086,71.2a30.933,30.933,0,0,1,21.034-12,67.944,67.944,0,0,0-21.034,12" transform="translate(34.288 12.006)" fill="#3b2d30"/>
        <path id="Path_21014" data-name="Path 21014" d="M180.621,51.943c6.109-2.825,12.069-1.779,17.9,1.206-5.912-.834-11.754-2.937-17.9-1.206" transform="translate(36.627 10.197)" fill="#3b2d30"/>
        <path id="Path_21015" data-name="Path 21015" d="M266.35,305.41c3.652,3.885,4.209,6.7,4.585,10.925a22.485,22.485,0,0,1-6.476,18.287c-6.028,6.37-12.629,11.911-21.728,13.014-6.169.747-8.409-1.149-9.521-7.211-.184-1,.081-2.126-.973-2.816,2.031-7.112,3.392-14.4,7.712-20.749,4.157-6.11,8.855-10.978,16.4-12.829,3.754-.921,6.012-.207,10,1.378" transform="translate(47.094 61.569)" fill="#8a736c"/>
        <path id="Path_21016" data-name="Path 21016" d="M126.444,324.5c3.047-4.8,7.651-5.2,12.508-4.057,4.254,1,8.054,6.2,8.405,10.965a47.407,47.407,0,0,1-.118,4.869c-.925,4.838-3.846,7.338-8.518,7.289-6.311-.066-12.916-5.309-14.469-11.446-.754-2.984-.417-5.621,2.193-7.619" transform="translate(25.125 64.871)" fill="#36292c"/>
        <path id="Path_21017" data-name="Path 21017" d="M129.222,186.355a149.657,149.657,0,0,0,28.716,8.124c-7.339,6.17-15.6,8.572-25.107,6.393-1.641-.377-2.936-.639-2.715-2.617.45-4.029-.941-7.907-.895-11.9" transform="translate(26.204 37.79)" fill="#8a736c"/>
        <path id="Path_21018" data-name="Path 21018" d="M164.158,216.432c4.324-.046,4.448,3.933,5.011,6.321,3.356,14.239,7.91,28.125,11.875,42.182a7,7,0,0,1-1.684,6.583c-1.3,1.578-3.193,2.474-4.123-.624,1.641-2.835-.128-5.485-.68-8.079-3.113-14.63-6.546-29.189-10.082-43.725a13.263,13.263,0,0,1-.318-2.657" transform="translate(33.288 43.889)" fill="#8b746d"/>
        <path id="Path_21019" data-name="Path 21019" d="M127.493,325.782c-4.58,7.86,2.4,17.254,12.347,17.883,4.391.278,6.627-2.691,8.448-6.107l2.657-.929c.091,1.75-1.107,3-1.737,4.472-2.863,2.6-5.641,4.883-9.9,5-12.882,0-21.2-13.414-20.553-25.784a24.071,24.071,0,0,1,1.093-5.226c.307-1.08,2.063-1.626.671-1.526-.364.446,1.8-.1,1.239,2.073-.841,3.24.927,5.245,2.383,7.537-.422.533-1.356,1.141-1.133,1.6.47.978,1.439.2,2.2.14l2.278.862" transform="translate(24.075 63.584)" fill="#8b746d"/>
        <path id="Path_21020" data-name="Path 21020" d="M132.338,278.167a61.246,61.246,0,0,1,6.162,11c-8.292-4.022-15.91-5.035-23.4-.112-1.768-1.877-.154-2.975,1.052-3.963,4.157-3.406,8.51-6.39,14.3-5.995.6.041,1.254-.6,1.884-.929" transform="translate(23.182 56.408)" fill="#8b736c"/>
        <path id="Path_21021" data-name="Path 21021" d="M267.506,281.945a35.9,35.9,0,0,0-22.964,6.046,24.884,24.884,0,0,1,4.845-9.741c4.129.082,8.191-1.426,12.421.01,2.321.788,4.468,1.4,5.7,3.685" transform="translate(49.589 56.3)" fill="#8b746d"/>
        <path id="Path_21022" data-name="Path 21022" d="M164.284,216.432c2.984,7.457,4.077,15.405,5.961,23.145,2.308,9.491,4.429,19.029,6.5,28.577.192.884,1.842,3.26-1.377,2.739-2.742-15.791-7.052-31.233-10.4-46.887-.52-2.431-2.478-4.886-.677-7.574" transform="translate(33.163 43.889)" fill="#36292c"/>
        <path id="Path_21023" data-name="Path 21023" d="M185.74,122.9a5.661,5.661,0,0,0,.858-.782c1.591-2.135,3.317-5.293,6.239-3.238,2.553,1.795,1.012,5.085-.338,7.3A42.72,42.72,0,0,1,186.848,133c-1.113,1.179-2.242.914-3.251-.574a25.542,25.542,0,0,1-4.168-9.755c-.278-1.517-.765-3.5,1.382-4.164,1.852-.573,2.51,1.007,3.269,2.321.414.719.453,1.787,1.66,2.065" transform="translate(36.334 23.971)" fill="#36292c"/>
        <path id="Path_21024" data-name="Path 21024" d="M206.308,246.669c-4.805,5.879-8.092,12.568-11.188,20.578-.468-6.158,5.439-16.858,11.188-20.578" transform="translate(39.562 50.02)" fill="#36292c"/>
        <path id="Path_21025" data-name="Path 21025" d="M128.782,317.1c-.126,2.137-1.151,3.174-3.086,3.241s-3.168-.823-3.161-2.837a2.9,2.9,0,0,1,2.947-3.215,3.3,3.3,0,0,1,3.3,2.811" transform="translate(24.848 63.733)" fill="#3d2f31"/>
        <path id="Path_21026" data-name="Path 21026" d="M196.148,253.506c.3-4.5,5.4-11.016,10.4-13.2-3.507,4.366-7.52,8.339-10.4,13.2" transform="translate(39.775 48.731)" fill="#36292c"/>
        <path id="Path_21027" data-name="Path 21027" d="M134.424,314.817c-.214,1.321-.67,2.451-2.2,2.264a2.314,2.314,0,0,1-2.217-2.754,2.221,2.221,0,0,1,4.414.491" transform="translate(26.358 63.339)" fill="#3d2f31"/>
        <path id="Path_21028" data-name="Path 21028" d="M124.861,323.3c-.336,1.928-1.542,2.3-3.2,1.733a1.555,1.555,0,0,1-1.175-1.643c.243-2.073,1.832-1.886,3.305-1.834q.536.872,1.07,1.744" transform="translate(24.43 65.201)" fill="#3c2e30"/>
        <path id="Path_21029" data-name="Path 21029" d="M294.6,107.615c1.125,10.975-2.181,23.845-8.036,34.418-.849,1.534-2.385,1.58-3.813,1.7-2.89.232-5.791.337-9.509.539,3.477,2.7,7,.5,10.284,2.027-7.219,10.121-17.156,15.471-28.9,17.99-16.418,1.132-30.827-3.735-41.828-16-12.806-14.273-17.006-31.264-10.96-49.652,6.191-18.828,18.82-29.207,37.906-32.4,9.139-1.528,20.5-.7,28.915,3.561,2.944,2.7,3.533,7.824,4.526,11.367a75.323,75.323,0,0,0,14.343,20.065c2.62,2.531,5.488,2.942,7.072,6.382" transform="translate(40.378 13.288)" fill="#b4958f"/>
        <path id="Path_21030" data-name="Path 21030" d="M95.531,101.813c.386,8.648.864,16.513,4.013,23.9.769,1.8-.039,2.224-1.791,2.4-10.19,1.012-11.262-.106-9.267-10.04a40.653,40.653,0,0,1,7.046-16.253" transform="translate(17.776 20.646)" fill="#b2948e"/>
        <path id="Path_21031" data-name="Path 21031" d="M191.867,103.572C188.7,83.387,170.513,66.52,150.1,65.689A32.569,32.569,0,0,0,138.555,68.8c-2.434,1.172-4.258,1.728-4.127-2.053.016-.427-.425-.742-.877-.88-2.919,1.133-5.846,2.246-8.754,3.405a17.8,17.8,0,0,0-10.663,10.6,42.13,42.13,0,0,1-11.356,16.511c-6.438,5.55-7.616,12.571-6.95,20.274.319,3.694,1.322,7.329,2,10.995.906,4.925,2.842,8.759,8.772,8.547.537-.019,1.2.184.976,1.193-1.715,1.126-3.726-.986-5.656.4,5.825,12.579,16.014,20.35,28.685,24.715,17.467,6.016,33.5,2.878,46.71-10.31,13.469-13.447,17.49-29.922,14.555-48.629" transform="translate(19.399 13.321)" fill="#b4958f"/>
        <path id="Path_21032" data-name="Path 21032" d="M143.992,65.909c-4.292,1.6-8.575,3.225-12.882,4.78-1.052.379-3.484,2.009-4.625,1.086-1.192-.965-.8-1.618.409-3.991.236-.463-.2.407,1.672-2.006,5.5-2.054,9.9-1.012,15.426.131" transform="translate(25.503 13.101)" fill="#b95221"/>
        <path id="Path_21033" data-name="Path 21033" d="M282.2,104.265c3.221,2.431,4.11,6.3,5,9.731,1.825,7,3.2,14.174,2.966,21.509l-16.075.131c3.2-7.431,7.016-14.658,7.534-22.97.176-2.8.381-5.6.573-8.4" transform="translate(55.582 21.143)" fill="#b4958f"/>
        <path id="Path_21034" data-name="Path 21034" d="M280.08,95.263c-.7-.666,0,0-1-.983-5.242-5.159-11.512-14.053-14.136-21a21.09,21.09,0,0,0-8.012-4.2A69.944,69.944,0,0,0,282.876,106.9c-1-5.955-1.705-7.167-2.8-11.632" transform="translate(52.102 14.008)" fill="#8f7770"/>
        <path id="Path_21035" data-name="Path 21035" d="M235.886,330.948c.156-3.436,2.553-8.041,7.319-11.25,3.177-2.139,6.633-2.831,10.009-.426,3.489,2.486,4.047,6.176,3.264,10.013-1.105,5.41-7.7,10.813-13.217,11.162-5.77.364-7.573-1.381-7.375-9.5" transform="translate(47.831 64.435)" fill="#36292c"/>
        <path id="Path_21036" data-name="Path 21036" d="M261.168,314.56a5.215,5.215,0,0,1-4.879,4.536c-1.43.143-3.089-.29-2.765-1.951.524-2.691,2.057-4.96,5.13-5.31,1.559-.177,2.437.81,2.514,2.726" transform="translate(51.402 63.23)" fill="#36292c"/>
        <path id="Path_21037" data-name="Path 21037" d="M250.854,308.339c1.789.467,2.679,1.6,2.5,3.292-.235,2.26-1.4,4.106-3.762,4.366-1.95.214-2.491-1.417-2.273-3.062.289-2.182,1.273-3.944,3.531-4.6" transform="translate(50.144 62.526)" fill="#36292c"/>
        <path id="Path_21038" data-name="Path 21038" d="M261.239,321.747a3.94,3.94,0,0,1-3.063,3.309c-1.134.224-1.9-.644-2-1.842a2.637,2.637,0,0,1,2.4-3.114c1.257-.215,2.352.077,2.667,1.647" transform="translate(51.944 64.898)" fill="#36292c"/>
        <path id="Path_21039" data-name="Path 21039" d="M180.941,120.028a10.408,10.408,0,0,1,1.167.947c1.259,1.571.791,4.773,3.1,4.951,2.157.167,1.878-3.023,3.239-4.319.722-.687,1.283-2.016,2.462-1.52,1.514.637.755,2.1.483,3.126-.759,2.848-2.833,4.832-4.881,6.8-1.186,1.139-2.213.783-2.863-.5-1.453-2.878-3.353-5.653-2.709-9.48" transform="translate(36.665 24.329)" fill="#b1938d"/>
        <path id="Path_21040" data-name="Path 21040" d="M179.443,336.139c-.213-1.334-1.49-1.394-2.351-1.924-4-2.462-4.35-5.932-.463-8.3,2.254-1.372,5.159-3.8,7.64-1.9,2.8,2.139,1.33,10.359-1.583,12.129Z" transform="translate(35.263 65.563)" fill="#3c2f32"/>
        <path id="Path_21041" data-name="Path 21041" d="M144.1,275.6c3.949.723,8.279,1.144,9.358,6.228s-2.2,7.48-6.268,9.207a31.763,31.763,0,0,0-4.389,1.957c-2.674,1.653-4.32.684-5.565-1.807-.4-.8-.806-1.593-1.236-2.374-1.771-3.219-5.847-7.036-3.5-9.9,2.161-2.64,7.3-3.029,11.6-3.308" transform="translate(26.725 55.887)" fill="#372a2d"/>
        <path id="Path_21042" data-name="Path 21042" d="M209.587,293.775c-11.254-.68-12.962-3.918-8.393-13.453.913-1.905,2.088-1.628,3.429-1.5a36.112,36.112,0,0,1,11.921,3.074c2.241,1.056,4.7,2.181,4.2,5.457a7.218,7.218,0,0,1-5.729,6.326,20.614,20.614,0,0,1-5.432.091" transform="translate(40.321 56.522)" fill="#372b2d"/>
        <path id="Path_21043" data-name="Path 21043" d="M209.658,315.468c-2.682-.236-4.64-.391-6.594-.583-7.521-.741-9.322-3.877-6.169-10.618.421-.9,1-1.584,1.924-1.624,5.624-.241,11.157.132,15.76,3.888a4.122,4.122,0,0,1,1.133,5.355c-1.406,2.643-4.193,3.059-6.055,3.582" transform="translate(39.627 61.359)" fill="#382b2e"/>
        <path id="Path_21044" data-name="Path 21044" d="M185.482,56.511c2.694.589,4.9-2.228,7.686-.989,2.649,4.787.586,9.581.022,14.373-.848,2.557-1.358,5.576-5.034,5.674-3.923.106-4.431-3.341-5.9-5.719-2.492-3.545-1.632-7.412-1.031-11.18.348-2.176,1.831-3.205,4.257-2.159" transform="translate(36.619 11.194)" fill="#3a2d30"/>
        <path id="Path_21045" data-name="Path 21045" d="M179.848,68.723c-1.054,1.712-2.4,3.092-4.455,2.23-3.237-1.356-3.5-4.663-3.925-7.667-.263-1.857.255-3.569,2.467-3.818,1.962-.22,3.162-4,5.729-1.357,1.645,3.506,1.362,7.049.184,10.611" transform="translate(34.758 11.594)" fill="#3a2d2f"/>
        <path id="Path_21046" data-name="Path 21046" d="M194.314,57.371c2.55-2,5.272-2.8,6.989.751,2.078,4.292.64,10.675-2.188,11.845-1.811.749-3.182.379-3.821-1.724-.407-1.34-.688-2.723-1.026-4.087-.674-2.267-1.358-4.535.046-6.785" transform="translate(39.237 11.288)" fill="#3b2e31"/>
        <path id="Path_21047" data-name="Path 21047" d="M157.722,304.561c-2.546.877-4.4,1.534-6.259,2.154-7.17,2.386-10.091.256-9.96-7.184a2.325,2.325,0,0,1,1.1-2.267c5.04-2.511,10.244-4.425,15.978-2.869a4.121,4.121,0,0,1,3.216,4.429c-.207,2.985-2.582,4.5-4.07,5.737" transform="translate(28.693 59.584)" fill="#382b2e"/>
        <path id="Path_21048" data-name="Path 21048" d="M185.765,148.185a7.985,7.985,0,0,1-2.027-6.141c.161-4.115.045-8.24.546-12.38,1.993,1.26,1.392,2.973,1.336,4.538-.06,1.695-1.845,10.66,1.089,11.987,2.893,1.31,5.746-.3,8.214-2.139,2.324-1.733,3.424-4.355,5.048-6.574-.154,5.948-8.121,12.485-14.206,10.71" transform="translate(37.257 26.293)" fill="#3a2d30"/>
        <path id="Path_21049" data-name="Path 21049" d="M168.06,111.507c-1.744.42-3.656.808-4.46-1.149-.842-2.05,1-2.942,2.5-3.818,4.706-2.752,4.818-3.376,1.019-7.4-3.219-3.41-15.133-6.826-15.7-6.826-2.177.674-2.826,2.046-1.937,4.162a15.487,15.487,0,0,1,.737,7.5c-.426,4.886-3.784,7.14-8.54,5.962-1.829-.452-3.6-1.88-5.619-.559V116.2c1.054.563,2.484-.562,3.567.739-.352.391-.555.767-.868.933-1.127.6-1.971,1.386-1.157,2.669,1.093,1.725,1.82-.065,2.653-.452,1.123-.522,1.952-2,3.654-1.186-.7,2.005-2.6,2.349-3.794,3.468-.832.779-1.785,1.451-1.039,2.852,2.719,5.1,5.84,9.834,11.855,11.452,6.145,1.653,11.495,0,15.991-4.412,4.4-4.324,5.908-9.85,6.475-15.788.523-5.474-.176-6.208-5.332-4.969m-17.87,15.05c-1.323-.019-2.194-.623-1.921-2.062a2.319,2.319,0,0,1,2.415-1.958c1.324.227,1.686,1.161,1.749,2.4.088,1.75-1.125,1.641-2.243,1.623m6.153,5.568c-1.177-.073-2.273-.654-2.25-2.051a1.884,1.884,0,0,1,2.161-2.032c1.4.078,1.809,1.11,2.028,2.026-.119,1.454-.852,2.123-1.939,2.057m7.016-7.357a3.7,3.7,0,0,1-4.141-3.824c-.126-2.276,1.434-3.517,3.522-3.9,2.645-.037,3.666,1.6,3.849,3.724.189,2.189-.646,3.917-3.229,4" transform="translate(27.59 18.719)" fill="#3a2d30"/>
        <path id="Path_21050" data-name="Path 21050" d="M246.523,115.328c-5.059,1.513-9.035-.736-10.274-5.858-.722-2.983-.838-5.977.7-8.695,1.819-3.207.162-3.54-2.481-3.512a19.288,19.288,0,0,0-14.02,6.137c-3.732,3.808-3.576,4.682.976,7.412,1.467.882,3.375,1.694,2.621,3.774-.744,2.054-2.8,1.606-4.448,1.286-5.612-1.09-5.669-1.114-5.4,4.743a25.133,25.133,0,0,0,.839,5.89c2.207,7.553,6.428,13.375,14.673,14.844,7.916,1.411,13.16-2.6,17.3-8.981,2.028-3.127,2.259-5.227-1.34-7.037-.832-.419-2.2-.794-1.669-2.4,2.43-.223,3.454,2.492,5.662,2.545a2.04,2.04,0,0,0-.449-3c-1.822-1.657-1.566-2.193.906-1.789.425.069,1-.79,1.507-1.221V115.2c-1.741-1.661-3.435-.369-5.1.129m-22.148,13.683c-2.27.054-3.409-1.122-3.438-3.334-.031-2.424,1.109-3.969,3.365-4.459,2.41.4,4.043,1.625,4.076,3.848.036,2.4-1.436,3.884-4,3.945m7.081,7.467c-1.129-.046-1.948-.5-2.022-1.71a2.068,2.068,0,0,1,1.745-2.491,1.894,1.894,0,0,1,2.3,1.906c.152,1.357-.812,2-2.022,2.295m5.782-5.615c-1.235-.03-2.222-.453-2.071-1.976a1.8,1.8,0,0,1,2.218-1.9,2.015,2.015,0,0,1,1.963,2.279c-.034,1.158-1.038,1.62-2.11,1.594" transform="translate(43.419 19.723)" fill="#3a2d30"/>
    </g>
</svg>
